<?xml version="1.0" encoding="us-ascii" standalone="no"?><svg xmlns="http://www.w3.org/2000/svg" xmlns:xlink="http://www.w3.org/1999/xlink" contentStyleType="text/css" height="2414px" preserveAspectRatio="none" style="width:1610px;height:2414px;background:#FFFFFF;" version="1.1" viewBox="0 0 1610 2414" width="1610px" zoomAndPan="magnify"><defs><filter height="300%" id="f1o02700bunyl5" width="300%" x="-1" y="-1"><feGaussianBlur result="blurOut" stdDeviation="2.0"/><feColorMatrix in="blurOut" result="blurOut2" type="matrix" values="0 0 0 0 0 0 0 0 0 0 0 0 0 0 0 0 0 0 .4 0"/><feOffset dx="4.0" dy="4.0" in="blurOut2" result="blurOut3"/><feBlend in="SourceGraphic" in2="blurOut3" mode="normal"/></filter></defs><g><text fill="#000000" font-family="Verdana" font-size="22" font-weight="bold" lengthAdjust="spacing" textLength="887" x="360.25" y="37.1182">Track Order &amp; Delivery - Detailed Sequence Diagram (Developer View)</text><text fill="#000000" font-family="Verdana" font-size="22" font-weight="bold" lengthAdjust="spacing" textLength="366" x="620.75" y="63.8555">Online Food Ordering System</text><rect fill="#FFFFFF" filter="url(#f1o02700bunyl5)" height="2086.8608" style="stroke:#000000;stroke-width:1.0;" width="10" x="513.5" y="236.0879"/><rect fill="#FFFFFF" filter="url(#f1o02700bunyl5)" height="34.2993" style="stroke:#000000;stroke-width:1.0;" width="10" x="764.5" y="636.2163"/><rect fill="#FFFFFF" filter="url(#f1o02700bunyl5)" height="168.7959" style="stroke:#000000;stroke-width:1.0;" width="10" x="925" y="796.2129"/><rect fill="#FFFFFF" filter="url(#f1o02700bunyl5)" height="1418.5386" style="stroke:#000000;stroke-width:1.0;" width="10" x="1110" y="905.4102"/><rect fill="#FFFFFF" filter="url(#f1o02700bunyl5)" height="89.3979" style="stroke:#000000;stroke-width:1.0;" width="10" x="1313" y="1296.3706"/><rect fill="#FFFFFF" filter="url(#f1o02700bunyl5)" height="29.7993" style="stroke:#000000;stroke-width:1.0;" width="10" x="1483.5" y="994.8081"/><rect fill="#FFFFFF" filter="url(#f1o02700bunyl5)" height="29.7993" style="stroke:#000000;stroke-width:1.0;" width="10" x="1483.5" y="1099.5747"/><rect fill="#FFFFFF" filter="url(#f1o02700bunyl5)" height="29.7993" style="stroke:#000000;stroke-width:1.0;" width="10" x="1483.5" y="1612.3638"/><rect fill="#FFFFFF" filter="url(#f1o02700bunyl5)" height="29.7993" style="stroke:#000000;stroke-width:1.0;" width="10" x="1483.5" y="1726.561"/><rect fill="#FFFFFF" filter="url(#f1o02700bunyl5)" height="29.7993" style="stroke:#000000;stroke-width:1.0;" width="10" x="1483.5" y="1970.1563"/><rect fill="#FFFFFF" filter="url(#f1o02700bunyl5)" height="29.7993" style="stroke:#000000;stroke-width:1.0;" width="10" x="1483.5" y="2029.7549"/><rect fill="#FFFFFF" filter="url(#f1o02700bunyl5)" height="178.5332" rx="6" ry="6" style="stroke:#000000;stroke-width:1.0;" width="636.5" x="14" y="360.2852"/><path d="M14,448.4824 L650.5,448.4824 L650.5,487.6504 A6,6 0 0 1 644.5,493.6504 L20,493.6504 A6,6 0 0 1 14,487.6504 L14,448.4824 " fill="#FFFFFF" style="stroke:none;stroke-width:1.0;"/><path d="M14,493.6504 L650.5,493.6504 L650.5,532.8184 A6,6 0 0 1 644.5,538.8184 L20,538.8184 A6,6 0 0 1 14,532.8184 L14,493.6504 " fill="#FFFFFF" style="stroke:none;stroke-width:1.0;"/><rect fill="#FFFFFF" filter="url(#f1o02700bunyl5)" height="116.1973" rx="6" ry="6" style="stroke:#000000;stroke-width:1.0;" width="840.5" x="211" y="596.6177"/><rect fill="#FFFFFF" filter="url(#f1o02700bunyl5)" height="417.5591" rx="6" ry="6" style="stroke:#000000;stroke-width:1.0;" width="1392.5" x="201" y="726.8149"/><rect fill="#FFFFFF" filter="url(#f1o02700bunyl5)" height="271.5625" rx="6" ry="6" style="stroke:#000000;stroke-width:1.0;" width="1372.5" x="211" y="865.8115"/><path d="M211,1032.6074 L1583.5,1032.6074 L1583.5,1131.374 A6,6 0 0 1 1577.5,1137.374 L217,1137.374 A6,6 0 0 1 211,1131.374 L211,1032.6074 " fill="#FFFFFF" style="stroke:none;stroke-width:1.0;"/><rect fill="#FFFFFF" filter="url(#f1o02700bunyl5)" height="307.7925" rx="6" ry="6" style="stroke:#000000;stroke-width:1.0;" width="1357.5" x="56" y="1202.1733"/><rect fill="#FFFFFF" filter="url(#f1o02700bunyl5)" height="246.1938" rx="6" ry="6" style="stroke:#000000;stroke-width:1.0;" width="1337.5" x="66" y="1256.772"/><rect fill="#FFFFFF" filter="url(#f1o02700bunyl5)" height="136.9966" rx="6" ry="6" style="stroke:#000000;stroke-width:1.0;" width="1372.5" x="211" y="1930.5576"/><rect fill="#FFFFFF" filter="url(#f1o02700bunyl5)" height="179.7959" rx="6" ry="6" style="stroke:#000000;stroke-width:1.0;" width="983.5" x="211" y="2136.1528"/><line style="stroke:#000000;stroke-width:1.0;" x1="258" x2="258" y1="160.4893" y2="2332.9487"/><line style="stroke:#000000;stroke-width:1.0;" x1="518.5" x2="518.5" y1="160.4893" y2="2332.9487"/><line style="stroke:#000000;stroke-width:1.0;" x1="769" x2="769" y1="160.4893" y2="2332.9487"/><line style="stroke:#000000;stroke-width:1.0;" x1="930" x2="930" y1="160.4893" y2="2332.9487"/><line style="stroke:#000000;stroke-width:1.0;" x1="1114.5" x2="1114.5" y1="160.4893" y2="2332.9487"/><line style="stroke:#000000;stroke-width:1.0;" x1="1317.5" x2="1317.5" y1="160.4893" y2="2332.9487"/><line style="stroke:#000000;stroke-width:1.0;" x1="1488.5" x2="1488.5" y1="160.4893" y2="2332.9487"/><text fill="#000000" font-family="Verdana" font-size="14" lengthAdjust="spacing" textLength="69" x="221" y="157.5498">Customer</text><ellipse cx="258.5" cy="88.4746" fill="#FFFFFF" filter="url(#f1o02700bunyl5)" rx="8" ry="8" style="stroke:#000000;stroke-width:1.0;"/><path d="M258.5,96.4746 L258.5,123.4746 M245.5,104.4746 L271.5,104.4746 M258.5,123.4746 L245.5,138.4746 M258.5,123.4746 L271.5,138.4746 " fill="none" filter="url(#f1o02700bunyl5)" style="stroke:#000000;stroke-width:1.0;"/><text fill="#000000" font-family="Verdana" font-size="14" lengthAdjust="spacing" textLength="69" x="221" y="2346.0239">Customer</text><ellipse cx="258.5" cy="2357.9634" fill="#FFFFFF" filter="url(#f1o02700bunyl5)" rx="8" ry="8" style="stroke:#000000;stroke-width:1.0;"/><path d="M258.5,2365.9634 L258.5,2392.9634 M245.5,2373.9634 L271.5,2373.9634 M258.5,2392.9634 L245.5,2407.9634 M258.5,2392.9634 L271.5,2407.9634 " fill="none" filter="url(#f1o02700bunyl5)" style="stroke:#000000;stroke-width:1.0;"/><rect fill="#FFFFFF" filter="url(#f1o02700bunyl5)" height="31.0146" rx="6" ry="6" style="stroke:#000000;stroke-width:1.0;" width="221" x="406.5" y="125.4746"/><text fill="#000000" font-family="Verdana" font-size="14" lengthAdjust="spacing" textLength="207" x="413.5" y="146.5498">Online Food Ordering System</text><rect fill="#FFFFFF" filter="url(#f1o02700bunyl5)" height="31.0146" rx="6" ry="6" style="stroke:#000000;stroke-width:1.0;" width="221" x="406.5" y="2331.9487"/><text fill="#000000" font-family="Verdana" font-size="14" lengthAdjust="spacing" textLength="207" x="413.5" y="2353.0239">Online Food Ordering System</text><rect fill="#FFFFFF" filter="url(#f1o02700bunyl5)" height="31.0146" rx="6" ry="6" style="stroke:#000000;stroke-width:1.0;" width="92" x="722" y="125.4746"/><text fill="#000000" font-family="Verdana" font-size="14" lengthAdjust="spacing" textLength="78" x="729" y="146.5498">Restaurant</text><rect fill="#FFFFFF" filter="url(#f1o02700bunyl5)" height="31.0146" rx="6" ry="6" style="stroke:#000000;stroke-width:1.0;" width="92" x="722" y="2331.9487"/><text fill="#000000" font-family="Verdana" font-size="14" lengthAdjust="spacing" textLength="78" x="729" y="2353.0239">Restaurant</text><rect fill="#FFFFFF" filter="url(#f1o02700bunyl5)" height="31.0146" rx="6" ry="6" style="stroke:#000000;stroke-width:1.0;" width="163" x="847" y="125.4746"/><text fill="#000000" font-family="Verdana" font-size="14" lengthAdjust="spacing" textLength="149" x="854" y="146.5498">Delivery Management</text><rect fill="#FFFFFF" filter="url(#f1o02700bunyl5)" height="31.0146" rx="6" ry="6" style="stroke:#000000;stroke-width:1.0;" width="163" x="847" y="2331.9487"/><text fill="#000000" font-family="Verdana" font-size="14" lengthAdjust="spacing" textLength="149" x="854" y="2353.0239">Delivery Management</text><rect fill="#FFFFFF" filter="url(#f1o02700bunyl5)" height="31.0146" rx="6" ry="6" style="stroke:#000000;stroke-width:1.0;" width="116" x="1055.5" y="125.4746"/><text fill="#000000" font-family="Verdana" font-size="14" lengthAdjust="spacing" textLength="102" x="1062.5" y="146.5498">Delivery Driver</text><rect fill="#FFFFFF" filter="url(#f1o02700bunyl5)" height="31.0146" rx="6" ry="6" style="stroke:#000000;stroke-width:1.0;" width="116" x="1055.5" y="2331.9487"/><text fill="#000000" font-family="Verdana" font-size="14" lengthAdjust="spacing" textLength="102" x="1062.5" y="2353.0239">Delivery Driver</text><rect fill="#FFFFFF" filter="url(#f1o02700bunyl5)" height="31.0146" rx="6" ry="6" style="stroke:#000000;stroke-width:1.0;" width="128" x="1252.5" y="125.4746"/><text fill="#000000" font-family="Verdana" font-size="14" lengthAdjust="spacing" textLength="114" x="1259.5" y="146.5498">Location Service</text><rect fill="#FFFFFF" filter="url(#f1o02700bunyl5)" height="31.0146" rx="6" ry="6" style="stroke:#000000;stroke-width:1.0;" width="128" x="1252.5" y="2331.9487"/><text fill="#000000" font-family="Verdana" font-size="14" lengthAdjust="spacing" textLength="114" x="1259.5" y="2353.0239">Location Service</text><rect fill="#FFFFFF" filter="url(#f1o02700bunyl5)" height="31.0146" rx="6" ry="6" style="stroke:#000000;stroke-width:1.0;" width="147" x="1413.5" y="125.4746"/><text fill="#000000" font-family="Verdana" font-size="14" lengthAdjust="spacing" textLength="133" x="1420.5" y="146.5498">Notification Service</text><rect fill="#FFFFFF" filter="url(#f1o02700bunyl5)" height="31.0146" rx="6" ry="6" style="stroke:#000000;stroke-width:1.0;" width="147" x="1413.5" y="2331.9487"/><text fill="#000000" font-family="Verdana" font-size="14" lengthAdjust="spacing" textLength="133" x="1420.5" y="2353.0239">Notification Service</text><rect fill="#FFFFFF" filter="url(#f1o02700bunyl5)" height="2086.8608" style="stroke:#000000;stroke-width:1.0;" width="10" x="513.5" y="236.0879"/><rect fill="#FFFFFF" filter="url(#f1o02700bunyl5)" height="34.2993" style="stroke:#000000;stroke-width:1.0;" width="10" x="764.5" y="636.2163"/><rect fill="#FFFFFF" filter="url(#f1o02700bunyl5)" height="168.7959" style="stroke:#000000;stroke-width:1.0;" width="10" x="925" y="796.2129"/><rect fill="#FFFFFF" filter="url(#f1o02700bunyl5)" height="1418.5386" style="stroke:#000000;stroke-width:1.0;" width="10" x="1110" y="905.4102"/><rect fill="#FFFFFF" filter="url(#f1o02700bunyl5)" height="89.3979" style="stroke:#000000;stroke-width:1.0;" width="10" x="1313" y="1296.3706"/><rect fill="#FFFFFF" filter="url(#f1o02700bunyl5)" height="29.7993" style="stroke:#000000;stroke-width:1.0;" width="10" x="1483.5" y="994.8081"/><rect fill="#FFFFFF" filter="url(#f1o02700bunyl5)" height="29.7993" style="stroke:#000000;stroke-width:1.0;" width="10" x="1483.5" y="1099.5747"/><rect fill="#FFFFFF" filter="url(#f1o02700bunyl5)" height="29.7993" style="stroke:#000000;stroke-width:1.0;" width="10" x="1483.5" y="1612.3638"/><rect fill="#FFFFFF" filter="url(#f1o02700bunyl5)" height="29.7993" style="stroke:#000000;stroke-width:1.0;" width="10" x="1483.5" y="1726.561"/><rect fill="#FFFFFF" filter="url(#f1o02700bunyl5)" height="29.7993" style="stroke:#000000;stroke-width:1.0;" width="10" x="1483.5" y="1970.1563"/><rect fill="#FFFFFF" filter="url(#f1o02700bunyl5)" height="29.7993" style="stroke:#000000;stroke-width:1.0;" width="10" x="1483.5" y="2029.7549"/><rect fill="#FFFFFF" filter="url(#f1o02700bunyl5)" height="3" rx="6" ry="6" style="stroke:#FFFFFF;stroke-width:1.0;" width="1598.5" x="5" y="191.3889"/><line style="stroke:#000000;stroke-width:0.5;" x1="5" x2="1603.5" y1="191.3889" y2="191.3889"/><line style="stroke:#000000;stroke-width:0.5;" x1="5" x2="1603.5" y1="194.3889" y2="194.3889"/><rect fill="#FFFFFF" filter="url(#f1o02700bunyl5)" height="23.7993" rx="6" ry="6" style="stroke:#000000;stroke-width:1.0;" width="166" x="721.25" y="180.4893"/><text fill="#000000" font-family="Verdana" font-size="13" font-weight="bold" lengthAdjust="spacing" textLength="148" x="727.25" y="197.5591">Order Status Inquiry</text><polygon fill="#000000" points="501.5,232.0879,511.5,236.0879,501.5,240.0879,505.5,236.0879" style="stroke:#000000;stroke-width:1.0;"/><line style="stroke:#000000;stroke-width:1.5;" x1="258.5" x2="507.5" y1="236.0879" y2="236.0879"/><text fill="#000000" font-family="Verdana" font-size="13" lengthAdjust="spacing" textLength="236" x="268" y="231.3584">[1] Request order status (Order ID)</text><line style="stroke:#000000;stroke-width:1.5;" x1="523.5" x2="565.5" y1="271.7869" y2="271.7869"/><line style="stroke:#000000;stroke-width:1.5;" x1="565.5" x2="565.5" y1="271.7869" y2="284.7869"/><line style="stroke:#000000;stroke-width:1.5;" x1="524.5" x2="565.5" y1="284.7869" y2="284.7869"/><polygon fill="#000000" points="534.5,280.7869,524.5,284.7869,534.5,288.7869,530.5,284.7869" style="stroke:#000000;stroke-width:1.0;"/><text fill="#000000" font-family="Verdana" font-size="13" lengthAdjust="spacing" textLength="152" x="530.5" y="267.0574">Authenticate customer</text><path d="M694,255.0879 L694,284.0879 A6,6 0 0 0 700,290.0879 L861,290.0879 A6,6 0 0 0 867,284.0879 L867,259.0879 L857,249.0879 L700,249.0879 A6,6 0 0 0 694,255.0879 " fill="#FFFFFF" filter="url(#f1o02700bunyl5)" style="stroke:#000000;stroke-width:1.0;"/><path d="M857,249.0879 L857,256.0879 A3,3 0 0 0 860,259.0879 L867,259.0879 L857,249.0879 " fill="#FFFFFF" style="stroke:#000000;stroke-width:1.0;"/><text fill="#000000" font-family="Verdana" font-size="13" lengthAdjust="spacing" textLength="143" x="709" y="267.1577">Verify customer owns</text><text fill="#000000" font-family="Verdana" font-size="13" lengthAdjust="spacing" textLength="63" x="749" y="282.957">this order</text><line style="stroke:#000000;stroke-width:1.5;" x1="523.5" x2="565.5" y1="326.3855" y2="326.3855"/><line style="stroke:#000000;stroke-width:1.5;" x1="565.5" x2="565.5" y1="326.3855" y2="339.3855"/><line style="stroke:#000000;stroke-width:1.5;" x1="524.5" x2="565.5" y1="339.3855" y2="339.3855"/><polygon fill="#000000" points="534.5,335.3855,524.5,339.3855,534.5,343.3855,530.5,339.3855" style="stroke:#000000;stroke-width:1.0;"/><text fill="#000000" font-family="Verdana" font-size="13" lengthAdjust="spacing" textLength="141" x="530.5" y="321.656">Retrieve order details</text><path d="M683,309.6865 L683,338.6865 A6,6 0 0 0 689,344.6865 L866,344.6865 A6,6 0 0 0 872,338.6865 L872,313.6865 L862,303.6865 L689,303.6865 A6,6 0 0 0 683,309.6865 " fill="#FFFFFF" filter="url(#f1o02700bunyl5)" style="stroke:#000000;stroke-width:1.0;"/><path d="M862,303.6865 L862,310.6865 A3,3 0 0 0 865,313.6865 L872,313.6865 L862,303.6865 " fill="#FFFFFF" style="stroke:#000000;stroke-width:1.0;"/><text fill="#000000" font-family="Verdana" font-size="13" lengthAdjust="spacing" textLength="130" x="712.5" y="321.7563">Query order status,</text><text fill="#000000" font-family="Verdana" font-size="13" lengthAdjust="spacing" textLength="159" x="698" y="337.5557">timestamps, and history</text><path d="M20,360.2852 L78,360.2852 L78,368.0845 L68,378.0845 L14,378.0845 L14,366.2852 A6,6 0 0 1 20,360.2852 " fill="#FFFFFF" style="stroke:#000000;stroke-width:1.0;"/><rect fill="none" height="178.5332" rx="6" ry="6" style="stroke:#000000;stroke-width:1.0;" width="636.5" x="14" y="360.2852"/><text fill="#000000" font-family="Verdana" font-size="13" font-weight="bold" lengthAdjust="spacing" textLength="19" x="29" y="374.355">alt</text><text fill="#000000" font-family="Verdana" font-size="11" font-weight="bold" lengthAdjust="spacing" textLength="178" x="93" y="373.3442">[Order found &amp; authorized]</text><polygon fill="#000000" points="269.5,416.1831,259.5,420.1831,269.5,424.1831,265.5,420.1831" style="stroke:#000000;stroke-width:1.0;"/><line style="stroke:#000000;stroke-width:1.5;stroke-dasharray:2.0,2.0;" x1="263.5" x2="512.5" y1="420.1831" y2="420.1831"/><text fill="#000000" font-family="Verdana" font-size="13" lengthAdjust="spacing" textLength="157" x="307.5" y="415.4536">[2] Display order status</text><path d="M24,389.0845 L24,434.0845 A6,6 0 0 0 30,440.0845 L244,440.0845 A6,6 0 0 0 250,434.0845 L250,393.0845 L240,383.0845 L30,383.0845 A6,6 0 0 0 24,389.0845 " fill="#FFFFFF" filter="url(#f1o02700bunyl5)" style="stroke:#000000;stroke-width:1.0;"/><path d="M240,383.0845 L240,390.0845 A3,3 0 0 0 243,393.0845 L250,393.0845 L240,383.0845 " fill="#FFFFFF" style="stroke:#000000;stroke-width:1.0;"/><text fill="#000000" font-family="Verdana" font-size="13" lengthAdjust="spacing" textLength="196" x="39" y="401.1543">Status: Confirmed, Preparing,</text><text fill="#000000" font-family="Verdana" font-size="13" lengthAdjust="spacing" textLength="159" x="57.5" y="416.9536">Ready, Out for Delivery,</text><text fill="#000000" font-family="Verdana" font-size="13" lengthAdjust="spacing" textLength="133" x="70.5" y="432.7529">Delivered, Cancelled</text><line style="stroke:#000000;stroke-width:1.0;stroke-dasharray:2.0,2.0;" x1="14" x2="650.5" y1="449.4824" y2="449.4824"/><text fill="#000000" font-family="Verdana" font-size="11" font-weight="bold" lengthAdjust="spacing" textLength="115" x="19" y="460.5415">[Order not found]</text><polygon fill="#000000" points="269.5,481.6504,259.5,485.6504,269.5,489.6504,265.5,485.6504" style="stroke:#000000;stroke-width:1.0;"/><line style="stroke:#000000;stroke-width:1.5;stroke-dasharray:2.0,2.0;" x1="263.5" x2="512.5" y1="485.6504" y2="485.6504"/><text fill="#000000" font-family="Verdana" font-size="13" lengthAdjust="spacing" textLength="141" x="315.5" y="480.9209">Order not found error</text><line style="stroke:#000000;stroke-width:1.0;stroke-dasharray:2.0,2.0;" x1="14" x2="650.5" y1="494.6504" y2="494.6504"/><text fill="#000000" font-family="Verdana" font-size="11" font-weight="bold" lengthAdjust="spacing" textLength="147" x="19" y="505.7095">[Unauthorized access]</text><polygon fill="#000000" points="269.5,526.8184,259.5,530.8184,269.5,534.8184,265.5,530.8184" style="stroke:#000000;stroke-width:1.0;"/><line style="stroke:#000000;stroke-width:1.5;stroke-dasharray:2.0,2.0;" x1="263.5" x2="512.5" y1="530.8184" y2="530.8184"/><text fill="#000000" font-family="Verdana" font-size="13" lengthAdjust="spacing" textLength="131" x="320.5" y="526.0889">Access denied error</text><rect fill="#FFFFFF" filter="url(#f1o02700bunyl5)" height="3" rx="6" ry="6" style="stroke:#FFFFFF;stroke-width:1.0;" width="1598.5" x="5" y="566.718"/><line style="stroke:#000000;stroke-width:0.5;" x1="5" x2="1603.5" y1="566.718" y2="566.718"/><line style="stroke:#000000;stroke-width:0.5;" x1="5" x2="1603.5" y1="569.718" y2="569.718"/><rect fill="#FFFFFF" filter="url(#f1o02700bunyl5)" height="23.7993" rx="6" ry="6" style="stroke:#000000;stroke-width:1.0;" width="206" x="701.25" y="555.8184"/><text fill="#000000" font-family="Verdana" font-size="13" font-weight="bold" lengthAdjust="spacing" textLength="188" x="707.25" y="572.8882">Real-Time Status Updates</text><path d="M217,596.6177 L280,596.6177 L280,604.417 L270,614.417 L211,614.417 L211,602.6177 A6,6 0 0 1 217,596.6177 " fill="#FFFFFF" style="stroke:#000000;stroke-width:1.0;"/><rect fill="none" height="116.1973" rx="6" ry="6" style="stroke:#000000;stroke-width:1.0;" width="840.5" x="211" y="596.6177"/><text fill="#000000" font-family="Verdana" font-size="13" font-weight="bold" lengthAdjust="spacing" textLength="24" x="226" y="610.6875">opt</text><text fill="#000000" font-family="Verdana" font-size="11" font-weight="bold" lengthAdjust="spacing" textLength="146" x="295" y="609.6768">[Order in Preparation]</text><polygon fill="#000000" points="752.5,632.2163,762.5,636.2163,752.5,640.2163,756.5,636.2163" style="stroke:#000000;stroke-width:1.0;"/><line style="stroke:#000000;stroke-width:1.5;" x1="523.5" x2="758.5" y1="636.2163" y2="636.2163"/><text fill="#000000" font-family="Verdana" font-size="13" lengthAdjust="spacing" textLength="166" x="561" y="631.4868">Query preparation status</text><polygon fill="#000000" points="534.5,666.5156,524.5,670.5156,534.5,674.5156,530.5,670.5156" style="stroke:#000000;stroke-width:1.0;"/><line style="stroke:#000000;stroke-width:1.5;stroke-dasharray:2.0,2.0;" x1="528.5" x2="768.5" y1="670.5156" y2="670.5156"/><text fill="#000000" font-family="Verdana" font-size="13" lengthAdjust="spacing" textLength="171" x="561" y="665.7861">Current preparation stage</text><path d="M779,655.2163 L779,668.2163 A6,6 0 0 0 785,674.2163 L1027,674.2163 A6,6 0 0 0 1033,668.2163 L1033,659.2163 L1023,649.2163 L785,649.2163 A6,6 0 0 0 779,655.2163 " fill="#FFFFFF" filter="url(#f1o02700bunyl5)" style="stroke:#000000;stroke-width:1.0;"/><path d="M1023,649.2163 L1023,656.2163 A3,3 0 0 0 1026,659.2163 L1033,659.2163 L1023,649.2163 " fill="#FFFFFF" style="stroke:#000000;stroke-width:1.0;"/><text fill="#000000" font-family="Verdana" font-size="13" lengthAdjust="spacing" textLength="224" x="794" y="667.2861">e.g., "Cooking - 15 min remaining"</text><polygon fill="#000000" points="269.5,700.8149,259.5,704.8149,269.5,708.8149,265.5,704.8149" style="stroke:#000000;stroke-width:1.0;"/><line style="stroke:#000000;stroke-width:1.5;stroke-dasharray:2.0,2.0;" x1="263.5" x2="512.5" y1="704.8149" y2="704.8149"/><text fill="#000000" font-family="Verdana" font-size="13" lengthAdjust="spacing" textLength="191" x="290.5" y="700.0854">[3] Preparation details (ETA)</text><path d="M207,726.8149 L270,726.8149 L270,734.6143 L260,744.6143 L201,744.6143 L201,732.8149 A6,6 0 0 1 207,726.8149 " fill="#FFFFFF" style="stroke:#000000;stroke-width:1.0;"/><rect fill="none" height="417.5591" rx="6" ry="6" style="stroke:#000000;stroke-width:1.0;" width="1392.5" x="201" y="726.8149"/><text fill="#000000" font-family="Verdana" font-size="13" font-weight="bold" lengthAdjust="spacing" textLength="24" x="216" y="740.8848">opt</text><text fill="#000000" font-family="Verdana" font-size="11" font-weight="bold" lengthAdjust="spacing" textLength="163" x="285" y="739.874">[Order Ready for Pickup]</text><polygon fill="#000000" points="534.5,762.4136,524.5,766.4136,534.5,770.4136,530.5,766.4136" style="stroke:#000000;stroke-width:1.0;"/><line style="stroke:#000000;stroke-width:1.5;" x1="528.5" x2="768.5" y1="766.4136" y2="766.4136"/><text fill="#000000" font-family="Verdana" font-size="13" lengthAdjust="spacing" textLength="137" x="578" y="761.6841">[4] Mark order ready</text><polygon fill="#000000" points="913,792.2129,923,796.2129,913,800.2129,917,796.2129" style="stroke:#000000;stroke-width:1.0;"/><line style="stroke:#000000;stroke-width:1.5;" x1="523.5" x2="919" y1="796.2129" y2="796.2129"/><text fill="#000000" font-family="Verdana" font-size="13" lengthAdjust="spacing" textLength="199" x="624.75" y="791.4834">[5] Request driver assignment</text><line style="stroke:#000000;stroke-width:1.5;" x1="935" x2="977" y1="831.9119" y2="831.9119"/><line style="stroke:#000000;stroke-width:1.5;" x1="977" x2="977" y1="831.9119" y2="844.9119"/><line style="stroke:#000000;stroke-width:1.5;" x1="936" x2="977" y1="844.9119" y2="844.9119"/><polygon fill="#000000" points="946,840.9119,936,844.9119,946,848.9119,942,844.9119" style="stroke:#000000;stroke-width:1.0;"/><text fill="#000000" font-family="Verdana" font-size="13" lengthAdjust="spacing" textLength="131" x="942" y="827.1824">Find available driver</text><path d="M1085,815.2129 L1085,844.2129 A6,6 0 0 0 1091,850.2129 L1277,850.2129 A6,6 0 0 0 1283,844.2129 L1283,819.2129 L1273,809.2129 L1091,809.2129 A6,6 0 0 0 1085,815.2129 " fill="#FFFFFF" filter="url(#f1o02700bunyl5)" style="stroke:#000000;stroke-width:1.0;"/><path d="M1273,809.2129 L1273,816.2129 A3,3 0 0 0 1276,819.2129 L1283,819.2129 L1273,809.2129 " fill="#FFFFFF" style="stroke:#000000;stroke-width:1.0;"/><text fill="#000000" font-family="Verdana" font-size="13" lengthAdjust="spacing" textLength="168" x="1100" y="827.2827">Match based on location,</text><text fill="#000000" font-family="Verdana" font-size="13" lengthAdjust="spacing" textLength="146" x="1111" y="843.082">rating, and availability</text><path d="M217,865.8115 L275,865.8115 L275,873.6108 L265,883.6108 L211,883.6108 L211,871.8115 A6,6 0 0 1 217,865.8115 " fill="#FFFFFF" style="stroke:#000000;stroke-width:1.0;"/><rect fill="none" height="271.5625" rx="6" ry="6" style="stroke:#000000;stroke-width:1.0;" width="1372.5" x="211" y="865.8115"/><text fill="#000000" font-family="Verdana" font-size="13" font-weight="bold" lengthAdjust="spacing" textLength="19" x="226" y="879.8813">alt</text><text fill="#000000" font-family="Verdana" font-size="11" font-weight="bold" lengthAdjust="spacing" textLength="117" x="290" y="878.8706">[Driver available]</text><polygon fill="#000000" points="1098,901.4102,1108,905.4102,1098,909.4102,1102,905.4102" style="stroke:#000000;stroke-width:1.0;"/><line style="stroke:#000000;stroke-width:1.5;" x1="935" x2="1104" y1="905.4102" y2="905.4102"/><text fill="#000000" font-family="Verdana" font-size="13" lengthAdjust="spacing" textLength="156" x="944.5" y="900.6807">[6] Assign delivery task</text><polygon fill="#000000" points="946,931.2095,936,935.2095,946,939.2095,942,935.2095" style="stroke:#000000;stroke-width:1.0;"/><line style="stroke:#000000;stroke-width:1.5;stroke-dasharray:2.0,2.0;" x1="940" x2="1109" y1="935.2095" y2="935.2095"/><text fill="#000000" font-family="Verdana" font-size="13" lengthAdjust="spacing" textLength="142" x="951.5" y="930.48">Assignment accepted</text><polygon fill="#000000" points="534.5,961.0088,524.5,965.0088,534.5,969.0088,530.5,965.0088" style="stroke:#000000;stroke-width:1.0;"/><line style="stroke:#000000;stroke-width:1.5;stroke-dasharray:2.0,2.0;" x1="528.5" x2="929" y1="965.0088" y2="965.0088"/><text fill="#000000" font-family="Verdana" font-size="13" lengthAdjust="spacing" textLength="210" x="621.75" y="960.2793">Driver assigned (Driver ID, ETA)</text><polygon fill="#000000" points="1471.5,990.8081,1481.5,994.8081,1471.5,998.8081,1475.5,994.8081" style="stroke:#000000;stroke-width:1.0;"/><line style="stroke:#000000;stroke-width:1.5;" x1="523.5" x2="1477.5" y1="994.8081" y2="994.8081"/><text fill="#000000" font-family="Verdana" font-size="13" lengthAdjust="spacing" textLength="175" x="916" y="990.0786">[7] Send customer update</text><polygon fill="#000000" points="269.5,1020.6074,259.5,1024.6074,269.5,1028.6074,265.5,1024.6074" style="stroke:#000000;stroke-width:1.0;"/><line style="stroke:#000000;stroke-width:1.5;stroke-dasharray:2.0,2.0;" x1="263.5" x2="1487.5" y1="1024.6074" y2="1024.6074"/><text fill="#000000" font-family="Verdana" font-size="13" lengthAdjust="spacing" textLength="237" x="755" y="1019.8779">Driver assigned (Name, Photo, ETA)</text><line style="stroke:#000000;stroke-width:1.0;stroke-dasharray:2.0,2.0;" x1="211" x2="1583.5" y1="1033.6074" y2="1033.6074"/><text fill="#000000" font-family="Verdana" font-size="11" font-weight="bold" lengthAdjust="spacing" textLength="137" x="216" y="1044.6665">[No driver available]</text><polygon fill="#000000" points="534.5,1065.7754,524.5,1069.7754,534.5,1073.7754,530.5,1069.7754" style="stroke:#000000;stroke-width:1.0;"/><line style="stroke:#000000;stroke-width:1.5;stroke-dasharray:2.0,2.0;" x1="528.5" x2="929" y1="1069.7754" y2="1069.7754"/><text fill="#000000" font-family="Verdana" font-size="13" lengthAdjust="spacing" textLength="121" x="666.25" y="1065.0459">No driver available</text><polygon fill="#000000" points="1471.5,1095.5747,1481.5,1099.5747,1471.5,1103.5747,1475.5,1099.5747" style="stroke:#000000;stroke-width:1.0;"/><line style="stroke:#000000;stroke-width:1.5;" x1="523.5" x2="1477.5" y1="1099.5747" y2="1099.5747"/><text fill="#000000" font-family="Verdana" font-size="13" lengthAdjust="spacing" textLength="152" x="927.5" y="1094.8452">Send delay notification</text><polygon fill="#000000" points="269.5,1125.374,259.5,1129.374,269.5,1133.374,265.5,1129.374" style="stroke:#000000;stroke-width:1.0;"/><line style="stroke:#000000;stroke-width:1.5;stroke-dasharray:2.0,2.0;" x1="263.5" x2="1487.5" y1="1129.374" y2="1129.374"/><text fill="#000000" font-family="Verdana" font-size="13" lengthAdjust="spacing" textLength="127" x="810" y="1124.6445">Delivery delay alert</text><rect fill="#FFFFFF" filter="url(#f1o02700bunyl5)" height="3" rx="6" ry="6" style="stroke:#FFFFFF;stroke-width:1.0;" width="1598.5" x="5" y="1172.2737"/><line style="stroke:#000000;stroke-width:0.5;" x1="5" x2="1603.5" y1="1172.2737" y2="1172.2737"/><line style="stroke:#000000;stroke-width:0.5;" x1="5" x2="1603.5" y1="1175.2737" y2="1175.2737"/><rect fill="#FFFFFF" filter="url(#f1o02700bunyl5)" height="23.7993" rx="6" ry="6" style="stroke:#000000;stroke-width:1.0;" width="113" x="747.75" y="1161.374"/><text fill="#000000" font-family="Verdana" font-size="13" font-weight="bold" lengthAdjust="spacing" textLength="95" x="753.75" y="1178.4438">Live Tracking</text><path d="M62,1202.1733 L125,1202.1733 L125,1209.9727 L115,1219.9727 L56,1219.9727 L56,1208.1733 A6,6 0 0 1 62,1202.1733 " fill="#FFFFFF" style="stroke:#000000;stroke-width:1.0;"/><rect fill="none" height="307.7925" rx="6" ry="6" style="stroke:#000000;stroke-width:1.0;" width="1357.5" x="56" y="1202.1733"/><text fill="#000000" font-family="Verdana" font-size="13" font-weight="bold" lengthAdjust="spacing" textLength="24" x="71" y="1216.2432">opt</text><text fill="#000000" font-family="Verdana" font-size="11" font-weight="bold" lengthAdjust="spacing" textLength="221" x="140" y="1215.2324">[Customer requests live tracking]</text><polygon fill="#000000" points="501.5,1237.772,511.5,1241.772,501.5,1245.772,505.5,1241.772" style="stroke:#000000;stroke-width:1.0;"/><line style="stroke:#000000;stroke-width:1.5;" x1="258.5" x2="507.5" y1="1241.772" y2="1241.772"/><text fill="#000000" font-family="Verdana" font-size="13" lengthAdjust="spacing" textLength="153" x="309.5" y="1237.0425">[8] Enable live tracking</text><path d="M72,1256.772 L142,1256.772 L142,1264.5713 L132,1274.5713 L66,1274.5713 L66,1262.772 A6,6 0 0 1 72,1256.772 " fill="#FFFFFF" style="stroke:#000000;stroke-width:1.0;"/><rect fill="none" height="246.1938" rx="6" ry="6" style="stroke:#000000;stroke-width:1.0;" width="1337.5" x="66" y="1256.772"/><text fill="#000000" font-family="Verdana" font-size="13" font-weight="bold" lengthAdjust="spacing" textLength="31" x="81" y="1270.8418">loop</text><text fill="#000000" font-family="Verdana" font-size="11" font-weight="bold" lengthAdjust="spacing" textLength="305" x="157" y="1269.8311">[Every 10-30 seconds (while out for delivery)]</text><polygon fill="#000000" points="1301,1292.3706,1311,1296.3706,1301,1300.3706,1305,1296.3706" style="stroke:#000000;stroke-width:1.0;"/><line style="stroke:#000000;stroke-width:1.5;" x1="523.5" x2="1307" y1="1296.3706" y2="1296.3706"/><text fill="#000000" font-family="Verdana" font-size="13" lengthAdjust="spacing" textLength="177" x="829.75" y="1291.6411">[9] Request driver location</text><polygon fill="#000000" points="1131,1322.1699,1121,1326.1699,1131,1330.1699,1127,1326.1699" style="stroke:#000000;stroke-width:1.0;"/><line style="stroke:#000000;stroke-width:1.5;" x1="1125" x2="1312" y1="1326.1699" y2="1326.1699"/><text fill="#000000" font-family="Verdana" font-size="13" lengthAdjust="spacing" textLength="152" x="1140.5" y="1321.4404">Query GPS coordinates</text><polygon fill="#000000" points="1301,1351.9692,1311,1355.9692,1301,1359.9692,1305,1355.9692" style="stroke:#000000;stroke-width:1.0;"/><line style="stroke:#000000;stroke-width:1.5;stroke-dasharray:2.0,2.0;" x1="1120" x2="1307" y1="1355.9692" y2="1355.9692"/><text fill="#000000" font-family="Verdana" font-size="13" lengthAdjust="spacing" textLength="169" x="1132" y="1351.2397">Current location (lat, lng)</text><polygon fill="#000000" points="534.5,1381.7686,524.5,1385.7686,534.5,1389.7686,530.5,1385.7686" style="stroke:#000000;stroke-width:1.0;"/><line style="stroke:#000000;stroke-width:1.5;stroke-dasharray:2.0,2.0;" x1="528.5" x2="1317" y1="1385.7686" y2="1385.7686"/><text fill="#000000" font-family="Verdana" font-size="13" lengthAdjust="spacing" textLength="176" x="832.75" y="1381.0391">Location data (timestamp)</text><line style="stroke:#000000;stroke-width:1.5;" x1="523.5" x2="565.5" y1="1421.4675" y2="1421.4675"/><line style="stroke:#000000;stroke-width:1.5;" x1="565.5" x2="565.5" y1="1421.4675" y2="1434.4675"/><line style="stroke:#000000;stroke-width:1.5;" x1="524.5" x2="565.5" y1="1434.4675" y2="1434.4675"/><polygon fill="#000000" points="534.5,1430.4675,524.5,1434.4675,534.5,1438.4675,530.5,1434.4675" style="stroke:#000000;stroke-width:1.0;"/><text fill="#000000" font-family="Verdana" font-size="13" lengthAdjust="spacing" textLength="167" x="530.5" y="1416.738">Calculate ETA &amp; distance</text><path d="M709,1404.7686 L709,1433.7686 A6,6 0 0 0 715,1439.7686 L880,1439.7686 A6,6 0 0 0 886,1433.7686 L886,1408.7686 L876,1398.7686 L715,1398.7686 A6,6 0 0 0 709,1404.7686 " fill="#FFFFFF" filter="url(#f1o02700bunyl5)" style="stroke:#000000;stroke-width:1.0;"/><path d="M876,1398.7686 L876,1405.7686 A3,3 0 0 0 879,1408.7686 L886,1408.7686 L876,1398.7686 " fill="#FFFFFF" style="stroke:#000000;stroke-width:1.0;"/><text fill="#000000" font-family="Verdana" font-size="13" lengthAdjust="spacing" textLength="147" x="724" y="1416.8384">Use routing algorithms</text><text fill="#000000" font-family="Verdana" font-size="13" lengthAdjust="spacing" textLength="104" x="745.5" y="1432.6377">and traffic data</text><polygon fill="#000000" points="269.5,1478.5662,259.5,1482.5662,269.5,1486.5662,265.5,1482.5662" style="stroke:#000000;stroke-width:1.0;"/><line style="stroke:#000000;stroke-width:1.5;stroke-dasharray:2.0,2.0;" x1="263.5" x2="512.5" y1="1482.5662" y2="1482.5662"/><text fill="#000000" font-family="Verdana" font-size="13" lengthAdjust="spacing" textLength="157" x="307.5" y="1477.8367">[10] Update map &amp; ETA</text><path d="M76,1459.3672 L76,1488.3672 A6,6 0 0 0 82,1494.3672 L244,1494.3672 A6,6 0 0 0 250,1488.3672 L250,1463.3672 L240,1453.3672 L82,1453.3672 A6,6 0 0 0 76,1459.3672 " fill="#FFFFFF" filter="url(#f1o02700bunyl5)" style="stroke:#000000;stroke-width:1.0;"/><path d="M240,1453.3672 L240,1460.3672 A3,3 0 0 0 243,1463.3672 L250,1463.3672 L240,1453.3672 " fill="#FFFFFF" style="stroke:#000000;stroke-width:1.0;"/><text fill="#000000" font-family="Verdana" font-size="13" lengthAdjust="spacing" textLength="144" x="91" y="1471.437">Real-time map display</text><text fill="#000000" font-family="Verdana" font-size="13" lengthAdjust="spacing" textLength="119" x="103.5" y="1487.2363">with driver marker</text><rect fill="#FFFFFF" filter="url(#f1o02700bunyl5)" height="3" rx="6" ry="6" style="stroke:#FFFFFF;stroke-width:1.0;" width="1598.5" x="5" y="1537.8655"/><line style="stroke:#000000;stroke-width:0.5;" x1="5" x2="1603.5" y1="1537.8655" y2="1537.8655"/><line style="stroke:#000000;stroke-width:0.5;" x1="5" x2="1603.5" y1="1540.8655" y2="1540.8655"/><rect fill="#FFFFFF" filter="url(#f1o02700bunyl5)" height="23.7993" rx="6" ry="6" style="stroke:#000000;stroke-width:1.0;" width="219" x="694.75" y="1526.9658"/><text fill="#000000" font-family="Verdana" font-size="13" font-weight="bold" lengthAdjust="spacing" textLength="201" x="700.75" y="1544.0356">Status Change Notifications</text><polygon fill="#000000" points="534.5,1578.5645,524.5,1582.5645,534.5,1586.5645,530.5,1582.5645" style="stroke:#000000;stroke-width:1.0;"/><line style="stroke:#000000;stroke-width:1.5;" x1="528.5" x2="1109" y1="1582.5645" y2="1582.5645"/><text fill="#000000" font-family="Verdana" font-size="13" lengthAdjust="spacing" textLength="319" x="657.25" y="1577.835">[11] Update status: "Picked up from restaurant"</text><polygon fill="#000000" points="1471.5,1608.3638,1481.5,1612.3638,1471.5,1616.3638,1475.5,1612.3638" style="stroke:#000000;stroke-width:1.0;"/><line style="stroke:#000000;stroke-width:1.5;" x1="523.5" x2="1477.5" y1="1612.3638" y2="1612.3638"/><text fill="#000000" font-family="Verdana" font-size="13" lengthAdjust="spacing" textLength="172" x="917.5" y="1607.6343">Trigger pickup notification</text><polygon fill="#000000" points="269.5,1638.1631,259.5,1642.1631,269.5,1646.1631,265.5,1642.1631" style="stroke:#000000;stroke-width:1.0;"/><line style="stroke:#000000;stroke-width:1.5;stroke-dasharray:2.0,2.0;" x1="263.5" x2="1487.5" y1="1642.1631" y2="1642.1631"/><text fill="#000000" font-family="Verdana" font-size="13" lengthAdjust="spacing" textLength="206" x="770.5" y="1637.4336">Order picked up (updated ETA)</text><polygon fill="#000000" points="534.5,1680.3621,524.5,1684.3621,534.5,1688.3621,530.5,1684.3621" style="stroke:#000000;stroke-width:1.0;"/><line style="stroke:#000000;stroke-width:1.5;" x1="528.5" x2="1109" y1="1684.3621" y2="1684.3621"/><text fill="#000000" font-family="Verdana" font-size="13" lengthAdjust="spacing" textLength="233" x="700.25" y="1679.6326">[12] Update status: "Arriving soon"</text><path d="M1125,1661.1631 L1125,1690.1631 A6,6 0 0 0 1131,1696.1631 L1314,1696.1631 A6,6 0 0 0 1320,1690.1631 L1320,1665.1631 L1310,1655.1631 L1131,1655.1631 A6,6 0 0 0 1125,1661.1631 " fill="#FFFFFF" filter="url(#f1o02700bunyl5)" style="stroke:#000000;stroke-width:1.0;"/><path d="M1310,1655.1631 L1310,1662.1631 A3,3 0 0 0 1313,1665.1631 L1320,1665.1631 L1310,1655.1631 " fill="#FFFFFF" style="stroke:#000000;stroke-width:1.0;"/><text fill="#000000" font-family="Verdana" font-size="13" lengthAdjust="spacing" textLength="146" x="1149.5" y="1673.2329">Triggered when within</text><text fill="#000000" font-family="Verdana" font-size="13" lengthAdjust="spacing" textLength="165" x="1140" y="1689.0322">500m of delivery address</text><polygon fill="#000000" points="1471.5,1722.561,1481.5,1726.561,1471.5,1730.561,1475.5,1726.561" style="stroke:#000000;stroke-width:1.0;"/><line style="stroke:#000000;stroke-width:1.5;" x1="523.5" x2="1477.5" y1="1726.561" y2="1726.561"/><text fill="#000000" font-family="Verdana" font-size="13" lengthAdjust="spacing" textLength="170" x="918.5" y="1721.8315">Trigger arrival notification</text><polygon fill="#000000" points="269.5,1752.3604,259.5,1756.3604,269.5,1760.3604,265.5,1756.3604" style="stroke:#000000;stroke-width:1.0;"/><line style="stroke:#000000;stroke-width:1.5;stroke-dasharray:2.0,2.0;" x1="263.5" x2="1487.5" y1="1756.3604" y2="1756.3604"/><text fill="#000000" font-family="Verdana" font-size="13" lengthAdjust="spacing" textLength="191" x="778" y="1751.6309">Driver arriving in 2-3 minutes</text><rect fill="#FFFFFF" filter="url(#f1o02700bunyl5)" height="3" rx="6" ry="6" style="stroke:#FFFFFF;stroke-width:1.0;" width="1598.5" x="5" y="1785.26"/><line style="stroke:#000000;stroke-width:0.5;" x1="5" x2="1603.5" y1="1785.26" y2="1785.26"/><line style="stroke:#000000;stroke-width:0.5;" x1="5" x2="1603.5" y1="1788.26" y2="1788.26"/><rect fill="#FFFFFF" filter="url(#f1o02700bunyl5)" height="23.7993" rx="6" ry="6" style="stroke:#000000;stroke-width:1.0;" width="165" x="721.75" y="1774.3604"/><text fill="#000000" font-family="Verdana" font-size="13" font-weight="bold" lengthAdjust="spacing" textLength="147" x="727.75" y="1791.4302">Delivery Completion</text><polygon fill="#000000" points="534.5,1825.959,524.5,1829.959,534.5,1833.959,530.5,1829.959" style="stroke:#000000;stroke-width:1.0;"/><line style="stroke:#000000;stroke-width:1.5;" x1="528.5" x2="1109" y1="1829.959" y2="1829.959"/><text fill="#000000" font-family="Verdana" font-size="13" lengthAdjust="spacing" textLength="208" x="712.75" y="1825.2295">[13] Update status: "Delivered"</text><line style="stroke:#000000;stroke-width:1.5;" x1="523.5" x2="565.5" y1="1859.7583" y2="1859.7583"/><line style="stroke:#000000;stroke-width:1.5;" x1="565.5" x2="565.5" y1="1859.7583" y2="1872.7583"/><line style="stroke:#000000;stroke-width:1.5;" x1="524.5" x2="565.5" y1="1872.7583" y2="1872.7583"/><polygon fill="#000000" points="534.5,1868.7583,524.5,1872.7583,534.5,1876.7583,530.5,1872.7583" style="stroke:#000000;stroke-width:1.0;"/><text fill="#000000" font-family="Verdana" font-size="13" lengthAdjust="spacing" textLength="227" x="530.5" y="1855.0288">Update order status to "Delivered"</text><line style="stroke:#000000;stroke-width:1.5;" x1="523.5" x2="565.5" y1="1902.5576" y2="1902.5576"/><line style="stroke:#000000;stroke-width:1.5;" x1="565.5" x2="565.5" y1="1902.5576" y2="1915.5576"/><line style="stroke:#000000;stroke-width:1.5;" x1="524.5" x2="565.5" y1="1915.5576" y2="1915.5576"/><polygon fill="#000000" points="534.5,1911.5576,524.5,1915.5576,534.5,1919.5576,530.5,1915.5576" style="stroke:#000000;stroke-width:1.0;"/><text fill="#000000" font-family="Verdana" font-size="13" lengthAdjust="spacing" textLength="174" x="530.5" y="1897.8281">Record delivery timestamp</text><path d="M217,1930.5576 L280,1930.5576 L280,1938.3569 L270,1948.3569 L211,1948.3569 L211,1936.5576 A6,6 0 0 1 217,1930.5576 " fill="#FFFFFF" style="stroke:#000000;stroke-width:1.0;"/><rect fill="none" height="136.9966" rx="6" ry="6" style="stroke:#000000;stroke-width:1.0;" width="1372.5" x="211" y="1930.5576"/><text fill="#000000" font-family="Verdana" font-size="13" font-weight="bold" lengthAdjust="spacing" textLength="24" x="226" y="1944.6274">par</text><text fill="#000000" font-family="Verdana" font-size="11" font-weight="bold" lengthAdjust="spacing" textLength="103" x="295" y="1943.6167">[Confirmations]</text><polygon fill="#000000" points="1471.5,1966.1563,1481.5,1970.1563,1471.5,1974.1563,1475.5,1970.1563" style="stroke:#000000;stroke-width:1.0;"/><line style="stroke:#000000;stroke-width:1.5;" x1="523.5" x2="1477.5" y1="1970.1563" y2="1970.1563"/><text fill="#000000" font-family="Verdana" font-size="13" lengthAdjust="spacing" textLength="208" x="899.5" y="1965.4268">[14] Send delivery confirmation</text><polygon fill="#000000" points="269.5,1995.9556,259.5,1999.9556,269.5,2003.9556,265.5,1999.9556" style="stroke:#000000;stroke-width:1.0;"/><line style="stroke:#000000;stroke-width:1.5;stroke-dasharray:2.0,2.0;" x1="263.5" x2="1487.5" y1="1999.9556" y2="1999.9556"/><text fill="#000000" font-family="Verdana" font-size="13" lengthAdjust="spacing" textLength="185" x="781" y="1995.2261">Order delivered (timestamp)</text><polygon fill="#000000" points="1471.5,2025.7549,1481.5,2029.7549,1471.5,2033.7549,1475.5,2029.7549" style="stroke:#000000;stroke-width:1.0;"/><line style="stroke:#000000;stroke-width:1.5;" x1="523.5" x2="1477.5" y1="2029.7549" y2="2029.7549"/><text fill="#000000" font-family="Verdana" font-size="13" lengthAdjust="spacing" textLength="177" x="915" y="2025.0254">[15] Send completion alert</text><polygon fill="#000000" points="780.5,2055.5542,770.5,2059.5542,780.5,2063.5542,776.5,2059.5542" style="stroke:#000000;stroke-width:1.0;"/><line style="stroke:#000000;stroke-width:1.5;stroke-dasharray:2.0,2.0;" x1="774.5" x2="1487.5" y1="2059.5542" y2="2059.5542"/><text fill="#000000" font-family="Verdana" font-size="13" lengthAdjust="spacing" textLength="125" x="1066.5" y="2054.8247">Delivery completed</text><polygon fill="#000000" points="269.5,2104.7532,259.5,2108.7532,269.5,2112.7532,265.5,2108.7532" style="stroke:#000000;stroke-width:1.0;"/><line style="stroke:#000000;stroke-width:1.5;stroke-dasharray:2.0,2.0;" x1="263.5" x2="512.5" y1="2108.7532" y2="2108.7532"/><text fill="#000000" font-family="Verdana" font-size="13" lengthAdjust="spacing" textLength="208" x="282" y="2104.0237">[16] Request rating &amp; feedback</text><path d="M109,2085.5542 L109,2114.5542 A6,6 0 0 0 115,2120.5542 L244,2120.5542 A6,6 0 0 0 250,2114.5542 L250,2089.5542 L240,2079.5542 L115,2079.5542 A6,6 0 0 0 109,2085.5542 " fill="#FFFFFF" filter="url(#f1o02700bunyl5)" style="stroke:#000000;stroke-width:1.0;"/><path d="M240,2079.5542 L240,2086.5542 A3,3 0 0 0 243,2089.5542 L250,2089.5542 L240,2079.5542 " fill="#FFFFFF" style="stroke:#000000;stroke-width:1.0;"/><text fill="#000000" font-family="Verdana" font-size="13" lengthAdjust="spacing" textLength="111" x="124" y="2097.624">Prompt for driver</text><text fill="#000000" font-family="Verdana" font-size="13" lengthAdjust="spacing" textLength="108" x="125.5" y="2113.4233">and food ratings</text><path d="M217,2136.1528 L280,2136.1528 L280,2143.9521 L270,2153.9521 L211,2153.9521 L211,2142.1528 A6,6 0 0 1 217,2136.1528 " fill="#FFFFFF" style="stroke:#000000;stroke-width:1.0;"/><rect fill="none" height="179.7959" rx="6" ry="6" style="stroke:#000000;stroke-width:1.0;" width="983.5" x="211" y="2136.1528"/><text fill="#000000" font-family="Verdana" font-size="13" font-weight="bold" lengthAdjust="spacing" textLength="24" x="226" y="2150.2227">opt</text><text fill="#000000" font-family="Verdana" font-size="11" font-weight="bold" lengthAdjust="spacing" textLength="199" x="295" y="2149.2119">[Customer provides feedback]</text><polygon fill="#000000" points="501.5,2171.7515,511.5,2175.7515,501.5,2179.7515,505.5,2175.7515" style="stroke:#000000;stroke-width:1.0;"/><line style="stroke:#000000;stroke-width:1.5;" x1="258.5" x2="507.5" y1="2175.7515" y2="2175.7515"/><text fill="#000000" font-family="Verdana" font-size="13" lengthAdjust="spacing" textLength="183" x="294.5" y="2171.022">[17] Submit rating &amp; review</text><line style="stroke:#000000;stroke-width:1.5;" x1="523.5" x2="565.5" y1="2205.5508" y2="2205.5508"/><line style="stroke:#000000;stroke-width:1.5;" x1="565.5" x2="565.5" y1="2205.5508" y2="2218.5508"/><line style="stroke:#000000;stroke-width:1.5;" x1="524.5" x2="565.5" y1="2218.5508" y2="2218.5508"/><polygon fill="#000000" points="534.5,2214.5508,524.5,2218.5508,534.5,2222.5508,530.5,2218.5508" style="stroke:#000000;stroke-width:1.0;"/><text fill="#000000" font-family="Verdana" font-size="13" lengthAdjust="spacing" textLength="101" x="530.5" y="2200.8213">Store feedback</text><polygon fill="#000000" points="1098,2244.3501,1108,2248.3501,1098,2252.3501,1102,2248.3501" style="stroke:#000000;stroke-width:1.0;"/><line style="stroke:#000000;stroke-width:1.5;stroke-dasharray:2.0,2.0;" x1="523.5" x2="1104" y1="2248.3501" y2="2248.3501"/><text fill="#000000" font-family="Verdana" font-size="13" lengthAdjust="spacing" textLength="132" x="750.75" y="2243.6206">Update driver rating</text><polygon fill="#000000" points="757.5,2274.1494,767.5,2278.1494,757.5,2282.1494,761.5,2278.1494" style="stroke:#000000;stroke-width:1.0;"/><line style="stroke:#000000;stroke-width:1.5;stroke-dasharray:2.0,2.0;" x1="523.5" x2="763.5" y1="2278.1494" y2="2278.1494"/><text fill="#000000" font-family="Verdana" font-size="13" lengthAdjust="spacing" textLength="164" x="564.5" y="2273.4199">Update restaurant rating</text><polygon fill="#000000" points="269.5,2303.9487,259.5,2307.9487,269.5,2311.9487,265.5,2307.9487" style="stroke:#000000;stroke-width:1.0;"/><line style="stroke:#000000;stroke-width:1.5;stroke-dasharray:2.0,2.0;" x1="263.5" x2="512.5" y1="2307.9487" y2="2307.9487"/><text fill="#000000" font-family="Verdana" font-size="13" lengthAdjust="spacing" textLength="131" x="320.5" y="2303.2192">Thank you message</text><!--SRC=[hLXBRzj64BxpLqnrA6H02YoxJji03Y18IH4W3zTMSgbrM9ChQI5obzbTIdL_VMTVv5AaBBM83xPCxho-cVbcLZ_f3Iqeb3bXF55RnaiYIG5gGpAnPtmDMbOqUY55nRDKI4ubJAwY5rCfnNwnOUcMKwLWykecUfdH5QbolQ1_wsdErhoWN4EAlwXC4irqJc4XIRg5Bp93nJ_3dEPiH-KpZF6Z9Yod6JpGxnNbAOKv8skZTJYdEvgB4YM-CRg_UEHVUCuuXVT2P4wLYU3XMMbQ90b9jP0mgvGM1Tf5ppHBMKdGbS4BWWCWAkY8PUwfqgII-B6jgdRz4-5aJKseLaLu_cbT79EOI_FNdROVs-S-YfHe9ZWY8NSifVPWUEYVjIK-2yrMh4SgVX4aazjRZ_-39hfIy85_hnYwTNkR1DHW_DPZ0M_WhyaIKS2aA0t22YedE7HgFiml3EXiHpGD27hXMCsqmXhasdX38GtfuGB_asozqM_W6-PZzLo_0x7dwf7h3LFERf_MUwebm_hmdcMsYbHBxP-L0JtsV8HQMM4IMvHg18HdW4QmR9wnV7BjuLcP7i0Y9UYuaEmVcYM0Fy49zAA62q6wMcB1AcomjYahOht9wGgTSPY_WPdWAoOBcetWJbBC9bOYkdLFIVOyWY-LHlEoBYPyupyQWHd1ziYnLnAQA-gzHHlEunUSF3W959jPEYLVUHCca3J5vdv1qTGUGBGvexKQD6rg2qF8nmk4DzJNrpB3b2jJNw8Cu3BkuxQrsJBrDkev2EahcyCnidNTHMrgdaSQnd6vp2ef3IaTg5lJ9a- -QkYhzQiH36P2R0r9Z65o0mLwBMc178gF1bOaeyTSE58dryiuy52mC7otc5uu31kGR3NOGhX3mgtAJcXnb_woH2gIMrzzqeWUm1fJav6uQVewipo4bA4yRRVHRP6QUTDIrLNzdc5raHr6HfwGz9ts3iIVY4uty4GKrX12aNkAms8tu60_sCxqQbZEj0l8kOPjElTE1plsHQztxY26_7e9KniZ0k_PM1ErhIMRY1kNhKQdOTmDTLf3Pjkcr9uckdx4sPh7U6FuG__Wmtm4jXA2YgY-EacemMYdkOVqJUY_Bd4q89urlLQsBxkXzmsDSAXFzq65TqBxJ0gABBSHMXmFxYMZzeDbgS-YhjGJIO_1Vadg5BwdOBMGOYqXxVFem8z7DPIhiqLoAlL_mT4mIs3eZwZ9BMA6sJmjrxQaemG5nY3kXUwOLTA_7losX7VSzdbNmlxAXIZXdVL-SZc-lWH5Ky4p9Btz1bS-47xQXPQyw47_OFynTd_lq5TWa2xwX-jJE72eDYOBDtZ-k7k0L22fCcwcM1yZT7qBOoOu1CESw17aV7rnt7GCQhq3OeiI6DRRIc_l70kkPrsQaJojSYE4ZOYxJOPhZzacQfcOdxzYn-55m50n5jmQbmEzAN0ZCwoCMLvXdLd_EWOFHjxaSkcN02X8YLRHTjkWsutivc12jSSojqqzyZsQ3HakSC9vMeuhscyQimtXwtOFsBKZvAgrr4vgfvJVoGPcoY9ZLIMifC1BK3rf1yaf7bWWPckqKTf1tUQ25vlpZDvtoq1PEpTqp9qvCZtH_Ft1NtM3nviTsvbKAo7ueBL1- -3GuXvNU309OVoHtrnU5Y1MpIWbMIRDudWkMCIO9FcFHIlCdn0ExcnNuskpkrMcVq_1XTLKS-rC56LERHyUgwBhBf3rfZxekx3uqwsBb1QdfEwHCMKMBIs1419p4mot2LVnoLdhmEINPJsydCuqKfASDRlEhjqi1DUXiZD6rvdnt8JzfabQCoN_ToYjgyYyWShQyAlUYHWiIHsZnjVD47DBBzBZYjBi2OTe4d7Z7H9IwSUahKD7molpJOOJL4bxZfTIx5Y6zwvQtV4HFZ7BOVLKiCWBINUCxfCZW-G1RykqhJeAiPwXljezUplTXuTR47k1XdgF24KWBf3rj_0iAi3AKkOkPn6FikA_b8YUr5yF_Gi0]--></g></svg>