<?xml version="1.0" encoding="us-ascii" standalone="no"?><svg xmlns="http://www.w3.org/2000/svg" xmlns:xlink="http://www.w3.org/1999/xlink" contentStyleType="text/css" height="813px" preserveAspectRatio="none" style="width:975px;height:813px;background:#FFFFFF;" version="1.1" viewBox="0 0 975 813" width="975px" zoomAndPan="magnify"><defs><filter height="300%" id="fa7xz5f9uk01l" width="300%" x="-1" y="-1"><feGaussianBlur result="blurOut" stdDeviation="2.0"/><feColorMatrix in="blurOut" result="blurOut2" type="matrix" values="0 0 0 0 0 0 0 0 0 0 0 0 0 0 0 0 0 0 .4 0"/><feOffset dx="4.0" dy="4.0" in="blurOut2" result="blurOut3"/><feBlend in="SourceGraphic" in2="blurOut3" mode="normal"/></filter></defs><g><text fill="#000000" font-family="Verdana" font-size="22" font-weight="bold" lengthAdjust="spacing" textLength="942" x="15" y="37.1182">Track Order &amp; Delivery - High-Level Sequence Diagram (Stakeholder View)</text><text fill="#000000" font-family="Verdana" font-size="22" font-weight="bold" lengthAdjust="spacing" textLength="366" x="303" y="63.8555">Online Food Ordering System</text><rect fill="#FFFFFF" filter="url(#fa7xz5f9uk01l)" height="542.5884" style="stroke:#000000;stroke-width:1.0;" width="10" x="138.75" y="170.4893"/><rect fill="#FFFFFF" filter="url(#fa7xz5f9uk01l)" height="476.9897" style="stroke:#000000;stroke-width:1.0;" width="10" x="331.75" y="236.0879"/><rect fill="#FFFFFF" filter="url(#fa7xz5f9uk01l)" height="29.7993" style="stroke:#000000;stroke-width:1.0;" width="10" x="521.25" y="295.6865"/><rect fill="#FFFFFF" filter="url(#fa7xz5f9uk01l)" height="298.1938" style="stroke:#000000;stroke-width:1.0;" width="10" x="642.75" y="325.4858"/><rect fill="#FFFFFF" filter="url(#fa7xz5f9uk01l)" height="29.7993" style="stroke:#000000;stroke-width:1.0;" width="10" x="791.75" y="428.8838"/><rect fill="#FFFFFF" filter="url(#fa7xz5f9uk01l)" height="29.7993" style="stroke:#000000;stroke-width:1.0;" width="10" x="791.75" y="653.479"/><rect fill="#FFFFFF" filter="url(#fa7xz5f9uk01l)" height="77.3979" rx="6" ry="6" style="stroke:#000000;stroke-width:1.0;" width="615.5" x="96.25" y="473.6831"/><line style="stroke:#000000;stroke-width:1.0;" x1="143.25" x2="143.25" y1="160.4893" y2="731.0776"/><line style="stroke:#000000;stroke-width:1.0;" x1="336.75" x2="336.75" y1="160.4893" y2="731.0776"/><line style="stroke:#000000;stroke-width:1.0;" x1="525.75" x2="525.75" y1="160.4893" y2="731.0776"/><line style="stroke:#000000;stroke-width:1.0;" x1="647.75" x2="647.75" y1="160.4893" y2="731.0776"/><line style="stroke:#000000;stroke-width:1.0;" x1="796.75" x2="796.75" y1="160.4893" y2="731.0776"/><text fill="#000000" font-family="Verdana" font-size="14" lengthAdjust="spacing" textLength="69" x="106.25" y="157.5498">Customer</text><ellipse cx="143.75" cy="88.4746" fill="#FFFFFF" filter="url(#fa7xz5f9uk01l)" rx="8" ry="8" style="stroke:#000000;stroke-width:1.0;"/><path d="M143.75,96.4746 L143.75,123.4746 M130.75,104.4746 L156.75,104.4746 M143.75,123.4746 L130.75,138.4746 M143.75,123.4746 L156.75,138.4746 " fill="none" filter="url(#fa7xz5f9uk01l)" style="stroke:#000000;stroke-width:1.0;"/><text fill="#000000" font-family="Verdana" font-size="14" lengthAdjust="spacing" textLength="69" x="106.25" y="744.1528">Customer</text><ellipse cx="143.75" cy="756.0923" fill="#FFFFFF" filter="url(#fa7xz5f9uk01l)" rx="8" ry="8" style="stroke:#000000;stroke-width:1.0;"/><path d="M143.75,764.0923 L143.75,791.0923 M130.75,772.0923 L156.75,772.0923 M143.75,791.0923 L130.75,806.0923 M143.75,791.0923 L156.75,806.0923 " fill="none" filter="url(#fa7xz5f9uk01l)" style="stroke:#000000;stroke-width:1.0;"/><rect fill="#FFFFFF" filter="url(#fa7xz5f9uk01l)" height="31.0146" rx="6" ry="6" style="stroke:#000000;stroke-width:1.0;" width="221" x="224.75" y="125.4746"/><text fill="#000000" font-family="Verdana" font-size="14" lengthAdjust="spacing" textLength="207" x="231.75" y="146.5498">Online Food Ordering System</text><rect fill="#FFFFFF" filter="url(#fa7xz5f9uk01l)" height="31.0146" rx="6" ry="6" style="stroke:#000000;stroke-width:1.0;" width="221" x="224.75" y="730.0776"/><text fill="#000000" font-family="Verdana" font-size="14" lengthAdjust="spacing" textLength="207" x="231.75" y="751.1528">Online Food Ordering System</text><rect fill="#FFFFFF" filter="url(#fa7xz5f9uk01l)" height="31.0146" rx="6" ry="6" style="stroke:#000000;stroke-width:1.0;" width="92" x="478.75" y="125.4746"/><text fill="#000000" font-family="Verdana" font-size="14" lengthAdjust="spacing" textLength="78" x="485.75" y="146.5498">Restaurant</text><rect fill="#FFFFFF" filter="url(#fa7xz5f9uk01l)" height="31.0146" rx="6" ry="6" style="stroke:#000000;stroke-width:1.0;" width="92" x="478.75" y="730.0776"/><text fill="#000000" font-family="Verdana" font-size="14" lengthAdjust="spacing" textLength="78" x="485.75" y="751.1528">Restaurant</text><text fill="#000000" font-family="Verdana" font-size="14" lengthAdjust="spacing" textLength="102" x="593.75" y="157.5498">Delivery Driver</text><ellipse cx="647.75" cy="88.4746" fill="#FFFFFF" filter="url(#fa7xz5f9uk01l)" rx="8" ry="8" style="stroke:#000000;stroke-width:1.0;"/><path d="M647.75,96.4746 L647.75,123.4746 M634.75,104.4746 L660.75,104.4746 M647.75,123.4746 L634.75,138.4746 M647.75,123.4746 L660.75,138.4746 " fill="none" filter="url(#fa7xz5f9uk01l)" style="stroke:#000000;stroke-width:1.0;"/><text fill="#000000" font-family="Verdana" font-size="14" lengthAdjust="spacing" textLength="102" x="593.75" y="744.1528">Delivery Driver</text><ellipse cx="647.75" cy="756.0923" fill="#FFFFFF" filter="url(#fa7xz5f9uk01l)" rx="8" ry="8" style="stroke:#000000;stroke-width:1.0;"/><path d="M647.75,764.0923 L647.75,791.0923 M634.75,772.0923 L660.75,772.0923 M647.75,791.0923 L634.75,806.0923 M647.75,791.0923 L660.75,806.0923 " fill="none" filter="url(#fa7xz5f9uk01l)" style="stroke:#000000;stroke-width:1.0;"/><rect fill="#FFFFFF" filter="url(#fa7xz5f9uk01l)" height="31.0146" rx="6" ry="6" style="stroke:#000000;stroke-width:1.0;" width="147" x="721.75" y="125.4746"/><text fill="#000000" font-family="Verdana" font-size="14" lengthAdjust="spacing" textLength="133" x="728.75" y="146.5498">Notification Service</text><rect fill="#FFFFFF" filter="url(#fa7xz5f9uk01l)" height="31.0146" rx="6" ry="6" style="stroke:#000000;stroke-width:1.0;" width="147" x="721.75" y="730.0776"/><text fill="#000000" font-family="Verdana" font-size="14" lengthAdjust="spacing" textLength="133" x="728.75" y="751.1528">Notification Service</text><rect fill="#FFFFFF" filter="url(#fa7xz5f9uk01l)" height="542.5884" style="stroke:#000000;stroke-width:1.0;" width="10" x="138.75" y="170.4893"/><rect fill="#FFFFFF" filter="url(#fa7xz5f9uk01l)" height="476.9897" style="stroke:#000000;stroke-width:1.0;" width="10" x="331.75" y="236.0879"/><rect fill="#FFFFFF" filter="url(#fa7xz5f9uk01l)" height="29.7993" style="stroke:#000000;stroke-width:1.0;" width="10" x="521.25" y="295.6865"/><rect fill="#FFFFFF" filter="url(#fa7xz5f9uk01l)" height="298.1938" style="stroke:#000000;stroke-width:1.0;" width="10" x="642.75" y="325.4858"/><rect fill="#FFFFFF" filter="url(#fa7xz5f9uk01l)" height="29.7993" style="stroke:#000000;stroke-width:1.0;" width="10" x="791.75" y="428.8838"/><rect fill="#FFFFFF" filter="url(#fa7xz5f9uk01l)" height="29.7993" style="stroke:#000000;stroke-width:1.0;" width="10" x="791.75" y="653.479"/><rect fill="#FFFFFF" filter="url(#fa7xz5f9uk01l)" height="3" rx="6" ry="6" style="stroke:#FFFFFF;stroke-width:1.0;" width="800.5" x="86.25" y="191.3889"/><line style="stroke:#000000;stroke-width:0.5;" x1="86.25" x2="886.75" y1="191.3889" y2="191.3889"/><line style="stroke:#000000;stroke-width:0.5;" x1="86.25" x2="886.75" y1="194.3889" y2="194.3889"/><rect fill="#FFFFFF" filter="url(#fa7xz5f9uk01l)" height="23.7993" rx="6" ry="6" style="stroke:#000000;stroke-width:1.0;" width="151" x="411" y="180.4893"/><text fill="#000000" font-family="Verdana" font-size="13" font-weight="bold" lengthAdjust="spacing" textLength="133" x="417" y="197.5591">Preparation Phase</text><polygon fill="#000000" points="319.75,232.0879,329.75,236.0879,319.75,240.0879,323.75,236.0879" style="stroke:#000000;stroke-width:1.0;"/><line style="stroke:#000000;stroke-width:1.5;" x1="148.75" x2="325.75" y1="236.0879" y2="236.0879"/><text fill="#000000" font-family="Verdana" font-size="13" lengthAdjust="spacing" textLength="146" x="167.25" y="231.3584">[1] View Order Status</text><polygon fill="#000000" points="159.75,261.8872,149.75,265.8872,159.75,269.8872,155.75,265.8872" style="stroke:#000000;stroke-width:1.0;"/><line style="stroke:#000000;stroke-width:1.5;stroke-dasharray:2.0,2.0;" x1="153.75" x2="330.75" y1="265.8872" y2="265.8872"/><text fill="#000000" font-family="Verdana" font-size="13" lengthAdjust="spacing" textLength="159" x="160.75" y="261.1577">Display "Preparing Food"</text><polygon fill="#000000" points="352.75,291.6865,342.75,295.6865,352.75,299.6865,348.75,295.6865" style="stroke:#000000;stroke-width:1.0;"/><line style="stroke:#000000;stroke-width:1.5;" x1="346.75" x2="520.25" y1="295.6865" y2="295.6865"/><text fill="#000000" font-family="Verdana" font-size="13" lengthAdjust="spacing" textLength="152" x="355.5" y="290.957">[2] Mark Order "Ready"</text><polygon fill="#000000" points="630.75,321.4858,640.75,325.4858,630.75,329.4858,634.75,325.4858" style="stroke:#000000;stroke-width:1.0;"/><line style="stroke:#000000;stroke-width:1.5;" x1="341.75" x2="636.75" y1="325.4858" y2="325.4858"/><text fill="#000000" font-family="Verdana" font-size="13" lengthAdjust="spacing" textLength="110" x="437.25" y="320.7563">[3] Assign Driver</text><rect fill="#FFFFFF" filter="url(#fa7xz5f9uk01l)" height="3" rx="6" ry="6" style="stroke:#FFFFFF;stroke-width:1.0;" width="800.5" x="86.25" y="354.3855"/><line style="stroke:#000000;stroke-width:0.5;" x1="86.25" x2="886.75" y1="354.3855" y2="354.3855"/><line style="stroke:#000000;stroke-width:0.5;" x1="86.25" x2="886.75" y1="357.3855" y2="357.3855"/><rect fill="#FFFFFF" filter="url(#fa7xz5f9uk01l)" height="23.7993" rx="6" ry="6" style="stroke:#000000;stroke-width:1.0;" width="135" x="419" y="343.4858"/><text fill="#000000" font-family="Verdana" font-size="13" font-weight="bold" lengthAdjust="spacing" textLength="117" x="425" y="360.5557">In Transit Phase</text><polygon fill="#000000" points="352.75,395.0845,342.75,399.0845,352.75,403.0845,348.75,399.0845" style="stroke:#000000;stroke-width:1.0;"/><line style="stroke:#000000;stroke-width:1.5;" x1="346.75" x2="641.75" y1="399.0845" y2="399.0845"/><text fill="#000000" font-family="Verdana" font-size="13" lengthAdjust="spacing" textLength="113" x="435.75" y="394.355">[4] Pick up Order</text><polygon fill="#000000" points="779.75,424.8838,789.75,428.8838,779.75,432.8838,783.75,428.8838" style="stroke:#000000;stroke-width:1.0;"/><line style="stroke:#000000;stroke-width:1.5;" x1="341.75" x2="785.75" y1="428.8838" y2="428.8838"/><text fill="#000000" font-family="Verdana" font-size="13" lengthAdjust="spacing" textLength="131" x="501.25" y="424.1543">[5] Notify Customer</text><polygon fill="#000000" points="159.75,454.6831,149.75,458.6831,159.75,462.6831,155.75,458.6831" style="stroke:#000000;stroke-width:1.0;"/><line style="stroke:#000000;stroke-width:1.5;stroke-dasharray:2.0,2.0;" x1="153.75" x2="795.75" y1="458.6831" y2="458.6831"/><text fill="#000000" font-family="Verdana" font-size="13" lengthAdjust="spacing" textLength="143" x="401.25" y="453.9536">"Driver is on the way"</text><path d="M102.25,473.6831 L172.25,473.6831 L172.25,481.4824 L162.25,491.4824 L96.25,491.4824 L96.25,479.6831 A6,6 0 0 1 102.25,473.6831 " fill="#FFFFFF" style="stroke:#000000;stroke-width:1.0;"/><rect fill="none" height="77.3979" rx="6" ry="6" style="stroke:#000000;stroke-width:1.0;" width="615.5" x="96.25" y="473.6831"/><text fill="#000000" font-family="Verdana" font-size="13" font-weight="bold" lengthAdjust="spacing" textLength="31" x="111.25" y="487.7529">loop</text><text fill="#000000" font-family="Verdana" font-size="11" font-weight="bold" lengthAdjust="spacing" textLength="108" x="187.25" y="486.7422">[Delivery Route]</text><polygon fill="#000000" points="352.75,509.2817,342.75,513.2817,352.75,517.2817,348.75,513.2817" style="stroke:#000000;stroke-width:1.0;"/><line style="stroke:#000000;stroke-width:1.5;" x1="346.75" x2="641.75" y1="513.2817" y2="513.2817"/><text fill="#000000" font-family="Verdana" font-size="13" lengthAdjust="spacing" textLength="133" x="425.75" y="508.5522">[6] Update Location</text><polygon fill="#000000" points="159.75,539.0811,149.75,543.0811,159.75,547.0811,155.75,543.0811" style="stroke:#000000;stroke-width:1.0;"/><line style="stroke:#000000;stroke-width:1.5;stroke-dasharray:2.0,2.0;" x1="153.75" x2="330.75" y1="543.0811" y2="543.0811"/><text fill="#000000" font-family="Verdana" font-size="13" lengthAdjust="spacing" textLength="155" x="162.75" y="538.3516">Update Live Map &amp; ETA</text><rect fill="#FFFFFF" filter="url(#fa7xz5f9uk01l)" height="3" rx="6" ry="6" style="stroke:#FFFFFF;stroke-width:1.0;" width="800.5" x="86.25" y="578.9807"/><line style="stroke:#000000;stroke-width:0.5;" x1="86.25" x2="886.75" y1="578.9807" y2="578.9807"/><line style="stroke:#000000;stroke-width:0.5;" x1="86.25" x2="886.75" y1="581.9807" y2="581.9807"/><rect fill="#FFFFFF" filter="url(#fa7xz5f9uk01l)" height="23.7993" rx="6" ry="6" style="stroke:#000000;stroke-width:1.0;" width="126" x="423.5" y="568.0811"/><text fill="#000000" font-family="Verdana" font-size="13" font-weight="bold" lengthAdjust="spacing" textLength="108" x="429.5" y="585.1509">Delivery Phase</text><polygon fill="#000000" points="352.75,619.6797,342.75,623.6797,352.75,627.6797,348.75,623.6797" style="stroke:#000000;stroke-width:1.0;"/><line style="stroke:#000000;stroke-width:1.5;" x1="346.75" x2="646.75" y1="623.6797" y2="623.6797"/><text fill="#000000" font-family="Verdana" font-size="13" lengthAdjust="spacing" textLength="121" x="434.25" y="618.9502">[7] Mark Delivered</text><polygon fill="#000000" points="779.75,649.479,789.75,653.479,779.75,657.479,783.75,653.479" style="stroke:#000000;stroke-width:1.0;"/><line style="stroke:#000000;stroke-width:1.5;" x1="341.75" x2="785.75" y1="653.479" y2="653.479"/><text fill="#000000" font-family="Verdana" font-size="13" lengthAdjust="spacing" textLength="154" x="489.75" y="648.7495">[8] Send Success Alert</text><polygon fill="#000000" points="159.75,679.2783,149.75,683.2783,159.75,687.2783,155.75,683.2783" style="stroke:#000000;stroke-width:1.0;"/><line style="stroke:#000000;stroke-width:1.5;stroke-dasharray:2.0,2.0;" x1="153.75" x2="795.75" y1="683.2783" y2="683.2783"/><text fill="#000000" font-family="Verdana" font-size="13" lengthAdjust="spacing" textLength="111" x="417.25" y="678.5488">"Order Delivered"</text><polygon fill="#000000" points="154.75,709.0776,144.75,713.0776,154.75,717.0776,150.75,713.0776" style="stroke:#000000;stroke-width:1.0;"/><line style="stroke:#000000;stroke-width:1.5;stroke-dasharray:2.0,2.0;" x1="148.75" x2="335.75" y1="713.0776" y2="713.0776"/><text fill="#000000" font-family="Verdana" font-size="13" lengthAdjust="spacing" textLength="146" x="167.25" y="708.3481">[9] Request Feedback</text><!--SRC=[fPHDZzCm48Rl_XL33WWEHUh2yh5ILweeAv0MjceBboK7OyysLbCxs4wx_VUC4oTnKSGUo26nufbtPfuP-valS8zGbLnfvdPALzpoFRY2ItDKUWlUrfXiM5DhAOpLQ65waMpChJN7JQ74JgDpC7rrcMnAVE1rwJVuwEUbskezQW-2NcWPyygN21lBnGxkh2JXvx30KXtGdc02dzMscDpY0KjOu-yQjK1OABuDkY_Mdk-mC6Nm-g7m-FAdljEbqWWtniXMBbInFZcFUyQuyCR2nzfviwVOb9rNGbMSqid-uPW1Tvr6whD2vtbjQHcLipxnXGtVnh5TdWVxPhnwK89xPJJLPGzAO6ESRiJ_ZCrciBGOM3Rsou8xXDai15K7xd6eg5l0v3ec35TmFyqREX4lGVEr6vnZOT5yGfwzoXMXTZGS9yZQ10AJG2XZR2Z-FDX53b-vxNgPhP3BKpP4IvXr4QyZek3zEeUvSpGZ7JQ9Owu1oHSTfaOxvKU8HEyeV9RWcnoMDATGLssEIHuZz8F7PTxkd0RGVQ2nXet9_CKrYvaf1zHHEeLmv8GfgNPq4afZgk5qh4pjaG4zOtM-pU5x9OFKhMbb6jFnFdUM94Fjg-WCVjhC6MhPeEuZzg370hwBdO_MADDoOaEUXlq-fmEX9Qnh8S9LCY_H-l_dtOvZdzhJgCSvtN_8QGxf7d8URX3bBxgsKgbuc98__SZy0G00]--></g></svg>