<?xml version="1.0" encoding="us-ascii" standalone="no"?><svg xmlns="http://www.w3.org/2000/svg" xmlns:xlink="http://www.w3.org/1999/xlink" contentStyleType="text/css" height="909px" preserveAspectRatio="none" style="width:1948px;height:909px;background:#FFFFFF;" version="1.1" viewBox="0 0 1948 909" width="1948px" zoomAndPan="magnify"><defs><filter height="300%" id="fzlgvx0f2unfm" width="300%" x="-1" y="-1"><feGaussianBlur result="blurOut" stdDeviation="2.0"/><feColorMatrix in="blurOut" result="blurOut2" type="matrix" values="0 0 0 0 0 0 0 0 0 0 0 0 0 0 0 0 0 0 .4 0"/><feOffset dx="4.0" dy="4.0" in="blurOut2" result="blurOut3"/><feBlend in="SourceGraphic" in2="blurOut3" mode="normal"/></filter></defs><g><text fill="#2C3E50" font-family="Arial" font-size="14" font-weight="bold" lengthAdjust="spacing" textLength="129" x="902.565" y="23.1318">Data Flow Diagram</text><text fill="#2C3E50" font-family="Arial" font-size="14" font-weight="bold" lengthAdjust="spacing" textLength="207" x="863.565" y="39.2305">Online Food Ordering System</text><!--entity CUSTOMER--><g id="elem_CUSTOMER"><rect fill="#D6EAF8" filter="url(#fzlgvx0f2unfm)" height="33.7988" rx="6" ry="6" style="stroke:#181818;stroke-width:0.5;" width="75" x="684.63" y="60.1973"/><text fill="#2C3E50" font-family="Arial" font-size="12" lengthAdjust="spacing" textLength="55" x="694.63" y="81.4531">Customer</text></g><!--entity RESTAURANT--><g id="elem_RESTAURANT"><rect fill="#D6EAF8" filter="url(#fzlgvx0f2unfm)" height="33.7988" rx="6" ry="6" style="stroke:#181818;stroke-width:0.5;" width="81" x="957.63" y="736.6973"/><text fill="#2C3E50" font-family="Arial" font-size="12" lengthAdjust="spacing" textLength="61" x="967.63" y="757.9531">Restaurant</text></g><!--entity DELIVERY_AGENT--><g id="elem_DELIVERY_AGENT"><rect fill="#D6EAF8" filter="url(#fzlgvx0f2unfm)" height="33.7988" rx="6" ry="6" style="stroke:#181818;stroke-width:0.5;" width="97" x="847.63" y="854.6973"/><text fill="#2C3E50" font-family="Arial" font-size="12" lengthAdjust="spacing" textLength="77" x="857.63" y="875.9531">Delivery Agent</text></g><!--entity PAYMENT_GATEWAY--><g id="elem_PAYMENT_GATEWAY"><rect fill="#D6EAF8" filter="url(#fzlgvx0f2unfm)" height="33.7988" rx="6" ry="6" style="stroke:#181818;stroke-width:0.5;" width="118" x="1509.13" y="736.6973"/><text fill="#2C3E50" font-family="Arial" font-size="12" lengthAdjust="spacing" textLength="98" x="1519.13" y="757.9531">Payment Gateway</text></g><!--entity NOTIFICATION_SERVICE--><g id="elem_NOTIFICATION_SERVICE"><rect fill="#D6EAF8" filter="url(#fzlgvx0f2unfm)" height="33.7988" rx="6" ry="6" style="stroke:#181818;stroke-width:0.5;" width="124" x="1277.13" y="854.6973"/><text fill="#2C3E50" font-family="Arial" font-size="12" lengthAdjust="spacing" textLength="104" x="1287.13" y="875.9531">Notification Service</text></g><!--entity P1--><g id="elem_P1"><rect fill="#E8F8F5" filter="url(#fzlgvx0f2unfm)" height="33.7988" rx="6" ry="6" style="stroke:#181818;stroke-width:0.5;" width="142" x="46.13" y="169.1973"/><text fill="#2C3E50" font-family="Arial" font-size="12" lengthAdjust="spacing" textLength="122" x="56.13" y="190.4531">1.0 User Management</text></g><!--entity P2--><g id="elem_P2"><rect fill="#E8F8F5" filter="url(#fzlgvx0f2unfm)" height="33.7988" rx="6" ry="6" style="stroke:#181818;stroke-width:0.5;" width="115" x="332.63" y="282.6973"/><text fill="#2C3E50" font-family="Arial" font-size="12" lengthAdjust="spacing" textLength="95" x="342.63" y="303.9531">2.0 Browse Menu</text></g><!--entity P3--><g id="elem_P3"><rect fill="#E8F8F5" filter="url(#fzlgvx0f2unfm)" height="33.7988" rx="6" ry="6" style="stroke:#181818;stroke-width:0.5;" width="138" x="537.13" y="396.1973"/><text fill="#2C3E50" font-family="Arial" font-size="12" lengthAdjust="spacing" textLength="118" x="547.13" y="417.4531">3.0 Cart Management</text></g><!--entity P4--><g id="elem_P4"><rect fill="#E8F8F5" filter="url(#fzlgvx0f2unfm)" height="33.7988" rx="6" ry="6" style="stroke:#181818;stroke-width:0.5;" width="137" x="790.63" y="505.1973"/><text fill="#2C3E50" font-family="Arial" font-size="12" lengthAdjust="spacing" textLength="117" x="800.63" y="526.4531">4.0 Order Processing</text></g><!--entity P5--><g id="elem_P5"><rect fill="#E8F8F5" filter="url(#fzlgvx0f2unfm)" height="33.7988" rx="6" ry="6" style="stroke:#181818;stroke-width:0.5;" width="95" x="1510.63" y="618.6973"/><text fill="#2C3E50" font-family="Arial" font-size="12" lengthAdjust="spacing" textLength="75" x="1520.63" y="639.9531">5.0 Payments</text></g><!--entity P6--><g id="elem_P6"><rect fill="#E8F8F5" filter="url(#fzlgvx0f2unfm)" height="33.7988" rx="6" ry="6" style="stroke:#181818;stroke-width:0.5;" width="142" x="909.13" y="618.6973"/><text fill="#2C3E50" font-family="Arial" font-size="12" lengthAdjust="spacing" textLength="122" x="919.13" y="639.9531">6.0 Restaurant Orders</text></g><!--entity P7--><g id="elem_P7"><rect fill="#E8F8F5" filter="url(#fzlgvx0f2unfm)" height="33.7988" rx="6" ry="6" style="stroke:#181818;stroke-width:0.5;" width="133" x="760.63" y="736.6973"/><text fill="#2C3E50" font-family="Arial" font-size="12" lengthAdjust="spacing" textLength="113" x="770.63" y="757.9531">7.0 Delivery Tracking</text></g><!--entity P8--><g id="elem_P8"><rect fill="#E8F8F5" filter="url(#fzlgvx0f2unfm)" height="33.7988" rx="6" ry="6" style="stroke:#181818;stroke-width:0.5;" width="108" x="1251.13" y="736.6973"/><text fill="#2C3E50" font-family="Arial" font-size="12" lengthAdjust="spacing" textLength="88" x="1261.13" y="757.9531">8.0 Notifications</text></g><!--entity D1--><g id="elem_D1"><path d="M30.13,288.1973 C30.13,278.1973 68.13,278.1973 68.13,278.1973 C68.13,278.1973 106.13,278.1973 106.13,288.1973 L106.13,310.9961 C106.13,320.9961 68.13,320.9961 68.13,320.9961 C68.13,320.9961 30.13,320.9961 30.13,310.9961 L30.13,288.1973 " fill="#FDEBD0" filter="url(#fzlgvx0f2unfm)" style="stroke:#181818;stroke-width:0.5;"/><path d="M30.13,288.1973 C30.13,298.1973 68.13,298.1973 68.13,298.1973 C68.13,298.1973 106.13,298.1973 106.13,288.1973 " fill="none" style="stroke:#181818;stroke-width:0.5;"/><text fill="#2C3E50" font-family="Arial" font-size="12" lengthAdjust="spacing" textLength="56" x="40.13" y="313.4531">D1: Users</text></g><!--entity D2--><g id="elem_D2"><path d="M417.13,742.1973 C417.13,732.1973 494.13,732.1973 494.13,732.1973 C494.13,732.1973 571.13,732.1973 571.13,742.1973 L571.13,764.9961 C571.13,774.9961 494.13,774.9961 494.13,774.9961 C494.13,774.9961 417.13,774.9961 417.13,764.9961 L417.13,742.1973 " fill="#FDEBD0" filter="url(#fzlgvx0f2unfm)" style="stroke:#181818;stroke-width:0.5;"/><path d="M417.13,742.1973 C417.13,752.1973 494.13,752.1973 494.13,752.1973 C494.13,752.1973 571.13,752.1973 571.13,742.1973 " fill="none" style="stroke:#181818;stroke-width:0.5;"/><text fill="#2C3E50" font-family="Arial" font-size="12" lengthAdjust="spacing" textLength="134" x="427.13" y="767.4531">D2: Restaurants &amp; Menu</text></g><!--entity D3--><g id="elem_D3"><path d="M451.13,624.1973 C451.13,614.1973 515.13,614.1973 515.13,614.1973 C515.13,614.1973 579.13,614.1973 579.13,624.1973 L579.13,646.9961 C579.13,656.9961 515.13,656.9961 515.13,656.9961 C515.13,656.9961 451.13,656.9961 451.13,646.9961 L451.13,624.1973 " fill="#FDEBD0" filter="url(#fzlgvx0f2unfm)" style="stroke:#181818;stroke-width:0.5;"/><path d="M451.13,624.1973 C451.13,634.1973 515.13,634.1973 515.13,634.1973 C515.13,634.1973 579.13,634.1973 579.13,624.1973 " fill="none" style="stroke:#181818;stroke-width:0.5;"/><text fill="#2C3E50" font-family="Arial" font-size="12" lengthAdjust="spacing" textLength="108" x="461.13" y="649.4531">D3: Shopping Carts</text></g><!--entity D4--><g id="elem_D4"><path d="M622.13,624.1973 C622.13,614.1973 662.13,614.1973 662.13,614.1973 C662.13,614.1973 702.13,614.1973 702.13,624.1973 L702.13,646.9961 C702.13,656.9961 662.13,656.9961 662.13,656.9961 C662.13,656.9961 622.13,656.9961 622.13,646.9961 L622.13,624.1973 " fill="#FDEBD0" filter="url(#fzlgvx0f2unfm)" style="stroke:#181818;stroke-width:0.5;"/><path d="M622.13,624.1973 C622.13,634.1973 662.13,634.1973 662.13,634.1973 C662.13,634.1973 702.13,634.1973 702.13,624.1973 " fill="none" style="stroke:#181818;stroke-width:0.5;"/><text fill="#2C3E50" font-family="Arial" font-size="12" lengthAdjust="spacing" textLength="60" x="632.13" y="649.4531">D4: Orders</text></g><!--entity D5--><g id="elem_D5"><path d="M1805.63,742.1973 C1805.63,732.1973 1854.13,732.1973 1854.13,732.1973 C1854.13,732.1973 1902.63,732.1973 1902.63,742.1973 L1902.63,764.9961 C1902.63,774.9961 1854.13,774.9961 1854.13,774.9961 C1854.13,774.9961 1805.63,774.9961 1805.63,764.9961 L1805.63,742.1973 " fill="#FDEBD0" filter="url(#fzlgvx0f2unfm)" style="stroke:#181818;stroke-width:0.5;"/><path d="M1805.63,742.1973 C1805.63,752.1973 1854.13,752.1973 1854.13,752.1973 C1854.13,752.1973 1902.63,752.1973 1902.63,742.1973 " fill="none" style="stroke:#181818;stroke-width:0.5;"/><text fill="#2C3E50" font-family="Arial" font-size="12" lengthAdjust="spacing" textLength="77" x="1815.63" y="767.4531">D5: Payments</text></g><!--entity D6--><g id="elem_D6"><path d="M655.13,860.1973 C655.13,850.1973 712.13,850.1973 712.13,850.1973 C712.13,850.1973 769.13,850.1973 769.13,860.1973 L769.13,882.9961 C769.13,892.9961 712.13,892.9961 712.13,892.9961 C712.13,892.9961 655.13,892.9961 655.13,882.9961 L655.13,860.1973 " fill="#FDEBD0" filter="url(#fzlgvx0f2unfm)" style="stroke:#181818;stroke-width:0.5;"/><path d="M655.13,860.1973 C655.13,870.1973 712.13,870.1973 712.13,870.1973 C712.13,870.1973 769.13,870.1973 769.13,860.1973 " fill="none" style="stroke:#181818;stroke-width:0.5;"/><text fill="#2C3E50" font-family="Arial" font-size="12" lengthAdjust="spacing" textLength="94" x="665.13" y="885.4531">D6: Delivery Data</text></g><!--link CUSTOMER to P1--><g id="link_CUSTOMER_P1"><path d="M684.4,78.1273 C557.11,78.2773 149.22,82.0673 110.13,124.1973 C99.11,136.0773 101.4147,149.7892 106.9147,163.4892 " fill="none" id="CUSTOMER-to-P1" style="stroke:#34495E;stroke-width:1.2;"/><polygon fill="#34495E" points="109.15,169.0573,109.509,159.215,107.2872,164.4172,102.0849,162.1954,109.15,169.0573" style="stroke:#34495E;stroke-width:1.2;"/><text fill="#2C3E50" font-family="Arial" font-size="12" lengthAdjust="spacing" textLength="87" x="111.13" y="136.4531">Register / Login</text></g><!--link P1 to CUSTOMER--><g id="link_P1_CUSTOMER"><path d="M146.12,169.1473 C175.92,152.9373 220.52,129.5373 239.13,124.1973 C322.73,100.2173 579.7477,85.3006 678.3277,80.3106 " fill="none" id="P1-to-CUSTOMER" style="stroke:#34495E;stroke-width:1.2;"/><polygon fill="#34495E" points="684.32,80.0073,675.1293,76.4674,679.3264,80.26,675.5337,84.4571,684.32,80.0073" style="stroke:#34495E;stroke-width:1.2;"/><text fill="#2C3E50" font-family="Arial" font-size="12" lengthAdjust="spacing" textLength="123" x="240.13" y="136.4531">Authenticated Session</text></g><!--link CUSTOMER to P2--><g id="link_CUSTOMER_P2"><path d="M684.51,94.0573 C647.07,110.5573 588.64,138.2673 542.13,169.1973 C488.73,204.7073 437.4302,252.3429 410.7002,278.3529 " fill="none" id="CUSTOMER-to-P2" style="stroke:#34495E;stroke-width:1.2;"/><polygon fill="#34495E" points="406.4,282.5373,415.6398,279.1275,409.9835,279.0503,410.0607,273.394,406.4,282.5373" style="stroke:#34495E;stroke-width:1.2;"/><text fill="#2C3E50" font-family="Arial" font-size="12" lengthAdjust="spacing" textLength="117" x="543.13" y="190.9531">Browse/Search Menu</text></g><!--link P2 to CUSTOMER--><g id="link_P2_CUSTOMER"><path d="M391.08,282.3173 C393.55,255.0373 402.4,200.2573 434.13,169.1973 C503.65,101.1573 617.6552,84.3734 678.4652,80.0434 " fill="none" id="P2-to-CUSTOMER" style="stroke:#34495E;stroke-width:1.2;"/><polygon fill="#34495E" points="684.45,79.6173,675.1886,76.2666,679.4626,79.9724,675.7568,84.2464,684.45,79.6173" style="stroke:#34495E;stroke-width:1.2;"/><text fill="#2C3E50" font-family="Arial" font-size="12" lengthAdjust="spacing" textLength="53" x="435.13" y="190.9531">Menu List</text></g><!--link CUSTOMER to P3--><g id="link_CUSTOMER_P3"><path d="M718.38,94.2873 C711.65,120.0673 695.32,171.0173 665.13,203.1973 C645.82,223.7873 623.84,209.0973 609.13,233.1973 C577.32,285.3273 591.0428,357.0975 599.8528,390.3375 " fill="none" id="CUSTOMER-to-P3" style="stroke:#34495E;stroke-width:1.2;"/><polygon fill="#34495E" points="601.39,396.1373,602.9507,386.4129,600.109,391.3041,595.2177,388.4624,601.39,396.1373" style="stroke:#34495E;stroke-width:1.2;"/><text fill="#2C3E50" font-family="Arial" font-size="12" lengthAdjust="spacing" textLength="104" x="610.13" y="245.4531">Add/Remove Items</text></g><!--link P3 to CUSTOMER--><g id="link_P3_CUSTOMER"><path d="M621.36,396.0573 C646.53,368.3173 696.29,308.6873 719.13,248.1973 C734.42,207.7073 736.7,166.6873 732.13,124.1973 C731.05,114.1173 730.1096,108.842 727.9396,100.062 " fill="none" id="P3-to-CUSTOMER" style="stroke:#34495E;stroke-width:1.2;"/><polygon fill="#34495E" points="726.5,94.2373,724.7762,103.9341,727.6997,99.0912,732.5426,102.0146,726.5,94.2373" style="stroke:#34495E;stroke-width:1.2;"/><text fill="#2C3E50" font-family="Arial" font-size="12" lengthAdjust="spacing" textLength="73" x="725.13" y="245.4531">Updated Cart</text></g><!--link CUSTOMER to P4--><g id="link_CUSTOMER_P4"><path d="M759.65,83.0373 C842.36,94.7473 1033.13,127.9573 1033.13,185.1973 C1033.13,185.1973 1033.13,185.1973 1033.13,414.1973 C1033.13,465.9773 982.3031,491.8278 933.6631,505.9178 " fill="none" id="CUSTOMER-to-P4" style="stroke:#34495E;stroke-width:1.2;"/><polygon fill="#34495E" points="927.9,507.5873,937.6576,508.9251,932.7026,506.1961,935.4316,501.2411,927.9,507.5873" style="stroke:#34495E;stroke-width:1.2;"/><text fill="#2C3E50" font-family="Arial" font-size="12" lengthAdjust="spacing" textLength="65" x="1034.13" y="304.4531">Place Order</text></g><!--link P4 to CUSTOMER--><g id="link_P4_CUSTOMER"><path d="M858.39,504.8873 C857.5,483.9073 856.13,446.3473 856.13,414.1973 C856.13,185.1973 856.13,185.1973 856.13,185.1973 C856.13,135.6273 805.0535,107.4222 765.4235,92.2522 " fill="none" id="P4-to-CUSTOMER" style="stroke:#34495E;stroke-width:1.2;"/><polygon fill="#34495E" points="759.82,90.1073,766.7953,97.0604,764.4896,91.8947,769.6552,89.5891,759.82,90.1073" style="stroke:#34495E;stroke-width:1.2;"/><text fill="#2C3E50" font-family="Arial" font-size="12" lengthAdjust="spacing" textLength="105" x="857.13" y="304.4531">Order Confirmation</text></g><!--link CUSTOMER to P5--><g id="link_CUSTOMER_P5"><path d="M759.8,79.6373 C910.39,85.8673 1461.13,113.5773 1461.13,185.1973 C1461.13,185.1973 1461.13,185.1973 1461.13,523.1973 C1461.13,565.6573 1496.6565,596.521 1525.3265,615.371 " fill="none" id="CUSTOMER-to-P5" style="stroke:#34495E;stroke-width:1.2;"/><polygon fill="#34495E" points="1530.34,618.6673,1525.0173,610.3806,1526.1621,615.9204,1520.6223,617.0652,1530.34,618.6673" style="stroke:#34495E;stroke-width:1.2;"/><text fill="#2C3E50" font-family="Arial" font-size="12" lengthAdjust="spacing" textLength="115" x="1462.13" y="363.4531">Provide Payment Info</text></g><!--link P5 to CUSTOMER--><g id="link_P5_CUSTOMER"><path d="M1573.59,618.4173 C1591.36,597.9073 1618.13,560.7873 1618.13,523.1973 C1618.13,185.1973 1618.13,185.1973 1618.13,185.1973 C1618.13,97.3173 935.8293,81.3797 765.7793,78.7597 " fill="none" id="P5-to-CUSTOMER" style="stroke:#34495E;stroke-width:1.2;"/><polygon fill="#34495E" points="759.78,78.6673,768.7173,82.8054,764.7794,78.7443,768.8406,74.8064,759.78,78.6673" style="stroke:#34495E;stroke-width:1.2;"/><text fill="#2C3E50" font-family="Arial" font-size="12" lengthAdjust="spacing" textLength="86" x="1619.13" y="363.4531">Payment Status</text></g><!--link RESTAURANT to P6--><g id="link_RESTAURANT_P6"><path d="M1038.93,742.0373 C1071.36,731.4073 1108.76,712.9273 1092.13,687.1973 C1081.83,671.2473 1070.6678,662.6672 1053.2878,655.1572 " fill="none" id="RESTAURANT-to-P6" style="stroke:#34495E;stroke-width:1.2;"/><polygon fill="#34495E" points="1047.78,652.7773,1054.4551,660.0191,1052.3698,654.7606,1057.6283,652.6753,1047.78,652.7773" style="stroke:#34495E;stroke-width:1.2;"/><text fill="#2C3E50" font-family="Arial" font-size="12" lengthAdjust="spacing" textLength="120" x="1097.13" y="699.4531">Update Menu / Orders</text></g><!--link P6 to RESTAURANT--><g id="link_P6_RESTAURANT"><path d="M975.45,652.7673 C972.26,666.1373 969.25,685.6073 973.13,702.1973 C975.99,714.3873 979.2381,721.8222 984.7681,731.3922 " fill="none" id="P6-to-RESTAURANT" style="stroke:#34495E;stroke-width:1.2;"/><polygon fill="#34495E" points="987.77,736.5873,986.7305,726.7934,985.2684,732.2581,979.8037,730.796,987.77,736.5873" style="stroke:#34495E;stroke-width:1.2;"/><text fill="#2C3E50" font-family="Arial" font-size="12" lengthAdjust="spacing" textLength="109" x="974.13" y="699.4531">Order Alerts / Status</text></g><!--link DELIVERY_AGENT to P7--><g id="link_DELIVERY_AGENT_P7"><path d="M944.95,864.3673 C992.84,856.0973 1055.19,838.5673 1029.13,805.1973 C1020.57,794.2273 955.0947,779.3476 899.5847,768.3076 " fill="none" id="DELIVERY_AGENT-to-P7" style="stroke:#34495E;stroke-width:1.2;"/><polygon fill="#34495E" points="893.7,767.1373,901.7469,772.816,898.604,768.1126,903.3074,764.9697,893.7,767.1373" style="stroke:#34495E;stroke-width:1.2;"/><text fill="#2C3E50" font-family="Arial" font-size="12" lengthAdjust="spacing" textLength="112" x="1036.13" y="817.4531">Availability / Location</text></g><!--link P7 to DELIVERY_AGENT--><g id="link_P7_DELIVERY_AGENT"><path d="M831.19,770.7973 C835.08,784.5373 841.74,804.5073 851.13,820.1973 C858.74,832.8873 865.5448,841.0573 874.7748,850.4073 " fill="none" id="P7-to-DELIVERY_AGENT" style="stroke:#34495E;stroke-width:1.2;"/><polygon fill="#34495E" points="878.99,854.6773,875.5139,845.4622,875.4774,851.119,869.8206,851.0824,878.99,854.6773" style="stroke:#34495E;stroke-width:1.2;"/><text fill="#2C3E50" font-family="Arial" font-size="12" lengthAdjust="spacing" textLength="168" x="852.13" y="817.4531">Delivery Assignment / Updates</text></g><!--link P5 to PAYMENT_GATEWAY--><g id="link_P5_PAYMENT_GATEWAY"><path d="M1524.73,652.8073 C1504.68,664.8773 1484.88,682.6373 1495.13,702.1973 C1502.93,717.0773 1512.1384,725.4122 1526.0984,733.5622 " fill="none" id="P5-to-PAYMENT_GATEWAY" style="stroke:#34495E;stroke-width:1.2;"/><polygon fill="#34495E" points="1531.28,736.5873,1525.5243,728.5953,1526.962,734.0664,1521.4909,735.5041,1531.28,736.5873" style="stroke:#34495E;stroke-width:1.2;"/><text fill="#2C3E50" font-family="Arial" font-size="12" lengthAdjust="spacing" textLength="98" x="1496.13" y="699.4531">Payment Request</text></g><!--link PAYMENT_GATEWAY to P5--><g id="link_PAYMENT_GATEWAY_P5"><path d="M1583.57,736.6673 C1594.18,723.6373 1605.32,704.6273 1599.13,687.1973 C1594.53,674.2173 1589.1511,666.4695 1580.4411,657.3795 " fill="none" id="PAYMENT_GATEWAY-to-P5" style="stroke:#34495E;stroke-width:1.2;"/><polygon fill="#34495E" points="1576.29,653.0473,1579.6285,662.313,1579.7493,656.6575,1585.4048,656.7782,1576.29,653.0473" style="stroke:#34495E;stroke-width:1.2;"/><text fill="#2C3E50" font-family="Arial" font-size="12" lengthAdjust="spacing" textLength="109" x="1601.13" y="699.4531">Authorization Result</text></g><!--link P8 to NOTIFICATION_SERVICE--><g id="link_P8_NOTIFICATION_SERVICE"><path d="M1287.09,770.7473 C1274.55,783.9473 1261.5,803.1773 1270.13,820.1973 C1277.59,834.8873 1286.4376,843.1967 1299.8676,851.4467 " fill="none" id="P8-to-NOTIFICATION_SERVICE" style="stroke:#34495E;stroke-width:1.2;"/><polygon fill="#34495E" points="1304.98,854.5873,1299.4051,846.4682,1300.7196,851.9701,1295.2177,853.2847,1304.98,854.5873" style="stroke:#34495E;stroke-width:1.2;"/><text fill="#2C3E50" font-family="Arial" font-size="12" lengthAdjust="spacing" textLength="90" x="1271.13" y="817.4531">Notification Data</text></g><!--link NOTIFICATION_SERVICE to P8--><g id="link_NOTIFICATION_SERVICE_P8"><path d="M1353.43,854.6273 C1363.51,841.2473 1373.93,821.7773 1366.13,805.1973 C1359.4,790.8873 1351.344,782.6613 1339.074,774.1713 " fill="none" id="NOTIFICATION_SERVICE-to-P8" style="stroke:#34495E;stroke-width:1.2;"/><polygon fill="#34495E" points="1334.14,770.7573,1339.265,779.1676,1338.2517,773.6023,1343.817,772.5889,1334.14,770.7573" style="stroke:#34495E;stroke-width:1.2;"/><text fill="#2C3E50" font-family="Arial" font-size="12" lengthAdjust="spacing" textLength="121" x="1369.13" y="817.4531">Delivery Status / Alerts</text></g><!--link D1 to P1--><g id="link_D1_P1"><path d="M34.96,277.9573 C19.28,265.4573 6,248.9473 16.13,233.1973 C24.84,219.6673 33.1689,212.596 47.7789,205.806 " fill="none" id="D1-to-P1" style="stroke:#34495E;stroke-width:1.2;"/><polygon fill="#34495E" points="53.22,203.2773,43.3725,203.443,48.6858,205.3846,46.7442,210.6978,53.22,203.2773" style="stroke:#34495E;stroke-width:1.2;"/><text fill="#2C3E50" font-family="Arial" font-size="12" lengthAdjust="spacing" textLength="56" x="17.13" y="245.4531">User Data</text></g><!--link P1 to D1--><g id="link_P1_D1"><path d="M109.9,203.6473 C101.22,223.3973 89.0728,251.0338 79.6428,272.5038 " fill="none" id="P1-to-D1" style="stroke:#34495E;stroke-width:1.2;"/><polygon fill="#34495E" points="77.23,277.9973,84.5116,271.3656,79.2407,273.4194,77.1869,268.1485,77.23,277.9973" style="stroke:#34495E;stroke-width:1.2;"/><text fill="#2C3E50" font-family="Arial" font-size="12" lengthAdjust="spacing" textLength="102" x="97.13" y="245.4531">Store/Update User</text></g><!--link D2 to P2--><g id="link_D2_P2"><path d="M430.97,732.0973 C389.59,714.1973 343.13,683.6373 343.13,636.6973 C343.13,412.1973 343.13,412.1973 343.13,412.1973 C343.13,375.8573 361.2751,342.7018 375.1951,321.7918 " fill="none" id="D2-to-P2" style="stroke:#34495E;stroke-width:1.2;"/><polygon fill="#34495E" points="378.52,316.7973,370.203,322.0724,375.7493,320.9594,376.8623,326.5056,378.52,316.7973" style="stroke:#34495E;stroke-width:1.2;"/><text fill="#2C3E50" font-family="Arial" font-size="12" lengthAdjust="spacing" textLength="59" x="344.13" y="526.9531">Menu Data</text></g><!--link P6 to D2--><g id="link_P6_D2"><path d="M913.07,652.7073 C823.62,674.0573 671.466,710.3742 577.166,732.8842 " fill="none" id="P6-to-D2" style="stroke:#34495E;stroke-width:1.2;"/><polygon fill="#34495E" points="571.33,734.2773,581.0128,736.0783,576.1934,733.1164,579.1553,728.2969,571.33,734.2773" style="stroke:#34495E;stroke-width:1.2;"/><text fill="#2C3E50" font-family="Arial" font-size="12" lengthAdjust="spacing" textLength="73" x="767.13" y="699.4531">Update Menu</text></g><!--link D3 to P3--><g id="link_D3_P3"><path d="M505.44,614.0473 C501.74,605.0873 497.98,594.3373 496.13,584.1973 C489.84,549.5873 485.28,536.6073 501.13,505.1973 C517.87,472.0273 547.3858,449.0233 572.2958,433.4133 " fill="none" id="D3-to-P3" style="stroke:#34495E;stroke-width:1.2;"/><polygon fill="#34495E" points="577.38,430.2273,567.6297,431.6169,573.1432,432.8823,571.8777,438.3958,577.38,430.2273" style="stroke:#34495E;stroke-width:1.2;"/><text fill="#2C3E50" font-family="Arial" font-size="12" lengthAdjust="spacing" textLength="57" x="502.13" y="526.9531">Cart Items</text></g><!--link P3 to D3--><g id="link_P3_D3"><path d="M601.58,430.2673 C594.56,454.3373 580.24,501.0173 564.13,539.1973 C552.98,565.6373 540.4157,589.5778 529.8657,608.6378 " fill="none" id="P3-to-D3" style="stroke:#34495E;stroke-width:1.2;"/><polygon fill="#34495E" points="526.96,613.8873,534.8182,607.9502,529.3814,609.5127,527.8188,604.0759,526.96,613.8873" style="stroke:#34495E;stroke-width:1.2;"/><text fill="#2C3E50" font-family="Arial" font-size="12" lengthAdjust="spacing" textLength="53" x="578.13" y="526.9531">Save Cart</text></g><!--link P4 to D3--><g id="link_P4_D3"><path d="M790.38,525.4373 C735.12,529.4773 656.68,540.3573 594.13,569.1973 C571,579.8673 553.3026,594.8146 538.4426,609.6746 " fill="none" id="P4-to-D3" style="stroke:#34495E;stroke-width:1.2;"/><polygon fill="#34495E" points="534.2,613.9173,543.3924,610.3817,537.7355,610.3817,537.7355,604.7249,534.2,613.9173" style="stroke:#34495E;stroke-width:1.2;"/><text fill="#2C3E50" font-family="Arial" font-size="12" lengthAdjust="spacing" textLength="56" x="595.13" y="581.4531">Clear Cart</text></g><!--link D4 to P4--><g id="link_D4_P4"><path d="M658.27,613.9873 C656.86,599.7473 657.68,581.2873 668.13,569.1973 C684.17,550.6573 736.4855,539.3113 784.4855,532.1613 " fill="none" id="D4-to-P4" style="stroke:#34495E;stroke-width:1.2;"/><polygon fill="#34495E" points="790.42,531.2773,780.9289,528.6469,785.4746,532.0139,782.1075,536.5596,790.42,531.2773" style="stroke:#34495E;stroke-width:1.2;"/><text fill="#2C3E50" font-family="Arial" font-size="12" lengthAdjust="spacing" textLength="72" x="669.13" y="581.4531">Order History</text></g><!--link P4 to D4--><g id="link_P4_D4"><path d="M830.49,539.4073 C795.59,559.1573 741.8218,589.5922 703.7418,611.1422 " fill="none" id="P4-to-D4" style="stroke:#34495E;stroke-width:1.2;"/><polygon fill="#34495E" points="698.52,614.0973,708.3228,613.1458,702.8715,611.6347,704.3827,606.1834,698.52,614.0973" style="stroke:#34495E;stroke-width:1.2;"/><text fill="#2C3E50" font-family="Arial" font-size="12" lengthAdjust="spacing" textLength="61" x="773.13" y="581.4531">Save Order</text></g><!--link D5 to P5--><g id="link_D5_P5"><path d="M1815.54,732.0773 C1788.9,718.3273 1752.43,700.4073 1719.13,687.1973 C1681.83,672.3873 1644.1177,660.6208 1611.7477,651.3408 " fill="none" id="D5-to-P5" style="stroke:#34495E;stroke-width:1.2;"/><polygon fill="#34495E" points="1605.98,649.6873,1613.5292,656.0126,1610.7864,651.0652,1615.7338,648.3224,1605.98,649.6873" style="stroke:#34495E;stroke-width:1.2;"/><text fill="#2C3E50" font-family="Arial" font-size="12" lengthAdjust="spacing" textLength="89" x="1754.13" y="699.4531">Payment History</text></g><!--link P5 to D5--><g id="link_P5_D5"><path d="M1605.88,637.8373 C1680.79,640.7473 1820.66,650.9973 1852.13,687.1973 C1862.58,699.2173 1863.2314,711.7666 1860.7414,726.0366 " fill="none" id="P5-to-D5" style="stroke:#34495E;stroke-width:1.2;"/><polygon fill="#34495E" points="1859.71,731.9473,1865.1975,723.7688,1860.5695,727.0217,1857.3166,722.3936,1859.71,731.9473" style="stroke:#34495E;stroke-width:1.2;"/><text fill="#2C3E50" font-family="Arial" font-size="12" lengthAdjust="spacing" textLength="80" x="1860.13" y="699.4531">Store Payment</text></g><!--link D6 to P7--><g id="link_D6_P7"><path d="M727.89,850.1373 C738.45,836.8173 752.97,819.3773 767.13,805.1973 C779.45,792.8673 789.7656,783.9864 801.6856,774.4464 " fill="none" id="D6-to-P7" style="stroke:#34495E;stroke-width:1.2;"/><polygon fill="#34495E" points="806.37,770.6973,796.8439,773.198,802.4663,773.8215,801.8428,779.4439,806.37,770.6973" style="stroke:#34495E;stroke-width:1.2;"/><text fill="#2C3E50" font-family="Arial" font-size="12" lengthAdjust="spacing" textLength="66" x="768.13" y="817.4531">Delivery Info</text></g><!--link P7 to D6--><g id="link_P7_D6"><path d="M760.42,757.7173 C726.39,763.0573 687.72,775.7973 666.13,805.1973 C655.19,820.0973 663.5227,833.2384 678.3827,846.2284 " fill="none" id="P7-to-D6" style="stroke:#34495E;stroke-width:1.2;"/><polygon fill="#34495E" points="682.9,850.1773,678.7566,841.2424,679.1355,846.8865,673.4914,847.2655,682.9,850.1773" style="stroke:#34495E;stroke-width:1.2;"/><text fill="#2C3E50" font-family="Arial" font-size="12" lengthAdjust="spacing" textLength="78" x="667.13" y="817.4531">Update Status</text></g><!--link P1 to P2--><g id="link_P1_P2"><path d="M153.18,203.2973 C181.56,215.8573 222.19,233.5573 258.13,248.1973 C287.56,260.1873 315.3729,270.8581 341.2329,280.5681 " fill="none" id="P1-to-P2" style="stroke:#34495E;stroke-width:1.2;stroke-dasharray:7.0,7.0;"/><polygon fill="#34495E" points="346.85,282.6773,339.8305,275.7689,342.1691,280.9197,337.0183,283.2583,346.85,282.6773" style="stroke:#34495E;stroke-width:1.2;"/><text fill="#2C3E50" font-family="Arial" font-size="12" lengthAdjust="spacing" textLength="104" x="259.13" y="245.4531">Authenticated User</text></g><!--link P2 to P3--><g id="link_P2_P3"><path d="M415.92,316.8973 C438.33,330.7073 471.85,350.7073 502.13,366.1973 C523.23,376.9873 541.8809,385.4135 561.6009,393.8235 " fill="none" id="P2-to-P3" style="stroke:#34495E;stroke-width:1.2;stroke-dasharray:7.0,7.0;"/><polygon fill="#34495E" points="567.12,396.1773,560.4106,388.9673,562.5208,394.2158,557.2723,396.3261,567.12,396.1773" style="stroke:#34495E;stroke-width:1.2;"/><text fill="#2C3E50" font-family="Arial" font-size="12" lengthAdjust="spacing" textLength="82" x="503.13" y="363.4531">Selected Items</text></g><!--link P3 to P4--><g id="link_P3_P4"><path d="M644.01,430.2173 C691.71,450.3873 767.6537,482.5106 815.4737,502.7306 " fill="none" id="P3-to-P4" style="stroke:#34495E;stroke-width:1.2;stroke-dasharray:7.0,7.0;"/><polygon fill="#34495E" points="821,505.0673,814.2684,497.878,816.3948,503.12,811.1528,505.2464,821,505.0673" style="stroke:#34495E;stroke-width:1.2;"/><text fill="#2C3E50" font-family="Arial" font-size="12" lengthAdjust="spacing" textLength="65" x="748.13" y="472.4531">Cart Details</text></g><!--link P4 to P5--><g id="link_P4_P5"><path d="M927.8,524.3373 C1014.63,527.1573 1168.1,536.7673 1295.13,569.1973 C1311.93,573.4873 1314.61,578.9573 1331.13,584.1973 C1391.94,603.4673 1458.2572,617.1118 1504.6372,625.5618 " fill="none" id="P4-to-P5" style="stroke:#34495E;stroke-width:1.2;stroke-dasharray:7.0,7.0;"/><polygon fill="#34495E" points="1510.54,626.6373,1502.4027,621.0889,1505.621,625.7411,1500.9688,628.9593,1510.54,626.6373" style="stroke:#34495E;stroke-width:1.2;"/><text fill="#2C3E50" font-family="Arial" font-size="12" lengthAdjust="spacing" textLength="102" x="1332.13" y="581.4531">Payment Required</text></g><!--link P4 to P6--><g id="link_P4_P6"><path d="M876.73,539.4073 C899.67,560.5473 935.1579,593.2512 958.1079,614.4012 " fill="none" id="P4-to-P6" style="stroke:#34495E;stroke-width:1.2;stroke-dasharray:7.0,7.0;"/><polygon fill="#34495E" points="962.52,618.4673,958.6125,609.4267,958.8432,615.0789,953.1911,615.3096,962.52,618.4673" style="stroke:#34495E;stroke-width:1.2;"/><text fill="#2C3E50" font-family="Arial" font-size="12" lengthAdjust="spacing" textLength="59" x="924.13" y="581.4531">New Order</text></g><!--link P4 to P8--><g id="link_P4_P8"><path d="M910.58,539.2073 C935.5,547.4073 965.69,558.0173 992.13,569.1973 C1099.41,614.5573 1128.68,623.3973 1226.13,687.1973 C1248.94,702.1273 1268.265,718.5661 1283.695,732.6261 " fill="none" id="P4-to-P8" style="stroke:#34495E;stroke-width:1.2;stroke-dasharray:7.0,7.0;"/><polygon fill="#34495E" points="1288.13,736.6673,1284.1717,727.6489,1284.4342,733.2996,1278.7834,733.5621,1288.13,736.6673" style="stroke:#34495E;stroke-width:1.2;"/><text fill="#2C3E50" font-family="Arial" font-size="12" lengthAdjust="spacing" textLength="72" x="1178.13" y="640.4531">Notify Parties</text></g><!--link P6 to P7--><g id="link_P6_P7"><path d="M929.06,652.8073 C908.87,660.8973 886.42,672.2273 869.13,687.1973 C853.31,700.9073 843.8692,716.6291 836.8192,731.1591 " fill="none" id="P6-to-P7" style="stroke:#34495E;stroke-width:1.2;stroke-dasharray:7.0,7.0;"/><polygon fill="#34495E" points="834.2,736.5573,841.7275,730.2062,836.3827,732.0588,834.53,726.7139,834.2,736.5573" style="stroke:#34495E;stroke-width:1.2;"/><text fill="#2C3E50" font-family="Arial" font-size="12" lengthAdjust="spacing" textLength="92" x="870.13" y="699.4531">Ready for Pickup</text></g><!--link P7 to P4--><g id="link_P7_P4"><path d="M760.28,743.3873 C722.04,734.6173 684.34,718.0273 699.13,687.1973 C710.35,663.8273 768.67,628.7373 790.13,614.1973 C812.54,599.0173 826.62,605.6473 843.13,584.1973 C853.15,571.1873 856.2856,558.4436 857.6956,545.1836 " fill="none" id="P7-to-P4" style="stroke:#34495E;stroke-width:1.2;stroke-dasharray:7.0,7.0;"/><polygon fill="#34495E" points="858.33,539.2173,853.4008,547.7439,857.8013,544.1892,861.3559,548.5898,858.33,539.2173" style="stroke:#34495E;stroke-width:1.2;"/><text fill="#2C3E50" font-family="Arial" font-size="12" lengthAdjust="spacing" textLength="100" x="791.13" y="640.4531">Delivery Complete</text></g><!--link P5 to P8--><g id="link_P5_P8"><path d="M1510.5,640.5673 C1468.24,645.8373 1406.24,658.2273 1360.13,687.1973 C1340.39,699.5973 1327.4089,716.3702 1317.8189,731.3902 " fill="none" id="P5-to-P8" style="stroke:#34495E;stroke-width:1.2;stroke-dasharray:7.0,7.0;"/><polygon fill="#34495E" points="1314.59,736.4473,1322.8047,731.0142,1317.2807,732.233,1316.0619,726.709,1314.59,736.4473" style="stroke:#34495E;stroke-width:1.2;"/><text fill="#2C3E50" font-family="Arial" font-size="12" lengthAdjust="spacing" textLength="122" x="1361.13" y="699.4531">Payment Confirmation</text></g><!--SRC=[bLPTR-8u57tFhx1QQJyUMaf8ACl3IcaIkaWj849dLMcbofCOQZNOhEF0CAlvxtDjXoI4Q0jvz3ttnhxdt6DBAbE20Ymn6gLyXmAALmAl_s5Jbb96q8Zp14r5GWHbAnJjCqdMbfLzKBR1W4F_MGY-1nn_h0JFMUBpb0kqUwUIw4ZqZXE-KxbIv6PfRd224O6wjbuAo1BdgHnn9YTuJP0dA4wRaOX-9oq9ve_NjjyBtJiTz8JWkyKxZJyOoJBKlRMhvGBTSvm_tD3wOLc_efl_-o0UVfD4C9oYa4agASa-pH4abfYjeB5NVfv9lYRY2k4C-I_HOleSpj5rq0-zqQ0Ed9DCubnW9ZLq7aOBxsNkJHPju82aT4l47dahKYG4uTFuIpX_VVCUm_Qa6Twl0OqUiIGxlDTPC-_r6U1lZzuY_DjxRKkRS4cNDCQISeOY8hOq9ZftCbsCHsFVMuodaxSed7yP-s5Pu8o-pWIFWH-IeT-qT4Y2ojzclr_IvExj7Nh9G4xFcE4LMHzwCkkYwt0m6epSEje6z0D88IFecR3S8EqsP0-GFXRof6wl3Uq0Ma_AuMIWUWDtsk0km0jACWDpss1zW5NQC3yeyFqs_3tWItai10nckOtxDlm0y7MAYzg34di6aze-8id56REH0FOhpfI8kqFDclbZ05oDWl0XkAj3x67jy1dwfM8iiDlmlI4u3jzibE4evehQlJQiCwntCt3QCExmcAF0RKFrXrNBLIyCj5z2psZXmISGPU0sEDPKV9fN6ihDpPzAxKFb8oiA9YrG1ptn5MLN5gohS8a5a9VBTpYJeXocBb9QvO1irBCLr4nA9o9OnE-c_HP4cXLL03t1dq-gzFGFawGp9sk-9MWCDqW6DNedDLusYTwF8kwaZACGinJ7nB065PoJ2cRyVCwMLAord4_gkBgEu5kQa0EtQCoM70gw9mKFW4XYcSEkps2oDgmNSLbpVBtHVjKItNOWj92h1J45gMMKP_TI0ge7x0KxBhLxqNuR5uxUyxtcUejfYh_IbCgzLc5SC05XXMea3klN6GXnnNJ7EyYS_RmZb7TqPYwepxTVaDsy06kSpyc_EL62Rc8g7Qavue9-DvSZC0zl4jWlkAV2j5wGmyQDglt2QeNg_moE6cHOXUOOdgykSsV4Dy3lcVHsQwQYBrUpqy9D0hskgtOAaIeGR2YmQ-wXXLia6j46TaFNAgLNimfzuHwRHA034GRtCDvGZBvPzrFmfeDf14xDBin8_0MknCM-odBAQeMJM85RDuU2_ohFH0EtFFB1E5HgloRzagV2K0h1rqVvWhaSgt6ysPZ715h2y_mCMNVHxUsX-ySsR_Y1Y0QObf8KNW8Gg_gjWqv9H40aJ7EccwT3RdD4g2195TP7dP1TpQJr-g0K_XwQ9zGpMaj21-_DnOMJFLh2wtm6B_TyezjNxQPihS_NcvH8edcfQX-sT6p-Fm40]--></g></svg>