<?xml version="1.0" encoding="us-ascii" standalone="no"?><svg xmlns="http://www.w3.org/2000/svg" xmlns:xlink="http://www.w3.org/1999/xlink" contentStyleType="text/css" height="1311px" preserveAspectRatio="none" style="width:1035px;height:1311px;background:#FFFFFF;" version="1.1" viewBox="0 0 1035 1311" width="1035px" zoomAndPan="magnify"><defs><filter height="300%" id="f1ih5jo897yo3j" width="300%" x="-1" y="-1"><feGaussianBlur result="blurOut" stdDeviation="2.0"/><feColorMatrix in="blurOut" result="blurOut2" type="matrix" values="0 0 0 0 0 0 0 0 0 0 0 0 0 0 0 0 0 0 .4 0"/><feOffset dx="4.0" dy="4.0" in="blurOut2" result="blurOut3"/><feBlend in="SourceGraphic" in2="blurOut3" mode="normal"/></filter></defs><g><text fill="#000000" font-family="Verdana" font-size="22" font-weight="bold" lengthAdjust="spacing" textLength="770" x="128" y="37.1182">Use Case Diagram - Customer (Online Food Ordering System)</text><!--cluster OFOS--><g id="cluster_OFOS"><rect fill="#F5F5F5" filter="url(#f1ih5jo897yo3j)" height="809" rx="6" ry="6" style="stroke:#333333;stroke-width:1.0;" width="896" x="127" y="156.0273"/><text fill="#000000" font-family="Verdana" font-size="14" font-weight="bold" lengthAdjust="spacing" textLength="228" x="461" y="172.1025">Online Food Ordering System</text></g><g id="elem_UC_Register"><ellipse cx="256.6502" cy="424.0956" fill="#FFFFFF" filter="url(#f1ih5jo897yo3j)" rx="52.6502" ry="15.0683" style="stroke:#333333;stroke-width:1.0;"/><text fill="#000000" font-family="Verdana" font-size="14" lengthAdjust="spacing" textLength="58" x="224.8984" y="428.3324">Register</text></g><g id="elem_UC_Login"><ellipse cx="256.3553" cy="489.0585" fill="#FFFFFF" filter="url(#f1ih5jo897yo3j)" rx="38.3553" ry="15.0312" style="stroke:#333333;stroke-width:1.0;"/><text fill="#000000" font-family="Verdana" font-size="14" lengthAdjust="spacing" textLength="38" x="237.3553" y="492.6263">Login</text></g><g id="elem_UC_Profile"><ellipse cx="256.3393" cy="556.0952" fill="#FFFFFF" filter="url(#f1ih5jo897yo3j)" rx="73.3393" ry="17.0679" style="stroke:#333333;stroke-width:1.0;"/><text fill="#000000" font-family="Verdana" font-size="14" lengthAdjust="spacing" textLength="100" x="205.4315" y="559.902">Manage Profile</text></g><g id="elem_UC_Addresses"><ellipse cx="256.5141" cy="633.1301" fill="#FFFFFF" filter="url(#f1ih5jo897yo3j)" rx="113.5141" ry="25.1028" style="stroke:#333333;stroke-width:1.0;"/><text fill="#000000" font-family="Verdana" font-size="14" lengthAdjust="spacing" textLength="192" x="160.5141" y="636.698">Manage Delivery Addresses</text></g><g id="elem_UC_Browse"><ellipse cx="614.938" cy="843.1149" fill="#FFFFFF" filter="url(#f1ih5jo897yo3j)" rx="120.938" ry="26.5876" style="stroke:#333333;stroke-width:1.0;"/><text fill="#000000" font-family="Verdana" font-size="14" lengthAdjust="spacing" textLength="208" x="510.938" y="846.6828">Browse Restaurants &amp; Menus</text></g><g id="elem_UC_Search"><ellipse cx="256.5572" cy="851.8387" fill="#FFFFFF" filter="url(#f1ih5jo897yo3j)" rx="87.0572" ry="19.8114" style="stroke:#333333;stroke-width:1.0;"/><text fill="#000000" font-family="Verdana" font-size="14" lengthAdjust="spacing" textLength="133" x="190.0572" y="855.4066">Search Food Items</text></g><g id="elem_UC_Customize"><ellipse cx="256.6" cy="778.1473" fill="#FFFFFF" filter="url(#f1ih5jo897yo3j)" rx="81.1" ry="18.62" style="stroke:#333333;stroke-width:1.0;"/><text fill="#000000" font-family="Verdana" font-size="14" lengthAdjust="spacing" textLength="119" x="197.1" y="781.7152">Customize Items</text></g><g id="elem_UC_Cart"><ellipse cx="933.3594" cy="855.1992" fill="#FFFFFF" filter="url(#f1ih5jo897yo3j)" rx="68.8594" ry="16.1719" style="stroke:#333333;stroke-width:1.0;"/><text fill="#000000" font-family="Verdana" font-size="14" lengthAdjust="spacing" textLength="88" x="886.3594" y="859.4868">Manage Cart</text></g><g id="elem_UC_Checkout"><ellipse cx="615.045" cy="709.1437" fill="#FFFFFF" filter="url(#f1ih5jo897yo3j)" rx="58.545" ry="15.1164" style="stroke:#333333;stroke-width:1.0;"/><text fill="#000000" font-family="Verdana" font-size="14" lengthAdjust="spacing" textLength="66" x="579.045" y="713.4313">Checkout</text></g><g id="elem_UC_Place"><ellipse cx="256.7273" cy="709.0728" fill="#FFFFFF" filter="url(#f1ih5jo897yo3j)" rx="65.7273" ry="15.5455" style="stroke:#333333;stroke-width:1.0;"/><text fill="#000000" font-family="Verdana" font-size="14" lengthAdjust="spacing" textLength="79" x="214.2273" y="713.3604">Place Order</text></g><g id="elem_UC_Pay"><ellipse cx="933.3393" cy="709.0952" fill="#FFFFFF" filter="url(#f1ih5jo897yo3j)" rx="73.3393" ry="17.0679" style="stroke:#333333;stroke-width:1.0;"/><text fill="#000000" font-family="Verdana" font-size="14" lengthAdjust="spacing" textLength="100" x="882.4315" y="712.902">Make Payment</text></g><g id="elem_UC_Track"><ellipse cx="615.0493" cy="927.0372" fill="#FFFFFF" filter="url(#f1ih5jo897yo3j)" rx="98.0493" ry="22.0099" style="stroke:#333333;stroke-width:1.0;"/><text fill="#000000" font-family="Verdana" font-size="14" lengthAdjust="spacing" textLength="158" x="536.0493" y="930.605">Track Order &amp; Delivery</text></g><g id="elem_UC_Notify"><ellipse cx="256.406" cy="928.2085" fill="#FFFFFF" filter="url(#f1ih5jo897yo3j)" rx="91.406" ry="20.6812" style="stroke:#333333;stroke-width:1.0;"/><text fill="#000000" font-family="Verdana" font-size="14" lengthAdjust="spacing" textLength="143" x="184.906" y="931.7764">Receive Notifications</text></g><g id="elem_UC_History"><ellipse cx="615.1263" cy="244.2526" fill="#FFFFFF" filter="url(#f1ih5jo897yo3j)" rx="86.6263" ry="19.7253" style="stroke:#333333;stroke-width:1.0;"/><text fill="#000000" font-family="Verdana" font-size="14" lengthAdjust="spacing" textLength="132" x="549.1263" y="247.8204">View Order History</text></g><g id="elem_UC_Cancel"><ellipse cx="256.5767" cy="208.8427" fill="#FFFFFF" filter="url(#f1ih5jo897yo3j)" rx="69.5767" ry="16.3153" style="stroke:#333333;stroke-width:1.0;"/><text fill="#000000" font-family="Verdana" font-size="14" lengthAdjust="spacing" textLength="90" x="208.5767" y="213.1302">Cancel Order</text></g><g id="elem_UC_Refund"><ellipse cx="256.6017" cy="279.1476" fill="#FFFFFF" filter="url(#f1ih5jo897yo3j)" rx="78.6017" ry="18.1203" style="stroke:#333333;stroke-width:1.0;"/><text fill="#000000" font-family="Verdana" font-size="14" lengthAdjust="spacing" textLength="113" x="200.1017" y="282.7155">Request Refund</text></g><g id="elem_UC_Review"><ellipse cx="256.2839" cy="352.8841" fill="#FFFFFF" filter="url(#f1ih5jo897yo3j)" rx="92.2839" ry="20.8568" style="stroke:#333333;stroke-width:1.0;"/><text fill="#000000" font-family="Verdana" font-size="14" lengthAdjust="spacing" textLength="145" x="183.7839" y="356.452">Rate &amp; Review Order</text></g><!--entity C--><g id="elem_C"><ellipse cx="45.5" cy="554.5273" fill="#FFFFFF" filter="url(#f1ih5jo897yo3j)" rx="8" ry="8" style="stroke:#333333;stroke-width:1.0;"/><path d="M45.5,562.5273 L45.5,589.5273 M32.5,570.5273 L58.5,570.5273 M45.5,589.5273 L32.5,604.5273 M45.5,589.5273 L58.5,604.5273 " fill="none" filter="url(#f1ih5jo897yo3j)" style="stroke:#333333;stroke-width:1.0;"/><text fill="#000000" font-family="Verdana" font-size="14" lengthAdjust="spacing" textLength="69" x="11" y="623.6025">Customer</text></g><!--link C to UC_Register--><g id="link_C_UC_Register"><path d="M59.16,545.4073 C70.33,516.2273 89.5,478.2773 119,456.0273 C143.39,437.6273 170.7156,430.3154 198.3056,426.8954 " fill="none" id="C-to-UC_Register" style="stroke:#333333;stroke-width:1.0;"/><polygon fill="#333333" points="204.26,426.1573,194.8363,423.2948,199.298,426.7724,195.8204,431.2341,204.26,426.1573" style="stroke:#333333;stroke-width:1.0;"/></g><!--link C to UC_Login--><g id="link_C_UC_Login"><path d="M80.29,549.3673 C91.68,538.8573 105.06,528.2873 119,521.0273 C150.51,504.5973 184.5361,497.3161 213.0661,493.3861 " fill="none" id="C-to-UC_Login" style="stroke:#333333;stroke-width:1.0;"/><polygon fill="#333333" points="219.01,492.5673,209.5483,489.8329,214.0568,493.2496,210.64,497.758,219.01,492.5673" style="stroke:#333333;stroke-width:1.0;"/></g><!--link C to UC_Profile--><g id="link_C_UC_Profile"><path d="M80.08,581.2073 C110.66,576.8173 150.6409,571.0803 187.8209,565.7403 " fill="none" id="C-to-UC_Profile" style="stroke:#333333;stroke-width:1.0;"/><polygon fill="#333333" points="193.76,564.8873,184.2827,562.2074,188.8108,565.5981,185.4201,570.1262,193.76,564.8873" style="stroke:#333333;stroke-width:1.0;"/></g><!--link C to UC_Browse--><g id="link_C_UC_Browse"><path d="M47.98,626.8073 C52.15,715.8773 67.31,923.2673 119,966.0273 C237.59,1064.1273 342.9,1031.0173 464,936.0273 C484.09,920.2673 474.25,903.2073 494,887.0273 C506.19,877.0373 515.2916,871.4911 530.1116,865.3911 " fill="none" id="C-to-UC_Browse" style="stroke:#333333;stroke-width:1.0;"/><polygon fill="#333333" points="535.66,863.1073,525.8149,862.834,531.0364,865.0104,528.8599,870.2318,535.66,863.1073" style="stroke:#333333;stroke-width:1.0;"/></g><!--link C to UC_Search--><g id="link_C_UC_Search"><path d="M48.11,626.6573 C52.35,677.5573 67.27,764.1473 119,814.0273 C134.67,829.1373 150.0218,836.7944 170.9918,842.3744 " fill="none" id="C-to-UC_Search" style="stroke:#333333;stroke-width:1.0;"/><polygon fill="#333333" points="176.79,843.9173,169.1212,837.7375,171.9581,842.6316,167.0641,845.4685,176.79,843.9173" style="stroke:#333333;stroke-width:1.0;"/></g><!--link C to UC_Customize--><g id="link_C_UC_Customize"><path d="M55.06,626.5273 C64.66,662.0473 83.73,712.5073 119,742.0273 C136.67,756.8073 153.9187,764.2166 176.0787,769.4166 " fill="none" id="C-to-UC_Customize" style="stroke:#333333;stroke-width:1.0;"/><polygon fill="#333333" points="181.92,770.7873,174.0718,764.837,177.0522,769.645,172.2442,772.6255,181.92,770.7873" style="stroke:#333333;stroke-width:1.0;"/></g><!--link C to UC_Cart--><g id="link_C_UC_Cart"><path d="M45.82,626.8773 C44.99,735.8073 49.38,1028.8673 119,1088.0273 C374.26,1304.9073 815.5434,954.5273 910.0134,874.4373 " fill="none" id="C-to-UC_Cart" style="stroke:#333333;stroke-width:1.0;"/><polygon fill="#333333" points="914.59,870.5573,905.1384,873.3262,910.7761,873.7906,910.3117,879.4284,914.59,870.5573" style="stroke:#333333;stroke-width:1.0;"/></g><!--link C to UC_Place--><g id="link_C_UC_Place"><path d="M70.97,626.5573 C83.34,643.8673 99.82,662.8473 119,675.0273 C142.09,689.6873 165.2124,696.9237 190.5424,701.6637 " fill="none" id="C-to-UC_Place" style="stroke:#333333;stroke-width:1.0;"/><polygon fill="#333333" points="196.44,702.7673,188.3293,697.1801,191.5253,701.8476,186.8578,705.0436,196.44,702.7673" style="stroke:#333333;stroke-width:1.0;"/></g><!--link C to UC_Track--><g id="link_C_UC_Track"><path d="M46.67,626.7773 C48.05,727.1373 57.65,981.8073 119,1034.0273 C259.27,1153.4173 496.5235,1009.1477 579.8835,951.5577 " fill="none" id="C-to-UC_Track" style="stroke:#333333;stroke-width:1.0;"/><polygon fill="#333333" points="584.82,948.1473,575.1416,949.9719,580.7063,950.9893,579.6889,956.5539,584.82,948.1473" style="stroke:#333333;stroke-width:1.0;"/></g><!--link C to UC_History--><g id="link_C_UC_History"><path d="M47.32,545.5073 C50.18,451.3273 62.87,222.1173 119,175.0273 C257.59,58.7373 493.5629,174.6738 578.2929,222.8038 " fill="none" id="C-to-UC_History" style="stroke:#333333;stroke-width:1.0;"/><polygon fill="#333333" points="583.51,225.7673,577.6601,217.844,579.1625,223.2977,573.7087,224.8001,583.51,225.7673" style="stroke:#333333;stroke-width:1.0;"/></g><!--link C to UC_Addresses--><g id="link_C_UC_Addresses"><path d="M80.08,593.5773 C106.04,599.4173 137.2062,606.4209 170.5562,613.9209 " fill="none" id="C-to-UC_Addresses" style="stroke:#333333;stroke-width:1.0;"/><polygon fill="#333333" points="176.41,615.2373,168.5069,609.3601,171.5318,614.1403,166.7517,617.1652,176.41,615.2373" style="stroke:#333333;stroke-width:1.0;"/></g><!--link C to UC_Cancel--><g id="link_C_UC_Cancel"><path d="M49.76,545.4073 C57.09,464.2073 77.59,285.9473 119,243.0273 C136.8,224.5673 157.0567,216.5536 181.7267,212.3136 " fill="none" id="C-to-UC_Cancel" style="stroke:#333333;stroke-width:1.0;"/><polygon fill="#333333" points="187.64,211.2973,178.0925,208.8796,182.7123,212.1442,179.4476,216.764,187.64,211.2973" style="stroke:#333333;stroke-width:1.0;"/></g><!--link C to UC_Refund--><g id="link_C_UC_Refund"><path d="M52.22,545.4873 C62.56,477.8873 86.36,346.3573 119,314.0273 C135.42,297.7573 152.4602,290.0167 174.8202,285.0967 " fill="none" id="C-to-UC_Refund" style="stroke:#333333;stroke-width:1.0;"/><polygon fill="#333333" points="180.68,283.8073,171.0307,281.8348,175.7968,284.8818,172.7498,289.6479,180.68,283.8073" style="stroke:#333333;stroke-width:1.0;"/></g><!--link C to UC_Review--><g id="link_C_UC_Review"><path d="M50.77,545.3073 C57.58,501.1173 74.99,431.4673 119,391.0273 C134.12,377.1273 148.1305,369.8945 167.9205,364.2445 " fill="none" id="C-to-UC_Review" style="stroke:#333333;stroke-width:1.0;"/><polygon fill="#333333" points="173.69,362.5973,163.9377,361.2217,168.8821,363.9699,166.1339,368.9144,173.69,362.5973" style="stroke:#333333;stroke-width:1.0;"/></g><!--link UC_Checkout to UC_Cart--><g id="link_UC_Checkout_UC_Cart"><path d="M644.37,722.1073 C703.54,749.4073 834.3016,809.7242 895.8516,838.1142 " fill="none" id="UC_Checkout-to-UC_Cart" style="stroke:#333333;stroke-width:1.0;stroke-dasharray:7.0,7.0;"/><polygon fill="#333333" points="901.3,840.6273,894.8028,833.2255,896.7597,838.5331,891.4521,840.49,901.3,840.6273" style="stroke:#333333;stroke-width:1.0;"/><text fill="#000000" font-family="Verdana" font-size="13" lengthAdjust="spacing" textLength="62" x="767" y="779.0971">&#171;include&#187;</text></g><!--link UC_Checkout to UC_Pay--><g id="link_UC_Checkout_UC_Pay"><path d="M673.68,709.0273 C726.01,709.0273 797.4,709.0273 853.91,709.0273 " fill="none" id="UC_Checkout-to-UC_Pay" style="stroke:#333333;stroke-width:1.0;stroke-dasharray:7.0,7.0;"/><polygon fill="#333333" points="859.91,709.0273,850.91,705.0273,854.91,709.0273,850.91,713.0273,859.91,709.0273" style="stroke:#333333;stroke-width:1.0;"/><text fill="#000000" font-family="Verdana" font-size="13" lengthAdjust="spacing" textLength="62" x="767" y="706.0971">&#171;include&#187;</text></g><!--link UC_Place to UC_Checkout--><g id="link_UC_Place_UC_Checkout"><path d="M322.06,709.0273 C388.88,709.0273 486.27,709.0273 550.4,709.0273 " fill="none" id="UC_Place-to-UC_Checkout" style="stroke:#333333;stroke-width:1.0;stroke-dasharray:7.0,7.0;"/><polygon fill="#333333" points="556.4,709.0273,547.4,705.0273,551.4,709.0273,547.4,713.0273,556.4,709.0273" style="stroke:#333333;stroke-width:1.0;"/><text fill="#000000" font-family="Verdana" font-size="13" lengthAdjust="spacing" textLength="62" x="401" y="706.0971">&#171;include&#187;</text></g><!--link UC_Addresses to UC_Checkout--><g id="link_UC_Addresses_UC_Checkout"><path d="M338.84,650.3673 C410.36,665.6073 505.902,685.9759 563.532,698.2659 " fill="none" id="UC_Addresses-to-UC_Checkout" style="stroke:#333333;stroke-width:1.0;stroke-dasharray:7.0,7.0;"/><polygon fill="#333333" points="569.4,699.5173,561.4322,693.7282,564.51,698.4745,559.7637,701.5522,569.4,699.5173" style="stroke:#333333;stroke-width:1.0;"/><text fill="#000000" font-family="Verdana" font-size="13" lengthAdjust="spacing" textLength="61" x="401.5" y="662.0971">&#171;extend&#187;</text></g><!--link UC_Search to UC_Browse--><g id="link_UC_Search_UC_Browse"><path d="M343.34,849.8573 C388.67,848.7173 439.0219,847.4387 488.5419,846.1887 " fill="none" id="UC_Search-to-UC_Browse" style="stroke:#333333;stroke-width:1.0;stroke-dasharray:7.0,7.0;"/><polygon fill="#333333" points="494.54,846.0373,485.4419,842.2657,489.5416,846.1635,485.6438,850.2631,494.54,846.0373" style="stroke:#333333;stroke-width:1.0;"/><text fill="#000000" font-family="Verdana" font-size="13" lengthAdjust="spacing" textLength="61" x="401.5" y="844.0971">&#171;extend&#187;</text></g><!--link UC_Customize to UC_Browse--><g id="link_UC_Customize_UC_Browse"><path d="M320.41,789.4973 C376.18,799.6673 452.4473,813.5711 515.6873,825.1011 " fill="none" id="UC_Customize-to-UC_Browse" style="stroke:#333333;stroke-width:1.0;stroke-dasharray:7.0,7.0;"/><polygon fill="#333333" points="521.59,826.1773,513.4534,820.6279,516.6711,825.2805,512.0185,828.4982,521.59,826.1773" style="stroke:#333333;stroke-width:1.0;"/><text fill="#000000" font-family="Verdana" font-size="13" lengthAdjust="spacing" textLength="61" x="401.5" y="802.0971">&#171;extend&#187;</text></g><!--link UC_Cancel to UC_History--><g id="link_UC_Cancel_UC_History"><path d="M321.24,215.2773 C381.12,221.1573 464.9286,229.3917 529.2686,235.7017 " fill="none" id="UC_Cancel-to-UC_History" style="stroke:#333333;stroke-width:1.0;stroke-dasharray:7.0,7.0;"/><polygon fill="#333333" points="535.24,236.2873,526.6734,231.428,530.2639,235.7993,525.8926,239.3898,535.24,236.2873" style="stroke:#333333;stroke-width:1.0;"/><text fill="#000000" font-family="Verdana" font-size="13" lengthAdjust="spacing" textLength="61" x="401.5" y="221.0971">&#171;extend&#187;</text></g><!--link UC_Refund to UC_History--><g id="link_UC_Refund_UC_History"><path d="M329.21,271.9873 C388.89,266.1273 467.7587,258.3833 529.3087,252.3433 " fill="none" id="UC_Refund-to-UC_History" style="stroke:#333333;stroke-width:1.0;stroke-dasharray:7.0,7.0;"/><polygon fill="#333333" points="535.28,251.7573,525.9324,248.6554,530.3039,252.2456,526.7137,256.6171,535.28,251.7573" style="stroke:#333333;stroke-width:1.0;"/><text fill="#000000" font-family="Verdana" font-size="13" lengthAdjust="spacing" textLength="61" x="401.5" y="257.0971">&#171;extend&#187;</text></g><!--link UC_Review to UC_History--><g id="link_UC_Review_UC_History"><path d="M312.72,336.1973 C354.32,323.5173 412.74,305.6973 464,290.0273 C496.95,279.9473 528.2243,270.3583 557.2443,261.4483 " fill="none" id="UC_Review-to-UC_History" style="stroke:#333333;stroke-width:1.0;stroke-dasharray:7.0,7.0;"/><polygon fill="#333333" points="562.98,259.6873,553.2024,258.505,558.2002,261.1548,555.5504,266.1527,562.98,259.6873" style="stroke:#333333;stroke-width:1.0;"/><text fill="#000000" font-family="Verdana" font-size="13" lengthAdjust="spacing" textLength="61" x="401.5" y="287.0971">&#171;extend&#187;</text></g><!--link UC_Notify to UC_Track--><g id="link_UC_Notify_UC_Track"><path d="M348.38,927.7673 C399.85,927.6273 458.23,927.4645 510.72,927.3145 " fill="none" id="UC_Notify-to-UC_Track" style="stroke:#333333;stroke-width:1.0;stroke-dasharray:7.0,7.0;"/><polygon fill="#333333" points="516.72,927.2973,507.7086,923.323,511.72,927.3116,507.7315,931.323,516.72,927.2973" style="stroke:#333333;stroke-width:1.0;"/><text fill="#000000" font-family="Verdana" font-size="13" lengthAdjust="spacing" textLength="61" x="401.5" y="925.0971">&#171;extend&#187;</text></g><!--SRC=[dLRRJXin47ttLqofH9A7G2_gImL88HIr4X04fLAVAiVhPAtisgdj9KrH_xtZwsuWQH6BHEAvdF7Cd9bD3wuhAktTvGNqAsgviGCOmhWnLjLSmvtXCARuxqpGkQOrzBDgSdNnVK0gFhDW5MWnBoqKGdDcXPA4lB8bhpaiAoeaCGiXbzJvcv8MQYNa7AnkU4UXLICBfhH4wBVlEeefPOkvruvLfJIyFlSFwPWqXZDtoGS2SBh373LA5rn7wNl_eFHSIHjbR_n3_dIGAREeUTXgjnsnw-sAGUMysdMp3-xlXJSRQQrMcox42ekndlIiqy_-H5P2SiHM1KnSLDUAsxMnl1uG4jBDrjJ0c90sYxr_UEyvwydvv1PpnSltODGW0wGLZ3f2m3vSQpKJ5KTb_uRF1JhfWNEw6_z8PwUxK7CXay8VdFIIIZhd2IEfEv3Hu8nNufxhDOoAGdDZk4csMH2kTuhbmnhjmosdcfKE8efkS0Xeet4g3AelkMmoHh1mji4hLE8BffzDMhXGHl6RRnfaSUVMOwfjrkFtS4LVOPSomtjxn9ApXMfQqtXsEXnZneDBheuJXIWBB1rTrzYFhAJh4ELQ6JlqVixqgqQMniZxkPh9oMj30nb73LmfAsQnnJb3BrntSmXfkl3E-PlWgwZuZ6rNBNuy-bofPBpQJ2Z8GloV3RO9UpN3UMffv4vUZwiCxt_3xtEiriZ9S9P83uwFZt5A7C5Rqe-CKKo4ZB2iMjGKwPI62fD49pA6uV1aWxbP4YYRZucYMH0vbC-HCFdSygCLEKgqYBwj-HXwae-fX5dGyhw3v-lOISBNhNFs9Oe5-Y9PrHGSjraLgbAA9LQcfhAWBXIOPZghCAbGcXuaMaADgO28xWoJW3wZKYeBB9ciX2tTft0ZWhRUR40wv8Q3Wrm4-0X7Hn7mv8JiZBKCNDy6Wxn_Yj8PdeHX0DTNUyzbdC9K_tohPF04qvNkqo_BPV6uSchf3hGwP4eM8do7AI_flL0w5B7RjwsXk4UEDKZKnU920g-mBs57hKha7qmTxN1TaqovX1lNtdDHMLvheMShtF8RwEtUUs60CFaphMhmBqOe8wSpTHDo9FkpeNLS6zeJVaU8C0ql3e6Rvr27lRCBtol_Wx-nMHy72ORu4mf7txs2-yQ_Wx7ZiZ3GB0ltIyvFKTZ5ALZOxXkX_W80]--></g></svg>