<?xml version="1.0" encoding="us-ascii" standalone="no"?><svg xmlns="http://www.w3.org/2000/svg" xmlns:xlink="http://www.w3.org/1999/xlink" contentStyleType="text/css" height="1367px" preserveAspectRatio="none" style="width:2359px;height:1367px;background:#FFFFFF;" version="1.1" viewBox="0 0 2359 1367" width="2359px" zoomAndPan="magnify"><defs><filter height="300%" id="fx0d1e0edtrr0" width="300%" x="-1" y="-1"><feGaussianBlur result="blurOut" stdDeviation="2.0"/><feColorMatrix in="blurOut" result="blurOut2" type="matrix" values="0 0 0 0 0 0 0 0 0 0 0 0 0 0 0 0 0 0 .4 0"/><feOffset dx="4.0" dy="4.0" in="blurOut2" result="blurOut3"/><feBlend in="SourceGraphic" in2="blurOut3" mode="normal"/></filter></defs><g><text fill="#000000" font-family="Verdana" font-size="22" font-weight="bold" lengthAdjust="spacing" textLength="539" x="905.5" y="37.1182">Use Case Diagram - Track Order &amp; Delivery</text><text fill="#000000" font-family="Verdana" font-size="22" font-weight="bold" lengthAdjust="spacing" textLength="366" x="992" y="63.8555">Online Food Ordering System</text><!--cluster OFOS--><g id="cluster_OFOS"><rect fill="#FFFFFF" filter="url(#fx0d1e0edtrr0)" height="888" rx="6" ry="6" style="stroke:#000000;stroke-width:1.0;" width="1972.5" x="374.5" y="260.8846"/><text fill="#000000" font-family="Verdana" font-size="14" font-weight="bold" lengthAdjust="spacing" textLength="228" x="1246.75" y="276.9598">Online Food Ordering System</text></g><!--cluster Customer Tracking--><g id="cluster_Customer Tracking"><rect fill="#FFFFFF" filter="url(#fx0d1e0edtrr0)" height="820" rx="6" ry="6" style="stroke:#000000;stroke-width:1.0;" width="286" x="398.5" y="304.8846"/><text fill="#000000" font-family="Verdana" font-size="14" font-weight="bold" lengthAdjust="spacing" textLength="147" x="468" y="320.9598">Customer Tracking</text></g><!--cluster Operational Updates--><g id="cluster_Operational Updates"><rect fill="#FFFFFF" filter="url(#fx0d1e0edtrr0)" height="195" rx="6" ry="6" style="stroke:#000000;stroke-width:1.0;" width="774.5" x="1548.5" y="929.8846"/><text fill="#000000" font-family="Verdana" font-size="14" font-weight="bold" lengthAdjust="spacing" textLength="158" x="1856.75" y="945.9598">Operational Updates</text></g><g id="elem_UC_TRACK"><ellipse cx="1231.0493" cy="724.8945" fill="#FFFFFF" filter="url(#fx0d1e0edtrr0)" rx="98.0493" ry="22.0099" style="stroke:#000000;stroke-width:1.0;"/><text fill="#000000" font-family="Verdana" font-size="14" lengthAdjust="spacing" textLength="158" x="1152.0493" y="728.4623">Track Order &amp; Delivery</text></g><g id="elem_UC_RETRIEVE"><ellipse cx="541.4741" cy="1081.947" fill="#FFFFFF" filter="url(#fx0d1e0edtrr0)" rx="89.9741" ry="27.0623" style="stroke:#000000;stroke-width:1.0;"/><text fill="#000000" font-family="Verdana" font-size="14" lengthAdjust="spacing" textLength="102" x="490.4741" y="1077.0075">Retrieve Order</text><text fill="#000000" font-family="Verdana" font-size="14" lengthAdjust="spacing" textLength="111" x="485.9741" y="1094.0222">Tracking Details</text></g><g id="elem_UC_STATUS"><ellipse cx="541.2796" cy="903.9657" fill="#FFFFFF" filter="url(#fx0d1e0edtrr0)" rx="102.7796" ry="27.0811" style="stroke:#000000;stroke-width:1.0;"/><text fill="#000000" font-family="Verdana" font-size="14" lengthAdjust="spacing" textLength="129" x="473.9985" y="899.6974">View Order Status</text><text fill="#000000" font-family="Verdana" font-size="14" lengthAdjust="spacing" textLength="56" x="510.4985" y="916.7121">Timeline</text></g><g id="elem_UC_ETA"><ellipse cx="541.5452" cy="814.947" fill="#FFFFFF" filter="url(#fx0d1e0edtrr0)" rx="97.0452" ry="27.0623" style="stroke:#000000;stroke-width:1.0;"/><text fill="#000000" font-family="Verdana" font-size="14" lengthAdjust="spacing" textLength="76" x="503.5452" y="810.0075">View ETA /</text><text fill="#000000" font-family="Verdana" font-size="14" lengthAdjust="spacing" textLength="121" x="481.0452" y="827.0222">Delivery Estimate</text></g><g id="elem_UC_MAP"><ellipse cx="541.7244" cy="724.7295" fill="#FFFFFF" filter="url(#fx0d1e0edtrr0)" rx="127.2244" ry="27.8449" style="stroke:#000000;stroke-width:1.0;"/><text fill="#000000" font-family="Verdana" font-size="14" lengthAdjust="spacing" textLength="168" x="454.7244" y="720.5098">View Live Delivery Map /</text><text fill="#000000" font-family="Verdana" font-size="14" lengthAdjust="spacing" textLength="106" x="485.7244" y="737.5244">Driver Location</text></g><g id="elem_UC_NOTIFY"><ellipse cx="541.5097" cy="992.947" fill="#FFFFFF" filter="url(#fx0d1e0edtrr0)" rx="93.5097" ry="27.0623" style="stroke:#000000;stroke-width:1.0;"/><text fill="#000000" font-family="Verdana" font-size="14" lengthAdjust="spacing" textLength="116" x="483.5097" y="988.0075">Receive Tracking</text><text fill="#000000" font-family="Verdana" font-size="14" lengthAdjust="spacing" textLength="86" x="498.5097" y="1005.0222">Notifications</text></g><g id="elem_UC_CONTACT_D"><ellipse cx="541.3026" cy="456.947" fill="#FFFFFF" filter="url(#fx0d1e0edtrr0)" rx="92.8026" ry="27.0623" style="stroke:#000000;stroke-width:1.0;"/><text fill="#000000" font-family="Verdana" font-size="14" lengthAdjust="spacing" textLength="115" x="483.8026" y="452.0075">Contact Delivery</text><text fill="#000000" font-family="Verdana" font-size="14" lengthAdjust="spacing" textLength="42" x="520.3026" y="469.0222">Agent</text></g><g id="elem_UC_SUPPORT"><ellipse cx="541.2796" cy="545.9657" fill="#FFFFFF" filter="url(#fx0d1e0edtrr0)" rx="102.7796" ry="27.0811" style="stroke:#000000;stroke-width:1.0;"/><text fill="#000000" font-family="Verdana" font-size="14" lengthAdjust="spacing" textLength="129" x="473.9985" y="541.6974">Contact Support /</text><text fill="#000000" font-family="Verdana" font-size="14" lengthAdjust="spacing" textLength="91" x="492.9985" y="558.7121">Report Issue</text></g><g id="elem_UC_POD"><ellipse cx="541.3112" cy="634.947" fill="#FFFFFF" filter="url(#fx0d1e0edtrr0)" rx="63.8112" ry="27.0623" style="stroke:#000000;stroke-width:1.0;"/><text fill="#000000" font-family="Verdana" font-size="14" lengthAdjust="spacing" textLength="74" x="504.3112" y="630.0075">View Proof</text><text fill="#000000" font-family="Verdana" font-size="14" lengthAdjust="spacing" textLength="74" x="504.3112" y="647.0222">of Delivery</text></g><g id="elem_UC_CONFIRM_RATE"><ellipse cx="541.6222" cy="367.9572" fill="#FFFFFF" filter="url(#fx0d1e0edtrr0)" rx="100.6222" ry="27.0726" style="stroke:#000000;stroke-width:1.0;"/><text fill="#000000" font-family="Verdana" font-size="14" lengthAdjust="spacing" textLength="126" x="476.6098" y="363.514">Confirm Delivery /</text><text fill="#000000" font-family="Verdana" font-size="14" lengthAdjust="spacing" textLength="92" x="493.6098" y="380.5286">Rate Delivery</text></g><g id="elem_UC_PREP"><ellipse cx="1671.6115" cy="992.9856" fill="#FFFFFF" filter="url(#fx0d1e0edtrr0)" rx="107.1115" ry="27.101" style="stroke:#000000;stroke-width:1.0;"/><text fill="#000000" font-family="Verdana" font-size="14" lengthAdjust="spacing" textLength="135" x="1601.1115" y="988.7658">Update Preparation</text><text fill="#000000" font-family="Verdana" font-size="14" lengthAdjust="spacing" textLength="47" x="1645.1115" y="1005.7805">Status</text></g><g id="elem_UC_DELIV_STATUS"><ellipse cx="2217.267" cy="1073.947" fill="#FFFFFF" filter="url(#fx0d1e0edtrr0)" rx="89.267" ry="27.0623" style="stroke:#000000;stroke-width:1.0;"/><text fill="#000000" font-family="Verdana" font-size="14" lengthAdjust="spacing" textLength="110" x="2162.267" y="1069.0075">Update Delivery</text><text fill="#000000" font-family="Verdana" font-size="14" lengthAdjust="spacing" textLength="47" x="2193.767" y="1086.0222">Status</text></g><g id="elem_UC_SHARE_LOC"><ellipse cx="1671.6041" cy="1081.947" fill="#FFFFFF" filter="url(#fx0d1e0edtrr0)" rx="63.1041" ry="27.0623" style="stroke:#000000;stroke-width:1.0;"/><text fill="#000000" font-family="Verdana" font-size="14" lengthAdjust="spacing" textLength="73" x="1635.1041" y="1077.0075">Share Live</text><text fill="#000000" font-family="Verdana" font-size="14" lengthAdjust="spacing" textLength="59" x="1642.1041" y="1094.0222">Location</text></g><!--entity C--><g id="elem_C"><ellipse cx="77.5" cy="425.3846" fill="#FFFFFF" filter="url(#fx0d1e0edtrr0)" rx="8" ry="8" style="stroke:#000000;stroke-width:1.0;"/><path d="M77.5,433.3846 L77.5,460.3846 M64.5,441.3846 L90.5,441.3846 M77.5,460.3846 L64.5,475.3846 M77.5,460.3846 L90.5,475.3846 " fill="none" filter="url(#fx0d1e0edtrr0)" style="stroke:#000000;stroke-width:1.0;"/><text fill="#000000" font-family="Verdana" font-size="14" lengthAdjust="spacing" textLength="69" x="43" y="494.4598">Customer</text></g><!--entity R--><g id="elem_R"><ellipse cx="1231" cy="1174.3846" fill="#FFFFFF" filter="url(#fx0d1e0edtrr0)" rx="8" ry="8" style="stroke:#000000;stroke-width:1.0;"/><path d="M1231,1182.3846 L1231,1209.3846 M1218,1190.3846 L1244,1190.3846 M1231,1209.3846 L1218,1224.3846 M1231,1209.3846 L1244,1224.3846 " fill="none" filter="url(#fx0d1e0edtrr0)" style="stroke:#000000;stroke-width:1.0;"/><text fill="#000000" font-family="Verdana" font-size="14" lengthAdjust="spacing" textLength="78" x="1192" y="1243.4598">Restaurant</text></g><!--entity D--><g id="elem_D"><ellipse cx="1231" cy="1290.3846" fill="#FFFFFF" filter="url(#fx0d1e0edtrr0)" rx="8" ry="8" style="stroke:#000000;stroke-width:1.0;"/><path d="M1231,1298.3846 L1231,1325.3846 M1218,1306.3846 L1244,1306.3846 M1231,1325.3846 L1218,1340.3846 M1231,1325.3846 L1244,1340.3846 " fill="none" filter="url(#fx0d1e0edtrr0)" style="stroke:#000000;stroke-width:1.0;"/><text fill="#000000" font-family="Verdana" font-size="14" lengthAdjust="spacing" textLength="102" x="1180" y="1359.4598">Delivery Agent</text></g><!--entity MAP--><g id="elem_MAP"><ellipse cx="77.5" cy="701.8993" fill="#FFFFFF" filter="url(#fx0d1e0edtrr0)" rx="8" ry="8" style="stroke:#000000;stroke-width:1.0;"/><path d="M77.5,709.8993 L77.5,736.8993 M64.5,717.8993 L90.5,717.8993 M77.5,736.8993 L64.5,751.8993 M77.5,736.8993 L90.5,751.8993 " fill="none" filter="url(#fx0d1e0edtrr0)" style="stroke:#000000;stroke-width:1.0;"/><text fill="#000000" font-family="Verdana" font-size="14" lengthAdjust="spacing" textLength="131" x="12" y="770.9745">Mapping / GPS API</text><text fill="#000000" font-family="Verdana" font-size="14" font-style="italic" lengthAdjust="spacing" textLength="131" x="12" y="689.9598">&#171;external system&#187;</text></g><!--entity NS--><g id="elem_NS"><ellipse cx="77.5" cy="969.8993" fill="#FFFFFF" filter="url(#fx0d1e0edtrr0)" rx="8" ry="8" style="stroke:#000000;stroke-width:1.0;"/><path d="M77.5,977.8993 L77.5,1004.8993 M64.5,985.8993 L90.5,985.8993 M77.5,1004.8993 L64.5,1019.8993 M77.5,1004.8993 L90.5,1019.8993 " fill="none" filter="url(#fx0d1e0edtrr0)" style="stroke:#000000;stroke-width:1.0;"/><text fill="#000000" font-family="Verdana" font-size="14" lengthAdjust="spacing" textLength="133" x="11" y="1038.9745">Notification Service</text><text fill="#000000" font-family="Verdana" font-size="14" font-style="italic" lengthAdjust="spacing" textLength="131" x="12" y="957.9598">&#171;external system&#187;</text></g><g id="elem_GMN45"><path d="M1453,177.3846 L1453,238.5819 A6,6 0 0 0 1459,244.5819 L1884,244.5819 A6,6 0 0 0 1890,238.5819 L1890,181.3846 L1880,171.3846 L1459,171.3846 A6,6 0 0 0 1453,177.3846 " fill="#FFFFFF" filter="url(#fx0d1e0edtrr0)" style="stroke:#000000;stroke-width:1.0;"/><path d="M1880,171.3846 L1880,178.3846 A3,3 0 0 0 1883,181.3846 L1890,181.3846 L1880,171.3846 " fill="#FFFFFF" style="stroke:#000000;stroke-width:1.0;"/><text fill="#000000" font-family="Verdana" font-size="13" lengthAdjust="spacing" textLength="416" x="1459" y="189.4544">Goal: Provide real-time visibility of order and delivery progress.</text><text fill="#000000" font-family="Verdana" font-size="13" lengthAdjust="spacing" textLength="162" x="1586" y="205.2538">Primary Actor: Customer</text><text fill="#000000" font-family="Verdana" font-size="13" lengthAdjust="spacing" textLength="308" x="1513" y="221.0531">Supporting Actors: Restaurant, Delivery Agent</text><text fill="#000000" font-family="Verdana" font-size="13" lengthAdjust="spacing" textLength="377" x="1478.5" y="236.8524">External Systems: Mapping/GPS API, Notification Service</text></g><g id="elem_GMN48"><path d="M259,197.8846 L259,211.6839 A6,6 0 0 0 265,217.6839 L818,217.6839 A6,6 0 0 0 824,211.6839 L824,201.8846 L814,191.8846 L265,191.8846 A6,6 0 0 0 259,197.8846 " fill="#FFFFFF" filter="url(#fx0d1e0edtrr0)" style="stroke:#000000;stroke-width:1.0;"/><path d="M814,191.8846 L814,198.8846 A3,3 0 0 0 817,201.8846 L824,201.8846 L814,191.8846 " fill="#FFFFFF" style="stroke:#000000;stroke-width:1.0;"/><text fill="#000000" font-family="Verdana" font-size="13" lengthAdjust="spacing" textLength="544" x="265" y="209.9544">Includes retrieving current order state, timestamps, and assigned courier (if any).</text></g><g id="elem_GMN51"><path d="M205,136.8846 L205,150.6839 A6,6 0 0 0 211,156.6839 L872,156.6839 A6,6 0 0 0 878,150.6839 L878,140.8846 L868,130.8846 L211,130.8846 A6,6 0 0 0 205,136.8846 " fill="#FFFFFF" filter="url(#fx0d1e0edtrr0)" style="stroke:#000000;stroke-width:1.0;"/><path d="M868,130.8846 L868,137.8846 A3,3 0 0 0 871,140.8846 L878,140.8846 L868,130.8846 " fill="#FFFFFF" style="stroke:#000000;stroke-width:1.0;"/><text fill="#000000" font-family="Verdana" font-size="13" lengthAdjust="spacing" textLength="652" x="211" y="148.9544">Notifications include status changes (accepted, prepared, picked up, delivered) and ETA updates.</text></g><!--link C to UC_TRACK--><g id="link_C_UC_TRACK"><path d="M104.03,416.2046 C126.35,384.7646 161.9,343.5646 205,324.8846 C388.1,245.5146 942.28,198.5846 1103,316.8846 C1167.82,364.5946 1214,624.5746 1226.57,702.6846 " fill="none" id="C-UC_TRACK" style="stroke:#000000;stroke-width:1.2;"/></g><!--link C to UC_CONTACT_D--><g id="link_C_UC_CONTACT_D"><path d="M112.1,456.8846 C181.87,456.8846 344.56,456.8846 448.17,456.8846 " fill="none" id="C-UC_CONTACT_D" style="stroke:#000000;stroke-width:1.2;"/></g><!--link C to UC_SUPPORT--><g id="link_C_UC_SUPPORT"><path d="M112.04,470.6346 C137.22,480.4346 172.77,493.2046 205,500.8846 C283.89,519.6946 375.22,531.2946 442.65,538.0046 " fill="none" id="C-UC_SUPPORT" style="stroke:#000000;stroke-width:1.2;"/></g><!--link C to UC_POD--><g id="link_C_UC_POD"><path d="M105.31,497.4246 C128,528.1746 163.42,568.6646 205,589.8846 C292.02,634.2946 407.51,640.0046 477.79,638.5446 " fill="none" id="C-UC_POD" style="stroke:#000000;stroke-width:1.2;"/></g><!--link C to UC_CONFIRM_RATE--><g id="link_C_UC_CONFIRM_RATE"><path d="M112,442.7746 C137.17,432.7146 172.7,419.6546 205,411.8846 C284.53,392.7546 376.81,381.4146 444.43,375.0546 " fill="none" id="C-UC_CONFIRM_RATE" style="stroke:#000000;stroke-width:1.2;"/></g><!--link R to UC_PREP--><g id="link_R_UC_PREP"><path d="M1270.21,1205.0546 C1313.3,1202.0246 1382.6,1190.4446 1423,1148.8846 C1458.92,1111.9346 1415.45,1072.1746 1453,1036.8846 C1482.69,1008.9846 1524.96,996.6246 1564.36,991.7346 " fill="none" id="R-UC_PREP" style="stroke:#000000;stroke-width:1.2;"/></g><!--link D to UC_DELIV_STATUS--><g id="link_D_UC_DELIV_STATUS"><path d="M1282.08,1310.8546 C1415.45,1281.2346 1790.1,1196.3746 2098,1110.8846 C2117,1105.6046 2137.56,1099.3746 2156.13,1093.5446 " fill="none" id="D-UC_DELIV_STATUS" style="stroke:#000000;stroke-width:1.2;"/></g><!--link D to UC_SHARE_LOC--><g id="link_D_UC_SHARE_LOC"><path d="M1282.3,1294.3546 C1370.82,1245.9046 1552.58,1146.4246 1631.97,1102.9746 " fill="none" id="D-UC_SHARE_LOC" style="stroke:#000000;stroke-width:1.2;"/></g><!--link MAP to UC_MAP--><g id="link_MAP_UC_MAP"><path d="M143.23,724.8846 C213.26,724.8846 326.66,724.8846 414.42,724.8846 " fill="none" id="MAP-UC_MAP" style="stroke:#000000;stroke-width:1.2;"/></g><!--link NS to UC_NOTIFY--><g id="link_NS_UC_NOTIFY"><path d="M144.2,992.8846 C223.67,992.8846 357.95,992.8846 447.9,992.8846 " fill="none" id="NS-UC_NOTIFY" style="stroke:#000000;stroke-width:1.2;"/></g><!--link UC_TRACK to UC_RETRIEVE--><g id="link_UC_TRACK_UC_RETRIEVE"><path d="M1226.14,747.0746 C1215.98,798.3546 1183.56,925.5446 1103,988.8846 C964.01,1098.1646 750.8439,1100.4434 631.9339,1091.7234 " fill="none" id="UC_TRACK-to-UC_RETRIEVE" style="stroke:#000000;stroke-width:1.2;stroke-dasharray:7.0,7.0;"/><polygon fill="#000000" points="625.95,1091.2846,634.6334,1095.9321,630.9366,1091.6503,635.2184,1087.9535,625.95,1091.2846" style="stroke:#000000;stroke-width:1.2;"/><text fill="#000000" font-family="Verdana" font-size="13" lengthAdjust="spacing" textLength="62" x="974.5" y="985.9544">&#171;include&#187;</text></g><!--link UC_TRACK to UC_STATUS--><g id="link_UC_TRACK_UC_STATUS"><path d="M1200.5,745.8846 C1175.55,762.8046 1138.33,786.1246 1103,800.8846 C950.2,864.7246 763.5907,888.6342 648.5607,897.8742 " fill="none" id="UC_TRACK-to-UC_STATUS" style="stroke:#000000;stroke-width:1.2;stroke-dasharray:7.0,7.0;"/><polygon fill="#000000" points="642.58,898.3546,651.8714,901.6211,647.5639,897.9543,651.2308,893.6468,642.58,898.3546" style="stroke:#000000;stroke-width:1.2;"/><text fill="#000000" font-family="Verdana" font-size="13" lengthAdjust="spacing" textLength="62" x="974.5" y="797.9544">&#171;include&#187;</text></g><!--link UC_TRACK to UC_ETA--><g id="link_UC_TRACK_UC_ETA"><path d="M1158.98,739.8946 C1140.78,743.4546 1121.21,747.0446 1103,749.8846 C938.46,775.5746 751.2525,795.2406 640.0325,805.9306 " fill="none" id="UC_TRACK-to-UC_ETA" style="stroke:#000000;stroke-width:1.2;stroke-dasharray:7.0,7.0;"/><polygon fill="#000000" points="634.06,806.5046,643.4014,809.6252,639.0371,806.0262,642.636,801.6619,634.06,806.5046" style="stroke:#000000;stroke-width:1.2;"/><text fill="#000000" font-family="Verdana" font-size="13" lengthAdjust="spacing" textLength="62" x="974.5" y="746.9544">&#171;include&#187;</text></g><!--link UC_TRACK to UC_NOTIFY--><g id="link_UC_TRACK_UC_NOTIFY"><path d="M1218.57,746.8846 C1199.41,781.5546 1157.5,848.6746 1103,884.8846 C959.59,980.1746 758.65,995.8519 640.48,996.1019 " fill="none" id="UC_TRACK-to-UC_NOTIFY" style="stroke:#000000;stroke-width:1.2;stroke-dasharray:7.0,7.0;"/><polygon fill="#000000" points="634.48,996.1146,643.4884,1000.0956,639.48,996.104,643.4715,992.0956,634.48,996.1146" style="stroke:#000000;stroke-width:1.2;"/><text fill="#000000" font-family="Verdana" font-size="13" lengthAdjust="spacing" textLength="62" x="974.5" y="881.9544">&#171;include&#187;</text></g><!--link UC_MAP to UC_TRACK--><g id="link_UC_MAP_UC_TRACK"><path d="M668.6,724.8846 C802.53,724.8846 1005.35,724.8846 1127,724.8846 " fill="none" id="UC_MAP-to-UC_TRACK" style="stroke:#000000;stroke-width:1.2;stroke-dasharray:7.0,7.0;"/><polygon fill="#000000" points="1133,724.8846,1124,720.8846,1128,724.8846,1124,728.8846,1133,724.8846" style="stroke:#000000;stroke-width:1.2;"/><text fill="#000000" font-family="Verdana" font-size="13" lengthAdjust="spacing" textLength="61" x="975" y="705.9544">&#171;extend&#187;</text><text fill="#000000" font-family="Verdana" font-size="13" lengthAdjust="spacing" textLength="152" x="929.5" y="721.7538">[Live tracking enabled]</text></g><!--link UC_CONTACT_D to UC_TRACK--><g id="link_UC_CONTACT_D_UC_TRACK"><path d="M634.48,457.6446 C773.05,460.3546 1027.23,471.9546 1103,519.8846 C1171.99,563.5346 1207.7261,653.915 1221.7161,697.235 " fill="none" id="UC_CONTACT_D-to-UC_TRACK" style="stroke:#000000;stroke-width:1.2;stroke-dasharray:7.0,7.0;"/><polygon fill="#000000" points="1223.56,702.9446,1224.6006,693.1509,1222.0234,698.1866,1216.9877,695.6094,1223.56,702.9446" style="stroke:#000000;stroke-width:1.2;"/><text fill="#000000" font-family="Verdana" font-size="13" lengthAdjust="spacing" textLength="61" x="975" y="456.9544">&#171;extend&#187;</text><text fill="#000000" font-family="Verdana" font-size="13" lengthAdjust="spacing" textLength="193" x="909" y="472.7538">[Customer requests contact]</text></g><!--link UC_SUPPORT to UC_TRACK--><g id="link_UC_SUPPORT_UC_TRACK"><path d="M643.29,541.3546 C759.2,539.9446 952.8,549.3946 1103,615.8846 C1148.17,635.8846 1185.3847,672.8817 1207.9547,698.5117 " fill="none" id="UC_SUPPORT-to-UC_TRACK" style="stroke:#000000;stroke-width:1.2;stroke-dasharray:7.0,7.0;"/><polygon fill="#000000" points="1211.92,703.0146,1208.974,693.6167,1208.6156,699.2622,1202.9701,698.9038,1211.92,703.0146" style="stroke:#000000;stroke-width:1.2;"/><text fill="#000000" font-family="Verdana" font-size="13" lengthAdjust="spacing" textLength="61" x="975" y="541.9544">&#171;extend&#187;</text><text fill="#000000" font-family="Verdana" font-size="13" lengthAdjust="spacing" textLength="128" x="941.5" y="557.7538">[Problem detected]</text></g><!--link UC_POD to UC_TRACK--><g id="link_UC_POD_UC_TRACK"><path d="M605.78,635.7946 C710.31,638.3346 925.17,647.8846 1103,683.8846 C1129,689.1446 1151.4838,695.9311 1174.6538,704.0011 " fill="none" id="UC_POD-to-UC_TRACK" style="stroke:#000000;stroke-width:1.2;stroke-dasharray:7.0,7.0;"/><polygon fill="#000000" points="1180.32,705.9746,1173.1364,699.2369,1175.5982,704.33,1170.5051,706.7918,1180.32,705.9746" style="stroke:#000000;stroke-width:1.2;"/><text fill="#000000" font-family="Verdana" font-size="13" lengthAdjust="spacing" textLength="61" x="975" y="637.9544">&#171;extend&#187;</text><text fill="#000000" font-family="Verdana" font-size="13" lengthAdjust="spacing" textLength="112" x="949.5" y="653.7538">[Order delivered]</text></g><!--link UC_CONFIRM_RATE to UC_TRACK--><g id="link_UC_CONFIRM_RATE_UC_TRACK"><path d="M627.38,353.8646 C746.05,339.1646 962.73,330.7746 1103,434.8846 C1193.26,501.8746 1219.5847,640.9449 1226.8347,696.5849 " fill="none" id="UC_CONFIRM_RATE-to-UC_TRACK" style="stroke:#000000;stroke-width:1.2;stroke-dasharray:7.0,7.0;"/><polygon fill="#000000" points="1227.61,702.5346,1230.4136,693.0932,1226.964,697.5765,1222.4806,694.1269,1227.61,702.5346" style="stroke:#000000;stroke-width:1.2;"/><text fill="#000000" font-family="Verdana" font-size="13" lengthAdjust="spacing" textLength="61" x="975" y="338.9544">&#171;extend&#187;</text><text fill="#000000" font-family="Verdana" font-size="13" lengthAdjust="spacing" textLength="137" x="937" y="354.7538">[Delivery completed]</text></g><!--link UC_TRACK to UC_DELIV_STATUS--><g id="link_UC_TRACK_UC_DELIV_STATUS"><path d="M1287.73,742.9046 C1401.46,779.8746 1668.29,867.5746 1890,947.8846 C1986.69,982.9046 2092.6647,1024.4774 2157.1647,1050.1274 " fill="none" id="UC_TRACK-to-UC_DELIV_STATUS" style="stroke:#000000;stroke-width:1.2;stroke-dasharray:7.0,7.0;"/><polygon fill="#000000" points="2162.74,1052.3446,2155.8551,1045.302,2158.0939,1050.497,2152.8989,1052.7357,2162.74,1052.3446" style="stroke:#000000;stroke-width:1.2;"/><text fill="#000000" font-family="Verdana" font-size="13" lengthAdjust="spacing" textLength="62" x="1640.5" y="796.9544">&#171;include&#187;</text></g><!--link UC_TRACK to UC_PREP--><g id="link_UC_TRACK_UC_PREP"><path d="M1245,746.8346 C1274.86,795.0346 1353.5,909.9646 1453,961.8846 C1486.82,979.5346 1521.4334,987.4925 1558.3434,991.4025 " fill="none" id="UC_TRACK-to-UC_PREP" style="stroke:#000000;stroke-width:1.2;stroke-dasharray:7.0,7.0;"/><polygon fill="#000000" points="1564.31,992.0346,1555.7815,987.1088,1559.3378,991.5079,1554.9387,995.0643,1564.31,992.0346" style="stroke:#000000;stroke-width:1.2;"/><text fill="#000000" font-family="Verdana" font-size="13" lengthAdjust="spacing" textLength="62" x="1360" y="890.9544">&#171;include&#187;</text></g><!--link UC_SHARE_LOC to UC_DELIV_STATUS--><g id="link_UC_SHARE_LOC_UC_DELIV_STATUS"><path d="M1732.55,1088.9346 C1815.08,1097.5146 1968.13,1109.3746 2098,1096.8846 C2113.44,1095.4046 2123.9498,1093.9443 2139.4898,1091.0743 " fill="none" id="UC_SHARE_LOC-to-UC_DELIV_STATUS" style="stroke:#000000;stroke-width:1.2;stroke-dasharray:7.0,7.0;"/><polygon fill="#000000" points="2145.39,1089.9846,2135.8132,1087.6856,2140.4731,1090.8927,2137.2661,1095.5526,2145.39,1089.9846" style="stroke:#000000;stroke-width:1.2;"/><text fill="#000000" font-family="Verdana" font-size="13" lengthAdjust="spacing" textLength="61" x="1978.5" y="1077.9544">&#171;extend&#187;</text><text fill="#000000" font-family="Verdana" font-size="13" lengthAdjust="spacing" textLength="176" x="1921" y="1093.7538">[Location sharing enabled]</text></g><!--link UC_TRACK to GMN45--><g id="link_UC_TRACK_GMN45"><path d="M1236.67,702.7246 C1252.97,630.8546 1314.03,401.8846 1453,280.8846 C1470.2,265.9146 1490.58,253.9846 1511.86,244.4846 " fill="none" id="UC_TRACK-GMN45" style="stroke:#000000;stroke-width:1.2;stroke-dasharray:7.0,7.0;"/></g><!--link UC_RETRIEVE to GMN48--><g id="link_UC_RETRIEVE_GMN48"><path d="M466.89,1097.1846 C376.73,1110.7246 230.21,1115.5846 174.5,1019.3846 C153.42,982.9946 153.42,298.7746 174.5,262.3846 C234.29,159.1346 399.33,175.0846 486.27,191.8746 " fill="none" id="UC_RETRIEVE-GMN48" style="stroke:#000000;stroke-width:1.2;stroke-dasharray:7.0,7.0;"/></g><!--link UC_NOTIFY to GMN51--><g id="link_UC_NOTIFY_GMN51"><path d="M464.91,1008.4746 C374.61,1021.7946 229.81,1025.8846 174.5,930.3846 C153.92,894.8546 153.92,226.9146 174.5,191.3846 C235.84,85.4746 409.11,110.8846 493.76,130.8246 " fill="none" id="UC_NOTIFY-GMN51" style="stroke:#000000;stroke-width:1.2;stroke-dasharray:7.0,7.0;"/></g><!--SRC=[XLVVR-8u47xFNp7NXrigGQlTn-vk9GHq3rrR485AfsDLkOa1QnCxPpjmwBJ_-ytOSH9AZii3IkmPpwzlFWyPtrYm2hJOxYoaGlF42YMZN-oEvnoAZ0aPcHz25aop7CoEfUeWv1QiBdbhGwjIfedIaclu-AcrmHAhT6oF6GTZHV8ZP-tp2fRyO5lkzyasazkiVMxADwpCx9B_ROUPsCgSImi9_d3TaXfghGxB7HulkJ7myUPJ55bXySoLuJ1Y-3CMR4kY0rXgD0epdQAhlyAOPsBFzN4jPp8JaiE3KgdVfJ3Zex4yZw8Fy9KU658u1dhe3zUIPPGxJ1KO9mTlb0QcZzTUF7BHmwWqLkLeZXaOLMiBRYmhDSDmS7LHhLu5Ts2unI2lQ6ySXSqdLXJar2rycySmd4_T_jDm3b- -r0vvJ-xlWzApic8Z4aPbXPZhlKYuqtkEEzNgKEFJaAg8wYB1rOM4EGEpXraC_qGHm0TuGXn1RwjODiZudcVNK69H4gmCRkChlS5LTsdSOQlHwt8n7FtkZnjKJvDQfqeEz0uxXX09wuPpSvigRgvh9JoXmXrSdUbVeSS0BPyMt6g1Bdktrh8sDEQMYSm4xnQJvM8wUPcSQhy8VgW2YYspfS43HCufSK4nNWwNgxX3RR8SmkrQrf2OO0FbpDQAkD-XzOZ2TUemxuKxGzCdF2gFWt02GkTzi0ad_H3aMhRXKyVwF5jE7_w8dEu7c1MqoRBRHCbK-FUc0CmHYZcrCrBIuaQh-ngyu_cZsVDoE5g-Zhkruh8ebBOKs8AxjwanPPFGrNm-MomxSZFNIctMKctEi3MVdTlQ29qtcIHZcFmpJVJrORfuUbqCbrJxd-y0EYkuPbLELaMA9vWAegemI9iPVfTklHkW7Vfd4FNh61qdEYJXjVHegyDRJEQTEaq1JXN6ayVfIoSquntJtA5iBT_ZAVvjk9YyFiv6BX4_tz4c2XcL20ybw1cLYHIe4ynda0eOaVYEizI0v3pbQI3H4IQcwV_mrM0ah8IwXs-gQKkwgLAq21AKbcXSVPt471QRa28YMhz8VOFqwJz2CuHOLnMnuNsM-LXt0alTMpqz8XlX_OVNe0cn4JCYlM9sZc3Ajy4Rtx6ze2i6GTfDX_3r7ebRo2GhKuw47J83DpVtRIA2kujYFawix6Kn8Y7tN1RpIJWJm_WS7-L8Gy90co1wIcP741kwoswp2aZ0ziYfx2t3Rd1XqlqaKs-Gyb-PyxRlMW9h-QUpP0CzSqd7fD_9Xy1G3Ii9cY0gQeB3JcGjpJF3DTGkcg-l4it_Al5sT-4INtsF6d1I9YyTWWo5NjFSO_6Y9VSzaA5wBkbweAGU9fLg6_SNbMjq9IelCcxhp3NqKrRqbT9b0ex3QFGvkMe_qn91sJDqo2dXNA5dn1CLEWpL_gXA7MOdbXtOqINDb3bkuq7OHBNHKlknqn_OnnCLIkY3G25dCs4IKv_JeE6ifBp0u6XU3AE6gHc8fzNW9hIVKCtD6QJRTF0_w2SU2HKwxm3Fc9HUg77UsGp8VkWxNOGLUZ4Csz48DIVzfwljhWWcSNRNxnl3CnRUyNGhJIUJoM23muvCisCVALaEi4rqQT3pFY1z3Hms139Oe2-9cjL_1-IhcgE_uPntHxVjNgJ4WpZruUZ2OI-CU1EPi4SILmwlI7y1iqSejDfg7E5lehd6MOVcOAhENJtdHTNTJu7uMVokDKhtuNH-ZYPXlFLZAGfNC_HjDK7teMi-ZZ05GB55Fi8tPT5w5M8zw4q3aBKV4ScdfDIQwkTZGxyifevYnzUyC7qNBg8G_yeW1XE4lq2v7hO2ayVhcuk6gulcP28BtUHCbGYg7GxdL4oM9Bn0dFSnfpGMk3VyWuHMowBViCIryuXOlkgqbW__0W00]--></g></svg>