<?xml version="1.0" encoding="us-ascii" standalone="no"?><svg xmlns="http://www.w3.org/2000/svg" xmlns:xlink="http://www.w3.org/1999/xlink" contentStyleType="text/css" height="1785px" preserveAspectRatio="none" style="width:1123px;height:1785px;background:#FFFFFF;" version="1.1" viewBox="0 0 1123 1785" width="1123px" zoomAndPan="magnify"><defs><filter height="300%" id="f1oltlqaerwd64" width="300%" x="-1" y="-1"><feGaussianBlur result="blurOut" stdDeviation="2.0"/><feColorMatrix in="blurOut" result="blurOut2" type="matrix" values="0 0 0 0 0 0 0 0 0 0 0 0 0 0 0 0 0 0 .4 0"/><feOffset dx="4.0" dy="4.0" in="blurOut2" result="blurOut3"/><feBlend in="SourceGraphic" in2="blurOut3" mode="normal"/></filter></defs><g><text fill="#000000" font-family="Verdana" font-size="22" font-weight="bold" lengthAdjust="spacing" textLength="399" x="357.5" y="37.1182">Place Order - Use Case Diagram</text><text fill="#000000" font-family="Verdana" font-size="22" font-weight="bold" lengthAdjust="spacing" textLength="366" x="374" y="63.8555">Online Food Ordering System</text><!--cluster Online Food Ordering System--><g id="cluster_Online Food Ordering System"><rect fill="#FFFFFF" filter="url(#f1oltlqaerwd64)" height="1384" rx="6" ry="6" style="stroke:#000000;stroke-width:1.0;" width="984" x="127" y="181.9746"/><text fill="#000000" font-family="Verdana" font-size="14" font-weight="bold" lengthAdjust="spacing" textLength="228" x="505" y="198.0498">Online Food Ordering System</text></g><!--cluster Menu & Cart Management--><g id="cluster_Menu &amp; Cart Management"><rect fill="#F0F8FF" filter="url(#f1oltlqaerwd64)" height="238" rx="6" ry="6" style="stroke:#000000;stroke-width:1.0;" width="236" x="470.5" y="909.9746"/><text fill="#000000" font-family="Verdana" font-size="14" font-weight="bold" lengthAdjust="spacing" textLength="201" x="488" y="926.0498">Menu &amp; Cart Management</text></g><!--cluster Order Configuration--><g id="cluster_Order Configuration"><rect fill="#F5F5DC" filter="url(#f1oltlqaerwd64)" height="327" rx="6" ry="6" style="stroke:#000000;stroke-width:1.0;" width="243" x="467" y="558.9746"/><text fill="#000000" font-family="Verdana" font-size="14" font-weight="bold" lengthAdjust="spacing" textLength="157" x="510" y="575.0498">Order Configuration</text></g><!--cluster Payment & Pricing--><g id="cluster_Payment &amp; Pricing"><rect fill="#FFE4E1" filter="url(#f1oltlqaerwd64)" height="309" rx="6" ry="6" style="stroke:#000000;stroke-width:1.0;" width="616.5" x="470.5" y="225.9746"/><text fill="#000000" font-family="Verdana" font-size="14" font-weight="bold" lengthAdjust="spacing" textLength="142" x="707.75" y="242.0498">Payment &amp; Pricing</text></g><!--cluster Order Processing--><g id="cluster_Order Processing"><rect fill="#E6F3E6" filter="url(#f1oltlqaerwd64)" height="370" rx="6" ry="6" style="stroke:#000000;stroke-width:1.0;" width="558" x="151" y="1171.9746"/><text fill="#000000" font-family="Verdana" font-size="14" font-weight="bold" lengthAdjust="spacing" textLength="134" x="363" y="1188.0498">Order Processing</text></g><g id="elem_UC_SelectItems"><ellipse cx="588.594" cy="1108.7934" fill="#FFFFFF" filter="url(#f1oltlqaerwd64)" rx="102.094" ry="22.8188" style="stroke:#000000;stroke-width:1.0;"/><text fill="#000000" font-family="Verdana" font-size="14" lengthAdjust="spacing" textLength="167" x="505.094" y="1112.3613">Select Items from Menu</text></g><g id="elem_UC_ManageCart"><ellipse cx="588.3594" cy="1035.1465" fill="#FFFFFF" filter="url(#f1oltlqaerwd64)" rx="68.8594" ry="16.1719" style="stroke:#000000;stroke-width:1.0;"/><text fill="#000000" font-family="Verdana" font-size="14" lengthAdjust="spacing" textLength="88" x="541.3594" y="1039.4341">Manage Cart</text></g><g id="elem_UC_CustomizeItems"><ellipse cx="588.6" cy="965.0946" fill="#FFFFFF" filter="url(#f1oltlqaerwd64)" rx="81.1" ry="18.62" style="stroke:#000000;stroke-width:1.0;"/><text fill="#000000" font-family="Verdana" font-size="14" lengthAdjust="spacing" textLength="119" x="529.1" y="968.6625">Customize Items</text></g><g id="elem_UC_SelectAddress"><ellipse cx="588.6917" cy="847.113" fill="#FFFFFF" filter="url(#f1oltlqaerwd64)" rx="101.1917" ry="22.6383" style="stroke:#000000;stroke-width:1.0;"/><text fill="#000000" font-family="Verdana" font-size="14" lengthAdjust="spacing" textLength="165" x="506.1917" y="850.6808">Select Delivery Address</text></g><g id="elem_UC_ViewSummary"><ellipse cx="588.5473" cy="768.1841" fill="#FFFFFF" filter="url(#f1oltlqaerwd64)" rx="94.0473" ry="21.2095" style="stroke:#000000;stroke-width:1.0;"/><text fill="#000000" font-family="Verdana" font-size="14" lengthAdjust="spacing" textLength="149" x="514.0473" y="771.7519">View Order Summary</text></g><g id="elem_UC_ValidateOrder"><ellipse cx="588.3393" cy="695.0425" fill="#FFFFFF" filter="url(#f1oltlqaerwd64)" rx="73.3393" ry="17.0679" style="stroke:#000000;stroke-width:1.0;"/><text fill="#000000" font-family="Verdana" font-size="14" lengthAdjust="spacing" textLength="100" x="537.4315" y="698.8494">Validate Order</text></g><g id="elem_UC_Schedule"><ellipse cx="588.2661" cy="618.9278" fill="#FFFFFF" filter="url(#f1oltlqaerwd64)" rx="105.2661" ry="23.4532" style="stroke:#000000;stroke-width:1.0;"/><text fill="#000000" font-family="Verdana" font-size="14" lengthAdjust="spacing" textLength="174" x="501.2661" y="622.4957">Schedule Order for Later</text></g><g id="elem_UC_Total"><ellipse cx="588.6644" cy="433.0075" fill="#FFFFFF" filter="url(#f1oltlqaerwd64)" rx="93.1644" ry="21.0329" style="stroke:#000000;stroke-width:1.0;"/><text fill="#000000" font-family="Verdana" font-size="14" lengthAdjust="spacing" textLength="147" x="515.1644" y="436.5754">Calculate Order Total</text></g><g id="elem_UC_Coupon"><ellipse cx="588.594" cy="353.7934" fill="#FFFFFF" filter="url(#f1oltlqaerwd64)" rx="102.094" ry="22.8188" style="stroke:#000000;stroke-width:1.0;"/><text fill="#000000" font-family="Verdana" font-size="14" lengthAdjust="spacing" textLength="167" x="505.094" y="357.3613">Apply Coupon/Discount</text></g><g id="elem_UC_Tip"><ellipse cx="588.7319" cy="504.022" fill="#FFFFFF" filter="url(#f1oltlqaerwd64)" rx="49.7319" ry="15.0474" style="stroke:#000000;stroke-width:1.0;"/><text fill="#000000" font-family="Verdana" font-size="14" lengthAdjust="spacing" textLength="54" x="560.0184" y="508.0316">Add Tip</text></g><g id="elem_UC_Payment"><ellipse cx="588.3393" cy="279.0425" fill="#FFFFFF" filter="url(#f1oltlqaerwd64)" rx="73.3393" ry="17.0679" style="stroke:#000000;stroke-width:1.0;"/><text fill="#000000" font-family="Verdana" font-size="14" lengthAdjust="spacing" textLength="100" x="537.4315" y="282.8494">Make Payment</text></g><g id="elem_UC_PaymentFail"><ellipse cx="970.842" cy="297.843" fill="#FFFFFF" filter="url(#f1oltlqaerwd64)" rx="99.842" ry="22.3684" style="stroke:#000000;stroke-width:1.0;"/><text fill="#000000" font-family="Verdana" font-size="14" lengthAdjust="spacing" textLength="162" x="889.842" y="301.4109">Handle Payment Failure</text></g><g id="elem_UC_PlaceOrder"><ellipse cx="232.7273" cy="1224.0201" fill="#FFFFFF" filter="url(#f1oltlqaerwd64)" rx="65.7273" ry="15.5455" style="stroke:#000000;stroke-width:1.0;"/><text fill="#000000" font-family="Verdana" font-size="14" lengthAdjust="spacing" textLength="79" x="190.2273" y="1228.3077">Place Order</text></g><g id="elem_UC_Cancel"><ellipse cx="588.5767" cy="1346.79" fill="#FFFFFF" filter="url(#f1oltlqaerwd64)" rx="69.5767" ry="16.3153" style="stroke:#000000;stroke-width:1.0;"/><text fill="#000000" font-family="Verdana" font-size="14" lengthAdjust="spacing" textLength="90" x="540.5767" y="1351.0776">Cancel Order</text></g><g id="elem_UC_Favorite"><ellipse cx="588.393" cy="1256.7532" fill="#FFFFFF" filter="url(#f1oltlqaerwd64)" rx="99.393" ry="22.2786" style="stroke:#000000;stroke-width:1.0;"/><text fill="#000000" font-family="Verdana" font-size="14" lengthAdjust="spacing" textLength="161" x="507.893" y="1260.3211">Save Order as Favorite</text></g><g id="elem_UC_Notify"><ellipse cx="588.3576" cy="1501.7461" fill="#FFFFFF" filter="url(#f1oltlqaerwd64)" rx="104.3576" ry="23.2715" style="stroke:#000000;stroke-width:1.0;"/><text fill="#000000" font-family="Verdana" font-size="14" lengthAdjust="spacing" textLength="172" x="502.3576" y="1505.314">Send Order Notifications</text></g><g id="elem_UC_ProcessOrder"><ellipse cx="588.342" cy="1420.843" fill="#FFFFFF" filter="url(#f1oltlqaerwd64)" rx="99.842" ry="22.3684" style="stroke:#000000;stroke-width:1.0;"/><text fill="#000000" font-family="Verdana" font-size="14" lengthAdjust="spacing" textLength="162" x="507.342" y="1424.4109">Process Order Request</text></g><!--entity Customer--><g id="elem_Customer"><ellipse cx="45.5" cy="1192.4746" fill="#FFFFFF" filter="url(#f1oltlqaerwd64)" rx="8" ry="8" style="stroke:#000000;stroke-width:1.0;"/><path d="M45.5,1200.4746 L45.5,1227.4746 M32.5,1208.4746 L58.5,1208.4746 M45.5,1227.4746 L32.5,1242.4746 M45.5,1227.4746 L58.5,1242.4746 " fill="none" filter="url(#f1oltlqaerwd64)" style="stroke:#000000;stroke-width:1.0;"/><text fill="#000000" font-family="Verdana" font-size="14" lengthAdjust="spacing" textLength="69" x="11" y="1261.5498">Customer</text></g><!--entity PaymentGateway--><g id="elem_PaymentGateway"><ellipse cx="232.5" cy="93.4746" fill="#FFFFFF" filter="url(#f1oltlqaerwd64)" rx="8" ry="8" style="stroke:#000000;stroke-width:1.0;"/><path d="M232.5,101.4746 L232.5,128.4746 M219.5,109.4746 L245.5,109.4746 M232.5,128.4746 L219.5,143.4746 M232.5,128.4746 L245.5,143.4746 " fill="none" filter="url(#f1oltlqaerwd64)" style="stroke:#000000;stroke-width:1.0;"/><text fill="#000000" font-family="Verdana" font-size="14" lengthAdjust="spacing" textLength="125" x="170" y="162.5498">Payment Gateway</text></g><!--entity NotificationService--><g id="elem_NotificationService"><ellipse cx="232.5" cy="1707.4746" fill="#FFFFFF" filter="url(#f1oltlqaerwd64)" rx="8" ry="8" style="stroke:#000000;stroke-width:1.0;"/><path d="M232.5,1715.4746 L232.5,1742.4746 M219.5,1723.4746 L245.5,1723.4746 M232.5,1742.4746 L219.5,1757.4746 M232.5,1742.4746 L245.5,1757.4746 " fill="none" filter="url(#f1oltlqaerwd64)" style="stroke:#000000;stroke-width:1.0;"/><text fill="#000000" font-family="Verdana" font-size="14" lengthAdjust="spacing" textLength="133" x="166" y="1776.5498">Notification Service</text></g><!--entity Restaurant--><g id="elem_Restaurant"><ellipse cx="232.5" cy="1591.4746" fill="#FFFFFF" filter="url(#f1oltlqaerwd64)" rx="8" ry="8" style="stroke:#000000;stroke-width:1.0;"/><path d="M232.5,1599.4746 L232.5,1626.4746 M219.5,1607.4746 L245.5,1607.4746 M232.5,1626.4746 L219.5,1641.4746 M232.5,1626.4746 L245.5,1641.4746 " fill="none" filter="url(#f1oltlqaerwd64)" style="stroke:#000000;stroke-width:1.0;"/><text fill="#000000" font-family="Verdana" font-size="14" lengthAdjust="spacing" textLength="78" x="193.5" y="1660.5498">Restaurant</text></g><!--link UC_PlaceOrder to UC_SelectItems--><g id="link_UC_PlaceOrder_UC_SelectItems"><path d="M258.82,1209.7746 C277.72,1199.6046 304.42,1186.1546 329,1176.9746 C389.43,1154.4146 454.5981,1137.6296 506.8881,1125.7896 " fill="none" id="UC_PlaceOrder-to-UC_SelectItems" style="stroke:#000000;stroke-width:1.5;stroke-dasharray:7.0,7.0;"/><polygon fill="#000000" points="512.74,1124.4646,503.0789,1122.5509,507.8634,1125.5688,504.8456,1130.3534,512.74,1124.4646" style="stroke:#000000;stroke-width:1.5;"/><text fill="#000000" font-family="Verdana" font-size="13" lengthAdjust="spacing" textLength="62" x="359" y="1138.0444">&#171;include&#187;</text></g><!--link UC_PlaceOrder to UC_ManageCart--><g id="link_UC_PlaceOrder_UC_ManageCart"><path d="M243.4,1208.5646 C259,1185.4346 291.41,1141.7046 329,1115.9746 C390.03,1074.2046 467.7154,1054.2504 523.1154,1044.2504 " fill="none" id="UC_PlaceOrder-to-UC_ManageCart" style="stroke:#000000;stroke-width:1.5;stroke-dasharray:7.0,7.0;"/><polygon fill="#000000" points="529.02,1043.1846,519.4526,1040.8469,524.0995,1044.0728,520.8737,1048.7197,529.02,1043.1846" style="stroke:#000000;stroke-width:1.5;"/><text fill="#000000" font-family="Verdana" font-size="13" lengthAdjust="spacing" textLength="62" x="359" y="1059.0444">&#171;include&#187;</text></g><!--link UC_PlaceOrder to UC_SelectAddress--><g id="link_UC_PlaceOrder_UC_SelectAddress"><path d="M233.71,1208.4546 C235.21,1159.5746 246.62,1007.2446 329,925.9746 C372.43,883.1346 432.4906,864.4045 486.9206,855.3945 " fill="none" id="UC_PlaceOrder-to-UC_SelectAddress" style="stroke:#000000;stroke-width:1.5;stroke-dasharray:7.0,7.0;"/><polygon fill="#000000" points="492.84,854.4146,483.3076,851.9381,487.9071,855.2312,484.6141,859.8307,492.84,854.4146" style="stroke:#000000;stroke-width:1.5;"/><text fill="#000000" font-family="Verdana" font-size="13" lengthAdjust="spacing" textLength="62" x="359" y="861.0444">&#171;include&#187;</text></g><!--link UC_PlaceOrder to UC_ViewSummary--><g id="link_UC_PlaceOrder_UC_ViewSummary"><path d="M235.28,1208.3046 C243,1143.0346 275.63,893.6946 329,838.9746 C372.06,794.8346 433.832,778.073 489.172,771.493 " fill="none" id="UC_PlaceOrder-to-UC_ViewSummary" style="stroke:#000000;stroke-width:1.5;stroke-dasharray:7.0,7.0;"/><polygon fill="#000000" points="495.13,770.7846,485.7207,767.8752,490.165,771.375,486.6652,775.8193,495.13,770.7846" style="stroke:#000000;stroke-width:1.5;"/><text fill="#000000" font-family="Verdana" font-size="13" lengthAdjust="spacing" textLength="62" x="359" y="776.0444">&#171;include&#187;</text></g><!--link UC_PlaceOrder to UC_ValidateOrder--><g id="link_UC_PlaceOrder_UC_ValidateOrder"><path d="M234.45,1208.4146 C239.27,1134.6646 263.42,821.1446 329,753.9746 C355.33,727.0046 447.7866,711.1407 515.2966,702.6807 " fill="none" id="UC_PlaceOrder-to-UC_ValidateOrder" style="stroke:#000000;stroke-width:1.5;stroke-dasharray:7.0,7.0;"/><polygon fill="#000000" points="521.25,701.9346,511.8225,699.0847,516.2888,702.5563,512.8172,707.0226,521.25,701.9346" style="stroke:#000000;stroke-width:1.5;"/><text fill="#000000" font-family="Verdana" font-size="13" lengthAdjust="spacing" textLength="62" x="359" y="711.0444">&#171;include&#187;</text></g><!--link UC_PlaceOrder to UC_Total--><g id="link_UC_PlaceOrder_UC_Total"><path d="M233.2,1208.4146 C231.68,1112.3046 228.42,599.7746 329,489.9746 C341.49,476.3346 434.6054,458.3133 506.3754,446.0733 " fill="none" id="UC_PlaceOrder-to-UC_Total" style="stroke:#000000;stroke-width:1.5;stroke-dasharray:7.0,7.0;"/><polygon fill="#000000" points="512.29,445.0646,502.7456,442.6346,507.3612,445.9052,504.0906,450.5207,512.29,445.0646" style="stroke:#000000;stroke-width:1.5;"/><text fill="#000000" font-family="Verdana" font-size="13" lengthAdjust="spacing" textLength="62" x="359" y="454.0444">&#171;include&#187;</text></g><!--link UC_PlaceOrder to UC_Payment--><g id="link_UC_PlaceOrder_UC_Payment"><path d="M234.13,1208.1346 C238.77,1094.7446 269.22,408.9146 329,340.9746 C375.19,288.4846 451.2411,276.5169 510.5311,275.4069 " fill="none" id="UC_PlaceOrder-to-UC_Payment" style="stroke:#000000;stroke-width:1.5;stroke-dasharray:7.0,7.0;"/><polygon fill="#000000" points="516.53,275.2946,507.4567,271.4638,511.5309,275.3882,507.6064,279.4624,516.53,275.2946" style="stroke:#000000;stroke-width:1.5;"/><text fill="#000000" font-family="Verdana" font-size="13" lengthAdjust="spacing" textLength="62" x="359" y="280.0444">&#171;include&#187;</text></g><!--link UC_PlaceOrder to UC_Notify--><g id="link_UC_PlaceOrder_UC_Notify"><path d="M235.22,1239.7346 C240.64,1281.1146 261.18,1393.4746 329,1448.9746 C371.99,1484.1546 426.2651,1497.3462 477.7951,1502.0762 " fill="none" id="UC_PlaceOrder-to-UC_Notify" style="stroke:#000000;stroke-width:1.5;stroke-dasharray:7.0,7.0;"/><polygon fill="#000000" points="483.77,1502.6246,475.1733,1497.8187,478.7909,1502.1676,474.442,1505.7852,483.77,1502.6246" style="stroke:#000000;stroke-width:1.5;"/><text fill="#000000" font-family="Verdana" font-size="13" lengthAdjust="spacing" textLength="62" x="359" y="1446.0444">&#171;include&#187;</text></g><!--link UC_PlaceOrder to UC_ProcessOrder--><g id="link_UC_PlaceOrder_UC_ProcessOrder"><path d="M237.77,1239.4246 C247.71,1272.1746 275.68,1348.4746 329,1383.9746 C376.36,1415.5046 433.4125,1424.8415 485.3825,1426.3415 " fill="none" id="UC_PlaceOrder-to-UC_ProcessOrder" style="stroke:#000000;stroke-width:1.5;stroke-dasharray:7.0,7.0;"/><polygon fill="#000000" points="491.38,1426.5146,482.4991,1422.2566,486.3821,1426.3704,482.2683,1430.2533,491.38,1426.5146" style="stroke:#000000;stroke-width:1.5;"/><text fill="#000000" font-family="Verdana" font-size="13" lengthAdjust="spacing" textLength="62" x="359" y="1381.0444">&#171;include&#187;</text></g><!--reverse link UC_PlaceOrder to UC_CustomizeItems--><g id="link_UC_PlaceOrder_UC_CustomizeItems"><path d="M238.3262,1202.6441 C247.0362,1166.7841 272.12,1083.4546 329,1036.9746 C380.4,994.9646 454.68,977.4146 510.43,970.1146 " fill="none" id="UC_PlaceOrder-backto-UC_CustomizeItems" style="stroke:#000000;stroke-width:1.5;stroke-dasharray:7.0,7.0;"/><polygon fill="#000000" points="236.91,1208.4746,242.9212,1200.673,238.0901,1203.6159,235.1473,1198.7848,236.91,1208.4746" style="stroke:#000000;stroke-width:1.5;"/><text fill="#000000" font-family="Verdana" font-size="13" lengthAdjust="spacing" textLength="61" x="359.5" y="948.0444">&#171;extend&#187;</text><text fill="#000000" font-family="Verdana" font-size="13" lengthAdjust="spacing" textLength="113" x="333.5" y="963.8438">(extension point:</text><text fill="#000000" font-family="Verdana" font-size="13" lengthAdjust="spacing" textLength="104" x="338" y="979.6431">SelectingItems)</text></g><!--reverse link UC_PlaceOrder to UC_Schedule--><g id="link_UC_PlaceOrder_UC_Schedule"><path d="M234.3535,1202.24 C237.7335,1122.32 256.59,768.0346 329,688.9746 C352.28,663.5546 435.28,644.1046 501.04,632.2346 " fill="none" id="UC_PlaceOrder-backto-UC_Schedule" style="stroke:#000000;stroke-width:1.5;stroke-dasharray:7.0,7.0;"/><polygon fill="#000000" points="234.1,1208.2346,238.4767,1199.4117,234.3113,1203.2391,230.4839,1199.0736,234.1,1208.2346" style="stroke:#000000;stroke-width:1.5;"/><text fill="#000000" font-family="Verdana" font-size="13" lengthAdjust="spacing" textLength="61" x="359.5" y="609.0444">&#171;extend&#187;</text><text fill="#000000" font-family="Verdana" font-size="13" lengthAdjust="spacing" textLength="113" x="333.5" y="624.8438">(extension point:</text><text fill="#000000" font-family="Verdana" font-size="13" lengthAdjust="spacing" textLength="115" x="332.5" y="640.6431">ConfiguringOrder)</text></g><!--reverse link UC_PlaceOrder to UC_Coupon--><g id="link_UC_PlaceOrder_UC_Coupon"><path d="M234.6992,1202.4842 C240.6692,1097.0642 276.93,493.9346 329,431.9746 C330.64,430.0246 449.81,394.5846 525.76,372.1546 " fill="none" id="UC_PlaceOrder-backto-UC_Coupon" style="stroke:#000000;stroke-width:1.5;stroke-dasharray:7.0,7.0;"/><polygon fill="#000000" points="234.36,1208.4746,238.8625,1199.7152,234.6427,1203.4826,230.8753,1199.2628,234.36,1208.4746" style="stroke:#000000;stroke-width:1.5;"/><text fill="#000000" font-family="Verdana" font-size="13" lengthAdjust="spacing" textLength="61" x="359.5" y="362.0444">&#171;extend&#187;</text><text fill="#000000" font-family="Verdana" font-size="13" lengthAdjust="spacing" textLength="113" x="333.5" y="377.8438">(extension point:</text><text fill="#000000" font-family="Verdana" font-size="13" lengthAdjust="spacing" textLength="82" x="349" y="393.6431">BeforeTotal)</text></g><!--reverse link UC_PlaceOrder to UC_Tip--><g id="link_UC_PlaceOrder_UC_Tip"><path d="M233.7711,1202.3453 C235.1111,1114.1153 245.81,684.8546 329,586.9746 C336.46,578.1946 483.28,534.4246 552.26,514.2246 " fill="none" id="UC_PlaceOrder-backto-UC_Tip" style="stroke:#000000;stroke-width:1.5;stroke-dasharray:7.0,7.0;"/><polygon fill="#000000" points="233.68,1208.3446,237.8162,1199.4064,233.7559,1203.3452,229.8171,1199.2849,233.68,1208.3446" style="stroke:#000000;stroke-width:1.5;"/><text fill="#000000" font-family="Verdana" font-size="13" lengthAdjust="spacing" textLength="61" x="359.5" y="511.0444">&#171;extend&#187;</text><text fill="#000000" font-family="Verdana" font-size="13" lengthAdjust="spacing" textLength="113" x="333.5" y="526.8438">(extension point:</text><text fill="#000000" font-family="Verdana" font-size="13" lengthAdjust="spacing" textLength="82" x="349" y="542.6431">BeforeTotal)</text></g><!--reverse link UC_PlaceOrder to UC_Favorite--><g id="link_UC_PlaceOrder_UC_Favorite"><path d="M299.9241,1230.1712 C355.4141,1235.3412 432.44,1242.5246 496.04,1248.4446 " fill="none" id="UC_PlaceOrder-backto-UC_Favorite" style="stroke:#000000;stroke-width:1.5;stroke-dasharray:7.0,7.0;"/><polygon fill="#000000" points="293.95,1229.6146,302.5401,1234.4323,298.9284,1230.0785,303.2823,1226.4668,293.95,1229.6146" style="stroke:#000000;stroke-width:1.5;"/><text fill="#000000" font-family="Verdana" font-size="13" lengthAdjust="spacing" textLength="61" x="359.5" y="1199.0444">&#171;extend&#187;</text><text fill="#000000" font-family="Verdana" font-size="13" lengthAdjust="spacing" textLength="113" x="333.5" y="1214.8438">(extension point:</text><text fill="#000000" font-family="Verdana" font-size="13" lengthAdjust="spacing" textLength="94" x="343" y="1230.6431">AfterSuccess)</text></g><!--reverse link UC_PlaceOrder to UC_Cancel--><g id="link_UC_PlaceOrder_UC_Cancel"><path d="M244.8345,1244.8197 C259.0145,1269.5497 287.35,1311.7346 329,1331.9746 C392.38,1362.7746 475.06,1361.4846 529.64,1355.8446 " fill="none" id="UC_PlaceOrder-backto-UC_Cancel" style="stroke:#000000;stroke-width:1.5;stroke-dasharray:7.0,7.0;"/><polygon fill="#000000" points="241.85,1239.6146,242.8568,1249.4119,244.3371,1243.9522,249.7968,1245.4325,241.85,1239.6146" style="stroke:#000000;stroke-width:1.5;"/><text fill="#000000" font-family="Verdana" font-size="13" lengthAdjust="spacing" textLength="61" x="359.5" y="1266.0444">&#171;extend&#187;</text><text fill="#000000" font-family="Verdana" font-size="13" lengthAdjust="spacing" textLength="120" x="330" y="1281.8438">(extension points:</text><text fill="#000000" font-family="Verdana" font-size="13" lengthAdjust="spacing" textLength="103" x="338.5" y="1297.6431">SelectingItems,</text><text fill="#000000" font-family="Verdana" font-size="13" lengthAdjust="spacing" textLength="114" x="333" y="1313.4424">ConfiguringOrder,</text><text fill="#000000" font-family="Verdana" font-size="13" lengthAdjust="spacing" textLength="105" x="337.5" y="1329.2417">BeforePayment)</text></g><!--reverse link UC_Payment to UC_PaymentFail--><g id="link_UC_Payment_UC_PaymentFail"><path d="M666.6125,282.8237 C726.5225,285.8137 806.8,289.8246 873.03,293.1346 " fill="none" id="UC_Payment-backto-UC_PaymentFail" style="stroke:#000000;stroke-width:1.5;stroke-dasharray:7.0,7.0;"/><polygon fill="#000000" points="660.62,282.5246,669.4094,286.9683,665.6138,282.7738,669.8082,278.9782,660.62,282.5246" style="stroke:#000000;stroke-width:1.5;"/><text fill="#000000" font-family="Verdana" font-size="13" lengthAdjust="spacing" textLength="61" x="753" y="252.0444">&#171;extend&#187;</text><text fill="#000000" font-family="Verdana" font-size="13" lengthAdjust="spacing" textLength="113" x="727" y="267.8438">(extension point:</text><text fill="#000000" font-family="Verdana" font-size="13" lengthAdjust="spacing" textLength="106" x="730.5" y="283.6431">PaymentFailure)</text></g><!--link Customer to UC_PlaceOrder--><g id="link_Customer_UC_PlaceOrder"><path d="M80,1223.9746 C104.16,1223.9746 137.53,1223.9746 166.8,1223.9746 " fill="none" id="Customer-UC_PlaceOrder" style="stroke:#000000;stroke-width:1.5;"/></g><!--link PaymentGateway to UC_Payment--><g id="link_PaymentGateway_UC_Payment"><path d="M284.51,165.5046 C298.42,175.3646 313.85,185.2746 329,192.9746 C397.52,227.7846 483.21,253.0546 536.66,266.8646 " fill="none" id="PaymentGateway-UC_Payment" style="stroke:#000000;stroke-width:1.5;"/></g><!--link PaymentGateway to UC_PaymentFail--><g id="link_PaymentGateway_UC_PaymentFail"><path d="M295.43,129.2446 C407.1,138.3446 648.49,164.4346 841,229.9746 C875.27,241.6446 911.51,261.4946 936.82,276.7446 " fill="none" id="PaymentGateway-UC_PaymentFail" style="stroke:#000000;stroke-width:1.5;"/></g><!--link NotificationService to UC_Notify--><g id="link_NotificationService_UC_Notify"><path d="M299.46,1704.7746 C343.49,1681.0546 402.08,1647.7546 451,1613.9746 C491.86,1585.7546 535.67,1548.4046 562.33,1524.7746 " fill="none" id="NotificationService-UC_Notify" style="stroke:#000000;stroke-width:1.5;"/></g><!--link Restaurant to UC_ProcessOrder--><g id="link_Restaurant_UC_ProcessOrder"><path d="M271.71,1619.0746 C321.68,1611.7646 407.91,1591.1546 451,1533.9746 C470.64,1507.9046 438.25,1486.1646 459,1460.9746 C470.14,1447.4446 485.78,1438.4146 502.33,1432.4046 " fill="none" id="Restaurant-UC_ProcessOrder" style="stroke:#000000;stroke-width:1.5;"/></g><!--SRC=[hLVzJYCt4Fy_Jp6bqW4IXDwrdAg8YyGbf3q92hf0-mzIPRoJnCAnjxONIAkJ-Ynzj3v9nr-Ban2QIbsX2C_NZcT-yx4I9mwS1YEcCmULCCYTqAhpbPlX7A6MJAYElHUgPeRDmSvOfH-5ce8p3HOCenjLSMqK6dZxhc3SCNu_3To1bjh0rwFm51AdnkZ7wvdWzmgjXRVTuu9PuOGrqbtZapkLOghcg1nm-a5JIDNq4ZR5iLj817y5fgOIEnqd716k9EC8bwOYtmxXnY8C6FqC1PkIygswL58eX97MLPJoznilhCDvfyEu8wzt1errUevc1vY5VCZCAxO8Vlt073woHP19j4JAaZzf9oQ2CnzZ6ADv41o3UCb8zApp6QrZZM7A1SddOwVJNXLsNhd43lpH0Q2_52ROkK3Lm1iAWt5mmHJHlAyxb9nlHj-FHa4UO6-Cabu0dyY6XOdHS_2A-zwBcy6laHkOKJnQ2bQpJ2HvIXI9aHE_OpIQnLfojlPbnU6Ol85M4p6bk_ieUM-FHyV3mOgtGvJY0Sq2JglA4A2MtKt4gF6pmCU4Yt4pdpEpoCAUaqX9b4bHKIwZU2kMg86OlE0ph1gPyJQX39wJHAkI-IzSCiFe3LmPmIb__egZi-_EtkOh3fZaZMpTW6ljcCoMmo7AdTQrN52ucbghew6mdEglpKaa9y6gWcjHjoP4dLDvZnd2cPcEKU17fYhPYi282TaON17rr8t9l3AQKoRYDS_UZxuzUv-lMHHiQz6JYZ0FcE8ebsKYBQM1FUGW4NF47hGHhlKldpDmLAgPfJ9iaHE82GV9woJ-6Nzhg1nR9oCpk_cbGp-xyC4_y4bnsLI-EybeVIPg2tjpYYEZCb-0RUuE9utYwTL1Y_INxWxTRd-bz01wS78YelL-VvF6So72bXfBzRALHb4qMxvZgNwsqWWWX_HifP4Xkhr6pFT_UaUH-1MD0W9dJyuZRGK1klO79e-uLfM8_yC4cQDwAd2mI_Cg3USUVFJpwwJRZIQj7oPxD7mz7sukpk5TzmdiGZdsjB_cibTRQxd1QGp-zVktQWzRkxKMolLkLOG3LMjit9lCjktlENglciqjdGp7MjxeR-XQ0DiQ_eZKUZ4so4qsgTr1yVmlDdDhsTRcwOI6mxZX7Z-RBn-xtNQEshLi7Qp7-I3V9ZVvsAEBUaclBbhvlr-c4FRJe0J_QLXccBMQYmZ_0jeqxqBNY1kFK5G6r1Kiq18ASzf0eI6ySm8zIUVb2muFrmP3C3PkwbeRV_bepv91YZ7z3u_2pS3Mo7sJRutwRM1vNSkssudt6ZjDkHSsk2JNpe_drIrRA0S6ZOkbJX4YU-KZ2qFD6_-gk3V6kEs2qWIpkBZhIUdlBc7avAw_OiNsJexk-e7vzvz_mNAkUe4EyCiC5UtsJ5aMUWrCY6yF4jUWeonHYdpecAIeAh-CpD7DT4KolhrvhpelUlUSgQqSNCPm3uO1lK2rHTyXaUUXD_Emo3ghC6-rT2WdNYwGhT9I8VJIaTQLM0S9ZUiAeG-quYuC9fuMj5AwhF1UFD6m3yT98_qd5iUKjhNutMb7OFS1V7N1pm4znocPU0vZCOZWWz_qNzWrO8z9mhG5V4BUEApsasgkTDAyV6L6-SdJ4cdhN3PpjjAR_0UTlyRZ34crxI2M8gT0SzxuygUFHi9NM_D5NFu1]--></g></svg>