<?xml version="1.0" encoding="us-ascii" standalone="no"?><svg xmlns="http://www.w3.org/2000/svg" xmlns:xlink="http://www.w3.org/1999/xlink" contentStyleType="text/css" height="1136px" preserveAspectRatio="none" style="width:1834px;height:1136px;background:#FFFFFF;" version="1.1" viewBox="0 0 1834 1136" width="1834px" zoomAndPan="magnify"><defs><filter height="300%" id="f17at5vdq7hl3p" width="300%" x="-1" y="-1"><feGaussianBlur result="blurOut" stdDeviation="2.0"/><feColorMatrix in="blurOut" result="blurOut2" type="matrix" values="0 0 0 0 0 0 0 0 0 0 0 0 0 0 0 0 0 0 .4 0"/><feOffset dx="4.0" dy="4.0" in="blurOut2" result="blurOut3"/><feBlend in="SourceGraphic" in2="blurOut3" mode="normal"/></filter></defs><g><text fill="#000000" font-family="Verdana" font-size="22" font-weight="bold" lengthAdjust="spacing" textLength="512" x="656.75" y="37.1182">Diagram 4: Order Management Structure</text><text fill="#000000" font-family="Verdana" font-size="22" font-weight="bold" lengthAdjust="spacing" textLength="355" x="735.25" y="63.8555">(Composition Relationships)</text><!--class Customer--><g id="elem_Customer"><rect codeLine="13" fill="#FFFFFF" filter="url(#f17at5vdq7hl3p)" height="163.1025" id="Customer" rx="4" ry="4" style="stroke:#000000;stroke-width:1.0;" width="329" x="717" y="86.4746"/><ellipse cx="843.25" cy="100.4746" fill="#FFFFFF" rx="9" ry="9" style="stroke:#000000;stroke-width:1.0;"/><path d="M846.0156,102.0059 L848.4063,102.7559 Q847.8594,104.7402 846.5781,105.709 Q845.3125,106.6777 843.3438,106.6777 Q840.9219,106.6777 839.3594,105.0215 Q837.8125,103.3652 837.8125,100.4902 Q837.8125,97.459 839.375,95.7871 Q840.9375,94.0996 843.5,94.0996 Q845.7344,94.0996 847.125,95.4121 Q847.9531,96.1934 848.375,97.6621 L845.9375,98.2402 Q845.7188,97.2871 845.0313,96.7402 Q844.3594,96.1934 843.375,96.1934 Q842.0156,96.1934 841.1719,97.1777 Q840.3438,98.1465 840.3438,100.3184 Q840.3438,102.6152 841.1719,103.5996 Q842,104.584 843.3281,104.584 Q844.3125,104.584 845.0156,103.959 Q845.7188,103.334 846.0156,102.0059 Z " fill="#000000"/><text fill="#000000" font-family="Verdana" font-size="14" lengthAdjust="spacing" textLength="69" x="860.75" y="106.0425">Customer</text><line style="stroke:#000000;stroke-width:1.0;" x1="718" x2="1045" y1="114.4746" y2="114.4746"/><text fill="#000000" font-family="Verdana" font-size="14" lengthAdjust="spacing" textLength="141" x="723" y="132.5498">-customerId: String</text><text fill="#000000" font-family="Verdana" font-size="14" lengthAdjust="spacing" textLength="99" x="723" y="149.5645">-name: String</text><text fill="#000000" font-family="Verdana" font-size="14" lengthAdjust="spacing" textLength="96" x="723" y="166.5791">-email: String</text><text fill="#000000" font-family="Verdana" font-size="14" lengthAdjust="spacing" textLength="105" x="723" y="183.5938">-phone: String</text><line style="stroke:#000000;stroke-width:1.0;" x1="718" x2="1045" y1="190.5332" y2="190.5332"/><text fill="#000000" font-family="Verdana" font-size="14" lengthAdjust="spacing" textLength="317" x="723" y="208.6084">+placeOrder(items: List&lt;OrderItem&gt;): Order</text><text fill="#000000" font-family="Verdana" font-size="14" lengthAdjust="spacing" textLength="302" x="723" y="225.623">+trackOrder(orderId: String): OrderStatus</text><text fill="#000000" font-family="Verdana" font-size="14" lengthAdjust="spacing" textLength="278" x="723" y="242.6377">+cancelOrder(orderId: String): Boolean</text></g><!--class Order--><g id="elem_Order"><rect codeLine="24" fill="#FFFFFF" filter="url(#f17at5vdq7hl3p)" height="231.1611" id="Order" rx="4" ry="4" style="stroke:#000000;stroke-width:1.0;" width="314" x="897.5" y="326.4746"/><ellipse cx="1030.75" cy="340.4746" fill="#FFFFFF" rx="9" ry="9" style="stroke:#000000;stroke-width:1.0;"/><path d="M1033.5156,342.0059 L1035.9063,342.7559 Q1035.3594,344.7402 1034.0781,345.709 Q1032.8125,346.6777 1030.8438,346.6777 Q1028.4219,346.6777 1026.8594,345.0215 Q1025.3125,343.3652 1025.3125,340.4902 Q1025.3125,337.459 1026.875,335.7871 Q1028.4375,334.0996 1031,334.0996 Q1033.2344,334.0996 1034.625,335.4121 Q1035.4531,336.1934 1035.875,337.6621 L1033.4375,338.2402 Q1033.2188,337.2871 1032.5313,336.7402 Q1031.8594,336.1934 1030.875,336.1934 Q1029.5156,336.1934 1028.6719,337.1777 Q1027.8438,338.1465 1027.8438,340.3184 Q1027.8438,342.6152 1028.6719,343.5996 Q1029.5,344.584 1030.8281,344.584 Q1031.8125,344.584 1032.5156,343.959 Q1033.2188,343.334 1033.5156,342.0059 Z " fill="#000000"/><text fill="#000000" font-family="Verdana" font-size="14" lengthAdjust="spacing" textLength="40" x="1048.25" y="346.0425">Order</text><line style="stroke:#000000;stroke-width:1.0;" x1="898.5" x2="1210.5" y1="354.4746" y2="354.4746"/><text fill="#000000" font-family="Verdana" font-size="14" lengthAdjust="spacing" textLength="113" x="903.5" y="372.5498">-orderId: String</text><text fill="#000000" font-family="Verdana" font-size="14" lengthAdjust="spacing" textLength="122" x="903.5" y="389.5645">-orderDate: Date</text><text fill="#000000" font-family="Verdana" font-size="14" lengthAdjust="spacing" textLength="150" x="903.5" y="406.5791">-status: OrderStatus</text><text fill="#000000" font-family="Verdana" font-size="14" lengthAdjust="spacing" textLength="159" x="903.5" y="423.5938">-totalAmount: Decimal</text><text fill="#000000" font-family="Verdana" font-size="14" lengthAdjust="spacing" textLength="192" x="903.5" y="440.6084">-specialInstructions: String</text><text fill="#000000" font-family="Verdana" font-size="14" lengthAdjust="spacing" textLength="152" x="903.5" y="457.623">-createdAt: DateTime</text><line style="stroke:#000000;stroke-width:1.0;" x1="898.5" x2="1210.5" y1="464.5625" y2="464.5625"/><text fill="#000000" font-family="Verdana" font-size="14" lengthAdjust="spacing" textLength="181" x="903.5" y="482.6377">+calculateTotal(): Decimal</text><text fill="#000000" font-family="Verdana" font-size="14" lengthAdjust="spacing" textLength="302" x="903.5" y="499.6523">+updateStatus(status: OrderStatus): void</text><text fill="#000000" font-family="Verdana" font-size="14" lengthAdjust="spacing" textLength="216" x="903.5" y="516.667">+getItems(): List&lt;OrderItem&gt;</text><text fill="#000000" font-family="Verdana" font-size="14" lengthAdjust="spacing" textLength="286" x="903.5" y="533.6816">+applyDiscount(discount: Decimal): void</text><text fill="#000000" font-family="Verdana" font-size="14" lengthAdjust="spacing" textLength="132" x="903.5" y="550.6963">+cancel(): Boolean</text></g><!--class OrderItem--><g id="elem_OrderItem"><rect codeLine="39" fill="#FFFFFF" filter="url(#f17at5vdq7hl3p)" height="180.1172" id="OrderItem" rx="4" ry="4" style="stroke:#000000;stroke-width:1.0;" width="308" x="299.5" y="651.4746"/><ellipse cx="413.75" cy="665.4746" fill="#FFFFFF" rx="9" ry="9" style="stroke:#000000;stroke-width:1.0;"/><path d="M416.5156,667.0059 L418.9063,667.7559 Q418.3594,669.7402 417.0781,670.709 Q415.8125,671.6777 413.8438,671.6777 Q411.4219,671.6777 409.8594,670.0215 Q408.3125,668.3652 408.3125,665.4902 Q408.3125,662.459 409.875,660.7871 Q411.4375,659.0996 414,659.0996 Q416.2344,659.0996 417.625,660.4121 Q418.4531,661.1934 418.875,662.6621 L416.4375,663.2402 Q416.2188,662.2871 415.5313,661.7402 Q414.8594,661.1934 413.875,661.1934 Q412.5156,661.1934 411.6719,662.1777 Q410.8438,663.1465 410.8438,665.3184 Q410.8438,667.6152 411.6719,668.5996 Q412.5,669.584 413.8281,669.584 Q414.8125,669.584 415.5156,668.959 Q416.2188,668.334 416.5156,667.0059 Z " fill="#000000"/><text fill="#000000" font-family="Verdana" font-size="14" lengthAdjust="spacing" textLength="72" x="431.25" y="671.0425">OrderItem</text><line style="stroke:#000000;stroke-width:1.0;" x1="300.5" x2="606.5" y1="679.4746" y2="679.4746"/><text fill="#000000" font-family="Verdana" font-size="14" lengthAdjust="spacing" textLength="145" x="305.5" y="697.5498">-orderItemId: String</text><text fill="#000000" font-family="Verdana" font-size="14" lengthAdjust="spacing" textLength="127" x="305.5" y="714.5645">-quantity: Integer</text><text fill="#000000" font-family="Verdana" font-size="14" lengthAdjust="spacing" textLength="130" x="305.5" y="731.5791">-unitPrice: Decimal</text><text fill="#000000" font-family="Verdana" font-size="14" lengthAdjust="spacing" textLength="167" x="305.5" y="748.5938">-customizations: String</text><text fill="#000000" font-family="Verdana" font-size="14" lengthAdjust="spacing" textLength="129" x="305.5" y="765.6084">-subtotal: Decimal</text><line style="stroke:#000000;stroke-width:1.0;" x1="300.5" x2="606.5" y1="772.5479" y2="772.5479"/><text fill="#000000" font-family="Verdana" font-size="14" lengthAdjust="spacing" textLength="206" x="305.5" y="790.623">+calculateSubtotal(): Decimal</text><text fill="#000000" font-family="Verdana" font-size="14" lengthAdjust="spacing" textLength="287" x="305.5" y="807.6377">+updateQuantity(newQty: Integer): void</text><text fill="#000000" font-family="Verdana" font-size="14" lengthAdjust="spacing" textLength="296" x="305.5" y="824.6523">+addCustomization(custom: String): void</text></g><!--class Payment--><g id="elem_Payment"><rect codeLine="51" fill="#FFFFFF" filter="url(#f17at5vdq7hl3p)" height="180.1172" id="Payment" rx="4" ry="4" style="stroke:#000000;stroke-width:1.0;" width="217" x="12" y="651.4746"/><ellipse cx="86.75" cy="665.4746" fill="#FFFFFF" rx="9" ry="9" style="stroke:#000000;stroke-width:1.0;"/><path d="M89.5156,667.0059 L91.9063,667.7559 Q91.3594,669.7402 90.0781,670.709 Q88.8125,671.6777 86.8438,671.6777 Q84.4219,671.6777 82.8594,670.0215 Q81.3125,668.3652 81.3125,665.4902 Q81.3125,662.459 82.875,660.7871 Q84.4375,659.0996 87,659.0996 Q89.2344,659.0996 90.625,660.4121 Q91.4531,661.1934 91.875,662.6621 L89.4375,663.2402 Q89.2188,662.2871 88.5313,661.7402 Q87.8594,661.1934 86.875,661.1934 Q85.5156,661.1934 84.6719,662.1777 Q83.8438,663.1465 83.8438,665.3184 Q83.8438,667.6152 84.6719,668.5996 Q85.5,669.584 86.8281,669.584 Q87.8125,669.584 88.5156,668.959 Q89.2188,668.334 89.5156,667.0059 Z " fill="#000000"/><text fill="#000000" font-family="Verdana" font-size="14" lengthAdjust="spacing" textLength="60" x="104.25" y="671.0425">Payment</text><line style="stroke:#000000;stroke-width:1.0;" x1="13" x2="228" y1="679.4746" y2="679.4746"/><text fill="#000000" font-family="Verdana" font-size="14" lengthAdjust="spacing" textLength="136" x="18" y="697.5498">-paymentId: String</text><text fill="#000000" font-family="Verdana" font-size="14" lengthAdjust="spacing" textLength="125" x="18" y="714.5645">-amount: Decimal</text><text fill="#000000" font-family="Verdana" font-size="14" lengthAdjust="spacing" textLength="170" x="18" y="731.5791">-status: PaymentStatus</text><text fill="#000000" font-family="Verdana" font-size="14" lengthAdjust="spacing" textLength="196" x="18" y="748.5938">-transactionDate: DateTime</text><text fill="#000000" font-family="Verdana" font-size="14" lengthAdjust="spacing" textLength="154" x="18" y="765.6084">-transactionId: String</text><line style="stroke:#000000;stroke-width:1.0;" x1="13" x2="228" y1="772.5479" y2="772.5479"/><text fill="#000000" font-family="Verdana" font-size="14" lengthAdjust="spacing" textLength="205" x="18" y="790.623">+processPayment(): Boolean</text><text fill="#000000" font-family="Verdana" font-size="14" lengthAdjust="spacing" textLength="136" x="18" y="807.6377">+refund(): Boolean</text><text fill="#000000" font-family="Verdana" font-size="14" lengthAdjust="spacing" textLength="151" x="18" y="824.6523">+getReceipt(): String</text></g><!--class Delivery--><g id="elem_Delivery"><rect codeLine="63" fill="#FFFFFF" filter="url(#f17at5vdq7hl3p)" height="214.1465" id="Delivery" rx="4" ry="4" style="stroke:#000000;stroke-width:1.0;" width="329" x="643" y="634.4746"/><ellipse cx="776.25" cy="648.4746" fill="#FFFFFF" rx="9" ry="9" style="stroke:#000000;stroke-width:1.0;"/><path d="M779.0156,650.0059 L781.4063,650.7559 Q780.8594,652.7402 779.5781,653.709 Q778.3125,654.6777 776.3438,654.6777 Q773.9219,654.6777 772.3594,653.0215 Q770.8125,651.3652 770.8125,648.4902 Q770.8125,645.459 772.375,643.7871 Q773.9375,642.0996 776.5,642.0996 Q778.7344,642.0996 780.125,643.4121 Q780.9531,644.1934 781.375,645.6621 L778.9375,646.2402 Q778.7188,645.2871 778.0313,644.7402 Q777.3594,644.1934 776.375,644.1934 Q775.0156,644.1934 774.1719,645.1777 Q773.3438,646.1465 773.3438,648.3184 Q773.3438,650.6152 774.1719,651.5996 Q775,652.584 776.3281,652.584 Q777.3125,652.584 778.0156,651.959 Q778.7188,651.334 779.0156,650.0059 Z " fill="#000000"/><text fill="#000000" font-family="Verdana" font-size="14" lengthAdjust="spacing" textLength="55" x="793.75" y="654.0425">Delivery</text><line style="stroke:#000000;stroke-width:1.0;" x1="644" x2="971" y1="662.4746" y2="662.4746"/><text fill="#000000" font-family="Verdana" font-size="14" lengthAdjust="spacing" textLength="128" x="649" y="680.5498">-deliveryId: String</text><text fill="#000000" font-family="Verdana" font-size="14" lengthAdjust="spacing" textLength="165" x="649" y="697.5645">-status: DeliveryStatus</text><text fill="#000000" font-family="Verdana" font-size="14" lengthAdjust="spacing" textLength="186" x="649" y="714.5791">-estimatedTime: DateTime</text><text fill="#000000" font-family="Verdana" font-size="14" lengthAdjust="spacing" textLength="213" x="649" y="731.5938">-actualDeliveryTime: DateTime</text><text fill="#000000" font-family="Verdana" font-size="14" lengthAdjust="spacing" textLength="129" x="649" y="748.6084">-distance: Decimal</text><text fill="#000000" font-family="Verdana" font-size="14" lengthAdjust="spacing" textLength="148" x="649" y="765.623">-deliveryFee: Decimal</text><line style="stroke:#000000;stroke-width:1.0;" x1="644" x2="971" y1="772.5625" y2="772.5625"/><text fill="#000000" font-family="Verdana" font-size="14" lengthAdjust="spacing" textLength="298" x="649" y="790.6377">+assignAgent(agent: DeliveryAgent): void</text><text fill="#000000" font-family="Verdana" font-size="14" lengthAdjust="spacing" textLength="317" x="649" y="807.6523">+updateStatus(status: DeliveryStatus): void</text><text fill="#000000" font-family="Verdana" font-size="14" lengthAdjust="spacing" textLength="237" x="649" y="824.667">+getEstimatedArrival(): DateTime</text><text fill="#000000" font-family="Verdana" font-size="14" lengthAdjust="spacing" textLength="225" x="649" y="841.6816">+calculateDeliveryFee(): Decimal</text></g><!--class Invoice--><g id="elem_Invoice"><rect codeLine="77" fill="#FFFFFF" filter="url(#f17at5vdq7hl3p)" height="197.1318" id="Invoice" rx="4" ry="4" style="stroke:#000000;stroke-width:1.0;" width="261" x="1007" y="642.9746"/><ellipse cx="1109.25" cy="656.9746" fill="#FFFFFF" rx="9" ry="9" style="stroke:#000000;stroke-width:1.0;"/><path d="M1112.0156,658.5059 L1114.4063,659.2559 Q1113.8594,661.2402 1112.5781,662.209 Q1111.3125,663.1777 1109.3438,663.1777 Q1106.9219,663.1777 1105.3594,661.5215 Q1103.8125,659.8652 1103.8125,656.9902 Q1103.8125,653.959 1105.375,652.2871 Q1106.9375,650.5996 1109.5,650.5996 Q1111.7344,650.5996 1113.125,651.9121 Q1113.9531,652.6934 1114.375,654.1621 L1111.9375,654.7402 Q1111.7188,653.7871 1111.0313,653.2402 Q1110.3594,652.6934 1109.375,652.6934 Q1108.0156,652.6934 1107.1719,653.6777 Q1106.3438,654.6465 1106.3438,656.8184 Q1106.3438,659.1152 1107.1719,660.0996 Q1108,661.084 1109.3281,661.084 Q1110.3125,661.084 1111.0156,660.459 Q1111.7188,659.834 1112.0156,658.5059 Z " fill="#000000"/><text fill="#000000" font-family="Verdana" font-size="14" lengthAdjust="spacing" textLength="49" x="1126.75" y="662.5425">Invoice</text><line style="stroke:#000000;stroke-width:1.0;" x1="1008" x2="1267" y1="670.9746" y2="670.9746"/><text fill="#000000" font-family="Verdana" font-size="14" lengthAdjust="spacing" textLength="122" x="1013" y="689.0498">-invoiceId: String</text><text fill="#000000" font-family="Verdana" font-size="14" lengthAdjust="spacing" textLength="153" x="1013" y="706.0645">-issueDate: DateTime</text><text fill="#000000" font-family="Verdana" font-size="14" lengthAdjust="spacing" textLength="143" x="1013" y="723.0791">-dueDate: DateTime</text><text fill="#000000" font-family="Verdana" font-size="14" lengthAdjust="spacing" textLength="150" x="1013" y="740.0938">-taxAmount: Decimal</text><text fill="#000000" font-family="Verdana" font-size="14" lengthAdjust="spacing" textLength="187" x="1013" y="757.1084">-discountAmount: Decimal</text><text fill="#000000" font-family="Verdana" font-size="14" lengthAdjust="spacing" textLength="155" x="1013" y="774.123">-finalAmount: Decimal</text><line style="stroke:#000000;stroke-width:1.0;" x1="1008" x2="1267" y1="781.0625" y2="781.0625"/><text fill="#000000" font-family="Verdana" font-size="14" lengthAdjust="spacing" textLength="145" x="1013" y="799.1377">+generatePDF(): File</text><text fill="#000000" font-family="Verdana" font-size="14" lengthAdjust="spacing" textLength="249" x="1013" y="816.1523">+sendEmail(email: String): Boolean</text><text fill="#000000" font-family="Verdana" font-size="14" lengthAdjust="spacing" textLength="172" x="1013" y="833.167">+calculateTax(): Decimal</text></g><!--class OrderTracking--><g id="elem_OrderTracking"><rect codeLine="90" fill="#FFFFFF" filter="url(#f17at5vdq7hl3p)" height="163.1025" id="OrderTracking" rx="4" ry="4" style="stroke:#000000;stroke-width:1.0;" width="324" x="1303.5" y="659.9746"/><ellipse cx="1412.25" cy="673.9746" fill="#FFFFFF" rx="9" ry="9" style="stroke:#000000;stroke-width:1.0;"/><path d="M1415.0156,675.5059 L1417.4063,676.2559 Q1416.8594,678.2402 1415.5781,679.209 Q1414.3125,680.1777 1412.3438,680.1777 Q1409.9219,680.1777 1408.3594,678.5215 Q1406.8125,676.8652 1406.8125,673.9902 Q1406.8125,670.959 1408.375,669.2871 Q1409.9375,667.5996 1412.5,667.5996 Q1414.7344,667.5996 1416.125,668.9121 Q1416.9531,669.6934 1417.375,671.1621 L1414.9375,671.7402 Q1414.7188,670.7871 1414.0313,670.2402 Q1413.3594,669.6934 1412.375,669.6934 Q1411.0156,669.6934 1410.1719,670.6777 Q1409.3438,671.6465 1409.3438,673.8184 Q1409.3438,676.1152 1410.1719,677.0996 Q1411,678.084 1412.3281,678.084 Q1413.3125,678.084 1414.0156,677.459 Q1414.7188,676.834 1415.0156,675.5059 Z " fill="#000000"/><text fill="#000000" font-family="Verdana" font-size="14" lengthAdjust="spacing" textLength="99" x="1429.75" y="679.5425">OrderTracking</text><line style="stroke:#000000;stroke-width:1.0;" x1="1304.5" x2="1626.5" y1="687.9746" y2="687.9746"/><text fill="#000000" font-family="Verdana" font-size="14" lengthAdjust="spacing" textLength="131" x="1309.5" y="706.0498">-trackingId: String</text><text fill="#000000" font-family="Verdana" font-size="14" lengthAdjust="spacing" textLength="171" x="1309.5" y="723.0645">-currentLocation: String</text><text fill="#000000" font-family="Verdana" font-size="14" lengthAdjust="spacing" textLength="168" x="1309.5" y="740.0791">-lastUpdated: DateTime</text><text fill="#000000" font-family="Verdana" font-size="14" lengthAdjust="spacing" textLength="197" x="1309.5" y="757.0938">-estimatedArrival: DateTime</text><line style="stroke:#000000;stroke-width:1.0;" x1="1304.5" x2="1626.5" y1="764.0332" y2="764.0332"/><text fill="#000000" font-family="Verdana" font-size="14" lengthAdjust="spacing" textLength="279" x="1309.5" y="782.1084">+updateLocation(location: String): void</text><text fill="#000000" font-family="Verdana" font-size="14" lengthAdjust="spacing" textLength="312" x="1309.5" y="799.123">+getTrackingHistory(): List&lt;TrackingEvent&gt;</text><text fill="#000000" font-family="Verdana" font-size="14" lengthAdjust="spacing" textLength="172" x="1309.5" y="816.1377">+notifyCustomer(): void</text></g><!--class Restaurant--><g id="elem_Restaurant"><rect codeLine="101" fill="#FFFFFF" filter="url(#f17at5vdq7hl3p)" height="112.0586" id="Restaurant" rx="4" ry="4" style="stroke:#000000;stroke-width:1.0;" width="293" x="1081" y="111.9746"/><ellipse cx="1184.75" cy="125.9746" fill="#FFFFFF" rx="9" ry="9" style="stroke:#000000;stroke-width:1.0;"/><path d="M1187.5156,127.5059 L1189.9063,128.2559 Q1189.3594,130.2402 1188.0781,131.209 Q1186.8125,132.1777 1184.8438,132.1777 Q1182.4219,132.1777 1180.8594,130.5215 Q1179.3125,128.8652 1179.3125,125.9902 Q1179.3125,122.959 1180.875,121.2871 Q1182.4375,119.5996 1185,119.5996 Q1187.2344,119.5996 1188.625,120.9121 Q1189.4531,121.6934 1189.875,123.1621 L1187.4375,123.7402 Q1187.2188,122.7871 1186.5313,122.2402 Q1185.8594,121.6934 1184.875,121.6934 Q1183.5156,121.6934 1182.6719,122.6777 Q1181.8438,123.6465 1181.8438,125.8184 Q1181.8438,128.1152 1182.6719,129.0996 Q1183.5,130.084 1184.8281,130.084 Q1185.8125,130.084 1186.5156,129.459 Q1187.2188,128.834 1187.5156,127.5059 Z " fill="#000000"/><text fill="#000000" font-family="Verdana" font-size="14" lengthAdjust="spacing" textLength="78" x="1202.25" y="131.5425">Restaurant</text><line style="stroke:#000000;stroke-width:1.0;" x1="1082" x2="1373" y1="139.9746" y2="139.9746"/><text fill="#000000" font-family="Verdana" font-size="14" lengthAdjust="spacing" textLength="149" x="1087" y="158.0498">-restaurantId: String</text><text fill="#000000" font-family="Verdana" font-size="14" lengthAdjust="spacing" textLength="99" x="1087" y="175.0645">-name: String</text><line style="stroke:#000000;stroke-width:1.0;" x1="1082" x2="1373" y1="182.0039" y2="182.0039"/><text fill="#000000" font-family="Verdana" font-size="14" lengthAdjust="spacing" textLength="240" x="1087" y="200.0791">+receiveOrder(order: Order): void</text><text fill="#000000" font-family="Verdana" font-size="14" lengthAdjust="spacing" textLength="281" x="1087" y="217.0938">+acceptOrder(orderId: String): Boolean</text></g><!--class MenuItem--><g id="elem_MenuItem"><rect codeLine="109" fill="#FFFFFF" filter="url(#f17at5vdq7hl3p)" height="112.0586" id="MenuItem" rx="4" ry="4" style="stroke:#000000;stroke-width:1.0;" width="159" x="205" y="969.4746"/><ellipse cx="246.25" cy="983.4746" fill="#FFFFFF" rx="9" ry="9" style="stroke:#000000;stroke-width:1.0;"/><path d="M249.0156,985.0059 L251.4063,985.7559 Q250.8594,987.7402 249.5781,988.709 Q248.3125,989.6777 246.3438,989.6777 Q243.9219,989.6777 242.3594,988.0215 Q240.8125,986.3652 240.8125,983.4902 Q240.8125,980.459 242.375,978.7871 Q243.9375,977.0996 246.5,977.0996 Q248.7344,977.0996 250.125,978.4121 Q250.9531,979.1934 251.375,980.6621 L248.9375,981.2402 Q248.7188,980.2871 248.0313,979.7402 Q247.3594,979.1934 246.375,979.1934 Q245.0156,979.1934 244.1719,980.1777 Q243.3438,981.1465 243.3438,983.3184 Q243.3438,985.6152 244.1719,986.5996 Q245,987.584 246.3281,987.584 Q247.3125,987.584 248.0156,986.959 Q248.7188,986.334 249.0156,985.0059 Z " fill="#000000"/><text fill="#000000" font-family="Verdana" font-size="14" lengthAdjust="spacing" textLength="69" x="263.75" y="989.0425">MenuItem</text><line style="stroke:#000000;stroke-width:1.0;" x1="206" x2="363" y1="997.4746" y2="997.4746"/><text fill="#000000" font-family="Verdana" font-size="14" lengthAdjust="spacing" textLength="146" x="211" y="1015.5498">-menuItemId: String</text><text fill="#000000" font-family="Verdana" font-size="14" lengthAdjust="spacing" textLength="99" x="211" y="1032.5645">-name: String</text><text fill="#000000" font-family="Verdana" font-size="14" lengthAdjust="spacing" textLength="104" x="211" y="1049.5791">-price: Decimal</text><line style="stroke:#000000;stroke-width:1.0;" x1="206" x2="363" y1="1056.5186" y2="1056.5186"/><text fill="#000000" font-family="Verdana" font-size="14" lengthAdjust="spacing" textLength="147" x="211" y="1074.5938">+getDetails(): String</text></g><!--class OrderStatus--><g id="elem_OrderStatus"><rect codeLine="117" fill="#FFFFFF" filter="url(#f17at5vdq7hl3p)" height="159.6865" id="OrderStatus" rx="4" ry="4" style="stroke:#000000;stroke-width:1.0;" width="160" x="1662.5" y="661.4746"/><ellipse cx="1694.85" cy="682.2739" fill="#FFFFFF" rx="9" ry="9" style="stroke:#000000;stroke-width:1.0;"/><path d="M1697.6156,683.8052 L1700.0063,684.5552 Q1699.4594,686.5396 1698.1781,687.5083 Q1696.9125,688.4771 1694.9438,688.4771 Q1692.5219,688.4771 1690.9594,686.8208 Q1689.4125,685.1646 1689.4125,682.2896 Q1689.4125,679.2583 1690.975,677.5864 Q1692.5375,675.8989 1695.1,675.8989 Q1697.3344,675.8989 1698.725,677.2114 Q1699.5531,677.9927 1699.975,679.4614 L1697.5375,680.0396 Q1697.3188,679.0864 1696.6313,678.5396 Q1695.9594,677.9927 1694.975,677.9927 Q1693.6156,677.9927 1692.7719,678.9771 Q1691.9438,679.9458 1691.9438,682.1177 Q1691.9438,684.4146 1692.7719,685.3989 Q1693.6,686.3833 1694.9281,686.3833 Q1695.9125,686.3833 1696.6156,685.7583 Q1697.3188,685.1333 1697.6156,683.8052 Z " fill="#000000"/><text fill="#000000" font-family="Verdana" font-size="12" font-style="italic" lengthAdjust="spacing" textLength="93" x="1709.15" y="678.5391">&#171;enumeration&#187;</text><text fill="#000000" font-family="Verdana" font-size="14" lengthAdjust="spacing" textLength="87" x="1712.15" y="695.1338">OrderStatus</text><line style="stroke:#000000;stroke-width:1.0;" x1="1663.5" x2="1821.5" y1="703.0732" y2="703.0732"/><text fill="#000000" font-family="Verdana" font-size="14" lengthAdjust="spacing" textLength="64" x="1668.5" y="721.1484">PENDING</text><text fill="#000000" font-family="Verdana" font-size="14" lengthAdjust="spacing" textLength="85" x="1668.5" y="738.1631">CONFIRMED</text><text fill="#000000" font-family="Verdana" font-size="14" lengthAdjust="spacing" textLength="81" x="1668.5" y="755.1777">PREPARING</text><text fill="#000000" font-family="Verdana" font-size="14" lengthAdjust="spacing" textLength="148" x="1668.5" y="772.1924">OUT_FOR_DELIVERY</text><text fill="#000000" font-family="Verdana" font-size="14" lengthAdjust="spacing" textLength="82" x="1668.5" y="789.207">DELIVERED</text><text fill="#000000" font-family="Verdana" font-size="14" lengthAdjust="spacing" textLength="85" x="1668.5" y="806.2217">CANCELLED</text><line style="stroke:#000000;stroke-width:1.0;" x1="1663.5" x2="1821.5" y1="813.1611" y2="813.1611"/></g><!--class PaymentStatus--><g id="elem_PaymentStatus"><rect codeLine="126" fill="#FFFFFF" filter="url(#f17at5vdq7hl3p)" height="142.6719" id="PaymentStatus" rx="4" ry="4" style="stroke:#000000;stroke-width:1.0;" width="135" x="35" y="953.9746"/><ellipse cx="48" cy="974.7739" fill="#FFFFFF" rx="9" ry="9" style="stroke:#000000;stroke-width:1.0;"/><path d="M50.7656,976.3052 L53.1563,977.0552 Q52.6094,979.0396 51.3281,980.0083 Q50.0625,980.9771 48.0938,980.9771 Q45.6719,980.9771 44.1094,979.3208 Q42.5625,977.6646 42.5625,974.7896 Q42.5625,971.7583 44.125,970.0864 Q45.6875,968.3989 48.25,968.3989 Q50.4844,968.3989 51.875,969.7114 Q52.7031,970.4927 53.125,971.9614 L50.6875,972.5396 Q50.4688,971.5864 49.7813,971.0396 Q49.1094,970.4927 48.125,970.4927 Q46.7656,970.4927 45.9219,971.4771 Q45.0938,972.4458 45.0938,974.6177 Q45.0938,976.9146 45.9219,977.8989 Q46.75,978.8833 48.0781,978.8833 Q49.0625,978.8833 49.7656,978.2583 Q50.4688,977.6333 50.7656,976.3052 Z " fill="#000000"/><text fill="#000000" font-family="Verdana" font-size="12" font-style="italic" lengthAdjust="spacing" textLength="93" x="67" y="971.0391">&#171;enumeration&#187;</text><text fill="#000000" font-family="Verdana" font-size="14" lengthAdjust="spacing" textLength="107" x="60" y="987.6338">PaymentStatus</text><line style="stroke:#000000;stroke-width:1.0;" x1="36" x2="169" y1="995.5732" y2="995.5732"/><text fill="#000000" font-family="Verdana" font-size="14" lengthAdjust="spacing" textLength="64" x="41" y="1013.6484">PENDING</text><text fill="#000000" font-family="Verdana" font-size="14" lengthAdjust="spacing" textLength="95" x="41" y="1030.6631">AUTHORIZED</text><text fill="#000000" font-family="Verdana" font-size="14" lengthAdjust="spacing" textLength="86" x="41" y="1047.6777">COMPLETED</text><text fill="#000000" font-family="Verdana" font-size="14" lengthAdjust="spacing" textLength="51" x="41" y="1064.6924">FAILED</text><text fill="#000000" font-family="Verdana" font-size="14" lengthAdjust="spacing" textLength="78" x="41" y="1081.707">REFUNDED</text><line style="stroke:#000000;stroke-width:1.0;" x1="36" x2="169" y1="1088.6465" y2="1088.6465"/></g><!--class DeliveryStatus--><g id="elem_DeliveryStatus"><rect codeLine="134" fill="#FFFFFF" filter="url(#f17at5vdq7hl3p)" height="142.6719" id="DeliveryStatus" rx="4" ry="4" style="stroke:#000000;stroke-width:1.0;" width="130" x="760.5" y="953.9746"/><ellipse cx="773.5" cy="974.7739" fill="#FFFFFF" rx="9" ry="9" style="stroke:#000000;stroke-width:1.0;"/><path d="M776.2656,976.3052 L778.6563,977.0552 Q778.1094,979.0396 776.8281,980.0083 Q775.5625,980.9771 773.5938,980.9771 Q771.1719,980.9771 769.6094,979.3208 Q768.0625,977.6646 768.0625,974.7896 Q768.0625,971.7583 769.625,970.0864 Q771.1875,968.3989 773.75,968.3989 Q775.9844,968.3989 777.375,969.7114 Q778.2031,970.4927 778.625,971.9614 L776.1875,972.5396 Q775.9688,971.5864 775.2813,971.0396 Q774.6094,970.4927 773.625,970.4927 Q772.2656,970.4927 771.4219,971.4771 Q770.5938,972.4458 770.5938,974.6177 Q770.5938,976.9146 771.4219,977.8989 Q772.25,978.8833 773.5781,978.8833 Q774.5625,978.8833 775.2656,978.2583 Q775.9688,977.6333 776.2656,976.3052 Z " fill="#000000"/><text fill="#000000" font-family="Verdana" font-size="12" font-style="italic" lengthAdjust="spacing" textLength="93" x="790" y="971.0391">&#171;enumeration&#187;</text><text fill="#000000" font-family="Verdana" font-size="14" lengthAdjust="spacing" textLength="102" x="785.5" y="987.6338">DeliveryStatus</text><line style="stroke:#000000;stroke-width:1.0;" x1="761.5" x2="889.5" y1="995.5732" y2="995.5732"/><text fill="#000000" font-family="Verdana" font-size="14" lengthAdjust="spacing" textLength="76" x="766.5" y="1013.6484">ASSIGNED</text><text fill="#000000" font-family="Verdana" font-size="14" lengthAdjust="spacing" textLength="80" x="766.5" y="1030.6631">PICKED_UP</text><text fill="#000000" font-family="Verdana" font-size="14" lengthAdjust="spacing" textLength="87" x="766.5" y="1047.6777">IN_TRANSIT</text><text fill="#000000" font-family="Verdana" font-size="14" lengthAdjust="spacing" textLength="82" x="766.5" y="1064.6924">DELIVERED</text><text fill="#000000" font-family="Verdana" font-size="14" lengthAdjust="spacing" textLength="51" x="766.5" y="1081.707">FAILED</text><line style="stroke:#000000;stroke-width:1.0;" x1="761.5" x2="889.5" y1="1088.6465" y2="1088.6465"/></g><g id="elem_GMN25"><path d="M1247,345.9746 L1247,437.9746 L1211.81,441.9746 L1247,445.9746 L1247,537.5664 A4,4 0 0 0 1251,541.5664 L1486,541.5664 A4,4 0 0 0 1490,537.5664 L1490,351.9746 L1480,341.9746 L1251,341.9746 A4,4 0 0 0 1247,345.9746 " fill="#FFFFFF" filter="url(#f17at5vdq7hl3p)" style="stroke:#000000;stroke-width:1.0;"/><path d="M1480,341.9746 L1480,349.9746 A2,2 0 0 0 1482,351.9746 L1490,351.9746 L1480,341.9746 " fill="#FFFFFF" style="stroke:#000000;stroke-width:1.0;"/><text fill="#000000" font-family="Verdana" font-size="13" font-weight="bold" lengthAdjust="spacing" textLength="103" x="1253" y="360.0444">COMPOSITION</text><text fill="#000000" font-family="Verdana" font-size="13" lengthAdjust="spacing" textLength="88" x="1361" y="360.0444">relationships:</text><text fill="#000000" font-family="Verdana" font-size="13" lengthAdjust="spacing" textLength="5" x="1253" y="375.8438">&#160;</text><text fill="#000000" font-family="Verdana" font-size="13" lengthAdjust="spacing" textLength="209" x="1253" y="391.6431">Order is the "whole" that owns:</text><text fill="#000000" font-family="Verdana" font-size="13" lengthAdjust="spacing" textLength="136" x="1253" y="407.4424">- OrderItems (parts)</text><text fill="#000000" font-family="Verdana" font-size="13" lengthAdjust="spacing" textLength="146" x="1253" y="423.2417">- Payment (exclusive)</text><text fill="#000000" font-family="Verdana" font-size="13" lengthAdjust="spacing" textLength="189" x="1253" y="439.041">- Delivery (specific to order)</text><text fill="#000000" font-family="Verdana" font-size="13" lengthAdjust="spacing" textLength="185" x="1253" y="454.8403">- Invoice (belongs to order)</text><text fill="#000000" font-family="Verdana" font-size="13" lengthAdjust="spacing" textLength="212" x="1253" y="470.6396">- OrderTracking (order-specific)</text><text fill="#000000" font-family="Verdana" font-size="13" lengthAdjust="spacing" textLength="5" x="1253" y="486.439">&#160;</text><text fill="#000000" font-family="Verdana" font-size="13" lengthAdjust="spacing" textLength="195" x="1253" y="502.2383">If Order is deleted, ALL these</text><text fill="#000000" font-family="Verdana" font-size="13" lengthAdjust="spacing" textLength="196" x="1253" y="518.0376">components are also deleted.</text><text fill="#000000" font-family="Verdana" font-size="13" lengthAdjust="spacing" textLength="222" x="1253" y="533.8369">They cannot exist independently.</text></g><g id="elem_GMN28"><path d="M399.5,929.4746 L399.5,1121.0664 A4,4 0 0 0 403.5,1125.0664 L721.5,1125.0664 A4,4 0 0 0 725.5,1121.0664 L725.5,935.4746 L715.5,925.4746 L528.07,925.4746 L487.99,831.7046 L520.07,925.4746 L403.5,925.4746 A4,4 0 0 0 399.5,929.4746 " fill="#FFFFFF" filter="url(#f17at5vdq7hl3p)" style="stroke:#000000;stroke-width:1.0;"/><path d="M715.5,925.4746 L715.5,933.4746 A2,2 0 0 0 717.5,935.4746 L725.5,935.4746 L715.5,925.4746 " fill="#FFFFFF" style="stroke:#000000;stroke-width:1.0;"/><text fill="#000000" font-family="Verdana" font-size="13" font-weight="bold" lengthAdjust="spacing" textLength="103" x="405.5" y="943.5444">COMPOSITION</text><text fill="#000000" font-family="Verdana" font-size="13" lengthAdjust="spacing" textLength="6" x="508.5" y="943.5444">:</text><text fill="#000000" font-family="Verdana" font-size="13" lengthAdjust="spacing" textLength="192" x="405.5" y="959.3438">OrderItem is a PART of Order</text><text fill="#000000" font-family="Verdana" font-size="13" lengthAdjust="spacing" textLength="206" x="405.5" y="975.1431">- Created when order is placed</text><text fill="#000000" font-family="Verdana" font-size="13" lengthAdjust="spacing" textLength="227" x="405.5" y="990.9424">- Destroyed when order is deleted</text><text fill="#000000" font-family="Verdana" font-size="13" lengthAdjust="spacing" textLength="239" x="405.5" y="1006.7417">- Cannot exist without parent Order</text><text fill="#000000" font-family="Verdana" font-size="13" lengthAdjust="spacing" textLength="223" x="405.5" y="1022.541">- Cannot be shared across orders</text><text fill="#000000" font-family="Verdana" font-size="13" lengthAdjust="spacing" textLength="5" x="405.5" y="1038.3403">&#160;</text><text fill="#000000" font-family="Verdana" font-size="13" font-weight="bold" lengthAdjust="spacing" textLength="121" x="405.5" y="1054.1396">vs ASSOCIATION</text><text fill="#000000" font-family="Verdana" font-size="13" lengthAdjust="spacing" textLength="6" x="526.5" y="1054.1396">:</text><text fill="#000000" font-family="Verdana" font-size="13" lengthAdjust="spacing" textLength="224" x="405.5" y="1069.939">OrderItem REFERENCES MenuItem</text><text fill="#000000" font-family="Verdana" font-size="13" lengthAdjust="spacing" textLength="217" x="405.5" y="1085.7383">- MenuItem exists independently</text><text fill="#000000" font-family="Verdana" font-size="13" lengthAdjust="spacing" textLength="270" x="405.5" y="1101.5376">- Same MenuItem can be in many orders</text><text fill="#000000" font-family="Verdana" font-size="13" lengthAdjust="spacing" textLength="305" x="405.5" y="1117.3369">- Deleting OrderItem doesn't delete MenuItem</text></g><g id="elem_GMN31"><path d="M16,409.4746 L16,474.6719 A4,4 0 0 0 20,478.6719 L116.5,478.6719 L120.5,651.3346 L124.5,478.6719 L221,478.6719 A4,4 0 0 0 225,474.6719 L225,415.4746 L215,405.4746 L20,405.4746 A4,4 0 0 0 16,409.4746 " fill="#FFFFFF" filter="url(#f17at5vdq7hl3p)" style="stroke:#000000;stroke-width:1.0;"/><path d="M215,405.4746 L215,413.4746 A2,2 0 0 0 217,415.4746 L225,415.4746 L215,405.4746 " fill="#FFFFFF" style="stroke:#000000;stroke-width:1.0;"/><text fill="#000000" font-family="Verdana" font-size="13" lengthAdjust="spacing" textLength="121" x="22" y="423.5444">Strong ownership:</text><text fill="#000000" font-family="Verdana" font-size="13" lengthAdjust="spacing" textLength="188" x="22" y="439.3438">Payment belongs exclusively</text><text fill="#000000" font-family="Verdana" font-size="13" lengthAdjust="spacing" textLength="182" x="22" y="455.1431">to one Order and shares its</text><text fill="#000000" font-family="Verdana" font-size="13" lengthAdjust="spacing" textLength="119" x="22" y="470.9424">complete lifecycle</text></g><!--link Customer to Order--><g id="link_Customer_Order"><path codeLine="147" d="M932.7,249.4746 C948.05,273.6046 965.18,300.5446 981.64,326.4146 " fill="none" id="Customer-Order" style="stroke:#000000;stroke-width:1.0;"/><polygon fill="#000000" points="966.1835,292.5931,963.8088,283.3838,958.8492,286.5385,966.1835,292.5931" style="stroke:#000000;stroke-width:1.0;"/><text fill="#000000" font-family="Verdana" font-size="13" lengthAdjust="spacing" textLength="42" x="972.5" y="293.5444">places</text><text fill="#000000" font-family="Verdana" font-size="13" lengthAdjust="spacing" textLength="8" x="929.0513" y="270.7812">1</text><text fill="#000000" font-family="Verdana" font-size="13" lengthAdjust="spacing" textLength="27" x="948.5678" y="315.8542">0..*</text></g><!--link Restaurant to Order--><g id="link_Restaurant_Order"><path codeLine="150" d="M1192.49,224.0146 C1173.73,253.5146 1149.89,290.9946 1127.33,326.4746 " fill="none" id="Restaurant-Order" style="stroke:#000000;stroke-width:1.0;"/><polygon fill="#000000" points="1163.1832,284.1552,1155.8494,290.2105,1160.8092,293.3647,1163.1832,284.1552" style="stroke:#000000;stroke-width:1.0;"/><text fill="#000000" font-family="Verdana" font-size="13" lengthAdjust="spacing" textLength="55" x="1169.5" y="293.5444">receives</text><text fill="#000000" font-family="Verdana" font-size="13" lengthAdjust="spacing" textLength="8" x="1179.4918" y="245.2729">1</text><text fill="#000000" font-family="Verdana" font-size="13" lengthAdjust="spacing" textLength="27" x="1104.5016" y="315.9184">0..*</text></g><!--reverse link Order to OrderItem--><g id="link_Order_OrderItem"><path codeLine="155" d="M886.4623,511.843 C804.2023,546.933 713.57,587.9446 625.5,634.4746 C615.42,639.8046 605.13,645.4846 594.84,651.3446 " fill="none" id="Order-backto-OrderItem" style="stroke:#000000;stroke-width:1.0;"/><polygon fill="#000000" points="897.5,507.1346,890.4117,505.8096,886.4623,511.843,893.5506,513.168,897.5,507.1346" style="stroke:#000000;stroke-width:1.0;"/><polygon fill="#000000" points="717.9895,598.5319,727.4173,597.2799,724.8808,591.9775,717.9895,598.5319" style="stroke:#000000;stroke-width:1.0;"/><text fill="#000000" font-family="Verdana" font-size="13" lengthAdjust="spacing" textLength="72" x="731.5" y="601.5444">consists of</text><text fill="#000000" font-family="Verdana" font-size="13" lengthAdjust="spacing" textLength="8" x="881.7016" y="508.0128">1</text><text fill="#000000" font-family="Verdana" font-size="13" lengthAdjust="spacing" textLength="27" x="579.2258" y="640.7496">1..*</text></g><!--reverse link Order to Payment--><g id="link_Order_Payment"><path codeLine="160" d="M885.4463,467.8258 C725.5763,494.7258 484.95,545.4346 281.5,634.4746 C264.03,642.1246 246.35,651.6246 229.43,661.7646 " fill="none" id="Order-backto-Payment" style="stroke:#000000;stroke-width:1.0;"/><polygon fill="#000000" points="897.28,465.8346,890.6995,462.8856,885.4463,467.8258,892.0269,470.7747,897.28,465.8346" style="stroke:#000000;stroke-width:1.0;"/><polygon fill="#000000" points="382.7051,597.7918,392.2123,598.0458,390.5459,592.4091,382.7051,597.7918" style="stroke:#000000;stroke-width:1.0;"/><text fill="#000000" font-family="Verdana" font-size="13" lengthAdjust="spacing" textLength="48" x="396.5" y="601.5444">paid by</text><text fill="#000000" font-family="Verdana" font-size="13" lengthAdjust="spacing" textLength="8" x="881.4709" y="464.7123">1</text><text fill="#000000" font-family="Verdana" font-size="13" lengthAdjust="spacing" textLength="8" x="237.0175" y="653.9979">1</text></g><!--reverse link Order to Delivery--><g id="link_Order_Delivery"><path codeLine="165" d="M951.6929,566.8059 C930.7629,592.0059 916.35,609.3646 895.71,634.2346 " fill="none" id="Order-backto-Delivery" style="stroke:#000000;stroke-width:1.0;"/><polygon fill="#000000" points="959.36,557.5746,952.4494,559.6345,951.6929,566.8059,958.6036,564.7459,959.36,557.5746" style="stroke:#000000;stroke-width:1.0;"/><polygon fill="#000000" points="933.3061,600.2212,941.3451,595.1394,936.8228,591.3847,933.3061,600.2212" style="stroke:#000000;stroke-width:1.0;"/><text fill="#000000" font-family="Verdana" font-size="13" lengthAdjust="spacing" textLength="67" x="945.5" y="601.5444">fulfilled by</text><text fill="#000000" font-family="Verdana" font-size="13" lengthAdjust="spacing" textLength="8" x="945.0088" y="578.551">1</text><text fill="#000000" font-family="Verdana" font-size="13" lengthAdjust="spacing" textLength="26" x="875.2332" y="623.9022">0..1</text></g><!--reverse link Order to Invoice--><g id="link_Order_Invoice"><path codeLine="170" d="M1089.6972,569.1325 C1097.5572,597.2825 1102.66,615.6046 1110.27,642.8746 " fill="none" id="Order-backto-Invoice" style="stroke:#000000;stroke-width:1.0;"/><polygon fill="#000000" points="1086.47,557.5746,1084.231,564.4293,1089.6972,569.1325,1091.9362,562.2778,1086.47,557.5746" style="stroke:#000000;stroke-width:1.0;"/><polygon fill="#000000" points="1104.8436,601.1904,1105.2438,591.6882,1099.5822,593.2677,1104.8436,601.1904" style="stroke:#000000;stroke-width:1.0;"/><text fill="#000000" font-family="Verdana" font-size="13" lengthAdjust="spacing" textLength="66" x="1112.5" y="601.5444">generates</text><text fill="#000000" font-family="Verdana" font-size="13" lengthAdjust="spacing" textLength="8" x="1080.2618" y="578.551">1</text><text fill="#000000" font-family="Verdana" font-size="13" lengthAdjust="spacing" textLength="8" x="1099.6838" y="632.1857">1</text></g><!--reverse link Order to OrderTracking--><g id="link_Order_OrderTracking"><path codeLine="174" d="M1221.3615,563.7598 C1268.8415,598.1198 1310.24,628.0946 1354.08,659.8246 " fill="none" id="Order-backto-OrderTracking" style="stroke:#000000;stroke-width:1.0;"/><polygon fill="#000000" points="1211.64,556.7246,1214.1557,563.4827,1221.3615,563.7598,1218.8458,557.0017,1211.64,556.7246" style="stroke:#000000;stroke-width:1.0;"/><polygon fill="#000000" points="1280.5503,599.306,1274.9464,591.6217,1271.5,596.3832,1280.5503,599.306" style="stroke:#000000;stroke-width:1.0;"/><text fill="#000000" font-family="Verdana" font-size="13" lengthAdjust="spacing" textLength="71" x="1285.5" y="601.5444">tracked by</text><text fill="#000000" font-family="Verdana" font-size="13" lengthAdjust="spacing" textLength="8" x="1214.8862" y="578.7956">1</text><text fill="#000000" font-family="Verdana" font-size="13" lengthAdjust="spacing" textLength="26" x="1315.8324" y="649.153">0..1</text></g><!--link OrderItem to MenuItem--><g id="link_OrderItem_MenuItem"><path codeLine="178" d="M400.03,831.7046 C372.95,876.8846 344.0243,925.158 320.5743,964.288 " fill="none" id="OrderItem-to-MenuItem" style="stroke:#000000;stroke-width:1.0;"/><polygon fill="#000000" points="317.49,969.4346,325.5475,963.7709,320.0602,965.1458,318.6853,959.6586,317.49,969.4346" style="stroke:#000000;stroke-width:1.0;"/><polygon fill="#000000" points="371.9298,891.6631,379.1003,885.4153,374.0585,882.3938,371.9298,891.6631" style="stroke:#000000;stroke-width:1.0;"/><text fill="#000000" font-family="Verdana" font-size="13" lengthAdjust="spacing" textLength="57" x="383.5" y="892.5444">refers to</text><text fill="#000000" font-family="Verdana" font-size="13" lengthAdjust="spacing" textLength="8" x="387.4504" y="852.5895">1</text><text fill="#000000" font-family="Verdana" font-size="13" lengthAdjust="spacing" textLength="8" x="313.5667" y="958.6212">1</text></g><!--link Order to OrderStatus--><g id="link_Order_OrderStatus"><path codeLine="181" d="M1211.55,549.6646 C1217.52,552.4646 1223.52,555.0746 1229.5,557.4746 C1316.77,592.4546 1563.28,588.8746 1645.5,634.4746 C1658.37,641.6146 1666.0941,646.979 1677.0841,657.339 " fill="none" id="Order-to-OrderStatus" style="stroke:#000000;stroke-width:1.0;stroke-dasharray:7.0,7.0;"/><polygon fill="#000000" points="1681.45,661.4546,1677.6449,652.3705,1677.8117,658.0249,1672.1573,658.1917,1681.45,661.4546" style="stroke:#000000;stroke-width:1.0;"/><text fill="#000000" font-family="Verdana" font-size="13" lengthAdjust="spacing" textLength="30" x="1536.5" y="601.5444">uses</text></g><!--link Payment to PaymentStatus--><g id="link_Payment_PaymentStatus"><path codeLine="182" d="M114.8,831.7046 C112.29,871.0746 109.7622,910.7168 107.4022,947.6868 " fill="none" id="Payment-to-PaymentStatus" style="stroke:#000000;stroke-width:1.0;stroke-dasharray:7.0,7.0;"/><polygon fill="#000000" points="107.02,953.6746,111.5852,944.9477,107.3385,948.6848,103.6015,944.4381,107.02,953.6746" style="stroke:#000000;stroke-width:1.0;"/><text fill="#000000" font-family="Verdana" font-size="13" lengthAdjust="spacing" textLength="30" x="112.5" y="892.5444">uses</text></g><!--link Delivery to DeliveryStatus--><g id="link_Delivery_DeliveryStatus"><path codeLine="183" d="M814.28,848.6846 C816.52,883.8146 818.5776,916.0268 820.6076,947.8168 " fill="none" id="Delivery-to-DeliveryStatus" style="stroke:#000000;stroke-width:1.0;stroke-dasharray:7.0,7.0;"/><polygon fill="#000000" points="820.99,953.8046,824.4083,944.568,820.6714,948.8148,816.4246,945.0778,820.99,953.8046" style="stroke:#000000;stroke-width:1.0;"/><text fill="#000000" font-family="Verdana" font-size="13" lengthAdjust="spacing" textLength="30" x="818.5" y="892.5444">uses</text></g><!--SRC=[ZLXjRzis4FxkNy7vInHt3bfW7meZ2-3PIYlCiLFR6R1XGC18j4rK9ZMHIkeM_U-xuuj4AKhQVd0fydJtt7DlL7xH1tPafCWf5mFrcOk2blH8r85cyecBFT5bnOA3KbOYIsKfM4dU1_jfJfMQQbtoXqgp99LYmxyoydOmq5pdZCmvtQFSRnEoAZDu-OOAkWVJGfCDs4XrLR9_HJIJnq8ghhaKPCroYWjru8Kw7mpEoEyl_OEp6_20p106Kw-A3WnMCgkKbaT0ycr0o9YaxZ799WW8N3VRWXvPQuCTASzREyL1YfRC67xU8AKfCxv6NBEZcf05L_hIx2ImSNNkg33IkgJfPoijZKGDmujjDDMLCi8f5IdBNvB-GygSKJ7uxZsrX5itE-BDtfngS09_pPuorhgcnqHBJVFf4R90WpHB-P7czeK27cYU26MYYM5h6KbB1hgpgRP6jlp86gvIcgTLZjkeFZeFLRyXLP71aGKHzG03yKV9CoExPnh9LQYZmxSvfqMHd-PSfUX1bBb5RIzKPLcENcGKbRPOXUSEi_zLL43-doOa4PhjJQp7f19StvOyPMq6RGRoh_GvUQfwCCItNkXGjt4o_UnzSaWYmPu-1O12XscMpK8CaKKKf9OHhLcufITJlvQ3mZvr6A1zgU92wDuFiwkaGb6JFKq- -bG9JzjMNC6LCcLAEQrXtF2qP3leNDrTI9SrInalZBpJM3iuPpb_PEN9UPYvnuwBtXql7VZ3b0Ql8UtHXuutu4X5S_zIZm0afyOKR9FdGLmprfCDW9hlnNIF153yRM2PpJ3SlMNLTg9JMR5tPrgM_D6bMWCvICPvWpBCnvhPH83Ub3bYkNtgyCgLgbXF6cIzkvf-wMjBliBxpdPSzFQoiVCNPXnOk9rVemlNFBS-AYQo68T0r1e5dSHgEXhzqik0QI5RxFeuPR_v13UF7IBIgYmXTWkPch9idO4kVMS2cNK8OPrWzVLTcm9USPHtB7J2xz5-XCIKvQbkiNu_VWIKjiqAgVdkv4TizAnrh04ThQ2UVVSewuqV3E2ngsOesaSMZ40t4LhzB4rPeNzwJDumKGKz_UWUVtGXA9vrSfy_UiuqP8ZgQot1-2ANbs3gYCa6t5zT6VktyNAUB3_0QhPQNYVhctYEk-luThgs-wkxxVtrQdq_ZnV9N_7wRzXoIoCwcovdyM81wsw__YchqxljnzKw-SVgMjtSBkAjMLzFauLPhEFhk-KyrD_k7Rq6ffjDyc5fVKbcVyRp-xjRM2VB- -rwkjmasuuNpjht7rt-MbV5rsz_PmXYDKkcssIrd3JNG7DVKtQKgq6zFNmtX8YIuTkBYz7GNQKcPEYahuRF50QfxRAqLXeSlQ3sidx7A4RYLy2AKMo5u6ODIIM2EmZwsppWjGMgZx0lK9haYUk3h3IXmjqrpqYoit2Wl-8mOT0XVYKqpmdNYfYRAg4byqS3QnNXZX3lkmQlgHN038WKs08lTuwF7jW7MkSV2FYRmmFBfTWh09lcbGAtynFSC0dSfot6G3JdEvQUKlYKq9nbHif8TF4DwpSmIfHdvE7qEYoVjY1H3tp37dWa0D1EbaGVW2rpnTtnjCOsHuwmVLj2ItQK66q_ehlO8DQmh6q0lbsLxtYUizT1-abKZqsCeXkWda7WunayBzER4I-nvry2T8tTL_dpKmiawdbMOm5SXhjUSvQGzYG4kqPXo4chlfhSWoiTWy68TUXxDtu7-ZRkOiX5nWgOsP0I44puHcn6pPaoNNxGgBHbUMN-hnK196FAi6mHpMDibV5obiGRvzN5nLMhgyDRbS8wzlc80kqMN8lKEO4odJPQ2mqWY8oKV7_GM6h-st4q2k8o6e5xGIkSW03E2b_myBLFXay7c7n3M5DGz2ICq3Xi8H5yqsluuiPjZpwgQzJkrv2ZCDOcp5R09r8Kf6Xmt8wwdSzZh-hSmavs3VAwLKqN2tH3uJKcnRyM281dUnRDbVI25t2yFR1JE_jRoN0nW1LULPZZza5gQFerkIQXdX4yyNoQt01abC1CteOX6PEP_TebJmSccdPhXaRcw8FlP7bw9kBRhb7ILxSG6Wn7OCfAFJ3yeqq92cbQIbNF74FaQFIemYhgUW6p70OkN1WsJIMXxbThoKXiu3hKY07N20IAx4Z5gO4mRbfbOpIJJ8apxLnk37U2ecM1tFhXGV0g9R7dFa5tmYH7LruPA73gHehD9Ghg3LCuxPHB8eEW7Z4DXFy1]--></g></svg>