<?xml version="1.0" encoding="us-ascii" standalone="no"?><svg xmlns="http://www.w3.org/2000/svg" xmlns:xlink="http://www.w3.org/1999/xlink" contentStyleType="text/css" height="1150px" preserveAspectRatio="none" style="width:1846px;height:1150px;background:#FFFFFF;" version="1.1" viewBox="0 0 1846 1150" width="1846px" zoomAndPan="magnify"><defs><filter height="300%" id="fitcfnzsizblj" width="300%" x="-1" y="-1"><feGaussianBlur result="blurOut" stdDeviation="2.0"/><feColorMatrix in="blurOut" result="blurOut2" type="matrix" values="0 0 0 0 0 0 0 0 0 0 0 0 0 0 0 0 0 0 .4 0"/><feOffset dx="4.0" dy="4.0" in="blurOut2" result="blurOut3"/><feBlend in="SourceGraphic" in2="blurOut3" mode="normal"/></filter></defs><g><text fill="#000000" font-family="Verdana" font-size="22" font-weight="bold" lengthAdjust="spacing" textLength="484" x="676.5" y="37.1182">Diagram 2: Payment Method Hierarchy</text><text fill="#000000" font-family="Verdana" font-size="22" font-weight="bold" lengthAdjust="spacing" textLength="369" x="734" y="63.8555">(Generalization/Inheritance)</text><!--class PaymentMethod--><g id="elem_PaymentMethod"><rect codeLine="13" fill="#FFFFFF" filter="url(#fitcfnzsizblj)" height="197.1318" id="PaymentMethod" rx="4" ry="4" style="stroke:#000000;stroke-width:1.0;" width="294" x="735" y="532.4746"/><ellipse cx="820.75" cy="546.4746" fill="#FFFFFF" rx="9" ry="9" style="stroke:#000000;stroke-width:1.0;"/><path d="M827.4531,551.4746 L824.7813,551.4746 L823.7188,548.709 L818.8594,548.709 L817.8594,551.4746 L815.25,551.4746 L819.9844,539.3027 L822.5938,539.3027 L827.4531,551.4746 Z M822.9375,546.6621 L821.2656,542.1465 L819.6094,546.6621 L822.9375,546.6621 Z " fill="#000000"/><text fill="#000000" font-family="Verdana" font-size="14" font-style="italic" lengthAdjust="spacing" textLength="115" x="838.25" y="552.0425">PaymentMethod</text><line style="stroke:#000000;stroke-width:1.0;" x1="736" x2="1028" y1="560.4746" y2="560.4746"/><text fill="#000000" font-family="Verdana" font-size="14" lengthAdjust="spacing" textLength="192" x="741" y="578.5498">#paymentMethodId: String</text><text fill="#000000" font-family="Verdana" font-size="14" lengthAdjust="spacing" textLength="131" x="741" y="595.5645">#isActive: Boolean</text><text fill="#000000" font-family="Verdana" font-size="14" lengthAdjust="spacing" textLength="156" x="741" y="612.5791">#createdAt: DateTime</text><text fill="#000000" font-family="Verdana" font-size="14" lengthAdjust="spacing" textLength="148" x="741" y="629.5938">#lastUsed: DateTime</text><line style="stroke:#000000;stroke-width:1.0;" x1="736" x2="1028" y1="636.5332" y2="636.5332"/><text fill="#000000" font-family="Verdana" font-size="14" font-style="italic" lengthAdjust="spacing" textLength="282" x="741" y="654.6084">+authorize(amount: Decimal): Boolean</text><text fill="#000000" font-family="Verdana" font-size="14" font-style="italic" lengthAdjust="spacing" textLength="264" x="741" y="671.623">+charge(amount: Decimal): Boolean</text><text fill="#000000" font-family="Verdana" font-size="14" font-style="italic" lengthAdjust="spacing" textLength="262" x="741" y="688.6377">+refund(amount: Decimal): Boolean</text><text fill="#000000" font-family="Verdana" font-size="14" lengthAdjust="spacing" textLength="147" x="741" y="705.6523">+getDetails(): String</text><text fill="#000000" font-family="Verdana" font-size="14" lengthAdjust="spacing" textLength="134" x="741" y="722.667">+deactivate(): void</text></g><!--class CreditCardPayment--><g id="elem_CreditCardPayment"><rect codeLine="30" fill="#FFFFFF" filter="url(#fitcfnzsizblj)" height="231.1611" id="CreditCardPayment" rx="4" ry="4" style="stroke:#000000;stroke-width:1.0;" width="286" x="12" y="790.4746"/><ellipse cx="83.75" cy="804.4746" fill="#FFFFFF" rx="9" ry="9" style="stroke:#000000;stroke-width:1.0;"/><path d="M86.5156,806.0059 L88.9063,806.7559 Q88.3594,808.7402 87.0781,809.709 Q85.8125,810.6777 83.8438,810.6777 Q81.4219,810.6777 79.8594,809.0215 Q78.3125,807.3652 78.3125,804.4902 Q78.3125,801.459 79.875,799.7871 Q81.4375,798.0996 84,798.0996 Q86.2344,798.0996 87.625,799.4121 Q88.4531,800.1934 88.875,801.6621 L86.4375,802.2402 Q86.2188,801.2871 85.5313,800.7402 Q84.8594,800.1934 83.875,800.1934 Q82.5156,800.1934 81.6719,801.1777 Q80.8438,802.1465 80.8438,804.3184 Q80.8438,806.6152 81.6719,807.5996 Q82.5,808.584 83.8281,808.584 Q84.8125,808.584 85.5156,807.959 Q86.2188,807.334 86.5156,806.0059 Z " fill="#000000"/><text fill="#000000" font-family="Verdana" font-size="14" lengthAdjust="spacing" textLength="135" x="101.25" y="810.0425">CreditCardPayment</text><line style="stroke:#000000;stroke-width:1.0;" x1="13" x2="297" y1="818.4746" y2="818.4746"/><text fill="#000000" font-family="Verdana" font-size="14" lengthAdjust="spacing" textLength="146" x="18" y="836.5498">-cardNumber: String</text><text fill="#000000" font-family="Verdana" font-size="14" lengthAdjust="spacing" textLength="127" x="18" y="853.5645">-expiryDate: Date</text><text fill="#000000" font-family="Verdana" font-size="14" lengthAdjust="spacing" textLength="84" x="18" y="870.5791">-cvv: String</text><text fill="#000000" font-family="Verdana" font-size="14" lengthAdjust="spacing" textLength="174" x="18" y="887.5938">-cardholderName: String</text><text fill="#000000" font-family="Verdana" font-size="14" lengthAdjust="spacing" textLength="125" x="18" y="904.6084">-cardType: String</text><text fill="#000000" font-family="Verdana" font-size="14" lengthAdjust="spacing" textLength="173" x="18" y="921.623">-billingAddress: Address</text><line style="stroke:#000000;stroke-width:1.0;" x1="13" x2="297" y1="928.5625" y2="928.5625"/><text fill="#000000" font-family="Verdana" font-size="14" lengthAdjust="spacing" textLength="274" x="18" y="946.6377">+authorize(amount: Decimal): Boolean</text><text fill="#000000" font-family="Verdana" font-size="14" lengthAdjust="spacing" textLength="255" x="18" y="963.6523">+charge(amount: Decimal): Boolean</text><text fill="#000000" font-family="Verdana" font-size="14" lengthAdjust="spacing" textLength="254" x="18" y="980.667">+refund(amount: Decimal): Boolean</text><text fill="#000000" font-family="Verdana" font-size="14" lengthAdjust="spacing" textLength="211" x="18" y="997.6816">+validate3DSecure(): Boolean</text><text fill="#000000" font-family="Verdana" font-size="14" lengthAdjust="spacing" textLength="204" x="18" y="1014.6963">+checkCreditLimit(): Boolean</text></g><!--class DebitCardPayment--><g id="elem_DebitCardPayment"><rect codeLine="45" fill="#FFFFFF" filter="url(#fitcfnzsizblj)" height="214.1465" id="DebitCardPayment" rx="4" ry="4" style="stroke:#000000;stroke-width:1.0;" width="286" x="333" y="798.9746"/><ellipse cx="407.25" cy="812.9746" fill="#FFFFFF" rx="9" ry="9" style="stroke:#000000;stroke-width:1.0;"/><path d="M410.0156,814.5059 L412.4063,815.2559 Q411.8594,817.2402 410.5781,818.209 Q409.3125,819.1777 407.3438,819.1777 Q404.9219,819.1777 403.3594,817.5215 Q401.8125,815.8652 401.8125,812.9902 Q401.8125,809.959 403.375,808.2871 Q404.9375,806.5996 407.5,806.5996 Q409.7344,806.5996 411.125,807.9121 Q411.9531,808.6934 412.375,810.1621 L409.9375,810.7402 Q409.7188,809.7871 409.0313,809.2402 Q408.3594,808.6934 407.375,808.6934 Q406.0156,808.6934 405.1719,809.6777 Q404.3438,810.6465 404.3438,812.8184 Q404.3438,815.1152 405.1719,816.0996 Q406,817.084 407.3281,817.084 Q408.3125,817.084 409.0156,816.459 Q409.7188,815.834 410.0156,814.5059 Z " fill="#000000"/><text fill="#000000" font-family="Verdana" font-size="14" lengthAdjust="spacing" textLength="130" x="424.75" y="818.5425">DebitCardPayment</text><line style="stroke:#000000;stroke-width:1.0;" x1="334" x2="618" y1="826.9746" y2="826.9746"/><text fill="#000000" font-family="Verdana" font-size="14" lengthAdjust="spacing" textLength="146" x="339" y="845.0498">-cardNumber: String</text><text fill="#000000" font-family="Verdana" font-size="14" lengthAdjust="spacing" textLength="127" x="339" y="862.0645">-expiryDate: Date</text><text fill="#000000" font-family="Verdana" font-size="14" lengthAdjust="spacing" textLength="84" x="339" y="879.0791">-cvv: String</text><text fill="#000000" font-family="Verdana" font-size="14" lengthAdjust="spacing" textLength="134" x="339" y="896.0938">-bankName: String</text><text fill="#000000" font-family="Verdana" font-size="14" lengthAdjust="spacing" textLength="179" x="339" y="913.1084">-accountBalance: Decimal</text><line style="stroke:#000000;stroke-width:1.0;" x1="334" x2="618" y1="920.0479" y2="920.0479"/><text fill="#000000" font-family="Verdana" font-size="14" lengthAdjust="spacing" textLength="274" x="339" y="938.123">+authorize(amount: Decimal): Boolean</text><text fill="#000000" font-family="Verdana" font-size="14" lengthAdjust="spacing" textLength="255" x="339" y="955.1377">+charge(amount: Decimal): Boolean</text><text fill="#000000" font-family="Verdana" font-size="14" lengthAdjust="spacing" textLength="254" x="339" y="972.1523">+refund(amount: Decimal): Boolean</text><text fill="#000000" font-family="Verdana" font-size="14" lengthAdjust="spacing" textLength="179" x="339" y="989.167">+checkBalance(): Decimal</text><text fill="#000000" font-family="Verdana" font-size="14" lengthAdjust="spacing" textLength="226" x="339" y="1006.1816">+verifyPIN(pin: String): Boolean</text></g><!--class DigitalWalletPayment--><g id="elem_DigitalWalletPayment"><rect codeLine="59" fill="#FFFFFF" filter="url(#fitcfnzsizblj)" height="214.1465" id="DigitalWalletPayment" rx="4" ry="4" style="stroke:#000000;stroke-width:1.0;" width="456" x="654" y="798.9746"/><ellipse cx="805.25" cy="812.9746" fill="#FFFFFF" rx="9" ry="9" style="stroke:#000000;stroke-width:1.0;"/><path d="M808.0156,814.5059 L810.4063,815.2559 Q809.8594,817.2402 808.5781,818.209 Q807.3125,819.1777 805.3438,819.1777 Q802.9219,819.1777 801.3594,817.5215 Q799.8125,815.8652 799.8125,812.9902 Q799.8125,809.959 801.375,808.2871 Q802.9375,806.5996 805.5,806.5996 Q807.7344,806.5996 809.125,807.9121 Q809.9531,808.6934 810.375,810.1621 L807.9375,810.7402 Q807.7188,809.7871 807.0313,809.2402 Q806.3594,808.6934 805.375,808.6934 Q804.0156,808.6934 803.1719,809.6777 Q802.3438,810.6465 802.3438,812.8184 Q802.3438,815.1152 803.1719,816.0996 Q804,817.084 805.3281,817.084 Q806.3125,817.084 807.0156,816.459 Q807.7188,815.834 808.0156,814.5059 Z " fill="#000000"/><text fill="#000000" font-family="Verdana" font-size="14" lengthAdjust="spacing" textLength="146" x="822.75" y="818.5425">DigitalWalletPayment</text><line style="stroke:#000000;stroke-width:1.0;" x1="655" x2="1109" y1="826.9746" y2="826.9746"/><text fill="#000000" font-family="Verdana" font-size="14" lengthAdjust="spacing" textLength="114" x="660" y="845.0498">-walletId: String</text><text fill="#000000" font-family="Verdana" font-size="14" lengthAdjust="spacing" textLength="157" x="660" y="862.0645">-walletProvider: String</text><text fill="#000000" font-family="Verdana" font-size="14" lengthAdjust="spacing" textLength="123" x="660" y="879.0791">-balance: Decimal</text><text fill="#000000" font-family="Verdana" font-size="14" lengthAdjust="spacing" textLength="160" x="660" y="896.0938">-phoneNumber: String</text><line style="stroke:#000000;stroke-width:1.0;" x1="655" x2="1109" y1="903.0332" y2="903.0332"/><text fill="#000000" font-family="Verdana" font-size="14" lengthAdjust="spacing" textLength="274" x="660" y="921.1084">+authorize(amount: Decimal): Boolean</text><text fill="#000000" font-family="Verdana" font-size="14" lengthAdjust="spacing" textLength="255" x="660" y="938.123">+charge(amount: Decimal): Boolean</text><text fill="#000000" font-family="Verdana" font-size="14" lengthAdjust="spacing" textLength="254" x="660" y="955.1377">+refund(amount: Decimal): Boolean</text><text fill="#000000" font-family="Verdana" font-size="14" lengthAdjust="spacing" textLength="179" x="660" y="972.1523">+checkBalance(): Decimal</text><text fill="#000000" font-family="Verdana" font-size="14" lengthAdjust="spacing" textLength="277" x="660" y="989.167">+addFunds(amount: Decimal): Boolean</text><text fill="#000000" font-family="Verdana" font-size="14" lengthAdjust="spacing" textLength="444" x="660" y="1006.1816">+transferFunds(recipientId: String, amount: Decimal): Boolean</text></g><!--class CashOnDelivery--><g id="elem_CashOnDelivery"><rect codeLine="73" fill="#FFFFFF" filter="url(#fitcfnzsizblj)" height="180.1172" id="CashOnDelivery" rx="4" ry="4" style="stroke:#000000;stroke-width:1.0;" width="368" x="1145" y="815.9746"/><ellipse cx="1270.25" cy="829.9746" fill="#FFFFFF" rx="9" ry="9" style="stroke:#000000;stroke-width:1.0;"/><path d="M1273.0156,831.5059 L1275.4063,832.2559 Q1274.8594,834.2402 1273.5781,835.209 Q1272.3125,836.1777 1270.3438,836.1777 Q1267.9219,836.1777 1266.3594,834.5215 Q1264.8125,832.8652 1264.8125,829.9902 Q1264.8125,826.959 1266.375,825.2871 Q1267.9375,823.5996 1270.5,823.5996 Q1272.7344,823.5996 1274.125,824.9121 Q1274.9531,825.6934 1275.375,827.1621 L1272.9375,827.7402 Q1272.7188,826.7871 1272.0313,826.2402 Q1271.3594,825.6934 1270.375,825.6934 Q1269.0156,825.6934 1268.1719,826.6777 Q1267.3438,827.6465 1267.3438,829.8184 Q1267.3438,832.1152 1268.1719,833.0996 Q1269,834.084 1270.3281,834.084 Q1271.3125,834.084 1272.0156,833.459 Q1272.7188,832.834 1273.0156,831.5059 Z " fill="#000000"/><text fill="#000000" font-family="Verdana" font-size="14" lengthAdjust="spacing" textLength="110" x="1287.75" y="835.5425">CashOnDelivery</text><line style="stroke:#000000;stroke-width:1.0;" x1="1146" x2="1512" y1="843.9746" y2="843.9746"/><text fill="#000000" font-family="Verdana" font-size="14" lengthAdjust="spacing" textLength="172" x="1151" y="862.0498">-collectionStatus: String</text><text fill="#000000" font-family="Verdana" font-size="14" lengthAdjust="spacing" textLength="183" x="1151" y="879.0645">-changeRequired: Decimal</text><text fill="#000000" font-family="Verdana" font-size="14" lengthAdjust="spacing" textLength="203" x="1151" y="896.0791">-paymentCollectedBy: String</text><line style="stroke:#000000;stroke-width:1.0;" x1="1146" x2="1512" y1="903.0186" y2="903.0186"/><text fill="#000000" font-family="Verdana" font-size="14" lengthAdjust="spacing" textLength="274" x="1151" y="921.0938">+authorize(amount: Decimal): Boolean</text><text fill="#000000" font-family="Verdana" font-size="14" lengthAdjust="spacing" textLength="255" x="1151" y="938.1084">+charge(amount: Decimal): Boolean</text><text fill="#000000" font-family="Verdana" font-size="14" lengthAdjust="spacing" textLength="254" x="1151" y="955.123">+refund(amount: Decimal): Boolean</text><text fill="#000000" font-family="Verdana" font-size="14" lengthAdjust="spacing" textLength="182" x="1151" y="972.1377">+confirmCollection(): void</text><text fill="#000000" font-family="Verdana" font-size="14" lengthAdjust="spacing" textLength="356" x="1151" y="989.1523">+calculateChange(amountGiven: Decimal): Decimal</text></g><!--class BankTransfer--><g id="elem_BankTransfer"><rect codeLine="85" fill="#FFFFFF" filter="url(#fitcfnzsizblj)" height="197.1318" id="BankTransfer" rx="4" ry="4" style="stroke:#000000;stroke-width:1.0;" width="286" x="1548" y="807.4746"/><ellipse cx="1640.25" cy="821.4746" fill="#FFFFFF" rx="9" ry="9" style="stroke:#000000;stroke-width:1.0;"/><path d="M1643.0156,823.0059 L1645.4063,823.7559 Q1644.8594,825.7402 1643.5781,826.709 Q1642.3125,827.6777 1640.3438,827.6777 Q1637.9219,827.6777 1636.3594,826.0215 Q1634.8125,824.3652 1634.8125,821.4902 Q1634.8125,818.459 1636.375,816.7871 Q1637.9375,815.0996 1640.5,815.0996 Q1642.7344,815.0996 1644.125,816.4121 Q1644.9531,817.1934 1645.375,818.6621 L1642.9375,819.2402 Q1642.7188,818.2871 1642.0313,817.7402 Q1641.3594,817.1934 1640.375,817.1934 Q1639.0156,817.1934 1638.1719,818.1777 Q1637.3438,819.1465 1637.3438,821.3184 Q1637.3438,823.6152 1638.1719,824.5996 Q1639,825.584 1640.3281,825.584 Q1641.3125,825.584 1642.0156,824.959 Q1642.7188,824.334 1643.0156,823.0059 Z " fill="#000000"/><text fill="#000000" font-family="Verdana" font-size="14" lengthAdjust="spacing" textLength="94" x="1657.75" y="827.0425">BankTransfer</text><line style="stroke:#000000;stroke-width:1.0;" x1="1549" x2="1833" y1="835.4746" y2="835.4746"/><text fill="#000000" font-family="Verdana" font-size="14" lengthAdjust="spacing" textLength="171" x="1554" y="853.5498">-accountNumber: String</text><text fill="#000000" font-family="Verdana" font-size="14" lengthAdjust="spacing" textLength="134" x="1554" y="870.5645">-bankName: String</text><text fill="#000000" font-family="Verdana" font-size="14" lengthAdjust="spacing" textLength="167" x="1554" y="887.5791">-routingNumber: String</text><text fill="#000000" font-family="Verdana" font-size="14" lengthAdjust="spacing" textLength="186" x="1554" y="904.5938">-transferReference: String</text><line style="stroke:#000000;stroke-width:1.0;" x1="1549" x2="1833" y1="911.5332" y2="911.5332"/><text fill="#000000" font-family="Verdana" font-size="14" lengthAdjust="spacing" textLength="274" x="1554" y="929.6084">+authorize(amount: Decimal): Boolean</text><text fill="#000000" font-family="Verdana" font-size="14" lengthAdjust="spacing" textLength="255" x="1554" y="946.623">+charge(amount: Decimal): Boolean</text><text fill="#000000" font-family="Verdana" font-size="14" lengthAdjust="spacing" textLength="254" x="1554" y="963.6377">+refund(amount: Decimal): Boolean</text><text fill="#000000" font-family="Verdana" font-size="14" lengthAdjust="spacing" textLength="185" x="1554" y="980.6523">+verifyAccount(): Boolean</text><text fill="#000000" font-family="Verdana" font-size="14" lengthAdjust="spacing" textLength="249" x="1554" y="997.667">+generateTransferReceipt(): String</text></g><!--class Payment--><g id="elem_Payment"><rect codeLine="112" fill="#FFFFFF" filter="url(#fitcfnzsizblj)" height="180.1172" id="Payment" rx="4" ry="4" style="stroke:#000000;stroke-width:1.0;" width="217" x="1057.5" y="275.4746"/><ellipse cx="1132.25" cy="289.4746" fill="#FFFFFF" rx="9" ry="9" style="stroke:#000000;stroke-width:1.0;"/><path d="M1135.0156,291.0059 L1137.4063,291.7559 Q1136.8594,293.7402 1135.5781,294.709 Q1134.3125,295.6777 1132.3438,295.6777 Q1129.9219,295.6777 1128.3594,294.0215 Q1126.8125,292.3652 1126.8125,289.4902 Q1126.8125,286.459 1128.375,284.7871 Q1129.9375,283.0996 1132.5,283.0996 Q1134.7344,283.0996 1136.125,284.4121 Q1136.9531,285.1934 1137.375,286.6621 L1134.9375,287.2402 Q1134.7188,286.2871 1134.0313,285.7402 Q1133.3594,285.1934 1132.375,285.1934 Q1131.0156,285.1934 1130.1719,286.1777 Q1129.3438,287.1465 1129.3438,289.3184 Q1129.3438,291.6152 1130.1719,292.5996 Q1131,293.584 1132.3281,293.584 Q1133.3125,293.584 1134.0156,292.959 Q1134.7188,292.334 1135.0156,291.0059 Z " fill="#000000"/><text fill="#000000" font-family="Verdana" font-size="14" lengthAdjust="spacing" textLength="60" x="1149.75" y="295.0425">Payment</text><line style="stroke:#000000;stroke-width:1.0;" x1="1058.5" x2="1273.5" y1="303.4746" y2="303.4746"/><text fill="#000000" font-family="Verdana" font-size="14" lengthAdjust="spacing" textLength="136" x="1063.5" y="321.5498">-paymentId: String</text><text fill="#000000" font-family="Verdana" font-size="14" lengthAdjust="spacing" textLength="125" x="1063.5" y="338.5645">-amount: Decimal</text><text fill="#000000" font-family="Verdana" font-size="14" lengthAdjust="spacing" textLength="170" x="1063.5" y="355.5791">-status: PaymentStatus</text><text fill="#000000" font-family="Verdana" font-size="14" lengthAdjust="spacing" textLength="196" x="1063.5" y="372.5938">-transactionDate: DateTime</text><text fill="#000000" font-family="Verdana" font-size="14" lengthAdjust="spacing" textLength="154" x="1063.5" y="389.6084">-transactionId: String</text><line style="stroke:#000000;stroke-width:1.0;" x1="1058.5" x2="1273.5" y1="396.5479" y2="396.5479"/><text fill="#000000" font-family="Verdana" font-size="14" lengthAdjust="spacing" textLength="205" x="1063.5" y="414.623">+processPayment(): Boolean</text><text fill="#000000" font-family="Verdana" font-size="14" lengthAdjust="spacing" textLength="136" x="1063.5" y="431.6377">+refund(): Boolean</text><text fill="#000000" font-family="Verdana" font-size="14" lengthAdjust="spacing" textLength="151" x="1063.5" y="448.6523">+getReceipt(): String</text></g><!--class Order--><g id="elem_Order"><rect codeLine="124" fill="#FFFFFF" filter="url(#fitcfnzsizblj)" height="112.0586" id="Order" rx="4" ry="4" style="stroke:#000000;stroke-width:1.0;" width="193" x="1069.5" y="86.4746"/><ellipse cx="1142.25" cy="100.4746" fill="#FFFFFF" rx="9" ry="9" style="stroke:#000000;stroke-width:1.0;"/><path d="M1145.0156,102.0059 L1147.4063,102.7559 Q1146.8594,104.7402 1145.5781,105.709 Q1144.3125,106.6777 1142.3438,106.6777 Q1139.9219,106.6777 1138.3594,105.0215 Q1136.8125,103.3652 1136.8125,100.4902 Q1136.8125,97.459 1138.375,95.7871 Q1139.9375,94.0996 1142.5,94.0996 Q1144.7344,94.0996 1146.125,95.4121 Q1146.9531,96.1934 1147.375,97.6621 L1144.9375,98.2402 Q1144.7188,97.2871 1144.0313,96.7402 Q1143.3594,96.1934 1142.375,96.1934 Q1141.0156,96.1934 1140.1719,97.1777 Q1139.3438,98.1465 1139.3438,100.3184 Q1139.3438,102.6152 1140.1719,103.5996 Q1141,104.584 1142.3281,104.584 Q1143.3125,104.584 1144.0156,103.959 Q1144.7188,103.334 1145.0156,102.0059 Z " fill="#000000"/><text fill="#000000" font-family="Verdana" font-size="14" lengthAdjust="spacing" textLength="40" x="1159.75" y="106.0425">Order</text><line style="stroke:#000000;stroke-width:1.0;" x1="1070.5" x2="1261.5" y1="114.4746" y2="114.4746"/><text fill="#000000" font-family="Verdana" font-size="14" lengthAdjust="spacing" textLength="113" x="1075.5" y="132.5498">-orderId: String</text><text fill="#000000" font-family="Verdana" font-size="14" lengthAdjust="spacing" textLength="122" x="1075.5" y="149.5645">-orderDate: Date</text><text fill="#000000" font-family="Verdana" font-size="14" lengthAdjust="spacing" textLength="159" x="1075.5" y="166.5791">-totalAmount: Decimal</text><line style="stroke:#000000;stroke-width:1.0;" x1="1070.5" x2="1261.5" y1="173.5186" y2="173.5186"/><text fill="#000000" font-family="Verdana" font-size="14" lengthAdjust="spacing" textLength="181" x="1075.5" y="191.5938">+calculateTotal(): Decimal</text></g><!--class PaymentStatus--><g id="elem_PaymentStatus"><rect codeLine="132" fill="#FFFFFF" filter="url(#fitcfnzsizblj)" height="159.6865" id="PaymentStatus" rx="4" ry="4" style="stroke:#000000;stroke-width:1.0;" width="135" x="1382.5" y="550.9746"/><ellipse cx="1395.5" cy="571.7739" fill="#FFFFFF" rx="9" ry="9" style="stroke:#000000;stroke-width:1.0;"/><path d="M1398.2656,573.3052 L1400.6563,574.0552 Q1400.1094,576.0396 1398.8281,577.0083 Q1397.5625,577.9771 1395.5938,577.9771 Q1393.1719,577.9771 1391.6094,576.3208 Q1390.0625,574.6646 1390.0625,571.7896 Q1390.0625,568.7583 1391.625,567.0864 Q1393.1875,565.3989 1395.75,565.3989 Q1397.9844,565.3989 1399.375,566.7114 Q1400.2031,567.4927 1400.625,568.9614 L1398.1875,569.5396 Q1397.9688,568.5864 1397.2813,568.0396 Q1396.6094,567.4927 1395.625,567.4927 Q1394.2656,567.4927 1393.4219,568.4771 Q1392.5938,569.4458 1392.5938,571.6177 Q1392.5938,573.9146 1393.4219,574.8989 Q1394.25,575.8833 1395.5781,575.8833 Q1396.5625,575.8833 1397.2656,575.2583 Q1397.9688,574.6333 1398.2656,573.3052 Z " fill="#000000"/><text fill="#000000" font-family="Verdana" font-size="12" font-style="italic" lengthAdjust="spacing" textLength="93" x="1414.5" y="568.0391">&#171;enumeration&#187;</text><text fill="#000000" font-family="Verdana" font-size="14" lengthAdjust="spacing" textLength="107" x="1407.5" y="584.6338">PaymentStatus</text><line style="stroke:#000000;stroke-width:1.0;" x1="1383.5" x2="1516.5" y1="592.5732" y2="592.5732"/><text fill="#000000" font-family="Verdana" font-size="14" lengthAdjust="spacing" textLength="64" x="1388.5" y="610.6484">PENDING</text><text fill="#000000" font-family="Verdana" font-size="14" lengthAdjust="spacing" textLength="95" x="1388.5" y="627.6631">AUTHORIZED</text><text fill="#000000" font-family="Verdana" font-size="14" lengthAdjust="spacing" textLength="86" x="1388.5" y="644.6777">COMPLETED</text><text fill="#000000" font-family="Verdana" font-size="14" lengthAdjust="spacing" textLength="51" x="1388.5" y="661.6924">FAILED</text><text fill="#000000" font-family="Verdana" font-size="14" lengthAdjust="spacing" textLength="78" x="1388.5" y="678.707">REFUNDED</text><text fill="#000000" font-family="Verdana" font-size="14" lengthAdjust="spacing" textLength="85" x="1388.5" y="695.7217">CANCELLED</text><line style="stroke:#000000;stroke-width:1.0;" x1="1383.5" x2="1516.5" y1="702.6611" y2="702.6611"/></g><g id="elem_GMN19"><path d="M1064.5,542.9746 L1064.5,626.9746 L1029.13,630.9746 L1064.5,634.9746 L1064.5,718.7671 A4,4 0 0 0 1068.5,722.7671 L1343.5,722.7671 A4,4 0 0 0 1347.5,718.7671 L1347.5,548.9746 L1337.5,538.9746 L1068.5,538.9746 A4,4 0 0 0 1064.5,542.9746 " fill="#FFFFFF" filter="url(#fitcfnzsizblj)" style="stroke:#000000;stroke-width:1.0;"/><path d="M1337.5,538.9746 L1337.5,546.9746 A2,2 0 0 0 1339.5,548.9746 L1347.5,548.9746 L1337.5,538.9746 " fill="#FFFFFF" style="stroke:#000000;stroke-width:1.0;"/><text fill="#000000" font-family="Verdana" font-size="13" lengthAdjust="spacing" textLength="178" x="1070.5" y="557.0444">Abstract class defining the</text><text fill="#000000" font-family="Verdana" font-size="13" lengthAdjust="spacing" textLength="227" x="1070.5" y="572.8438">contract for all payment methods.</text><text fill="#000000" font-family="Verdana" font-size="13" lengthAdjust="spacing" textLength="5" x="1070.5" y="588.6431">&#160;</text><text fill="#000000" font-family="Verdana" font-size="13" lengthAdjust="spacing" textLength="262" x="1070.5" y="604.4424">Each payment method must implement:</text><text fill="#000000" font-family="Verdana" font-size="13" lengthAdjust="spacing" textLength="85" x="1070.5" y="620.2417">- authorize()</text><text fill="#000000" font-family="Verdana" font-size="13" lengthAdjust="spacing" textLength="69" x="1070.5" y="636.041">- charge()</text><text fill="#000000" font-family="Verdana" font-size="13" lengthAdjust="spacing" textLength="66" x="1070.5" y="651.8403">- refund()</text><text fill="#000000" font-family="Verdana" font-size="13" lengthAdjust="spacing" textLength="5" x="1070.5" y="667.6396">&#160;</text><text fill="#000000" font-family="Verdana" font-size="13" lengthAdjust="spacing" textLength="227" x="1070.5" y="683.439">This allows new payment methods</text><text fill="#000000" font-family="Verdana" font-size="13" lengthAdjust="spacing" textLength="199" x="1070.5" y="699.2383">to be added without changing</text><text fill="#000000" font-family="Verdana" font-size="13" lengthAdjust="spacing" textLength="246" x="1070.5" y="715.0376">existing code (Open/Closed Principle)</text></g><g id="elem_GMN22"><path d="M1214.5,1086.4746 L1214.5,1135.8726 A4,4 0 0 0 1218.5,1139.8726 L1439.5,1139.8726 A4,4 0 0 0 1443.5,1135.8726 L1443.5,1092.4746 L1433.5,1082.4746 L1333,1082.4746 L1329,996.0146 L1325,1082.4746 L1218.5,1082.4746 A4,4 0 0 0 1214.5,1086.4746 " fill="#FFFFFF" filter="url(#fitcfnzsizblj)" style="stroke:#000000;stroke-width:1.0;"/><path d="M1433.5,1082.4746 L1433.5,1090.4746 A2,2 0 0 0 1435.5,1092.4746 L1443.5,1092.4746 L1433.5,1082.4746 " fill="#FFFFFF" style="stroke:#000000;stroke-width:1.0;"/><text fill="#000000" font-family="Verdana" font-size="13" lengthAdjust="spacing" textLength="208" x="1220.5" y="1100.5444">Special payment method where</text><text fill="#000000" font-family="Verdana" font-size="13" lengthAdjust="spacing" textLength="185" x="1220.5" y="1116.3438">payment is collected by the</text><text fill="#000000" font-family="Verdana" font-size="13" lengthAdjust="spacing" textLength="187" x="1220.5" y="1132.1431">delivery agent upon delivery</text></g><!--reverse link PaymentMethod to CreditCardPayment--><g id="link_PaymentMethod_CreditCardPayment"><path codeLine="102" d="M717.2298,662.0728 C599.7198,686.6028 450.5,725.5446 315,790.4746 C309.46,793.1346 303.9,795.9846 298.36,798.9846 " fill="none" id="PaymentMethod-backto-CreditCardPayment" style="stroke:#000000;stroke-width:1.0;"/><polygon fill="none" points="734.85,658.3946,716.0038,656.1994,718.4559,667.9462,734.85,658.3946" style="stroke:#000000;stroke-width:1.0;"/></g><!--reverse link PaymentMethod to DebitCardPayment--><g id="link_PaymentMethod_DebitCardPayment"><path codeLine="103" d="M719.7796,734.876 C687.0296,756.076 667.73,768.9146 636,790.4746 C630.49,794.2146 624.89,798.0546 619.25,801.9546 " fill="none" id="PaymentMethod-backto-DebitCardPayment" style="stroke:#000000;stroke-width:1.0;"/><polygon fill="none" points="734.89,725.0946,716.5191,729.8392,723.0401,739.9128,734.89,725.0946" style="stroke:#000000;stroke-width:1.0;"/></g><!--reverse link PaymentMethod to DigitalWalletPayment--><g id="link_PaymentMethod_DigitalWalletPayment"><path codeLine="104" d="M882,747.7646 C882,770.1046 882,775.9446 882,798.6246 " fill="none" id="PaymentMethod-backto-DigitalWalletPayment" style="stroke:#000000;stroke-width:1.0;"/><polygon fill="none" points="882,729.7646,876,747.7646,888,747.7646,882,729.7646" style="stroke:#000000;stroke-width:1.0;"/></g><!--reverse link PaymentMethod to CashOnDelivery--><g id="link_PaymentMethod_CashOnDelivery"><path codeLine="105" d="M1044.6515,731.3167 C1094.1315,761.5367 1133.91,785.8246 1183.26,815.9646 " fill="none" id="PaymentMethod-backto-CashOnDelivery" style="stroke:#000000;stroke-width:1.0;"/><polygon fill="none" points="1029.29,721.9346,1041.5242,736.4372,1047.7789,726.1962,1029.29,721.9346" style="stroke:#000000;stroke-width:1.0;"/></g><!--reverse link PaymentMethod to BankTransfer--><g id="link_PaymentMethod_BankTransfer"><path codeLine="106" d="M1045.6805,729.5227 C1051.6705,731.9827 1041.02,727.4246 1047,729.4746 C1252.15,799.6346 1329.12,711.4146 1531,790.4746 C1542.93,795.1446 1554.79,800.9046 1566.36,807.3346 " fill="none" id="PaymentMethod-backto-BankTransfer" style="stroke:#000000;stroke-width:1.0;"/><polygon fill="none" points="1029.03,722.6846,1043.4012,735.0729,1047.9599,723.9725,1029.03,722.6846" style="stroke:#000000;stroke-width:1.0;"/></g><!--reverse link Payment to PaymentMethod--><g id="link_Payment_PaymentMethod"><path codeLine="146" d="M1061.0526,463.8458 C1034.5026,488.4758 1014.35,507.1746 987.31,532.2646 " fill="none" id="Payment-backto-PaymentMethod" style="stroke:#000000;stroke-width:1.0;"/><polygon fill="none" points="1069.85,455.6846,1062.7309,456.8327,1061.0526,463.8458,1068.1717,462.6977,1069.85,455.6846" style="stroke:#000000;stroke-width:1.0;"/><polygon fill="#000000" points="1034.3346,497.775,1042.9643,493.7775,1038.9664,489.4686,1034.3346,497.775" style="stroke:#000000;stroke-width:1.0;"/><text fill="#000000" font-family="Verdana" font-size="13" lengthAdjust="spacing" textLength="30" x="1047" y="499.5444">uses</text><text fill="#000000" font-family="Verdana" font-size="13" lengthAdjust="spacing" textLength="8" x="1053.8693" y="476.5679">1</text><text fill="#000000" font-family="Verdana" font-size="13" lengthAdjust="spacing" textLength="8" x="987.3831" y="521.8974">1</text></g><!--reverse link Order to Payment--><g id="link_Order_Payment"><path codeLine="149" d="M1166,210.6746 C1166,233.8146 1166,249.3146 1166,275.1946 " fill="none" id="Order-backto-Payment" style="stroke:#000000;stroke-width:1.0;"/><polygon fill="#000000" points="1166,198.6746,1162,204.6746,1166,210.6746,1170,204.6746,1166,198.6746" style="stroke:#000000;stroke-width:1.0;"/><polygon fill="#000000" points="1171,242.3743,1173.9389,233.3292,1168.0611,233.3292,1171,242.3743" style="stroke:#000000;stroke-width:1.0;"/><text fill="#000000" font-family="Verdana" font-size="13" lengthAdjust="spacing" textLength="48" x="1180" y="242.5444">paid by</text><text fill="#000000" font-family="Verdana" font-size="13" lengthAdjust="spacing" textLength="8" x="1157.5125" y="219.553">1</text><text fill="#000000" font-family="Verdana" font-size="13" lengthAdjust="spacing" textLength="8" x="1157.6563" y="264.8908">1</text></g><!--link Payment to PaymentStatus--><g id="link_Payment_PaymentStatus"><path codeLine="152" d="M1274.58,451.7746 C1304.71,476.8346 1336.86,504.9446 1365,532.4746 C1370.94,538.2846 1372.835,540.0787 1378.745,546.3787 " fill="none" id="Payment-to-PaymentStatus" style="stroke:#000000;stroke-width:1.0;stroke-dasharray:7.0,7.0;"/><polygon fill="#000000" points="1382.85,550.7546,1379.6097,541.454,1379.4291,547.108,1373.7752,546.9274,1382.85,550.7546" style="stroke:#000000;stroke-width:1.0;"/><text fill="#000000" font-family="Verdana" font-size="13" lengthAdjust="spacing" textLength="30" x="1329" y="499.5444">uses</text></g><!--SRC=[pLVVR-Cs37xFNy5r3qlNfRSVBqFG5KYJjXUWbmPjYW73NXIBiONQaYV9INEt_k-Z93kn7L_R0mRS5KMYK1GbVkH7Ij_P13E4F6L2zioZa3dJB0EJCAusGiPWTO6r2QqAoIEb9MhulIQFKcRCo5ejbeN5QQJalVY8y7ElPuLD4IQ2nKxlro7CsJP3QU43saHnU2zGCnqbsxzb_nh9Bal5HsQ5ak-cCa4jB9CH7lTwFy0Vd_kZkT7IMCqYspB_ugeUgnRvurTBouDzwW5y3tbTDkL3k2SVPUpdX1b5Lgnn21TAfSYabqOQcKK-iaEOq60XClHosi8-6EGDyM107v-gSpp32R22Tj84Nfzb1BQpWf78M7fStwQn94gOZhz0N-EAelYY_Wd4Q2TecKXD_xZczGbmPCvhyi5Dh9NWlUVNeZDMac2ns8gEUJay8IfZZLpOCTEyMkmYCu289BCYMwAk7My0-9GBlNKG1w23xdhTK79h4vLor3EMuS7KOfitXKkHfZGUSQxHc26KWog0RutQcqBrnlYiYIUS_FjjSezHeNqmcZjXz1Ymkn6PiFNvvmhR2Ix_RsYNJ3uUWCgYoFbomL97vfrBNnC_Zqzv88VD_aY4BPMTrNO-dVLp8Ij7El4JCTMdz4-MfcYR66wyh54nAk5SgxNWBN2N7TX0dYY9Xv7u5Z5Zd5-H1VEA2If2qgnG1rrDEhaWqFOu_GIVDx33VSnCSYidc5BrrTigQnM16xdESM-PBKoJrWcJCTxXFuNGlWRNKGw16uVro2-stmJOIgw4piOxhtRbri-oD2fI8k7OErRQkYOyPDrWvUOEkGkYvwACGObRISuEmdTocQu0biOTwbLixv0-q2VpruSnS7aKVEmVD3btuQ1kl3jvX2AtjOxtQcjhtbdW3bC_C8d8NsblpUl6sR-3mM6lwr9g5-rEdOx2rBbXWqXT6lM4UKERj_XaOUnI3T_KtPj5isHYgsgs0knbfgHukJumVf-5p3DctwggwrPzjhbBoCzSguWQUscrtvrmXpUbphm93jvglcEQSkEMSrxMwgbMKUn6XruFcjHVEBL-5yiRgC3P6SeYSubENf-V-yFCBsUJwUoQHgE7nVlRk-bVbnFwCRxzCB-vNFZnrMXwumTtbrSFiqcO7yt6bpTE_2enle09T7sFOusnrz-_40hAeTQbl9-5xuX9M285X7JuSPMtSFJB4IXAMlVTN3Y48s_k_AZd4pNBbH5Xkn2XXEtswWM9C_9ZqvWpapF1ORajBKqmHycfsEt80wUdvwq0b9lJ0gde4gn5d5XGg-OHNIYQxn6EAo7z8onnUK4D8Sokb0OYTiKM29YOKzAX_qiM9Qqfo0fZGMHvYauw3ApQbUBZgaEwaXj-L9aUJ2uIOToEQcD0ugQzCMbOvS91Tm3ai14aBMnekI7DyKaOrpJ81uxGloNCterJHR63EJ61BW4fFV48I700bJ0jbRKgSpYrgXJ0VKuPpze8m8RUYmwfIaodZggcxa8MSEJLjO75FijoAjkLR7-6_m00]--></g></svg>