<?xml version="1.0" encoding="us-ascii" standalone="no"?><svg xmlns="http://www.w3.org/2000/svg" xmlns:xlink="http://www.w3.org/1999/xlink" contentStyleType="text/css" height="1408px" preserveAspectRatio="none" style="width:1473px;height:1408px;background:#FFFFFF;" version="1.1" viewBox="0 0 1473 1408" width="1473px" zoomAndPan="magnify"><defs><filter height="300%" id="f1nwe0cihg1j1b" width="300%" x="-1" y="-1"><feGaussianBlur result="blurOut" stdDeviation="2.0"/><feColorMatrix in="blurOut" result="blurOut2" type="matrix" values="0 0 0 0 0 0 0 0 0 0 0 0 0 0 0 0 0 0 .4 0"/><feOffset dx="4.0" dy="4.0" in="blurOut2" result="blurOut3"/><feBlend in="SourceGraphic" in2="blurOut3" mode="normal"/></filter></defs><g><text fill="#000000" font-family="Verdana" font-size="22" font-weight="bold" lengthAdjust="spacing" textLength="489" x="485.5" y="37.1182">Diagram 3: Restaurant-Menu Structure</text><text fill="#000000" font-family="Verdana" font-size="22" font-weight="bold" lengthAdjust="spacing" textLength="392" x="534" y="63.8555">(Composition and Aggregation)</text><!--class Restaurant--><g id="elem_Restaurant"><rect codeLine="13" fill="#FFFFFF" filter="url(#f1nwe0cihg1j1b)" height="248.1758" id="Restaurant" rx="4" ry="4" style="stroke:#000000;stroke-width:1.0;" width="507" x="629" y="292.4746"/><ellipse cx="839.75" cy="306.4746" fill="#FFFFFF" rx="9" ry="9" style="stroke:#000000;stroke-width:1.0;"/><path d="M842.5156,308.0059 L844.9063,308.7559 Q844.3594,310.7402 843.0781,311.709 Q841.8125,312.6777 839.8438,312.6777 Q837.4219,312.6777 835.8594,311.0215 Q834.3125,309.3652 834.3125,306.4902 Q834.3125,303.459 835.875,301.7871 Q837.4375,300.0996 840,300.0996 Q842.2344,300.0996 843.625,301.4121 Q844.4531,302.1934 844.875,303.6621 L842.4375,304.2402 Q842.2188,303.2871 841.5313,302.7402 Q840.8594,302.1934 839.875,302.1934 Q838.5156,302.1934 837.6719,303.1777 Q836.8438,304.1465 836.8438,306.3184 Q836.8438,308.6152 837.6719,309.5996 Q838.5,310.584 839.8281,310.584 Q840.8125,310.584 841.5156,309.959 Q842.2188,309.334 842.5156,308.0059 Z " fill="#000000"/><text fill="#000000" font-family="Verdana" font-size="14" lengthAdjust="spacing" textLength="78" x="857.25" y="312.0425">Restaurant</text><line style="stroke:#000000;stroke-width:1.0;" x1="630" x2="1135" y1="320.4746" y2="320.4746"/><text fill="#000000" font-family="Verdana" font-size="14" lengthAdjust="spacing" textLength="149" x="635" y="338.5498">-restaurantId: String</text><text fill="#000000" font-family="Verdana" font-size="14" lengthAdjust="spacing" textLength="99" x="635" y="355.5645">-name: String</text><text fill="#000000" font-family="Verdana" font-size="14" lengthAdjust="spacing" textLength="122" x="635" y="372.5791">-isOpen: Boolean</text><text fill="#000000" font-family="Verdana" font-size="14" lengthAdjust="spacing" textLength="142" x="635" y="389.5938">-cuisineType: String</text><text fill="#000000" font-family="Verdana" font-size="14" lengthAdjust="spacing" textLength="112" x="635" y="406.6084">-rating: Decimal</text><text fill="#000000" font-family="Verdana" font-size="14" lengthAdjust="spacing" textLength="170" x="635" y="423.623">-operatingHours: String</text><line style="stroke:#000000;stroke-width:1.0;" x1="630" x2="1135" y1="430.5625" y2="430.5625"/><text fill="#000000" font-family="Verdana" font-size="14" lengthAdjust="spacing" textLength="240" x="635" y="448.6377">+receiveOrder(order: Order): void</text><text fill="#000000" font-family="Verdana" font-size="14" lengthAdjust="spacing" textLength="281" x="635" y="465.6523">+acceptOrder(orderId: String): Boolean</text><text fill="#000000" font-family="Verdana" font-size="14" lengthAdjust="spacing" textLength="276" x="635" y="482.667">+rejectOrder(orderId: String): Boolean</text><text fill="#000000" font-family="Verdana" font-size="14" lengthAdjust="spacing" textLength="495" x="635" y="499.6816">+updateMenuAvailability(menuItemId: String, available: Boolean): void</text><text fill="#000000" font-family="Verdana" font-size="14" lengthAdjust="spacing" textLength="176" x="635" y="516.6963">+openRestaurant(): void</text><text fill="#000000" font-family="Verdana" font-size="14" lengthAdjust="spacing" textLength="176" x="635" y="533.7109">+closeRestaurant(): void</text></g><!--class Menu--><g id="elem_Menu"><rect codeLine="29" fill="#FFFFFF" filter="url(#f1nwe0cihg1j1b)" height="231.1611" id="Menu" rx="4" ry="4" style="stroke:#000000;stroke-width:1.0;" width="298" x="216.5" y="617.4746"/><ellipse cx="343.25" cy="631.4746" fill="#FFFFFF" rx="9" ry="9" style="stroke:#000000;stroke-width:1.0;"/><path d="M346.0156,633.0059 L348.4063,633.7559 Q347.8594,635.7402 346.5781,636.709 Q345.3125,637.6777 343.3438,637.6777 Q340.9219,637.6777 339.3594,636.0215 Q337.8125,634.3652 337.8125,631.4902 Q337.8125,628.459 339.375,626.7871 Q340.9375,625.0996 343.5,625.0996 Q345.7344,625.0996 347.125,626.4121 Q347.9531,627.1934 348.375,628.6621 L345.9375,629.2402 Q345.7188,628.2871 345.0313,627.7402 Q344.3594,627.1934 343.375,627.1934 Q342.0156,627.1934 341.1719,628.1777 Q340.3438,629.1465 340.3438,631.3184 Q340.3438,633.6152 341.1719,634.5996 Q342,635.584 343.3281,635.584 Q344.3125,635.584 345.0156,634.959 Q345.7188,634.334 346.0156,633.0059 Z " fill="#000000"/><text fill="#000000" font-family="Verdana" font-size="14" lengthAdjust="spacing" textLength="37" x="360.75" y="637.0425">Menu</text><line style="stroke:#000000;stroke-width:1.0;" x1="217.5" x2="513.5" y1="645.4746" y2="645.4746"/><text fill="#000000" font-family="Verdana" font-size="14" lengthAdjust="spacing" textLength="114" x="222.5" y="663.5498">-menuId: String</text><text fill="#000000" font-family="Verdana" font-size="14" lengthAdjust="spacing" textLength="99" x="222.5" y="680.5645">-name: String</text><text fill="#000000" font-family="Verdana" font-size="14" lengthAdjust="spacing" textLength="180" x="222.5" y="697.5791">-category: MenuCategory</text><text fill="#000000" font-family="Verdana" font-size="14" lengthAdjust="spacing" textLength="127" x="222.5" y="714.5938">-isActive: Boolean</text><text fill="#000000" font-family="Verdana" font-size="14" lengthAdjust="spacing" textLength="142" x="222.5" y="731.6084">-effectiveDate: Date</text><text fill="#000000" font-family="Verdana" font-size="14" lengthAdjust="spacing" textLength="127" x="222.5" y="748.623">-expiryDate: Date</text><line style="stroke:#000000;stroke-width:1.0;" x1="217.5" x2="513.5" y1="755.5625" y2="755.5625"/><text fill="#000000" font-family="Verdana" font-size="14" lengthAdjust="spacing" textLength="231" x="222.5" y="773.6377">+addItem(item: MenuItem): void</text><text fill="#000000" font-family="Verdana" font-size="14" lengthAdjust="spacing" textLength="286" x="222.5" y="790.6523">+removeItem(menuItemId: String): void</text><text fill="#000000" font-family="Verdana" font-size="14" lengthAdjust="spacing" textLength="273" x="222.5" y="807.667">+getAvailableItems(): List&lt;MenuItem&gt;</text><text fill="#000000" font-family="Verdana" font-size="14" lengthAdjust="spacing" textLength="154" x="222.5" y="824.6816">+activateMenu(): void</text><text fill="#000000" font-family="Verdana" font-size="14" lengthAdjust="spacing" textLength="171" x="222.5" y="841.6963">+deactivateMenu(): void</text></g><!--class MenuItem--><g id="elem_MenuItem"><rect codeLine="44" fill="#FFFFFF" filter="url(#f1nwe0cihg1j1b)" height="231.1611" id="MenuItem" rx="4" ry="4" style="stroke:#000000;stroke-width:1.0;" width="316" x="78.5" y="925.4746"/><ellipse cx="198.25" cy="939.4746" fill="#FFFFFF" rx="9" ry="9" style="stroke:#000000;stroke-width:1.0;"/><path d="M201.0156,941.0059 L203.4063,941.7559 Q202.8594,943.7402 201.5781,944.709 Q200.3125,945.6777 198.3438,945.6777 Q195.9219,945.6777 194.3594,944.0215 Q192.8125,942.3652 192.8125,939.4902 Q192.8125,936.459 194.375,934.7871 Q195.9375,933.0996 198.5,933.0996 Q200.7344,933.0996 202.125,934.4121 Q202.9531,935.1934 203.375,936.6621 L200.9375,937.2402 Q200.7188,936.2871 200.0313,935.7402 Q199.3594,935.1934 198.375,935.1934 Q197.0156,935.1934 196.1719,936.1777 Q195.3438,937.1465 195.3438,939.3184 Q195.3438,941.6152 196.1719,942.5996 Q197,943.584 198.3281,943.584 Q199.3125,943.584 200.0156,942.959 Q200.7188,942.334 201.0156,941.0059 Z " fill="#000000"/><text fill="#000000" font-family="Verdana" font-size="14" lengthAdjust="spacing" textLength="69" x="215.75" y="945.0425">MenuItem</text><line style="stroke:#000000;stroke-width:1.0;" x1="79.5" x2="393.5" y1="953.4746" y2="953.4746"/><text fill="#000000" font-family="Verdana" font-size="14" lengthAdjust="spacing" textLength="146" x="84.5" y="971.5498">-menuItemId: String</text><text fill="#000000" font-family="Verdana" font-size="14" lengthAdjust="spacing" textLength="99" x="84.5" y="988.5645">-name: String</text><text fill="#000000" font-family="Verdana" font-size="14" lengthAdjust="spacing" textLength="138" x="84.5" y="1005.5791">-description: String</text><text fill="#000000" font-family="Verdana" font-size="14" lengthAdjust="spacing" textLength="104" x="84.5" y="1022.5938">-price: Decimal</text><text fill="#000000" font-family="Verdana" font-size="14" lengthAdjust="spacing" textLength="145" x="84.5" y="1039.6084">-isAvailable: Boolean</text><text fill="#000000" font-family="Verdana" font-size="14" lengthAdjust="spacing" textLength="183" x="84.5" y="1056.623">-preparationTime: Integer</text><text fill="#000000" font-family="Verdana" font-size="14" lengthAdjust="spacing" textLength="121" x="84.5" y="1073.6377">-calories: Integer</text><text fill="#000000" font-family="Verdana" font-size="14" lengthAdjust="spacing" textLength="121" x="84.5" y="1090.6523">-imageUrl: String</text><line style="stroke:#000000;stroke-width:1.0;" x1="79.5" x2="393.5" y1="1097.5918" y2="1097.5918"/><text fill="#000000" font-family="Verdana" font-size="14" lengthAdjust="spacing" textLength="268" x="84.5" y="1115.667">+updatePrice(newPrice: Decimal): void</text><text fill="#000000" font-family="Verdana" font-size="14" lengthAdjust="spacing" textLength="179" x="84.5" y="1132.6816">+toggleAvailability(): void</text><text fill="#000000" font-family="Verdana" font-size="14" lengthAdjust="spacing" textLength="304" x="84.5" y="1149.6963">+applyDiscount(percentage: Decimal): void</text></g><!--class RestaurantManager--><g id="elem_RestaurantManager"><rect codeLine="59" fill="#FFFFFF" filter="url(#f1nwe0cihg1j1b)" height="129.0732" id="RestaurantManager" rx="4" ry="4" style="stroke:#000000;stroke-width:1.0;" width="291" x="737" y="86.4746"/><ellipse cx="810.25" cy="100.4746" fill="#FFFFFF" rx="9" ry="9" style="stroke:#000000;stroke-width:1.0;"/><path d="M813.0156,102.0059 L815.4063,102.7559 Q814.8594,104.7402 813.5781,105.709 Q812.3125,106.6777 810.3438,106.6777 Q807.9219,106.6777 806.3594,105.0215 Q804.8125,103.3652 804.8125,100.4902 Q804.8125,97.459 806.375,95.7871 Q807.9375,94.0996 810.5,94.0996 Q812.7344,94.0996 814.125,95.4121 Q814.9531,96.1934 815.375,97.6621 L812.9375,98.2402 Q812.7188,97.2871 812.0313,96.7402 Q811.3594,96.1934 810.375,96.1934 Q809.0156,96.1934 808.1719,97.1777 Q807.3438,98.1465 807.3438,100.3184 Q807.3438,102.6152 808.1719,103.5996 Q809,104.584 810.3281,104.584 Q811.3125,104.584 812.0156,103.959 Q812.7188,103.334 813.0156,102.0059 Z " fill="#000000"/><text fill="#000000" font-family="Verdana" font-size="14" lengthAdjust="spacing" textLength="137" x="827.75" y="106.0425">RestaurantManager</text><line style="stroke:#000000;stroke-width:1.0;" x1="738" x2="1027" y1="114.4746" y2="114.4746"/><text fill="#000000" font-family="Verdana" font-size="14" lengthAdjust="spacing" textLength="136" x="743" y="132.5498">-managerId: String</text><text fill="#000000" font-family="Verdana" font-size="14" lengthAdjust="spacing" textLength="99" x="743" y="149.5645">-name: String</text><text fill="#000000" font-family="Verdana" font-size="14" lengthAdjust="spacing" textLength="192" x="743" y="166.5791">-permissions: List&lt;String&gt;</text><line style="stroke:#000000;stroke-width:1.0;" x1="738" x2="1027" y1="173.5186" y2="173.5186"/><text fill="#000000" font-family="Verdana" font-size="14" lengthAdjust="spacing" textLength="155" x="743" y="191.5938">+manageMenu(): void</text><text fill="#000000" font-family="Verdana" font-size="14" lengthAdjust="spacing" textLength="279" x="743" y="208.6084">+updateMenuItem(itemId: String): void</text></g><!--class Address--><g id="elem_Address"><rect codeLine="68" fill="#FFFFFF" filter="url(#f1nwe0cihg1j1b)" height="214.1465" id="Address" rx="4" ry="4" style="stroke:#000000;stroke-width:1.0;" width="325" x="720" y="625.9746"/><ellipse cx="849.75" cy="639.9746" fill="#FFFFFF" rx="9" ry="9" style="stroke:#000000;stroke-width:1.0;"/><path d="M852.5156,641.5059 L854.9063,642.2559 Q854.3594,644.2402 853.0781,645.209 Q851.8125,646.1777 849.8438,646.1777 Q847.4219,646.1777 845.8594,644.5215 Q844.3125,642.8652 844.3125,639.9902 Q844.3125,636.959 845.875,635.2871 Q847.4375,633.5996 850,633.5996 Q852.2344,633.5996 853.625,634.9121 Q854.4531,635.6934 854.875,637.1621 L852.4375,637.7402 Q852.2188,636.7871 851.5313,636.2402 Q850.8594,635.6934 849.875,635.6934 Q848.5156,635.6934 847.6719,636.6777 Q846.8438,637.6465 846.8438,639.8184 Q846.8438,642.1152 847.6719,643.0996 Q848.5,644.084 849.8281,644.084 Q850.8125,644.084 851.5156,643.459 Q852.2188,642.834 852.5156,641.5059 Z " fill="#000000"/><text fill="#000000" font-family="Verdana" font-size="14" lengthAdjust="spacing" textLength="58" x="867.25" y="645.5425">Address</text><line style="stroke:#000000;stroke-width:1.0;" x1="721" x2="1044" y1="653.9746" y2="653.9746"/><text fill="#000000" font-family="Verdana" font-size="14" lengthAdjust="spacing" textLength="103" x="726" y="672.0498">-street: String</text><text fill="#000000" font-family="Verdana" font-size="14" lengthAdjust="spacing" textLength="85" x="726" y="689.0645">-city: String</text><text fill="#000000" font-family="Verdana" font-size="14" lengthAdjust="spacing" textLength="97" x="726" y="706.0791">-state: String</text><text fill="#000000" font-family="Verdana" font-size="14" lengthAdjust="spacing" textLength="140" x="726" y="723.0938">-postalCode: String</text><text fill="#000000" font-family="Verdana" font-size="14" lengthAdjust="spacing" textLength="115" x="726" y="740.1084">-country: String</text><text fill="#000000" font-family="Verdana" font-size="14" lengthAdjust="spacing" textLength="123" x="726" y="757.123">-latitude: Decimal</text><text fill="#000000" font-family="Verdana" font-size="14" lengthAdjust="spacing" textLength="136" x="726" y="774.1377">-longitude: Decimal</text><line style="stroke:#000000;stroke-width:1.0;" x1="721" x2="1044" y1="781.0771" y2="781.0771"/><text fill="#000000" font-family="Verdana" font-size="14" lengthAdjust="spacing" textLength="181" x="726" y="799.1523">+getFullAddress(): String</text><text fill="#000000" font-family="Verdana" font-size="14" lengthAdjust="spacing" textLength="143" x="726" y="816.167">+validate(): Boolean</text><text fill="#000000" font-family="Verdana" font-size="14" lengthAdjust="spacing" textLength="313" x="726" y="833.1816">+calculateDistance(other: Address): Decimal</text></g><!--class Ingredient--><g id="elem_Ingredient"><rect codeLine="82" fill="#FFFFFF" filter="url(#f1nwe0cihg1j1b)" height="163.1025" id="Ingredient" rx="4" ry="4" style="stroke:#000000;stroke-width:1.0;" width="181" x="12" y="1233.4746"/><ellipse cx="62.75" cy="1247.4746" fill="#FFFFFF" rx="9" ry="9" style="stroke:#000000;stroke-width:1.0;"/><path d="M65.5156,1249.0059 L67.9063,1249.7559 Q67.3594,1251.7402 66.0781,1252.709 Q64.8125,1253.6777 62.8438,1253.6777 Q60.4219,1253.6777 58.8594,1252.0215 Q57.3125,1250.3652 57.3125,1247.4902 Q57.3125,1244.459 58.875,1242.7871 Q60.4375,1241.0996 63,1241.0996 Q65.2344,1241.0996 66.625,1242.4121 Q67.4531,1243.1934 67.875,1244.6621 L65.4375,1245.2402 Q65.2188,1244.2871 64.5313,1243.7402 Q63.8594,1243.1934 62.875,1243.1934 Q61.5156,1243.1934 60.6719,1244.1777 Q59.8438,1245.1465 59.8438,1247.3184 Q59.8438,1249.6152 60.6719,1250.5996 Q61.5,1251.584 62.8281,1251.584 Q63.8125,1251.584 64.5156,1250.959 Q65.2188,1250.334 65.5156,1249.0059 Z " fill="#000000"/><text fill="#000000" font-family="Verdana" font-size="14" lengthAdjust="spacing" textLength="72" x="80.25" y="1253.0425">Ingredient</text><line style="stroke:#000000;stroke-width:1.0;" x1="13" x2="192" y1="1261.4746" y2="1261.4746"/><text fill="#000000" font-family="Verdana" font-size="14" lengthAdjust="spacing" textLength="145" x="18" y="1279.5498">-ingredientId: String</text><text fill="#000000" font-family="Verdana" font-size="14" lengthAdjust="spacing" textLength="99" x="18" y="1296.5645">-name: String</text><text fill="#000000" font-family="Verdana" font-size="14" lengthAdjust="spacing" textLength="129" x="18" y="1313.5791">-quantity: Decimal</text><text fill="#000000" font-family="Verdana" font-size="14" lengthAdjust="spacing" textLength="88" x="18" y="1330.5938">-unit: String</text><text fill="#000000" font-family="Verdana" font-size="14" lengthAdjust="spacing" textLength="116" x="18" y="1347.6084">-supplier: String</text><line style="stroke:#000000;stroke-width:1.0;" x1="13" x2="192" y1="1354.5479" y2="1354.5479"/><text fill="#000000" font-family="Verdana" font-size="14" lengthAdjust="spacing" textLength="169" x="18" y="1372.623">+checkStock(): Boolean</text><text fill="#000000" font-family="Verdana" font-size="14" lengthAdjust="spacing" textLength="115" x="18" y="1389.6377">+reorder(): void</text></g><!--class MenuCategory--><g id="elem_MenuCategory"><rect codeLine="93" fill="#FFFFFF" filter="url(#f1nwe0cihg1j1b)" height="159.6865" id="MenuCategory" rx="4" ry="4" style="stroke:#000000;stroke-width:1.0;" width="129" x="430" y="960.9746"/><ellipse cx="443" cy="981.7739" fill="#FFFFFF" rx="9" ry="9" style="stroke:#000000;stroke-width:1.0;"/><path d="M445.7656,983.3052 L448.1563,984.0552 Q447.6094,986.0396 446.3281,987.0083 Q445.0625,987.9771 443.0938,987.9771 Q440.6719,987.9771 439.1094,986.3208 Q437.5625,984.6646 437.5625,981.7896 Q437.5625,978.7583 439.125,977.0864 Q440.6875,975.3989 443.25,975.3989 Q445.4844,975.3989 446.875,976.7114 Q447.7031,977.4927 448.125,978.9614 L445.6875,979.5396 Q445.4688,978.5864 444.7813,978.0396 Q444.1094,977.4927 443.125,977.4927 Q441.7656,977.4927 440.9219,978.4771 Q440.0938,979.4458 440.0938,981.6177 Q440.0938,983.9146 440.9219,984.8989 Q441.75,985.8833 443.0781,985.8833 Q444.0625,985.8833 444.7656,985.2583 Q445.4688,984.6333 445.7656,983.3052 Z " fill="#000000"/><text fill="#000000" font-family="Verdana" font-size="12" font-style="italic" lengthAdjust="spacing" textLength="93" x="459" y="978.0391">&#171;enumeration&#187;</text><text fill="#000000" font-family="Verdana" font-size="14" lengthAdjust="spacing" textLength="101" x="455" y="994.6338">MenuCategory</text><line style="stroke:#000000;stroke-width:1.0;" x1="431" x2="558" y1="1002.5732" y2="1002.5732"/><text fill="#000000" font-family="Verdana" font-size="14" lengthAdjust="spacing" textLength="88" x="436" y="1020.6484">APPETIZERS</text><text fill="#000000" font-family="Verdana" font-size="14" lengthAdjust="spacing" textLength="46" x="436" y="1037.6631">MAINS</text><text fill="#000000" font-family="Verdana" font-size="14" lengthAdjust="spacing" textLength="78" x="436" y="1054.6777">DESSERTS</text><text fill="#000000" font-family="Verdana" font-size="14" lengthAdjust="spacing" textLength="88" x="436" y="1071.6924">BEVERAGES</text><text fill="#000000" font-family="Verdana" font-size="14" lengthAdjust="spacing" textLength="45" x="436" y="1088.707">SIDES</text><text fill="#000000" font-family="Verdana" font-size="14" lengthAdjust="spacing" textLength="70" x="436" y="1105.7217">SPECIALS</text><line style="stroke:#000000;stroke-width:1.0;" x1="431" x2="558" y1="1112.6611" y2="1112.6611"/></g><g id="elem_GMN15"><path d="M1171,375.9746 L1171,412.4746 L1136.37,416.4746 L1171,420.4746 L1171,456.9712 A4,4 0 0 0 1175,460.9712 L1458,460.9712 A4,4 0 0 0 1462,456.9712 L1462,381.9746 L1452,371.9746 L1175,371.9746 A4,4 0 0 0 1171,375.9746 " fill="#FFFFFF" filter="url(#f1nwe0cihg1j1b)" style="stroke:#000000;stroke-width:1.0;"/><path d="M1452,371.9746 L1452,379.9746 A2,2 0 0 0 1454,381.9746 L1462,381.9746 L1452,371.9746 " fill="#FFFFFF" style="stroke:#000000;stroke-width:1.0;"/><text fill="#000000" font-family="Verdana" font-size="13" font-weight="bold" lengthAdjust="spacing" textLength="103" x="1177" y="390.0444">COMPOSITION</text><text fill="#000000" font-family="Verdana" font-size="13" lengthAdjust="spacing" textLength="74" x="1285" y="390.0444">with Menu:</text><text fill="#000000" font-family="Verdana" font-size="13" lengthAdjust="spacing" textLength="177" x="1177" y="405.8438">- Restaurant OWNS menus</text><text fill="#000000" font-family="Verdana" font-size="13" lengthAdjust="spacing" textLength="270" x="1177" y="421.6431">- Menus cannot exist without restaurant</text><text fill="#000000" font-family="Verdana" font-size="13" lengthAdjust="spacing" textLength="258" x="1177" y="437.4424">- Deleting restaurant deletes all menus</text><text fill="#000000" font-family="Verdana" font-size="13" lengthAdjust="spacing" textLength="200" x="1177" y="453.2417">- Strong lifecycle dependency</text></g><g id="elem_GMN18"><path d="M347,367.9746 L347,464.7705 A4,4 0 0 0 351,468.7705 L590,468.7705 A4,4 0 0 0 594,464.7705 L594,420.4746 L628.95,416.4746 L594,412.4746 L594,373.9746 L584,363.9746 L351,363.9746 A4,4 0 0 0 347,367.9746 " fill="#FFFFFF" filter="url(#f1nwe0cihg1j1b)" style="stroke:#000000;stroke-width:1.0;"/><path d="M584,363.9746 L584,371.9746 A2,2 0 0 0 586,373.9746 L594,373.9746 L584,363.9746 " fill="#FFFFFF" style="stroke:#000000;stroke-width:1.0;"/><text fill="#000000" font-family="Verdana" font-size="13" font-weight="bold" lengthAdjust="spacing" textLength="103" x="353" y="382.0444">AGGREGATION</text><text fill="#000000" font-family="Verdana" font-size="13" lengthAdjust="spacing" textLength="91" x="461" y="382.0444">with Address:</text><text fill="#000000" font-family="Verdana" font-size="13" lengthAdjust="spacing" textLength="193" x="353" y="397.8438">- Restaurant HAS an address</text><text fill="#000000" font-family="Verdana" font-size="13" lengthAdjust="spacing" textLength="226" x="353" y="413.6431">- Address can exist independently</text><text fill="#000000" font-family="Verdana" font-size="13" lengthAdjust="spacing" textLength="213" x="353" y="429.4424">- Multiple restaurants can share</text><text fill="#000000" font-family="Verdana" font-size="13" lengthAdjust="spacing" textLength="195" x="363" y="445.2417">an address (mall food courts)</text><text fill="#000000" font-family="Verdana" font-size="13" lengthAdjust="spacing" textLength="192" x="353" y="461.041">- Weak lifecycle dependency</text></g><g id="elem_GMN21"><path d="M228.5,1266.4746 L228.5,1363.2705 A4,4 0 0 0 232.5,1367.2705 L510.5,1367.2705 A4,4 0 0 0 514.5,1363.2705 L514.5,1272.4746 L504.5,1262.4746 L349.92,1262.4746 L293.36,1156.5346 L341.92,1262.4746 L232.5,1262.4746 A4,4 0 0 0 228.5,1266.4746 " fill="#FFFFFF" filter="url(#f1nwe0cihg1j1b)" style="stroke:#000000;stroke-width:1.0;"/><path d="M504.5,1262.4746 L504.5,1270.4746 A2,2 0 0 0 506.5,1272.4746 L514.5,1272.4746 L504.5,1262.4746 " fill="#FFFFFF" style="stroke:#000000;stroke-width:1.0;"/><text fill="#000000" font-family="Verdana" font-size="13" font-weight="bold" lengthAdjust="spacing" textLength="103" x="234.5" y="1280.5444">AGGREGATION</text><text fill="#000000" font-family="Verdana" font-size="13" lengthAdjust="spacing" textLength="106" x="342.5" y="1280.5444">with Ingredient:</text><text fill="#000000" font-family="Verdana" font-size="13" lengthAdjust="spacing" textLength="194" x="234.5" y="1296.3438">- MenuItem USES ingredients</text><text fill="#000000" font-family="Verdana" font-size="13" lengthAdjust="spacing" textLength="230" x="234.5" y="1312.1431">- Ingredients are shared resources</text><text fill="#000000" font-family="Verdana" font-size="13" lengthAdjust="spacing" textLength="265" x="234.5" y="1327.9424">- Same ingredient used in multiple items</text><text fill="#000000" font-family="Verdana" font-size="13" lengthAdjust="spacing" textLength="205" x="234.5" y="1343.7417">- Ingredients exist in inventory</text><text fill="#000000" font-family="Verdana" font-size="13" lengthAdjust="spacing" textLength="190" x="244.5" y="1359.541">independently of menu items</text></g><g id="elem_GMN24"><path d="M79,367.9746 L79,464.7705 A4,4 0 0 0 83,468.7705 L219.38,468.7705 L303.55,617.3646 L227.38,468.7705 L308,468.7705 A4,4 0 0 0 312,464.7705 L312,373.9746 L302,363.9746 L83,363.9746 A4,4 0 0 0 79,367.9746 " fill="#FFFFFF" filter="url(#f1nwe0cihg1j1b)" style="stroke:#000000;stroke-width:1.0;"/><path d="M302,363.9746 L302,371.9746 A2,2 0 0 0 304,373.9746 L312,373.9746 L302,363.9746 " fill="#FFFFFF" style="stroke:#000000;stroke-width:1.0;"/><text fill="#000000" font-family="Verdana" font-size="13" font-weight="bold" lengthAdjust="spacing" textLength="103" x="85" y="382.0444">COMPOSITION</text><text fill="#000000" font-family="Verdana" font-size="13" lengthAdjust="spacing" textLength="104" x="193" y="382.0444">with MenuItem:</text><text fill="#000000" font-family="Verdana" font-size="13" lengthAdjust="spacing" textLength="161" x="85" y="397.8438">- Menu CONTAINS items</text><text fill="#000000" font-family="Verdana" font-size="13" lengthAdjust="spacing" textLength="211" x="85" y="413.6431">- Items belong to specific menu</text><text fill="#000000" font-family="Verdana" font-size="13" lengthAdjust="spacing" textLength="181" x="85" y="429.4424">- Removing item from menu</text><text fill="#000000" font-family="Verdana" font-size="13" lengthAdjust="spacing" textLength="198" x="95" y="445.2417">doesn't delete the item entity</text><text fill="#000000" font-family="Verdana" font-size="13" lengthAdjust="spacing" textLength="189" x="95" y="461.041">(it can be in multiple menus)</text></g><!--reverse link Restaurant to Menu--><g id="link_Restaurant_Menu"><path codeLine="108" d="M669.7681,546.8814 C614.7181,580.3714 566.35,609.7946 514.83,641.1346 " fill="none" id="Restaurant-backto-Menu" style="stroke:#000000;stroke-width:1.0;"/><polygon fill="#000000" points="680.02,540.6446,672.8151,540.3457,669.7681,546.8814,676.973,547.1803,680.02,540.6446" style="stroke:#000000;stroke-width:1.0;"/><polygon fill="#000000" points="624.2283,581.9729,633.4833,579.7828,630.4285,574.7611,624.2283,581.9729" style="stroke:#000000;stroke-width:1.0;"/><text fill="#000000" font-family="Verdana" font-size="13" lengthAdjust="spacing" textLength="34" x="637.5" y="584.5444">owns</text><text fill="#000000" font-family="Verdana" font-size="13" lengthAdjust="spacing" textLength="8" x="659.4376" y="561.7571">1</text><text fill="#000000" font-family="Verdana" font-size="13" lengthAdjust="spacing" textLength="27" x="522.7171" y="634.4081">1..*</text></g><!--reverse link Menu to MenuItem--><g id="link_Menu_MenuItem"><path codeLine="112" d="M312.4376,859.8418 C301.8876,884.8618 295.39,900.2746 284.85,925.2846 " fill="none" id="Menu-backto-MenuItem" style="stroke:#000000;stroke-width:1.0;"/><polygon fill="#000000" points="317.1,848.7846,311.0831,852.7591,312.4376,859.8418,318.4545,855.8674,317.1,848.7846" style="stroke:#000000;stroke-width:1.0;"/><polygon fill="#000000" points="304.5578,891.9816,310.7794,884.7885,305.3632,882.5052,304.5578,891.9816" style="stroke:#000000;stroke-width:1.0;"/><text fill="#000000" font-family="Verdana" font-size="13" lengthAdjust="spacing" textLength="56" x="315.5" y="892.5444">contains</text><text fill="#000000" font-family="Verdana" font-size="13" lengthAdjust="spacing" textLength="8" x="305.7431" y="869.7744">1</text><text fill="#000000" font-family="Verdana" font-size="13" lengthAdjust="spacing" textLength="27" x="260.3004" y="914.7151">0..*</text></g><!--reverse link Restaurant to Address--><g id="link_Restaurant_Address"><path codeLine="116" d="M882.5,552.8746 C882.5,580.9246 882.5,598.4846 882.5,625.7446 " fill="none" id="Restaurant-backto-Address" style="stroke:#000000;stroke-width:1.0;"/><polygon fill="none" points="882.5,540.8746,878.5,546.8746,882.5,552.8746,886.5,546.8746,882.5,540.8746" style="stroke:#000000;stroke-width:1.0;"/><polygon fill="#000000" points="887.5,584.3743,890.4389,575.3292,884.5611,575.3292,887.5,584.3743" style="stroke:#000000;stroke-width:1.0;"/><text fill="#000000" font-family="Verdana" font-size="13" lengthAdjust="spacing" textLength="68" x="896.5" y="584.5444">located at</text><text fill="#000000" font-family="Verdana" font-size="13" lengthAdjust="spacing" textLength="8" x="874.2688" y="561.5879">1</text><text fill="#000000" font-family="Verdana" font-size="13" lengthAdjust="spacing" textLength="8" x="874.2063" y="615.4129">1</text></g><!--reverse link MenuItem to Ingredient--><g id="link_MenuItem_Ingredient"><path codeLine="120" d="M174.7585,1167.3 C162.0285,1193.15 154.08,1209.2846 142.2,1233.3846 " fill="none" id="MenuItem-backto-Ingredient" style="stroke:#000000;stroke-width:1.0;"/><polygon fill="none" points="180.06,1156.5346,173.8208,1160.1502,174.7585,1167.3,180.9977,1163.6845,180.06,1156.5346" style="stroke:#000000;stroke-width:1.0;"/><polygon fill="#000000" points="168.7098,1190.8891,162.0759,1197.704,167.3486,1200.3017,168.7098,1190.8891" style="stroke:#000000;stroke-width:1.0;"/><text fill="#000000" font-family="Verdana" font-size="13" lengthAdjust="spacing" textLength="30" x="175.5" y="1200.5444">uses</text><text fill="#000000" font-family="Verdana" font-size="13" lengthAdjust="spacing" textLength="27" x="148.3609" y="1177.894">1..*</text><text fill="#000000" font-family="Verdana" font-size="13" lengthAdjust="spacing" textLength="27" x="117.7791" y="1222.7189">1..*</text></g><!--link RestaurantManager to Restaurant--><g id="link_RestaurantManager_Restaurant"><path codeLine="123" d="M882.5,215.7646 C882.5,238.9146 882.5,265.9146 882.5,292.4546 " fill="none" id="RestaurantManager-Restaurant" style="stroke:#000000;stroke-width:1.0;"/><polygon fill="#000000" points="887.5,259.3743,890.4389,250.3292,884.5611,250.3292,887.5,259.3743" style="stroke:#000000;stroke-width:1.0;"/><text fill="#000000" font-family="Verdana" font-size="13" lengthAdjust="spacing" textLength="58" x="896.5" y="259.5444">manages</text><text fill="#000000" font-family="Verdana" font-size="13" lengthAdjust="spacing" textLength="27" x="854.0234" y="236.7809">1..*</text><text fill="#000000" font-family="Verdana" font-size="13" lengthAdjust="spacing" textLength="8" x="874.2313" y="281.7089">1</text></g><!--link Menu to MenuCategory--><g id="link_Menu_MenuCategory"><path codeLine="126" d="M413.9,848.7846 C429.63,886.0946 444.3892,921.1158 458.7692,955.2258 " fill="none" id="Menu-to-MenuCategory" style="stroke:#000000;stroke-width:1.0;stroke-dasharray:7.0,7.0;"/><polygon fill="#000000" points="461.1,960.7546,461.2896,950.9076,459.1577,956.1473,453.9179,954.0153,461.1,960.7546" style="stroke:#000000;stroke-width:1.0;"/><text fill="#000000" font-family="Verdana" font-size="13" lengthAdjust="spacing" textLength="30" x="430.5" y="892.5444">uses</text></g><!--SRC=[ZLPHRnit37xthz3oKYTjWWvxAOmiW6jxgO4cDdBfYWrxKNIqhKMMRf8kgJVqlu-KT7SwssqQ17SMnQC-aXz9_UGti0LMAIxrm3rANN7BjynjU6cUfLupRsl8DgofTIcCrM3Pkqmk57TkxBsL3xM7kJ2waFy2UpiOUEaLiAdaQzBxPSJkm7bUMwxz-GtecXLuXF2rXR_qS6AsbN7IIwCProKRhzSMrfpMfuF1A_Rhj_vmxmPTO1F20UwxgeC0DiF1_XimTiviAvYN8uA5_eSDpRVG4qYtg42Fs7jZ570TPAAMJcgutrLzNOlezNh4fY3abgiWCnL4yGTJMvUhd-FZDI8H89zWOKkmGqFF4GkBqn5xCh8CIbm8g7ocqw4-pQ6HkRz1_91cNPNS0wLb_CIbuWzIIRyRRb4mzx3jldl3U5HGq5h8mQ67kWlmCDyIoZWuilUrIKnWHKn9EFY5P0X4l3PsDmeVJj8gvMaiF0QodobOhI28fwYBYS5db7-ffDtrXJ4Vl2p9_Q74Hpo6bhbJ5hRc2OBIOR1onJNuSHCvqdBa_qVf_6LZzYfb5n6cNFJ2LyBHhLxqo4mUmHwQur4imGahAwgqdhooKa2VlHZLWzmdNQ1kG3Rk9TcVQqm6s9GcPQm4rvUYqJLyikgm1Y8LbtJyKCFpieSZ3uWtwxM27bzxPL9LQZULJc3dyaCiF07Quw47jhuUDeORhb7JDg6CgvSYYKTifNCO19So6pUlEj-YfOFKTjNNiksGH2tCSLbYnt89dFCMmFSB0qFH4w1RVW-hGPcQc7Alf2XMjl-nmhpwkjpZWZ9wVIW-RwZ-MwrKmacUjkPUioUk97axtEj0I1DHurc0AVDSO_8DZYZiVydCQNTG6ucvnYbHIcWxkMm5BoNhdnhJ7EAKUrLhsG-bgv55ac3iqrHiG3mMteZ7uK7N3RtsU8KsROfTNk9g2x5ghgw20-FbSdO__tDsL-3YPZo_fVTqLXIpktlw-Nxs- -nkV3sZtyLy6j_BsMG-_bZGCT-VatUWmc5k8wiN1kKhDbdSB1V5_7w-kCqdDpFFsZ7fNUWlP6M-okOdjWXiA0eyb6ywBSOjCAwSQVO6cS6Jdq_OsVavlYykpaxY31Ynat3ErSa1bB2FjmoFGp-QPrGk2KbSPnYGGd4VgO4BxgCA0OgTknm4YosAjosAq4iHINjOH3E-lhwRNOyF0hFXwAUcYK5i9SLKfWAby0L9ZH1AmF5O8ZtLZfaySFiHCI4Y9wqHnA4C3RoIeGz7aBI8Qxm5PNKG0jEjZYAX2nUXV02w_rawGrZZN8fiQpgbo7JPoWeG4Lw6moEsebWWBHEsr4rZztF7tMwKakNaVnOMFA0n4FsVpfQps-diTl97eaLmlRaLnBnUN5promwj993QU2I1N6yyfQ8x26lgx2pZtDaPUvP-4yoCGbF8G2q-tnQf56Zd9j0TOud6KwZfMrFxt6dId193wPwT5KzaBT98gSmcDXxijKn9lBpi15wfczI9tG3VZFn8tYXO7NCc8qhZJEBLWJyVnaNEOjfzWSVHxrfvMId8l8aV13wX2ikiik6MF5mPKzB0iTwT1YEVWJ_-a9iFndkp9KSRQdxBpOwVepO_WSgVYbdHgnBQpUk4EaGg1iICA0MaTE0aoRuaqfNKNBPD26BHxDjh8eV_JoY85rLss1AoZhRdjJTLu_BtA4hkTSvYyxozfq6Immhzy05eXADLvYgSW2ifmjc94DWQYPpq4LjP37RQOwmquFIhXgnjWsKGncbGmGjCqq_om0HAdtPk_Gy0]--></g></svg>