<?xml version="1.0" encoding="us-ascii" standalone="no"?><svg xmlns="http://www.w3.org/2000/svg" xmlns:xlink="http://www.w3.org/1999/xlink" contentStyleType="text/css" height="771px" preserveAspectRatio="none" style="width:1679px;height:771px;background:#FFFFFF;" version="1.1" viewBox="0 0 1679 771" width="1679px" zoomAndPan="magnify"><defs><filter height="300%" id="f1su9se5htgaft" width="300%" x="-1" y="-1"><feGaussianBlur result="blurOut" stdDeviation="2.0"/><feColorMatrix in="blurOut" result="blurOut2" type="matrix" values="0 0 0 0 0 0 0 0 0 0 0 0 0 0 0 0 0 0 .4 0"/><feOffset dx="4.0" dy="4.0" in="blurOut2" result="blurOut3"/><feBlend in="SourceGraphic" in2="blurOut3" mode="normal"/></filter></defs><g><text fill="#000000" font-family="Verdana" font-size="22" font-weight="bold" lengthAdjust="spacing" textLength="332" x="669.25" y="37.1182">Diagram 1: User Hierarchy</text><text fill="#000000" font-family="Verdana" font-size="22" font-weight="bold" lengthAdjust="spacing" textLength="369" x="650.75" y="63.8555">(Generalization/Inheritance)</text><!--class User--><g id="elem_User"><rect codeLine="13" fill="#FFFFFF" filter="url(#f1su9se5htgaft)" height="231.1611" id="User" rx="4" ry="4" style="stroke:#000000;stroke-width:1.0;" width="368" x="796" y="86.4746"/><ellipse cx="960.75" cy="100.4746" fill="#FFFFFF" rx="9" ry="9" style="stroke:#000000;stroke-width:1.0;"/><path d="M967.4531,105.4746 L964.7813,105.4746 L963.7188,102.709 L958.8594,102.709 L957.8594,105.4746 L955.25,105.4746 L959.9844,93.3027 L962.5938,93.3027 L967.4531,105.4746 Z M962.9375,100.6621 L961.2656,96.1465 L959.6094,100.6621 L962.9375,100.6621 Z " fill="#000000"/><text fill="#000000" font-family="Verdana" font-size="14" font-style="italic" lengthAdjust="spacing" textLength="31" x="978.25" y="106.0425">User</text><line style="stroke:#000000;stroke-width:1.0;" x1="797" x2="1163" y1="114.4746" y2="114.4746"/><text fill="#000000" font-family="Verdana" font-size="14" lengthAdjust="spacing" textLength="110" x="802" y="132.5498">#userId: String</text><text fill="#000000" font-family="Verdana" font-size="14" lengthAdjust="spacing" textLength="103" x="802" y="149.5645">#name: String</text><text fill="#000000" font-family="Verdana" font-size="14" lengthAdjust="spacing" textLength="100" x="802" y="166.5791">#email: String</text><text fill="#000000" font-family="Verdana" font-size="14" lengthAdjust="spacing" textLength="109" x="802" y="183.5938">#phone: String</text><text fill="#000000" font-family="Verdana" font-size="14" lengthAdjust="spacing" textLength="175" x="802" y="200.6084">#registeredAt: DateTime</text><text fill="#000000" font-family="Verdana" font-size="14" lengthAdjust="spacing" textLength="131" x="802" y="217.623">#isActive: Boolean</text><line style="stroke:#000000;stroke-width:1.0;" x1="797" x2="1163" y1="224.5625" y2="224.5625"/><text fill="#000000" font-family="Verdana" font-size="14" lengthAdjust="spacing" textLength="154" x="802" y="242.6377">+updateProfile(): void</text><text fill="#000000" font-family="Verdana" font-size="14" lengthAdjust="spacing" textLength="177" x="802" y="259.6523">+authenticate(): Boolean</text><text fill="#000000" font-family="Verdana" font-size="14" lengthAdjust="spacing" textLength="356" x="802" y="276.667">+changePassword(newPassword: String): Boolean</text><text fill="#000000" font-family="Verdana" font-size="14" font-style="italic" lengthAdjust="spacing" textLength="131" x="802" y="293.6816">+getRole(): String</text><text fill="#000000" font-family="Verdana" font-size="14" font-style="italic" lengthAdjust="spacing" textLength="231" x="802" y="310.6963">+getPermissions(): List&lt;String&gt;</text></g><!--class Customer--><g id="elem_Customer"><rect codeLine="32" fill="#FFFFFF" filter="url(#f1su9se5htgaft)" height="231.1611" id="Customer" rx="4" ry="4" style="stroke:#000000;stroke-width:1.0;" width="392" x="12" y="402.9746"/><ellipse cx="169.75" cy="416.9746" fill="#FFFFFF" rx="9" ry="9" style="stroke:#000000;stroke-width:1.0;"/><path d="M172.5156,418.5059 L174.9063,419.2559 Q174.3594,421.2402 173.0781,422.209 Q171.8125,423.1777 169.8438,423.1777 Q167.4219,423.1777 165.8594,421.5215 Q164.3125,419.8652 164.3125,416.9902 Q164.3125,413.959 165.875,412.2871 Q167.4375,410.5996 170,410.5996 Q172.2344,410.5996 173.625,411.9121 Q174.4531,412.6934 174.875,414.1621 L172.4375,414.7402 Q172.2188,413.7871 171.5313,413.2402 Q170.8594,412.6934 169.875,412.6934 Q168.5156,412.6934 167.6719,413.6777 Q166.8438,414.6465 166.8438,416.8184 Q166.8438,419.1152 167.6719,420.0996 Q168.5,421.084 169.8281,421.084 Q170.8125,421.084 171.5156,420.459 Q172.2188,419.834 172.5156,418.5059 Z " fill="#000000"/><text fill="#000000" font-family="Verdana" font-size="14" lengthAdjust="spacing" textLength="69" x="187.25" y="422.5425">Customer</text><line style="stroke:#000000;stroke-width:1.0;" x1="13" x2="403" y1="430.9746" y2="430.9746"/><text fill="#000000" font-family="Verdana" font-size="14" lengthAdjust="spacing" textLength="141" x="18" y="449.0498">-customerId: String</text><text fill="#000000" font-family="Verdana" font-size="14" lengthAdjust="spacing" textLength="157" x="18" y="466.0645">-loyaltyPoints: Integer</text><text fill="#000000" font-family="Verdana" font-size="14" lengthAdjust="spacing" textLength="176" x="18" y="483.0791">-preferredCuisine: String</text><text fill="#000000" font-family="Verdana" font-size="14" lengthAdjust="spacing" textLength="173" x="18" y="500.0938">-membershipTier: String</text><line style="stroke:#000000;stroke-width:1.0;" x1="13" x2="403" y1="507.0332" y2="507.0332"/><text fill="#000000" font-family="Verdana" font-size="14" lengthAdjust="spacing" textLength="380" x="18" y="525.1084">+browseMenu(restaurantId: String): List&lt;MenuItem&gt;</text><text fill="#000000" font-family="Verdana" font-size="14" lengthAdjust="spacing" textLength="317" x="18" y="542.123">+placeOrder(items: List&lt;OrderItem&gt;): Order</text><text fill="#000000" font-family="Verdana" font-size="14" lengthAdjust="spacing" textLength="302" x="18" y="559.1377">+trackOrder(orderId: String): OrderStatus</text><text fill="#000000" font-family="Verdana" font-size="14" lengthAdjust="spacing" textLength="380" x="18" y="576.1523">+rateDelivery(deliveryId: String, rating: Integer): void</text><text fill="#000000" font-family="Verdana" font-size="14" lengthAdjust="spacing" textLength="130" x="18" y="593.167">+getRole(): String</text><text fill="#000000" font-family="Verdana" font-size="14" lengthAdjust="spacing" textLength="230" x="18" y="610.1816">+getPermissions(): List&lt;String&gt;</text><text fill="#000000" font-family="Verdana" font-size="14" lengthAdjust="spacing" textLength="347" x="18" y="627.1963">+redeemLoyaltyPoints(points: Integer): Discount</text></g><!--class DeliveryAgent--><g id="elem_DeliveryAgent"><rect codeLine="47" fill="#FFFFFF" filter="url(#f1su9se5htgaft)" height="248.1758" id="DeliveryAgent" rx="4" ry="4" style="stroke:#000000;stroke-width:1.0;" width="323" x="439.5" y="394.4746"/><ellipse cx="548.75" cy="408.4746" fill="#FFFFFF" rx="9" ry="9" style="stroke:#000000;stroke-width:1.0;"/><path d="M551.5156,410.0059 L553.9063,410.7559 Q553.3594,412.7402 552.0781,413.709 Q550.8125,414.6777 548.8438,414.6777 Q546.4219,414.6777 544.8594,413.0215 Q543.3125,411.3652 543.3125,408.4902 Q543.3125,405.459 544.875,403.7871 Q546.4375,402.0996 549,402.0996 Q551.2344,402.0996 552.625,403.4121 Q553.4531,404.1934 553.875,405.6621 L551.4375,406.2402 Q551.2188,405.2871 550.5313,404.7402 Q549.8594,404.1934 548.875,404.1934 Q547.5156,404.1934 546.6719,405.1777 Q545.8438,406.1465 545.8438,408.3184 Q545.8438,410.6152 546.6719,411.5996 Q547.5,412.584 548.8281,412.584 Q549.8125,412.584 550.5156,411.959 Q551.2188,411.334 551.5156,410.0059 Z " fill="#000000"/><text fill="#000000" font-family="Verdana" font-size="14" lengthAdjust="spacing" textLength="97" x="566.25" y="414.0425">DeliveryAgent</text><line style="stroke:#000000;stroke-width:1.0;" x1="440.5" x2="761.5" y1="422.4746" y2="422.4746"/><text fill="#000000" font-family="Verdana" font-size="14" lengthAdjust="spacing" textLength="115" x="445.5" y="440.5498">-agentId: String</text><text fill="#000000" font-family="Verdana" font-size="14" lengthAdjust="spacing" textLength="141" x="445.5" y="457.5645">-vehicleType: String</text><text fill="#000000" font-family="Verdana" font-size="14" lengthAdjust="spacing" textLength="162" x="445.5" y="474.5791">-vehicleNumber: String</text><text fill="#000000" font-family="Verdana" font-size="14" lengthAdjust="spacing" textLength="145" x="445.5" y="491.5938">-isAvailable: Boolean</text><text fill="#000000" font-family="Verdana" font-size="14" lengthAdjust="spacing" textLength="112" x="445.5" y="508.6084">-rating: Decimal</text><text fill="#000000" font-family="Verdana" font-size="14" lengthAdjust="spacing" textLength="167" x="445.5" y="525.623">-totalDeliveries: Integer</text><line style="stroke:#000000;stroke-width:1.0;" x1="440.5" x2="761.5" y1="532.5625" y2="532.5625"/><text fill="#000000" font-family="Verdana" font-size="14" lengthAdjust="spacing" textLength="311" x="445.5" y="550.6377">+acceptDelivery(deliveryId: String): Boolean</text><text fill="#000000" font-family="Verdana" font-size="14" lengthAdjust="spacing" textLength="302" x="445.5" y="567.6523">+completeDelivery(deliveryId: String): void</text><text fill="#000000" font-family="Verdana" font-size="14" lengthAdjust="spacing" textLength="279" x="445.5" y="584.667">+updateLocation(location: String): void</text><text fill="#000000" font-family="Verdana" font-size="14" lengthAdjust="spacing" textLength="179" x="445.5" y="601.6816">+toggleAvailability(): void</text><text fill="#000000" font-family="Verdana" font-size="14" lengthAdjust="spacing" textLength="130" x="445.5" y="618.6963">+getRole(): String</text><text fill="#000000" font-family="Verdana" font-size="14" lengthAdjust="spacing" textLength="230" x="445.5" y="635.7109">+getPermissions(): List&lt;String&gt;</text></g><!--class RestaurantManager--><g id="elem_RestaurantManager"><rect codeLine="63" fill="#FFFFFF" filter="url(#f1su9se5htgaft)" height="214.1465" id="RestaurantManager" rx="4" ry="4" style="stroke:#000000;stroke-width:1.0;" width="364" x="798" y="411.4746"/><ellipse cx="907.75" cy="425.4746" fill="#FFFFFF" rx="9" ry="9" style="stroke:#000000;stroke-width:1.0;"/><path d="M910.5156,427.0059 L912.9063,427.7559 Q912.3594,429.7402 911.0781,430.709 Q909.8125,431.6777 907.8438,431.6777 Q905.4219,431.6777 903.8594,430.0215 Q902.3125,428.3652 902.3125,425.4902 Q902.3125,422.459 903.875,420.7871 Q905.4375,419.0996 908,419.0996 Q910.2344,419.0996 911.625,420.4121 Q912.4531,421.1934 912.875,422.6621 L910.4375,423.2402 Q910.2188,422.2871 909.5313,421.7402 Q908.8594,421.1934 907.875,421.1934 Q906.5156,421.1934 905.6719,422.1777 Q904.8438,423.1465 904.8438,425.3184 Q904.8438,427.6152 905.6719,428.5996 Q906.5,429.584 907.8281,429.584 Q908.8125,429.584 909.5156,428.959 Q910.2188,428.334 910.5156,427.0059 Z " fill="#000000"/><text fill="#000000" font-family="Verdana" font-size="14" lengthAdjust="spacing" textLength="137" x="925.25" y="431.0425">RestaurantManager</text><line style="stroke:#000000;stroke-width:1.0;" x1="799" x2="1161" y1="439.4746" y2="439.4746"/><text fill="#000000" font-family="Verdana" font-size="14" lengthAdjust="spacing" textLength="136" x="804" y="457.5498">-managerId: String</text><text fill="#000000" font-family="Verdana" font-size="14" lengthAdjust="spacing" textLength="149" x="804" y="474.5645">-restaurantId: String</text><text fill="#000000" font-family="Verdana" font-size="14" lengthAdjust="spacing" textLength="192" x="804" y="491.5791">-permissions: List&lt;String&gt;</text><text fill="#000000" font-family="Verdana" font-size="14" lengthAdjust="spacing" textLength="110" x="804" y="508.5938">-hireDate: Date</text><line style="stroke:#000000;stroke-width:1.0;" x1="799" x2="1161" y1="515.5332" y2="515.5332"/><text fill="#000000" font-family="Verdana" font-size="14" lengthAdjust="spacing" textLength="155" x="804" y="533.6084">+manageMenu(): void</text><text fill="#000000" font-family="Verdana" font-size="14" lengthAdjust="spacing" textLength="199" x="804" y="550.623">+viewOrders(): List&lt;Order&gt;</text><text fill="#000000" font-family="Verdana" font-size="14" lengthAdjust="spacing" textLength="352" x="804" y="567.6377">+updateRestaurantStatus(isOpen: Boolean): void</text><text fill="#000000" font-family="Verdana" font-size="14" lengthAdjust="spacing" textLength="200" x="804" y="584.6523">+generateReports(): Report</text><text fill="#000000" font-family="Verdana" font-size="14" lengthAdjust="spacing" textLength="130" x="804" y="601.667">+getRole(): String</text><text fill="#000000" font-family="Verdana" font-size="14" lengthAdjust="spacing" textLength="230" x="804" y="618.6816">+getPermissions(): List&lt;String&gt;</text></g><!--class Admin--><g id="elem_Admin"><rect codeLine="77" fill="#FFFFFF" filter="url(#f1su9se5htgaft)" height="197.1318" id="Admin" rx="4" ry="4" style="stroke:#000000;stroke-width:1.0;" width="242" x="1197" y="419.9746"/><ellipse cx="1292.25" cy="433.9746" fill="#FFFFFF" rx="9" ry="9" style="stroke:#000000;stroke-width:1.0;"/><path d="M1295.0156,435.5059 L1297.4063,436.2559 Q1296.8594,438.2402 1295.5781,439.209 Q1294.3125,440.1777 1292.3438,440.1777 Q1289.9219,440.1777 1288.3594,438.5215 Q1286.8125,436.8652 1286.8125,433.9902 Q1286.8125,430.959 1288.375,429.2871 Q1289.9375,427.5996 1292.5,427.5996 Q1294.7344,427.5996 1296.125,428.9121 Q1296.9531,429.6934 1297.375,431.1621 L1294.9375,431.7402 Q1294.7188,430.7871 1294.0313,430.2402 Q1293.3594,429.6934 1292.375,429.6934 Q1291.0156,429.6934 1290.1719,430.6777 Q1289.3438,431.6465 1289.3438,433.8184 Q1289.3438,436.1152 1290.1719,437.0996 Q1291,438.084 1292.3281,438.084 Q1293.3125,438.084 1294.0156,437.459 Q1294.7188,436.834 1295.0156,435.5059 Z " fill="#000000"/><text fill="#000000" font-family="Verdana" font-size="14" lengthAdjust="spacing" textLength="44" x="1309.75" y="439.5425">Admin</text><line style="stroke:#000000;stroke-width:1.0;" x1="1198" x2="1438" y1="447.9746" y2="447.9746"/><text fill="#000000" font-family="Verdana" font-size="14" lengthAdjust="spacing" textLength="117" x="1203" y="466.0498">-adminId: String</text><text fill="#000000" font-family="Verdana" font-size="14" lengthAdjust="spacing" textLength="150" x="1203" y="483.0645">-accessLevel: Integer</text><text fill="#000000" font-family="Verdana" font-size="14" lengthAdjust="spacing" textLength="143" x="1203" y="500.0791">-department: String</text><line style="stroke:#000000;stroke-width:1.0;" x1="1198" x2="1438" y1="507.0186" y2="507.0186"/><text fill="#000000" font-family="Verdana" font-size="14" lengthAdjust="spacing" textLength="158" x="1203" y="525.0938">+manageUsers(): void</text><text fill="#000000" font-family="Verdana" font-size="14" lengthAdjust="spacing" textLength="224" x="1203" y="542.1084">+viewSystemLogs(): List&lt;Log&gt;</text><text fill="#000000" font-family="Verdana" font-size="14" lengthAdjust="spacing" textLength="181" x="1203" y="559.123">+configureSystem(): void</text><text fill="#000000" font-family="Verdana" font-size="14" lengthAdjust="spacing" textLength="175" x="1203" y="576.1377">+resolveDisputes(): void</text><text fill="#000000" font-family="Verdana" font-size="14" lengthAdjust="spacing" textLength="130" x="1203" y="593.1523">+getRole(): String</text><text fill="#000000" font-family="Verdana" font-size="14" lengthAdjust="spacing" textLength="230" x="1203" y="610.167">+getPermissions(): List&lt;String&gt;</text></g><!--class Address--><g id="elem_Address"><rect codeLine="103" fill="#FFFFFF" filter="url(#f1su9se5htgaft)" height="163.1025" id="Address" rx="4" ry="4" style="stroke:#000000;stroke-width:1.0;" width="193" x="1474.5" y="436.9746"/><ellipse cx="1538.25" cy="450.9746" fill="#FFFFFF" rx="9" ry="9" style="stroke:#000000;stroke-width:1.0;"/><path d="M1541.0156,452.5059 L1543.4063,453.2559 Q1542.8594,455.2402 1541.5781,456.209 Q1540.3125,457.1777 1538.3438,457.1777 Q1535.9219,457.1777 1534.3594,455.5215 Q1532.8125,453.8652 1532.8125,450.9902 Q1532.8125,447.959 1534.375,446.2871 Q1535.9375,444.5996 1538.5,444.5996 Q1540.7344,444.5996 1542.125,445.9121 Q1542.9531,446.6934 1543.375,448.1621 L1540.9375,448.7402 Q1540.7188,447.7871 1540.0313,447.2402 Q1539.3594,446.6934 1538.375,446.6934 Q1537.0156,446.6934 1536.1719,447.6777 Q1535.3438,448.6465 1535.3438,450.8184 Q1535.3438,453.1152 1536.1719,454.0996 Q1537,455.084 1538.3281,455.084 Q1539.3125,455.084 1540.0156,454.459 Q1540.7188,453.834 1541.0156,452.5059 Z " fill="#000000"/><text fill="#000000" font-family="Verdana" font-size="14" lengthAdjust="spacing" textLength="58" x="1555.75" y="456.5425">Address</text><line style="stroke:#000000;stroke-width:1.0;" x1="1475.5" x2="1666.5" y1="464.9746" y2="464.9746"/><text fill="#000000" font-family="Verdana" font-size="14" lengthAdjust="spacing" textLength="103" x="1480.5" y="483.0498">-street: String</text><text fill="#000000" font-family="Verdana" font-size="14" lengthAdjust="spacing" textLength="85" x="1480.5" y="500.0645">-city: String</text><text fill="#000000" font-family="Verdana" font-size="14" lengthAdjust="spacing" textLength="97" x="1480.5" y="517.0791">-state: String</text><text fill="#000000" font-family="Verdana" font-size="14" lengthAdjust="spacing" textLength="140" x="1480.5" y="534.0938">-postalCode: String</text><text fill="#000000" font-family="Verdana" font-size="14" lengthAdjust="spacing" textLength="115" x="1480.5" y="551.1084">-country: String</text><line style="stroke:#000000;stroke-width:1.0;" x1="1475.5" x2="1666.5" y1="558.0479" y2="558.0479"/><text fill="#000000" font-family="Verdana" font-size="14" lengthAdjust="spacing" textLength="181" x="1480.5" y="576.123">+getFullAddress(): String</text><text fill="#000000" font-family="Verdana" font-size="14" lengthAdjust="spacing" textLength="143" x="1480.5" y="593.1377">+validate(): Boolean</text></g><g id="elem_GMN13"><path d="M1199,145.4746 L1199,197.9746 L1164.28,201.9746 L1199,205.9746 L1199,258.0698 A4,4 0 0 0 1203,262.0698 L1437,262.0698 A4,4 0 0 0 1441,258.0698 L1441,151.4746 L1431,141.4746 L1203,141.4746 A4,4 0 0 0 1199,145.4746 " fill="#FFFFFF" filter="url(#f1su9se5htgaft)" style="stroke:#000000;stroke-width:1.0;"/><path d="M1431,141.4746 L1431,149.4746 A2,2 0 0 0 1433,151.4746 L1441,151.4746 L1431,141.4746 " fill="#FFFFFF" style="stroke:#000000;stroke-width:1.0;"/><text fill="#000000" font-family="Verdana" font-size="13" lengthAdjust="spacing" textLength="204" x="1205" y="159.5444">Abstract base class containing</text><text fill="#000000" font-family="Verdana" font-size="13" lengthAdjust="spacing" textLength="221" x="1205" y="175.3438">common attributes and behaviors</text><text fill="#000000" font-family="Verdana" font-size="13" lengthAdjust="spacing" textLength="134" x="1205" y="191.1431">for all system users.</text><text fill="#000000" font-family="Verdana" font-size="13" lengthAdjust="spacing" textLength="5" x="1205" y="206.9424">&#160;</text><text fill="#000000" font-family="Verdana" font-size="13" lengthAdjust="spacing" textLength="187" x="1205" y="222.7417">Subclasses must implement:</text><text fill="#000000" font-family="Verdana" font-size="13" lengthAdjust="spacing" textLength="73" x="1205" y="238.541">- getRole()</text><text fill="#000000" font-family="Verdana" font-size="13" lengthAdjust="spacing" textLength="121" x="1205" y="254.3403">- getPermissions()</text></g><g id="elem_GMN16"><path d="M96.5,707.4746 L96.5,756.8726 A4,4 0 0 0 100.5,760.8726 L315.5,760.8726 A4,4 0 0 0 319.5,756.8726 L319.5,713.4746 L309.5,703.4746 L212,703.4746 L208,634.2046 L204,703.4746 L100.5,703.4746 A4,4 0 0 0 96.5,707.4746 " fill="#FFFFFF" filter="url(#f1su9se5htgaft)" style="stroke:#000000;stroke-width:1.0;"/><path d="M309.5,703.4746 L309.5,711.4746 A2,2 0 0 0 311.5,713.4746 L319.5,713.4746 L309.5,703.4746 " fill="#FFFFFF" style="stroke:#000000;stroke-width:1.0;"/><text fill="#000000" font-family="Verdana" font-size="13" lengthAdjust="spacing" textLength="202" x="102.5" y="721.5444">Customers can browse menus,</text><text fill="#000000" font-family="Verdana" font-size="13" lengthAdjust="spacing" textLength="149" x="102.5" y="737.3438">place orders, and earn</text><text fill="#000000" font-family="Verdana" font-size="13" lengthAdjust="spacing" textLength="89" x="102.5" y="753.1431">loyalty points</text></g><g id="elem_GMN19"><path d="M502.5,714.9746 L502.5,748.5732 A4,4 0 0 0 506.5,752.5732 L695.5,752.5732 A4,4 0 0 0 699.5,748.5732 L699.5,720.9746 L689.5,710.9746 L605,710.9746 L601,642.5046 L597,710.9746 L506.5,710.9746 A4,4 0 0 0 502.5,714.9746 " fill="#FFFFFF" filter="url(#f1su9se5htgaft)" style="stroke:#000000;stroke-width:1.0;"/><path d="M689.5,710.9746 L689.5,718.9746 A2,2 0 0 0 691.5,720.9746 L699.5,720.9746 L689.5,710.9746 " fill="#FFFFFF" style="stroke:#000000;stroke-width:1.0;"/><text fill="#000000" font-family="Verdana" font-size="13" lengthAdjust="spacing" textLength="169" x="508.5" y="729.0444">Agents deliver orders and</text><text fill="#000000" font-family="Verdana" font-size="13" lengthAdjust="spacing" textLength="176" x="508.5" y="744.8438">maintain availability status</text></g><!--reverse link User to Customer--><g id="link_User_Customer"><path codeLine="94" d="M778.7859,261.7424 C668.3259,296.1824 543.36,339.3846 422,394.4746 C416.05,397.1746 410.05,399.9946 404.02,402.8946 " fill="none" id="User-backto-Customer" style="stroke:#000000;stroke-width:1.0;"/><polygon fill="none" points="795.97,256.3846,776.9999,256.0144,780.5718,267.4704,795.97,256.3846" style="stroke:#000000;stroke-width:1.0;"/></g><!--reverse link User to DeliveryAgent--><g id="link_User_DeliveryAgent"><path codeLine="95" d="M827.9786,329.1198 C797.9386,354.0498 779.89,369.0346 749.47,394.2746 " fill="none" id="User-backto-DeliveryAgent" style="stroke:#000000;stroke-width:1.0;"/><polygon fill="none" points="841.83,317.6246,824.1469,324.5027,831.8103,333.7369,841.83,317.6246" style="stroke:#000000;stroke-width:1.0;"/></g><!--reverse link User to RestaurantManager--><g id="link_User_RestaurantManager"><path codeLine="96" d="M980,335.8546 C980,366.3846 980,381.2146 980,411.2646 " fill="none" id="User-backto-RestaurantManager" style="stroke:#000000;stroke-width:1.0;"/><polygon fill="none" points="980,317.8546,974,335.8546,986,335.8546,980,317.8546" style="stroke:#000000;stroke-width:1.0;"/></g><!--reverse link User to Admin--><g id="link_User_Admin"><path codeLine="97" d="M1116.64,330.1138 C1152.57,363.5338 1178.28,387.4646 1212.95,419.7346 " fill="none" id="User-backto-Admin" style="stroke:#000000;stroke-width:1.0;"/><polygon fill="none" points="1103.46,317.8546,1112.5535,334.5072,1120.7264,325.7205,1103.46,317.8546" style="stroke:#000000;stroke-width:1.0;"/></g><!--reverse link User to Address--><g id="link_User_Address"><path codeLine="115" d="M1175.1617,315.1241 C1180.7717,317.6641 1175.44,315.1546 1181,317.4746 C1298.13,366.3646 1347.53,328.5646 1456,394.4746 C1474.61,405.7846 1492.13,420.9246 1507.62,436.7146 " fill="none" id="User-backto-Address" style="stroke:#000000;stroke-width:1.0;"/><polygon fill="none" points="1164.23,310.1746,1168.046,316.2933,1175.1617,315.1241,1171.3457,309.0054,1164.23,310.1746" style="stroke:#000000;stroke-width:1.0;"/><text fill="#000000" font-family="Verdana" font-size="13" lengthAdjust="spacing" textLength="23" x="1393" y="361.5444">has</text><text fill="#000000" font-family="Verdana" font-size="13" lengthAdjust="spacing" textLength="8" x="1172.171" y="312.5062">1</text><text fill="#000000" font-family="Verdana" font-size="13" lengthAdjust="spacing" textLength="27" x="1473.2924" y="426.31">1..*</text></g><!--SRC=[hLRVRzis47xNNt7p7gQqSRQy3KONmBMnpK2w1dNsjXTQEaj4AL8WAGTkr_zznwCiYtOQerY38A7k1tcyxxix_k1hR11Q9QJEt4UfMs550wuMfNcIkW9lEnmfhEbqMHYhqSAl8tcXX7DpxwtST1vNXT5h-GdXboppqYk4fHHLiBkTmT-EVF-KQ8Kjwlq_Ely3QJUXv2VXfT4_htIDLdgX2xpAif_Wjw_za6w-STwAmiDRuH0M8OWNFJ9nSE20OooVCu0VeQFbgfp1ckwWAnPfqM0Ym4P8bKZQskZKnc8bdKUBvTpFO2ayFie6MINTlF1oH_PlZL4eD4cdK_hp6hgs9Ci7QxPIONurWvsH9Mj4Hn1fBmlI1yNHzJKKjT0LFj1DdemjSurFX_KXfCJXy-7sNyYtGl_1nBE6w4yD7j0sqZb2nGMxUxhOcsXybtsvXCt2wCAYnvXanWOle1D1MNJEcwO7PWf5_vc0CmLbzaBv_OEHshiPhBJ72YshMejRj8J0efDE9lXCeS5cWzRLidqa3evL4OcDDKyEtw7kSelEYyuAxLVZX78QWi7AOtF7JbG_1Rwt9TfSaj3rHYnXAtBZ3xOEAVuOhGrRZ7Td-TeBtpasjeJx4XNHnkxpibySFQw30VqVCZ3cpdCONmIM3yKIiRaVfpXlqqoJsrAwWlg13ro8q1q2dLT4sHu_4TOduEsmbeN2ntsBpyd_wW96YOPgPqV59pOgBP_X-aiiP2CKoxpnGlMnI4pP4L4MHO6jVo6lfvLccbRXYqYC4n_B-TuKtD9orI-UC_McgXJsbvDA-dt-lo4SyFWmCFYTq0J4eQQQ-7M2odDyZmLrFEkCB5EefSNGvsAtE-Ou7iALDBxHJk8Ja_mODt_UZJ9tZ3jMGYxT-nRrW4cQeJ0-WazhhETDu_8xv6zUDb8VU1pM9ua9D7Bk7dUeqXPK8ir5tn3pppjCp4leYkuiCUizpGuglEeO57tSzHpKMrbr5gDHualG6RL3giYMvg_xBXHwkRsdKvjIhdWH6kk5Bi_puCs_q-dGwKUYf8ECv6TC7kaOfKlnhhisa2AyQRvX5itBabBhUWhGS4HC48M22ZOHK9W-RMgj8PbQc38LS-kq-tD-43A_TqhrHv_0jgEKboTF0SQA-GIrs24nbJtHGIwgYXuaZCnLpDZaTWA6aZQvlRbvDHakE8D9BTmaoxIXaMrbLNimMzwLpXtUMPlmpegf8JfwUZN6mAW_DiG2SNW1EX2wX0rIFDBOCCcsne9G2XoJbvzRxeRazBlkDaM411fY1CZGQxbsE543VmzV2Mypf8D2q7te6-E9Ko7sWLqmB2bgeViHJoy1tRbhqlBq1Xx5xfe3Hs53t-_V6117tzTFIabBwGh_7VGpejyvR4mwUa9ota2CMZwpfXkTy1y0]--></g></svg>