<?xml version="1.0" encoding="us-ascii" standalone="no"?><svg xmlns="http://www.w3.org/2000/svg" xmlns:xlink="http://www.w3.org/1999/xlink" contentStyleType="text/css" height="2437px" preserveAspectRatio="none" style="width:2096px;height:2437px;background:#FFFFFF;" version="1.1" viewBox="0 0 2096 2437" width="2096px" zoomAndPan="magnify"><defs><filter height="300%" id="f1tespdmiii6yq" width="300%" x="-1" y="-1"><feGaussianBlur result="blurOut" stdDeviation="2.0"/><feColorMatrix in="blurOut" result="blurOut2" type="matrix" values="0 0 0 0 0 0 0 0 0 0 0 0 0 0 0 0 0 0 .4 0"/><feOffset dx="4.0" dy="4.0" in="blurOut2" result="blurOut3"/><feBlend in="SourceGraphic" in2="blurOut3" mode="normal"/></filter></defs><g><text fill="#2C3E50" font-family="Arial" font-size="14" font-weight="bold" lengthAdjust="spacing" textLength="329" x="876.5" y="23.1318">State Machine Diagram - Order Status Lifecycle</text><text fill="#2C3E50" font-family="Arial" font-size="14" font-weight="bold" lengthAdjust="spacing" textLength="207" x="937.5" y="39.2305">Online Food Ordering System</text><!--cluster OutForDelivery--><g id="cluster_OutForDelivery"><rect fill="none" filter="url(#f1tespdmiii6yq)" height="648" rx="12.5" ry="12.5" style="stroke:#3498DB;stroke-width:2.0;" width="286" x="7" y="1777.1973"/><path d="M19.5,1777.1973 L280.5,1777.1973 A12.5,12.5 0 0 1 293,1789.6973 L293,1794.8462 L7,1794.8462 L7,1789.6973 A12.5,12.5 0 0 1 19.5,1777.1973 " fill="#EBF5FB" style="stroke:#EBF5FB;stroke-width:1.0;"/><rect fill="none" height="648" rx="12.5" ry="12.5" style="stroke:#3498DB;stroke-width:2.0;" width="286" x="7" y="1777.1973"/><line style="stroke:#3498DB;stroke-width:2.0;" x1="7" x2="293" y1="1794.8462" y2="1794.8462"/><text fill="#2C3E50" font-family="Arial" font-size="11" lengthAdjust="spacing" textLength="78" x="111" y="1791.5151">Out For Delivery</text></g><g id="OutForDelivery.EnRouteToRestaurant"><rect fill="#EBF5FB" filter="url(#f1tespdmiii6yq)" height="50" rx="12.5" ry="12.5" style="stroke:#3498DB;stroke-width:2.0;" width="163" x="31.5" y="1816.1973"/><line style="stroke:#3498DB;stroke-width:2.0;" x1="31.5" x2="194.5" y1="1838.8462" y2="1838.8462"/><text fill="#2C3E50" font-family="Arial" font-size="11" lengthAdjust="spacing" textLength="143" x="41.5" y="1831.5151">Agent En Route to Restaurant</text></g><g id="OutForDelivery.AtRestaurant"><rect fill="#EBF5FB" filter="url(#f1tespdmiii6yq)" height="50" rx="12.5" ry="12.5" style="stroke:#3498DB;stroke-width:2.0;" width="87" x="33.5" y="1953.1973"/><line style="stroke:#3498DB;stroke-width:2.0;" x1="33.5" x2="120.5" y1="1975.8462" y2="1975.8462"/><text fill="#2C3E50" font-family="Arial" font-size="11" lengthAdjust="spacing" textLength="67" x="43.5" y="1968.5151">At Restaurant</text></g><g id="OutForDelivery.PickedUp"><rect fill="#EBF5FB" filter="url(#f1tespdmiii6yq)" height="50" rx="12.5" ry="12.5" style="stroke:#3498DB;stroke-width:2.0;" width="98" x="37" y="2090.1973"/><line style="stroke:#3498DB;stroke-width:2.0;" x1="37" x2="135" y1="2112.8462" y2="2112.8462"/><text fill="#2C3E50" font-family="Arial" font-size="11" lengthAdjust="spacing" textLength="78" x="47" y="2105.5151">Order Picked Up</text></g><g id="OutForDelivery.EnRouteToCustomer"><rect fill="#EBF5FB" filter="url(#f1tespdmiii6yq)" height="50" rx="12.5" ry="12.5" style="stroke:#3498DB;stroke-width:2.0;" width="124" x="31" y="2227.1973"/><line style="stroke:#3498DB;stroke-width:2.0;" x1="31" x2="155" y1="2249.8462" y2="2249.8462"/><text fill="#2C3E50" font-family="Arial" font-size="11" lengthAdjust="spacing" textLength="104" x="41" y="2242.5151">En Route to Customer</text></g><g id="OutForDelivery.ArrivedAtLocation"><rect fill="#EBF5FB" filter="url(#f1tespdmiii6yq)" height="50" rx="12.5" ry="12.5" style="stroke:#3498DB;stroke-width:2.0;" width="112" x="37" y="2351.1973"/><line style="stroke:#3498DB;stroke-width:2.0;" x1="37" x2="149" y1="2373.8462" y2="2373.8462"/><text fill="#2C3E50" font-family="Arial" font-size="11" lengthAdjust="spacing" textLength="92" x="47" y="2366.5151">Arrived at Location</text></g><ellipse cx="240" cy="1841.1973" fill="#222222" filter="url(#f1tespdmiii6yq)" rx="10" ry="10" style="stroke:#222222;stroke-width:1.0;"/><ellipse cx="1007" cy="69.1973" fill="#222222" filter="url(#f1tespdmiii6yq)" rx="10" ry="10" style="stroke:#222222;stroke-width:1.0;"/><rect fill="none" filter="url(#f1tespdmiii6yq)" height="269.6489" rx="12.5" ry="12.5" style="stroke:#3498DB;stroke-width:2.0;" width="464.27" x="775" y="153.1973"/><path d="M787.5,153.1973 L1226.77,153.1973 A12.5,12.5 0 0 1 1239.27,165.6973 L1239.27,175.8462 L775,175.8462 L775,165.6973 A12.5,12.5 0 0 1 787.5,153.1973 " fill="#EBF5FB" style="stroke:#EBF5FB;stroke-width:1.0;"/><rect fill="none" height="269.6489" rx="12.5" ry="12.5" style="stroke:#3498DB;stroke-width:2.0;" width="464.27" x="775" y="153.1973"/><line style="stroke:#3498DB;stroke-width:2.0;" x1="775" x2="1239.27" y1="175.8462" y2="175.8462"/><text fill="#2C3E50" font-family="Arial" font-size="11" lengthAdjust="spacing" textLength="68" x="973.135" y="168.5151">Shopping Cart</text><ellipse cx="945.27" cy="196.8462" fill="#222222" filter="url(#f1tespdmiii6yq)" rx="10" ry="10" style="stroke:#222222;stroke-width:1.0;"/><g id="CartActive.ItemsInCart"><rect fill="#EBF5FB" filter="url(#f1tespdmiii6yq)" height="50" rx="12.5" ry="12.5" style="stroke:#3498DB;stroke-width:2.0;" width="79" x="905.77" y="243.8462"/><line style="stroke:#3498DB;stroke-width:2.0;" x1="905.77" x2="984.77" y1="266.4951" y2="266.4951"/><text fill="#2C3E50" font-family="Arial" font-size="11" lengthAdjust="spacing" textLength="59" x="915.77" y="259.1641">Items In Cart</text></g><g id="CartActive.CartModified"><rect fill="#EBF5FB" filter="url(#f1tespdmiii6yq)" height="50" rx="12.5" ry="12.5" style="stroke:#3498DB;stroke-width:2.0;" width="83" x="828.77" y="356.8462"/><line style="stroke:#3498DB;stroke-width:2.0;" x1="828.77" x2="911.77" y1="379.4951" y2="379.4951"/><text fill="#2C3E50" font-family="Arial" font-size="11" lengthAdjust="spacing" textLength="63" x="838.77" y="372.1641">Cart Modified</text></g><g id="CartActive.CartReviewed"><rect fill="#EBF5FB" filter="url(#f1tespdmiii6yq)" height="50" rx="12.5" ry="12.5" style="stroke:#3498DB;stroke-width:2.0;" width="92" x="974.27" y="356.8462"/><line style="stroke:#3498DB;stroke-width:2.0;" x1="974.27" x2="1066.27" y1="379.4951" y2="379.4951"/><text fill="#2C3E50" font-family="Arial" font-size="11" lengthAdjust="spacing" textLength="72" x="984.27" y="372.1641">Cart Reviewed</text></g><!--link *start*CartActive to ItemsInCart--><g id="link_*start*CartActive_ItemsInCart"><path d="M945.27,206.9962 C945.27,216.2662 945.27,224.9862 945.27,237.6262 " fill="none" id="*start*CartActive-to-ItemsInCart" style="stroke:#34495E;stroke-width:1.5;"/><polygon fill="#34495E" points="945.27,243.6262,949.27,234.6262,945.27,238.6262,941.27,234.6262,945.27,243.6262" style="stroke:#34495E;stroke-width:1.5;"/></g><!--link ItemsInCart to CartModified--><g id="link_ItemsInCart_CartModified"><path d="M905.75,275.2962 C865.42,281.7662 806.86,293.9862 793.27,311.8462 C786,321.3962 787.14,328.5262 793.27,338.8462 C801.12,352.0662 809.3359,358.8313 822.9759,365.2813 " fill="none" id="ItemsInCart-to-CartModified" style="stroke:#34495E;stroke-width:1.5;"/><polygon fill="#34495E" points="828.4,367.8462,821.9738,360.3827,823.8799,365.7088,818.5539,367.6149,828.4,367.8462" style="stroke:#34495E;stroke-width:1.5;"/><text fill="#2C3E50" font-family="Arial" font-size="11" lengthAdjust="spacing" textLength="86" x="794.27" y="323.1641">updateCartItem() /</text><text fill="#2C3E50" font-family="Arial" font-size="11" lengthAdjust="spacing" textLength="76" x="799.27" y="335.813">recalculate total</text></g><!--link CartModified to ItemsInCart--><g id="link_CartModified_ItemsInCart"><path d="M879.86,356.8162 C885.89,343.0562 894.39,325.8062 904.27,311.8462 C908.62,305.6862 909.7522,303.9407 915.0322,298.3707 " fill="none" id="CartModified-to-ItemsInCart" style="stroke:#34495E;stroke-width:1.5;"/><polygon fill="#34495E" points="919.16,294.0162,910.0654,297.7961,915.7202,297.6449,915.8713,303.2998,919.16,294.0162" style="stroke:#34495E;stroke-width:1.5;"/><text fill="#2C3E50" font-family="Arial" font-size="11" lengthAdjust="spacing" textLength="59" x="905.27" y="329.6641">itemUpdated</text></g><!--link ItemsInCart to CartReviewed--><g id="link_ItemsInCart_CartReviewed"><path d="M959.65,294.1562 C967.76,307.5362 978.24,324.3262 988.27,338.8462 C992.33,344.7262 993.2562,346.1441 997.6362,351.9241 " fill="none" id="ItemsInCart-to-CartReviewed" style="stroke:#34495E;stroke-width:1.5;"/><polygon fill="#34495E" points="1001.26,356.7062,999.0124,347.1172,998.2402,352.7211,992.6363,351.9489,1001.26,356.7062" style="stroke:#34495E;stroke-width:1.5;"/><text fill="#2C3E50" font-family="Arial" font-size="11" lengthAdjust="spacing" textLength="105" x="989.27" y="329.6641">proceedToCheckout()</text></g><!--link CartReviewed to ItemsInCart--><g id="link_CartReviewed_ItemsInCart"><path d="M1066.58,364.7462 C1077.94,358.4862 1088.7,350.0462 1095.27,338.8462 C1101.33,328.4962 1102.52,321.4062 1095.27,311.8462 C1081.95,294.2862 1030.7,283.0324 990.92,276.4724 " fill="none" id="CartReviewed-to-ItemsInCart" style="stroke:#34495E;stroke-width:1.5;"/><polygon fill="#34495E" points="985,275.4962,993.2292,280.9073,989.9334,276.3097,994.5309,273.0139,985,275.4962" style="stroke:#34495E;stroke-width:1.5;"/><text fill="#2C3E50" font-family="Arial" font-size="11" lengthAdjust="spacing" textLength="128" x="1101.27" y="329.6641">continueShoppingSelected</text></g><rect fill="none" filter="url(#f1tespdmiii6yq)" height="382.6489" rx="12.5" ry="12.5" style="stroke:#3498DB;stroke-width:2.0;" width="189" x="1518.5" y="510.1973"/><path d="M1531,510.1973 L1695,510.1973 A12.5,12.5 0 0 1 1707.5,522.6973 L1707.5,532.8462 L1518.5,532.8462 L1518.5,522.6973 A12.5,12.5 0 0 1 1531,510.1973 " fill="#EBF5FB" style="stroke:#EBF5FB;stroke-width:1.0;"/><rect fill="none" height="382.6489" rx="12.5" ry="12.5" style="stroke:#3498DB;stroke-width:2.0;" width="189" x="1518.5" y="510.1973"/><line style="stroke:#3498DB;stroke-width:2.0;" x1="1518.5" x2="1707.5" y1="532.8462" y2="532.8462"/><text fill="#2C3E50" font-family="Arial" font-size="11" lengthAdjust="spacing" textLength="63" x="1581.5" y="525.5151">Order Placed</text><g id="OrderPlaced.AwaitingPayment"><rect fill="#EBF5FB" filter="url(#f1tespdmiii6yq)" height="50" rx="12.5" ry="12.5" style="stroke:#3498DB;stroke-width:2.0;" width="107" x="1536" y="600.8462"/><line style="stroke:#3498DB;stroke-width:2.0;" x1="1536" x2="1643" y1="623.4951" y2="623.4951"/><text fill="#2C3E50" font-family="Arial" font-size="11" lengthAdjust="spacing" textLength="87" x="1546" y="616.1641">Awaiting Payment</text></g><g id="OrderPlaced.PaymentProcessing"><rect fill="#EBF5FB" filter="url(#f1tespdmiii6yq)" height="50" rx="12.5" ry="12.5" style="stroke:#3498DB;stroke-width:2.0;" width="118" x="1530.5" y="713.8462"/><line style="stroke:#3498DB;stroke-width:2.0;" x1="1530.5" x2="1648.5" y1="736.4951" y2="736.4951"/><text fill="#2C3E50" font-family="Arial" font-size="11" lengthAdjust="spacing" textLength="98" x="1540.5" y="729.1641">Payment Processing</text></g><g id="OrderPlaced.PaymentVerified"><rect fill="#EBF5FB" filter="url(#f1tespdmiii6yq)" height="50" rx="12.5" ry="12.5" style="stroke:#3498DB;stroke-width:2.0;" width="102" x="1538.5" y="826.8462"/><line style="stroke:#3498DB;stroke-width:2.0;" x1="1538.5" x2="1640.5" y1="849.4951" y2="849.4951"/><text fill="#2C3E50" font-family="Arial" font-size="11" lengthAdjust="spacing" textLength="82" x="1548.5" y="842.1641">Payment Verified</text></g><ellipse cx="1589.5" cy="553.8462" fill="#222222" filter="url(#f1tespdmiii6yq)" rx="10" ry="10" style="stroke:#222222;stroke-width:1.0;"/><!--link *start*OrderPlaced to AwaitingPayment--><g id="link_*start*OrderPlaced_AwaitingPayment"><path d="M1589.5,563.9962 C1589.5,573.2662 1589.5,581.9862 1589.5,594.6262 " fill="none" id="*start*OrderPlaced-to-AwaitingPayment" style="stroke:#34495E;stroke-width:1.5;"/><polygon fill="#34495E" points="1589.5,600.6262,1593.5,591.6262,1589.5,595.6262,1585.5,591.6262,1589.5,600.6262" style="stroke:#34495E;stroke-width:1.5;"/></g><!--link AwaitingPayment to PaymentProcessing--><g id="link_AwaitingPayment_PaymentProcessing"><path d="M1551.76,651.0762 C1546.39,656.2662 1541.63,662.2062 1538.5,668.8462 C1533.38,679.6962 1533.38,684.9962 1538.5,695.8462 C1541.63,702.4862 1542.0757,704.2565 1547.4457,709.4465 " fill="none" id="AwaitingPayment-to-PaymentProcessing" style="stroke:#34495E;stroke-width:1.5;"/><polygon fill="#34495E" points="1551.76,713.6162,1548.0683,704.4854,1548.1647,710.1414,1542.5087,710.2378,1551.76,713.6162" style="stroke:#34495E;stroke-width:1.5;"/><text fill="#2C3E50" font-family="Arial" font-size="11" lengthAdjust="spacing" textLength="79" x="1539.5" y="686.6641">initiatePayment()</text></g><!--link PaymentProcessing to PaymentVerified--><g id="link_PaymentProcessing_PaymentVerified"><path d="M1589.5,763.9362 C1589.5,782.5462 1589.5,802.2062 1589.5,820.8062 " fill="none" id="PaymentProcessing-to-PaymentVerified" style="stroke:#34495E;stroke-width:1.5;"/><polygon fill="#34495E" points="1589.5,826.8062,1593.5,817.8062,1589.5,821.8062,1585.5,817.8062,1589.5,826.8062" style="stroke:#34495E;stroke-width:1.5;"/><text fill="#2C3E50" font-family="Arial" font-size="11" lengthAdjust="spacing" textLength="90" x="1590.5" y="793.1641">paymentSuccess /</text><text fill="#2C3E50" font-family="Arial" font-size="11" lengthAdjust="spacing" textLength="82" x="1594.5" y="805.813">store transaction</text></g><!--link PaymentProcessing to AwaitingPayment--><g id="link_PaymentProcessing_AwaitingPayment"><path d="M1610.66,713.4662 C1614.3,707.9962 1617.53,701.9862 1619.5,695.8462 C1623.16,684.4162 1623.16,680.2762 1619.5,668.8462 C1617.53,662.7062 1617.624,661.6913 1613.984,656.2213 " fill="none" id="PaymentProcessing-to-AwaitingPayment" style="stroke:#34495E;stroke-width:1.5;"/><polygon fill="#34495E" points="1610.66,651.2262,1612.3159,660.9348,1613.43,655.3888,1618.9761,656.5029,1610.66,651.2262" style="stroke:#34495E;stroke-width:1.5;"/><text fill="#2C3E50" font-family="Arial" font-size="11" lengthAdjust="spacing" textLength="75" x="1622.5" y="680.1641">paymentFailed /</text><text fill="#2C3E50" font-family="Arial" font-size="11" lengthAdjust="spacing" textLength="47" x="1636.5" y="692.813">log failure</text></g><ellipse cx="978" cy="2252.1973" fill="none" filter="url(#f1tespdmiii6yq)" rx="11" ry="11" style="stroke:#222222;stroke-width:1.0;"/><ellipse cx="978" cy="2252.1973" fill="#222222" rx="6" ry="6" style="stroke:#222222;stroke-width:1.0;"/><g id="PendingConfirmation"><rect fill="#EBF5FB" filter="url(#f1tespdmiii6yq)" height="50" rx="12.5" ry="12.5" style="stroke:#3498DB;stroke-width:2.0;" width="121" x="1327.5" y="980.1973"/><line style="stroke:#3498DB;stroke-width:2.0;" x1="1327.5" x2="1448.5" y1="1002.8462" y2="1002.8462"/><text fill="#2C3E50" font-family="Arial" font-size="11" lengthAdjust="spacing" textLength="101" x="1337.5" y="995.5151">Pending Confirmation</text></g><g id="Cancelled"><rect fill="#FFB6C1" filter="url(#f1tespdmiii6yq)" height="50" rx="12.5" ry="12.5" style="stroke:#3498DB;stroke-width:2.0;" width="67" x="1623.5" y="1816.1973"/><line style="stroke:#3498DB;stroke-width:2.0;" x1="1623.5" x2="1690.5" y1="1838.8462" y2="1838.8462"/><text fill="#2C3E50" font-family="Arial" font-size="11" lengthAdjust="spacing" textLength="47" x="1633.5" y="1831.5151">Cancelled</text></g><g id="elem_GMN31"><path d="M1484,987.6973 L1484,1001.1973 L1448.56,1005.1973 L1484,1009.1973 L1484,1022.9951 A0,0 0 0 0 1484,1022.9951 L1610,1022.9951 A0,0 0 0 0 1610,1022.9951 L1610,997.6973 L1600,987.6973 L1484,987.6973 A0,0 0 0 0 1484,987.6973 " fill="#FEFFDD" filter="url(#f1tespdmiii6yq)" style="stroke:#181818;stroke-width:0.5;"/><path d="M1600,987.6973 L1600,997.6973 L1610,997.6973 L1600,987.6973 " fill="#FEFFDD" style="stroke:#181818;stroke-width:0.5;"/><text fill="#2C3E50" font-family="Arial" font-size="11" lengthAdjust="spacing" textLength="105" x="1490" y="1003.0151">Waiting for restaurant</text><text fill="#2C3E50" font-family="Arial" font-size="11" lengthAdjust="spacing" textLength="104" x="1490" y="1015.6641">to accept/reject order</text></g><g id="Confirmed"><rect fill="#EBF5FB" filter="url(#f1tespdmiii6yq)" height="50" rx="12.5" ry="12.5" style="stroke:#3498DB;stroke-width:2.0;" width="69" x="1100.5" y="1117.1973"/><line style="stroke:#3498DB;stroke-width:2.0;" x1="1100.5" x2="1169.5" y1="1139.8462" y2="1139.8462"/><text fill="#2C3E50" font-family="Arial" font-size="11" lengthAdjust="spacing" textLength="49" x="1110.5" y="1132.5151">Confirmed</text></g><g id="Rejected"><rect fill="#FFA07A" filter="url(#f1tespdmiii6yq)" height="50" rx="12.5" ry="12.5" style="stroke:#3498DB;stroke-width:2.0;" width="62" x="1372" y="1117.1973"/><line style="stroke:#3498DB;stroke-width:2.0;" x1="1372" x2="1434" y1="1139.8462" y2="1139.8462"/><text fill="#2C3E50" font-family="Arial" font-size="11" lengthAdjust="spacing" textLength="42" x="1382" y="1132.5151">Rejected</text></g><rect fill="none" filter="url(#f1tespdmiii6yq)" height="441.6489" rx="12.5" ry="12.5" style="stroke:#3498DB;stroke-width:2.0;" width="177.7551" x="1179" y="1254.1973"/><path d="M1191.5,1254.1973 L1344.2551,1254.1973 A12.5,12.5 0 0 1 1356.7551,1266.6973 L1356.7551,1276.8462 L1179,1276.8462 L1179,1266.6973 A12.5,12.5 0 0 1 1191.5,1254.1973 " fill="#EBF5FB" style="stroke:#EBF5FB;stroke-width:1.0;"/><rect fill="none" height="441.6489" rx="12.5" ry="12.5" style="stroke:#3498DB;stroke-width:2.0;" width="177.7551" x="1179" y="1254.1973"/><line style="stroke:#3498DB;stroke-width:2.0;" x1="1179" x2="1356.7551" y1="1276.8462" y2="1276.8462"/><text fill="#2C3E50" font-family="Arial" font-size="11" lengthAdjust="spacing" textLength="46" x="1244.8775" y="1269.5151">Preparing</text><g id="Preparing.InKitchen"><rect fill="#EBF5FB" filter="url(#f1tespdmiii6yq)" height="50" rx="12.5" ry="12.5" style="stroke:#3498DB;stroke-width:2.0;" width="67" x="1214.2551" y="1344.8462"/><line style="stroke:#3498DB;stroke-width:2.0;" x1="1214.2551" x2="1281.2551" y1="1367.4951" y2="1367.4951"/><text fill="#2C3E50" font-family="Arial" font-size="11" lengthAdjust="spacing" textLength="47" x="1224.2551" y="1360.1641">In Kitchen</text></g><g id="Preparing.QualityCheck"><rect fill="#EBF5FB" filter="url(#f1tespdmiii6yq)" height="50" rx="12.5" ry="12.5" style="stroke:#3498DB;stroke-width:2.0;" width="86" x="1204.7551" y="1457.8462"/><line style="stroke:#3498DB;stroke-width:2.0;" x1="1204.7551" x2="1290.7551" y1="1480.4951" y2="1480.4951"/><text fill="#2C3E50" font-family="Arial" font-size="11" lengthAdjust="spacing" textLength="66" x="1214.7551" y="1473.1641">Quality Check</text></g><g id="Preparing.Packaging"><rect fill="#EBF5FB" filter="url(#f1tespdmiii6yq)" height="50" rx="12.5" ry="12.5" style="stroke:#3498DB;stroke-width:2.0;" width="69" x="1213.2551" y="1557.8462"/><line style="stroke:#3498DB;stroke-width:2.0;" x1="1213.2551" x2="1282.2551" y1="1580.4951" y2="1580.4951"/><text fill="#2C3E50" font-family="Arial" font-size="11" lengthAdjust="spacing" textLength="49" x="1223.2551" y="1573.1641">Packaging</text></g><ellipse cx="1247.7551" cy="1297.8462" fill="#222222" filter="url(#f1tespdmiii6yq)" rx="10" ry="10" style="stroke:#222222;stroke-width:1.0;"/><ellipse cx="1247.7551" cy="1668.8462" fill="none" filter="url(#f1tespdmiii6yq)" rx="11" ry="11" style="stroke:#222222;stroke-width:1.0;"/><ellipse cx="1247.7551" cy="1668.8462" fill="#222222" rx="6" ry="6" style="stroke:#222222;stroke-width:1.0;"/><!--link *start*Preparing to InKitchen--><g id="link_*start*Preparing_InKitchen"><path d="M1247.7551,1307.9962 C1247.7551,1317.2662 1247.7551,1325.9862 1247.7551,1338.6262 " fill="none" id="*start*Preparing-to-InKitchen" style="stroke:#34495E;stroke-width:1.5;"/><polygon fill="#34495E" points="1247.7551,1344.6262,1251.7551,1335.6262,1247.7551,1339.6262,1243.7551,1335.6262,1247.7551,1344.6262" style="stroke:#34495E;stroke-width:1.5;"/></g><!--link InKitchen to QualityCheck--><g id="link_InKitchen_QualityCheck"><path d="M1214.0251,1390.7762 C1206.6651,1396.8662 1199.8551,1404.2562 1195.7551,1412.8462 C1190.5851,1423.6762 1190.5851,1429.0162 1195.7551,1439.8462 C1198.9551,1446.5462 1199.4487,1448.4004 1204.9287,1453.5904 " fill="none" id="InKitchen-to-QualityCheck" style="stroke:#34495E;stroke-width:1.5;"/><polygon fill="#34495E" points="1209.2851,1457.7162,1205.5011,1448.6233,1205.6548,1454.278,1200,1454.4317,1209.2851,1457.7162" style="stroke:#34495E;stroke-width:1.5;"/><text fill="#2C3E50" font-family="Arial" font-size="11" lengthAdjust="spacing" textLength="81" x="1196.7551" y="1430.6641">cookingComplete</text></g><!--link QualityCheck to Packaging--><g id="link_QualityCheck_Packaging"><path d="M1247.7551,1508.0662 C1247.7551,1523.1462 1247.7551,1536.4762 1247.7551,1551.5562 " fill="none" id="QualityCheck-to-Packaging" style="stroke:#34495E;stroke-width:1.5;"/><polygon fill="#34495E" points="1247.7551,1557.5562,1251.7551,1548.5562,1247.7551,1552.5562,1243.7551,1548.5562,1247.7551,1557.5562" style="stroke:#34495E;stroke-width:1.5;"/><text fill="#2C3E50" font-family="Arial" font-size="11" lengthAdjust="spacing" textLength="79" x="1248.7551" y="1537.1641">qualityApproved</text></g><!--link QualityCheck to InKitchen--><g id="link_QualityCheck_InKitchen"><path d="M1269.6151,1457.5462 C1273.3751,1452.0762 1276.7151,1446.0462 1278.7551,1439.8462 C1282.5051,1428.4462 1282.5051,1424.2462 1278.7551,1412.8462 C1276.7151,1406.6462 1276.7738,1405.5607 1273.0138,1400.0907 " fill="none" id="QualityCheck-to-InKitchen" style="stroke:#34495E;stroke-width:1.5;"/><polygon fill="#34495E" points="1269.6151,1395.1462,1271.4169,1404.8288,1272.4474,1399.2666,1278.0096,1400.2971,1269.6151,1395.1462" style="stroke:#34495E;stroke-width:1.5;"/><text fill="#2C3E50" font-family="Arial" font-size="11" lengthAdjust="spacing" textLength="65" x="1281.7551" y="1424.1641">qualityFailed /</text><text fill="#2C3E50" font-family="Arial" font-size="11" lengthAdjust="spacing" textLength="57" x="1285.7551" y="1436.813">remake item</text></g><!--link Packaging to *end*Preparing--><g id="link_Packaging_*end*Preparing"><path d="M1247.7551,1608.1462 C1247.7551,1624.6162 1247.7551,1639.5362 1247.7551,1651.7362 " fill="none" id="Packaging-to-*end*Preparing" style="stroke:#34495E;stroke-width:1.5;"/><polygon fill="#34495E" points="1247.7551,1657.7362,1251.7551,1648.7362,1247.7551,1652.7362,1243.7551,1648.7362,1247.7551,1657.7362" style="stroke:#34495E;stroke-width:1.5;"/><text fill="#2C3E50" font-family="Arial" font-size="11" lengthAdjust="spacing" textLength="93" x="1248.7551" y="1637.1641">packagingComplete</text></g><g id="ReadyForPickup"><rect fill="#EBF5FB" filter="url(#f1tespdmiii6yq)" height="50" rx="12.5" ry="12.5" style="stroke:#3498DB;stroke-width:2.0;" width="104" x="1067" y="1816.1973"/><line style="stroke:#3498DB;stroke-width:2.0;" x1="1067" x2="1171" y1="1838.8462" y2="1838.8462"/><text fill="#2C3E50" font-family="Arial" font-size="11" lengthAdjust="spacing" textLength="84" x="1077" y="1831.5151">Ready For Pickup</text></g><g id="elem_GMN53"><path d="M1206.5,1823.6973 L1206.5,1837.1973 L1171.04,1841.1973 L1206.5,1845.1973 L1206.5,1858.9951 A0,0 0 0 0 1206.5,1858.9951 L1339.5,1858.9951 A0,0 0 0 0 1339.5,1858.9951 L1339.5,1833.6973 L1329.5,1823.6973 L1206.5,1823.6973 A0,0 0 0 0 1206.5,1823.6973 " fill="#FEFFDD" filter="url(#f1tespdmiii6yq)" style="stroke:#181818;stroke-width:0.5;"/><path d="M1329.5,1823.6973 L1329.5,1833.6973 L1339.5,1833.6973 L1329.5,1823.6973 " fill="#FEFFDD" style="stroke:#181818;stroke-width:0.5;"/><text fill="#2C3E50" font-family="Arial" font-size="11" lengthAdjust="spacing" textLength="99" x="1212.5" y="1839.0151">Order packaged and</text><text fill="#2C3E50" font-family="Arial" font-size="11" lengthAdjust="spacing" textLength="112" x="1212.5" y="1851.6641">awaiting delivery agent</text></g><g id="AssignedToAgent"><rect fill="#EBF5FB" filter="url(#f1tespdmiii6yq)" height="50" rx="12.5" ry="12.5" style="stroke:#3498DB;stroke-width:2.0;" width="98" x="317" y="1953.1973"/><line style="stroke:#3498DB;stroke-width:2.0;" x1="317" x2="415" y1="1975.8462" y2="1975.8462"/><text fill="#2C3E50" font-family="Arial" font-size="11" lengthAdjust="spacing" textLength="78" x="327" y="1968.5151">Agent Assigned</text></g><g id="Delivered"><rect fill="#90EE90" filter="url(#f1tespdmiii6yq)" height="50" rx="12.5" ry="12.5" style="stroke:#3498DB;stroke-width:2.0;" width="65" x="450.5" y="1953.1973"/><line style="stroke:#3498DB;stroke-width:2.0;" x1="450.5" x2="515.5" y1="1975.8462" y2="1975.8462"/><text fill="#2C3E50" font-family="Arial" font-size="11" lengthAdjust="spacing" textLength="45" x="460.5" y="1968.5151">Delivered</text></g><g id="elem_GMN73"><path d="M550.5,1960.6973 L550.5,1974.1973 L515.75,1978.1973 L550.5,1982.1973 L550.5,1995.9951 A0,0 0 0 0 550.5,1995.9951 L675.5,1995.9951 A0,0 0 0 0 675.5,1995.9951 L675.5,1970.6973 L665.5,1960.6973 L550.5,1960.6973 A0,0 0 0 0 550.5,1960.6973 " fill="#FEFFDD" filter="url(#f1tespdmiii6yq)" style="stroke:#181818;stroke-width:0.5;"/><path d="M665.5,1960.6973 L665.5,1970.6973 L675.5,1970.6973 L665.5,1960.6973 " fill="#FEFFDD" style="stroke:#181818;stroke-width:0.5;"/><text fill="#2C3E50" font-family="Arial" font-size="11" lengthAdjust="spacing" textLength="93" x="556.5" y="1976.0151">Order successfully</text><text fill="#2C3E50" font-family="Arial" font-size="11" lengthAdjust="spacing" textLength="104" x="556.5" y="1988.6641">delivered to customer</text></g><g id="Completed"><rect fill="#98FB98" filter="url(#f1tespdmiii6yq)" height="50" rx="12.5" ry="12.5" style="stroke:#3498DB;stroke-width:2.0;" width="70" x="570" y="2090.1973"/><line style="stroke:#3498DB;stroke-width:2.0;" x1="570" x2="640" y1="2112.8462" y2="2112.8462"/><text fill="#2C3E50" font-family="Arial" font-size="11" lengthAdjust="spacing" textLength="50" x="580" y="2105.5151">Completed</text></g><g id="elem_GMN79"><path d="M1463.5,1817.1973 L1463.5,1865.144 A0,0 0 0 0 1463.5,1865.144 L1588.5,1865.144 A0,0 0 0 0 1588.5,1865.144 L1588.5,1845.1973 L1623.38,1841.1973 L1588.5,1837.1973 L1588.5,1827.1973 L1578.5,1817.1973 L1463.5,1817.1973 A0,0 0 0 0 1463.5,1817.1973 " fill="#FEFFDD" filter="url(#f1tespdmiii6yq)" style="stroke:#181818;stroke-width:0.5;"/><path d="M1578.5,1817.1973 L1578.5,1827.1973 L1588.5,1827.1973 L1578.5,1817.1973 " fill="#FEFFDD" style="stroke:#181818;stroke-width:0.5;"/><text fill="#2C3E50" font-family="Arial" font-size="11" lengthAdjust="spacing" textLength="92" x="1469.5" y="1832.5151">Order cancelled by</text><text fill="#2C3E50" font-family="Arial" font-size="11" lengthAdjust="spacing" textLength="104" x="1469.5" y="1845.1641">customer, restaurant,</text><text fill="#2C3E50" font-family="Arial" font-size="11" lengthAdjust="spacing" textLength="85" x="1469.5" y="1857.813">or system timeout</text></g><g id="elem_GMN83"><path d="M1205,1118.1973 L1205,1166.144 A0,0 0 0 0 1205,1166.144 L1337,1166.144 A0,0 0 0 0 1337,1166.144 L1337,1146.1973 L1371.93,1142.1973 L1337,1138.1973 L1337,1128.1973 L1327,1118.1973 L1205,1118.1973 A0,0 0 0 0 1205,1118.1973 " fill="#FEFFDD" filter="url(#f1tespdmiii6yq)" style="stroke:#181818;stroke-width:0.5;"/><path d="M1327,1118.1973 L1327,1128.1973 L1337,1128.1973 L1327,1118.1973 " fill="#FEFFDD" style="stroke:#181818;stroke-width:0.5;"/><text fill="#2C3E50" font-family="Arial" font-size="11" lengthAdjust="spacing" textLength="85" x="1211" y="1133.5151">Order rejected by</text><text fill="#2C3E50" font-family="Arial" font-size="11" lengthAdjust="spacing" textLength="111" x="1211" y="1146.1641">restaurant (unavailable</text><text fill="#2C3E50" font-family="Arial" font-size="11" lengthAdjust="spacing" textLength="100" x="1211" y="1158.813">items, capacity, etc.)</text></g><g id="DeliveryFailed"><rect fill="#FFD700" filter="url(#f1tespdmiii6yq)" height="50" rx="12.5" ry="12.5" style="stroke:#3498DB;stroke-width:2.0;" width="90" x="749" y="2090.1973"/><line style="stroke:#3498DB;stroke-width:2.0;" x1="749" x2="839" y1="2112.8462" y2="2112.8462"/><text fill="#2C3E50" font-family="Arial" font-size="11" lengthAdjust="spacing" textLength="70" x="759" y="2105.5151">Delivery Failed</text></g><!--link *start* to CartActive--><g id="link_*start*_CartActive"><path d="M1007,79.2473 C1007,93.1573 1007,115.5273 1007,146.9473 " fill="none" id="*start*-to-CartActive" style="stroke:#34495E;stroke-width:1.5;"/><polygon fill="#34495E" points="1007,152.9473,1011,143.9473,1007,147.9473,1003,143.9473,1007,152.9473" style="stroke:#34495E;stroke-width:1.5;"/><text fill="#2C3E50" font-family="Arial" font-size="11" lengthAdjust="spacing" textLength="129" x="1008" y="120.5151">Customer adds item to cart</text></g><!--link CartActive to OrderPlaced--><g id="link_CartActive_OrderPlaced"><path d="M1204.59,423.3673 C1309.93,494.9073 1429.7361,576.2569 1513.4061,633.0669 " fill="none" id="CartActive-to-OrderPlaced" style="stroke:#34495E;stroke-width:1.5;"/><polygon fill="#34495E" points="1518.37,636.4373,1513.171,628.0724,1514.2334,633.6286,1508.6772,634.691,1518.37,636.4373" style="stroke:#34495E;stroke-width:1.5;"/><text fill="#2C3E50" font-family="Arial" font-size="11" lengthAdjust="spacing" textLength="78" x="1276.5" y="464.5151">confirmOrder() /</text><text fill="#2C3E50" font-family="Arial" font-size="11" lengthAdjust="spacing" textLength="83" x="1274" y="477.1641">generate OrderID</text></g><!--link CartActive to *end*--><g id="link_CartActive_*end*"><path d="M992.75,423.3973 C985.42,503.7373 978,607.9473 978,700.6973 C978,700.6973 978,700.6973 978,2116.1973 C978,2162.8373 978,2212.5473 978,2235.0373 " fill="none" id="CartActive-to-*end*" style="stroke:#34495E;stroke-width:1.5;"/><polygon fill="#34495E" points="978,2241.0373,982,2232.0373,978,2236.0373,974,2232.0373,978,2241.0373" style="stroke:#34495E;stroke-width:1.5;"/><text fill="#2C3E50" font-family="Arial" font-size="11" lengthAdjust="spacing" textLength="164" x="979" y="1473.0151">cartAbandoned [timeout &gt; 30min] /</text><text fill="#2C3E50" font-family="Arial" font-size="11" lengthAdjust="spacing" textLength="64" x="1029" y="1485.6641">release items</text></g><!--link OrderPlaced to PendingConfirmation--><g id="link_OrderPlaced_PendingConfirmation"><path d="M1518.23,829.6873 C1476.08,886.1773 1434.098,942.4183 1409.618,975.2283 " fill="none" id="OrderPlaced-to-PendingConfirmation" style="stroke:#34495E;stroke-width:1.5;"/><polygon fill="#34495E" points="1406.03,980.0373,1414.618,975.2159,1409.02,976.0298,1408.2061,970.4318,1406.03,980.0373" style="stroke:#34495E;stroke-width:1.5;"/><text fill="#2C3E50" font-family="Arial" font-size="11" lengthAdjust="spacing" textLength="97" x="1449" y="934.5151">paymentCompleted /</text><text fill="#2C3E50" font-family="Arial" font-size="11" lengthAdjust="spacing" textLength="80" x="1457.5" y="947.1641">notify restaurant</text></g><!--link OrderPlaced to Cancelled--><g id="link_OrderPlaced_Cancelled"><path d="M1670.14,893.4173 C1677.2,929.8573 1682,967.9473 1682,1004.1973 C1682,1004.1973 1682,1004.1973 1682,1476.1973 C1682,1604.4673 1667.0279,1751.6046 1660.4879,1809.9946 " fill="none" id="OrderPlaced-to-Cancelled" style="stroke:#34495E;stroke-width:1.5;"/><polygon fill="#34495E" points="1659.82,1815.9573,1664.7969,1807.4584,1660.3765,1810.9883,1656.8466,1806.568,1659.82,1815.9573" style="stroke:#34495E;stroke-width:1.5;"/><text fill="#2C3E50" font-family="Arial" font-size="11" lengthAdjust="spacing" textLength="152" x="1683" y="1140.0151">paymentTimeout [time &gt; 15min] /</text><text fill="#2C3E50" font-family="Arial" font-size="11" lengthAdjust="spacing" textLength="65" x="1726.5" y="1152.6641">release order</text></g><!--link OrderPlaced to Cancelled--><g id="link_OrderPlaced_Cancelled"><path d="M1707.72,750.0073 C1793.33,800.2273 1906,888.3273 1906,1004.1973 C1906,1004.1973 1906,1004.1973 1906,1476.1973 C1906,1627.9873 1761.3795,1759.2597 1694.0095,1812.4397 " fill="none" id="OrderPlaced-to-Cancelled-1" style="stroke:#34495E;stroke-width:1.5;"/><polygon fill="#34495E" points="1689.3,1816.1573,1698.8427,1813.7206,1693.2246,1813.0593,1693.8859,1807.4412,1689.3,1816.1573" style="stroke:#34495E;stroke-width:1.5;"/><text fill="#2C3E50" font-family="Arial" font-size="11" lengthAdjust="spacing" textLength="181" x="1907" y="1146.5151">customerCancelRequest [within 2min]</text></g><!--link PendingConfirmation to Confirmed--><g id="link_PendingConfirmation_Confirmed"><path d="M1327.44,1015.5673 C1290.49,1023.3173 1243.51,1036.9473 1207,1060.1973 C1183.99,1074.8473 1167.4608,1094.0216 1154.4008,1112.1216 " fill="none" id="PendingConfirmation-to-Confirmed" style="stroke:#34495E;stroke-width:1.5;"/><polygon fill="#34495E" points="1150.89,1116.9873,1159.3999,1112.0293,1153.8157,1112.9326,1152.9124,1107.3483,1150.89,1116.9873" style="stroke:#34495E;stroke-width:1.5;"/><text fill="#2C3E50" font-family="Arial" font-size="11" lengthAdjust="spacing" textLength="97" x="1233" y="1071.5151">restaurantAccepts /</text><text fill="#2C3E50" font-family="Arial" font-size="11" lengthAdjust="spacing" textLength="147" x="1208" y="1084.1641">update status, notify customer</text></g><!--link PendingConfirmation to Rejected--><g id="link_PendingConfirmation_Rejected"><path d="M1374.71,1030.4373 C1367.56,1046.6073 1361.27,1068.2873 1367,1087.1973 C1370.2,1097.7673 1372.7706,1103.255 1378.9806,1112.055 " fill="none" id="PendingConfirmation-to-Rejected" style="stroke:#34495E;stroke-width:1.5;"/><polygon fill="#34495E" points="1382.44,1116.9573,1380.519,1107.2976,1379.5571,1112.872,1373.9827,1111.9102,1382.44,1116.9573" style="stroke:#34495E;stroke-width:1.5;"/><text fill="#2C3E50" font-family="Arial" font-size="11" lengthAdjust="spacing" textLength="92" x="1368" y="1071.5151">restaurantRejects /</text><text fill="#2C3E50" font-family="Arial" font-size="11" lengthAdjust="spacing" textLength="65" x="1381.5" y="1084.1641">initiate refund</text></g><!--link PendingConfirmation to Cancelled--><g id="link_PendingConfirmation_Cancelled"><path d="M1435.66,1030.3273 C1447.02,1038.3173 1457.9,1048.2773 1465,1060.1973 C1502.55,1123.2373 1469.81,1152.2073 1484,1224.1973 C1530.23,1458.7873 1619.0931,1728.6951 1646.8331,1810.4951 " fill="none" id="PendingConfirmation-to-Cancelled" style="stroke:#34495E;stroke-width:1.5;"/><polygon fill="#34495E" points="1648.76,1816.1773,1649.6577,1806.3694,1647.1542,1811.4421,1642.0815,1808.9386,1648.76,1816.1773" style="stroke:#34495E;stroke-width:1.5;"/><text fill="#2C3E50" font-family="Arial" font-size="11" lengthAdjust="spacing" textLength="170" x="1485" y="1208.5151">confirmationTimeout [time &gt; 10min] /</text><text fill="#2C3E50" font-family="Arial" font-size="11" lengthAdjust="spacing" textLength="57" x="1541.5" y="1221.1641">auto-refund</text></g><!--link Confirmed to Preparing--><g id="link_Confirmed_Preparing"><path d="M1144.67,1167.2673 C1152.83,1187.5773 1163.1737,1213.2996 1177.2237,1248.2796 " fill="none" id="Confirmed-to-Preparing" style="stroke:#34495E;stroke-width:1.5;"/><polygon fill="#34495E" points="1179.46,1253.8473,1179.8173,1244.0049,1177.5964,1249.2075,1172.3938,1246.9866,1179.46,1253.8473" style="stroke:#34495E;stroke-width:1.5;"/><text fill="#2C3E50" font-family="Arial" font-size="11" lengthAdjust="spacing" textLength="140" x="1168" y="1208.5151">restaurantStartsPreparation /</text><text fill="#2C3E50" font-family="Arial" font-size="11" lengthAdjust="spacing" textLength="56" x="1210" y="1221.1641">update ETA</text></g><!--link Preparing to ReadyForPickup--><g id="link_Preparing_ReadyForPickup"><path d="M1178.9,1662.3373 C1169.71,1683.6973 1160.88,1705.2973 1153,1726.1973 C1141.56,1756.5373 1132.9076,1786.7376 1126.7276,1810.0476 " fill="none" id="Preparing-to-ReadyForPickup" style="stroke:#34495E;stroke-width:1.5;"/><polygon fill="#34495E" points="1125.19,1815.8473,1131.3628,1808.1729,1126.4713,1811.0142,1123.63,1806.1227,1125.19,1815.8473" style="stroke:#34495E;stroke-width:1.5;"/><text fill="#2C3E50" font-family="Arial" font-size="11" lengthAdjust="spacing" textLength="105" x="1154" y="1737.5151">preparationComplete /</text><text fill="#2C3E50" font-family="Arial" font-size="11" lengthAdjust="spacing" textLength="103" x="1155" y="1750.1641">assign delivery agent</text></g><!--link ReadyForPickup to AssignedToAgent--><g id="link_ReadyForPickup_AssignedToAgent"><path d="M1066.7,1847.3473 C951.06,1859.4473 665.49,1893.2873 433,1953.1973 C427.14,1954.7073 426.7672,1954.6658 420.7872,1956.6058 " fill="none" id="ReadyForPickup-to-AssignedToAgent" style="stroke:#34495E;stroke-width:1.5;"/><polygon fill="#34495E" points="415.08,1958.4573,424.8751,1959.4848,419.836,1956.9144,422.4064,1951.8752,415.08,1958.4573" style="stroke:#34495E;stroke-width:1.5;"/><text fill="#2C3E50" font-family="Arial" font-size="11" lengthAdjust="spacing" textLength="79" x="695" y="1907.5151">agentAssigned /</text><text fill="#2C3E50" font-family="Arial" font-size="11" lengthAdjust="spacing" textLength="57" x="706" y="1920.1641">notify agent</text></g><!--link *start*OutForDelivery to AssignedToAgent--><g id="link_*start*OutForDelivery_AssignedToAgent"><path d="M243.1,1850.9273 C245.36,1856.0973 248.92,1862.3573 254,1866.1973 C296.46,1898.3373 337.4,1854.0873 370,1896.1973 C382.33,1912.1173 381.2059,1929.7379 376.4259,1947.2979 " fill="none" id="*start*OutForDelivery-to-AssignedToAgent" style="stroke:#34495E;stroke-width:1.5;"/><polygon fill="#34495E" points="374.85,1953.0873,381.0734,1945.4539,376.1633,1948.2628,373.3543,1943.3526,374.85,1953.0873" style="stroke:#34495E;stroke-width:1.5;"/></g><!--link AssignedToAgent to EnRouteToRestaurant--><g id="link_AssignedToAgent_EnRouteToRestaurant"><path d="M316.98,1961.1073 C291.6,1951.7773 260.65,1938.7773 235,1923.1973 C219.1,1913.5373 218.14,1907.0173 203,1896.1973 C188.32,1885.7073 176.7093,1878.3033 161.6393,1869.4233 " fill="none" id="AssignedToAgent-to-EnRouteToRestaurant" style="stroke:#34495E;stroke-width:1.5;"/><polygon fill="#34495E" points="156.47,1866.3773,162.1933,1874.3925,160.7778,1868.9156,166.2546,1867.5001,156.47,1866.3773" style="stroke:#34495E;stroke-width:1.5;"/><text fill="#2C3E50" font-family="Arial" font-size="11" lengthAdjust="spacing" textLength="125" x="236" y="1914.0151">agentAcceptsAssignment</text></g><!--link EnRouteToRestaurant to AtRestaurant--><g id="link_EnRouteToRestaurant_AtRestaurant"><path d="M88.05,1866.3873 C80.79,1875.0273 73.8,1885.3373 70,1896.1973 C63.57,1914.5873 64.7949,1930.8332 68.4949,1947.3032 " fill="none" id="EnRouteToRestaurant-to-AtRestaurant" style="stroke:#34495E;stroke-width:1.5;"/><polygon fill="#34495E" points="69.81,1953.1573,71.74,1943.4994,68.7141,1948.2789,63.9346,1945.2529,69.81,1953.1573" style="stroke:#34495E;stroke-width:1.5;"/><text fill="#2C3E50" font-family="Arial" font-size="11" lengthAdjust="spacing" textLength="127" x="71" y="1914.0151">agentArrivesAtRestaurant</text></g><!--link AtRestaurant to PickedUp--><g id="link_AtRestaurant_PickedUp"><path d="M78.61,2003.3373 C80.24,2027.7573 82.3419,2059.3205 83.9719,2083.8305 " fill="none" id="AtRestaurant-to-PickedUp" style="stroke:#34495E;stroke-width:1.5;"/><polygon fill="#34495E" points="84.37,2089.8173,87.764,2080.5717,84.0382,2084.8283,79.7816,2081.1025,84.37,2089.8173" style="stroke:#34495E;stroke-width:1.5;"/><text fill="#2C3E50" font-family="Arial" font-size="11" lengthAdjust="spacing" textLength="76" x="84" y="2044.5151">orderCollected /</text><text fill="#2C3E50" font-family="Arial" font-size="11" lengthAdjust="spacing" textLength="56" x="94" y="2057.1641">verify items</text></g><!--link PickedUp to EnRouteToCustomer--><g id="link_PickedUp_EnRouteToCustomer"><path d="M87.25,2140.3373 C88.52,2164.7573 90.1471,2196.3154 91.4271,2220.8254 " fill="none" id="PickedUp-to-EnRouteToCustomer" style="stroke:#34495E;stroke-width:1.5;"/><polygon fill="#34495E" points="91.74,2226.8173,95.2652,2217.6209,91.4792,2221.8241,87.2761,2218.0381,91.74,2226.8173" style="stroke:#34495E;stroke-width:1.5;"/><text fill="#2C3E50" font-family="Arial" font-size="11" lengthAdjust="spacing" textLength="124" x="92" y="2181.5151">agentDepartsRestaurant /</text><text fill="#2C3E50" font-family="Arial" font-size="11" lengthAdjust="spacing" textLength="63" x="122.5" y="2194.1641">start tracking</text></g><!--link EnRouteToCustomer to ArrivedAtLocation--><g id="link_EnRouteToCustomer_ArrivedAtLocation"><path d="M93,2277.2973 C93,2298.6873 93,2323.7673 93,2345.1473 " fill="none" id="EnRouteToCustomer-to-ArrivedAtLocation" style="stroke:#34495E;stroke-width:1.5;"/><polygon fill="#34495E" points="93,2351.1473,97,2342.1473,93,2346.1473,89,2342.1473,93,2351.1473" style="stroke:#34495E;stroke-width:1.5;"/><text fill="#2C3E50" font-family="Arial" font-size="11" lengthAdjust="spacing" textLength="120" x="94" y="2318.5151">agentArrivesAtCustomer</text></g><!--link OutForDelivery to Delivered--><g id="link_OutForDelivery_Delivered"><path d="M293.0784,1844.9253 C293.2676,1844.9913 293.4597,1845.0584 293.6547,1845.1266 C294.0447,1845.2632 294.4463,1845.4043 294.8592,1845.5499 C295.6849,1845.8412 296.5557,1846.1506 297.4689,1846.4779 C304.7747,1849.096 314.7956,1852.8548 326.1788,1857.5823 C348.945,1867.0373 377.16,1880.3673 400,1896.1973 C423.5,1912.4873 442.4354,1931.1864 458.2254,1948.5664 " fill="none" id="OutForDelivery-to-Delivered" style="stroke:#34495E;stroke-width:1.5;"/><polygon fill="#34495E" points="462.26,1953.0073,459.1687,1943.6561,458.8978,1949.3065,453.2474,1949.0357,462.26,1953.0073" style="stroke:#34495E;stroke-width:1.5;"/><text fill="#2C3E50" font-family="Arial" font-size="11" lengthAdjust="spacing" textLength="93" x="436.5" y="1907.5151">deliveryConfirmed /</text><text fill="#2C3E50" font-family="Arial" font-size="11" lengthAdjust="spacing" textLength="100" x="433" y="1920.1641">complete transaction</text></g><!--link Delivered to Completed--><g id="link_Delivered_Completed"><path d="M504.81,2003.3373 C526.88,2027.7573 556.7971,2060.8557 578.9471,2085.3657 " fill="none" id="Delivered-to-Completed" style="stroke:#34495E;stroke-width:1.5;"/><polygon fill="#34495E" points="582.97,2089.8173,579.9033,2080.458,579.6176,2086.1077,573.9679,2085.8219,582.97,2089.8173" style="stroke:#34495E;stroke-width:1.5;"/><text fill="#2C3E50" font-family="Arial" font-size="11" lengthAdjust="spacing" textLength="130" x="555" y="2044.5151">customerConfirmsReceipt /</text><text fill="#2C3E50" font-family="Arial" font-size="11" lengthAdjust="spacing" textLength="85" x="577.5" y="2057.1641">request feedback</text></g><!--link Completed to *end*--><g id="link_Completed_*end*"><path d="M640.09,2128.8973 C721.7,2158.4373 915.2378,2228.4862 962.2878,2245.5062 " fill="none" id="Completed-to-*end*" style="stroke:#34495E;stroke-width:1.5;"/><polygon fill="#34495E" points="967.93,2247.5473,960.8274,2240.7243,963.2282,2245.8464,958.106,2248.2472,967.93,2247.5473" style="stroke:#34495E;stroke-width:1.5;"/></g><!--link Cancelled to *end*--><g id="link_Cancelled_*end*"><path d="M1650.05,1866.4273 C1629.7,1932.4873 1563.48,2116.2573 1436,2197.1973 C1358.44,2246.4373 1057.8499,2250.7509 995.2099,2251.1309 " fill="none" id="Cancelled-to-*end*" style="stroke:#34495E;stroke-width:1.5;"/><polygon fill="#34495E" points="989.21,2251.1673,998.2341,2255.1126,994.2099,2251.1369,998.1856,2247.1127,989.21,2251.1673" style="stroke:#34495E;stroke-width:1.5;"/></g><!--link Rejected to *end*--><g id="link_Rejected_*end*"><path d="M1403.86,1167.2773 C1405.73,1221.8773 1410,1359.2373 1410,1474.1973 C1410,1474.1973 1410,1474.1973 1410,2116.1973 C1410,2207.1473 1062.7048,2243.4577 995.0848,2249.6777 " fill="none" id="Rejected-to-*end*" style="stroke:#34495E;stroke-width:1.5;"/><polygon fill="#34495E" points="989.11,2250.2273,998.4386,2253.3861,994.089,2249.7693,997.7058,2245.4197,989.11,2250.2273" style="stroke:#34495E;stroke-width:1.5;"/></g><!--link Preparing to Cancelled--><g id="link_Preparing_Cancelled"><path d="M1339.99,1696.4273 C1355.28,1718.5973 1373.74,1738.3573 1396,1753.1973 C1415.43,1766.1473 1585.71,1749.6373 1606,1761.1973 C1626.85,1773.0773 1638.2144,1791.839 1646.1244,1810.369 " fill="none" id="Preparing-to-Cancelled" style="stroke:#34495E;stroke-width:1.5;"/><polygon fill="#34495E" points="1648.48,1815.8873,1648.6254,1806.0395,1646.517,1811.2887,1641.2678,1809.1803,1648.48,1815.8873" style="stroke:#34495E;stroke-width:1.5;"/><text fill="#2C3E50" font-family="Arial" font-size="11" lengthAdjust="spacing" textLength="63" x="1397" y="1737.5151">criticalIssue /</text><text fill="#2C3E50" font-family="Arial" font-size="11" lengthAdjust="spacing" textLength="49" x="1404" y="1750.1641">full refund</text></g><!--link OutForDelivery to DeliveryFailed--><g id="link_OutForDelivery_DeliveryFailed"><path d="M293.2022,1842.0895 C293.3992,1842.0887 293.5995,1842.0881 293.8031,1842.0875 C294.2104,1842.0863 294.631,1842.0856 295.0647,1842.0853 C295.9321,1842.0847 296.852,1842.086 297.8229,1842.0896 C305.5905,1842.1187 316.6267,1842.2986 330.2072,1842.8868 C357.3681,1844.0632 394.7063,1846.8729 436.4275,1853.376 C519.87,1866.3823 620.845,1894.1623 693,1953.1973 C738.97,1990.8073 767.9263,2049.5872 782.4263,2084.4572 " fill="none" id="OutForDelivery-to-DeliveryFailed" style="stroke:#34495E;stroke-width:1.5;"/><polygon fill="#34495E" points="784.73,2089.9973,784.9678,2080.1513,782.8102,2085.3805,777.581,2083.2229,784.73,2089.9973" style="stroke:#34495E;stroke-width:1.5;"/><text fill="#2C3E50" font-family="Arial" font-size="11" lengthAdjust="spacing" textLength="177" x="738" y="1982.5151">deliveryAttemptFailed [attempts &gt;= 3]</text></g><!--link DeliveryFailed to *end*--><g id="link_DeliveryFailed_*end*"><path d="M826.9,2140.3373 C870.31,2172.1873 939.3429,2222.8273 964.4829,2241.2773 " fill="none" id="DeliveryFailed-to-*end*" style="stroke:#34495E;stroke-width:1.5;"/><polygon fill="#34495E" points="969.32,2244.8273,964.4309,2236.2776,965.289,2241.869,959.6977,2242.7271,969.32,2244.8273" style="stroke:#34495E;stroke-width:1.5;"/></g><!--SRC=[jLZTJzj847_FNx4w7WvEq48ffLHg9UCuabKWEIVqhg9zMEnDuelZJUqrA5VT_twpivzsGfyI7gfwTcPslkUt4Rae61aBAXYvfUayBndfvtHMqIKv8SCgOnMUDZMvoQSiNQS5-rOEoq8o3ZZF54zUpiXuNGksxFNgHLwkg5JmiqVWxvgcYrd5cp8BUS4hyZpF1SEJyPnc_5dAYgfHf3wRqgOG0rwAExfa9AXoMdHFnlc_Z9oTTSbA_S6Ry3owECN3eAhuysIUfukIrJKvUtNXo9hx_EtRgukezvzlTutXs6xzGNGzk1XSgpCkVRUAhjxtVRgxzutoLj3AsdWPHE-KZP7JVFasF0-bAR-JZply0tNnNJo9WniodWIJQDVg7_xuJavEFf4G_0jIaJynye64JItu4gg7PbbD8EDB8ZX9WMKFxeL1Cb6-ZSbXo9ShNiEDggoFTdsTgexVndE-MidQbMx_HcZj-wzgnmGc1k_hk9JdICT_j1ey8t7fr7IvDQFy9hSyowSvo-nzXh31cR2dd3rxd8RWBF0kilap-Y23pIe3TP8e6G-FoEjlPSLIMgHD8UyHNEZMR0bs70P5Cldtg2nxyLvZ7R2lAfuobaruE6VfWZVYyCZUOjasRqbX0kHbmqnUngnWgRmI-idBZ1J4aJKgQ8htWU0qhvP8L5xEMCagwIBIudvNNkRr0zPoy4ZBZ9UWvq7aImR6aa_a_7IPbzzLk0f6QuOHgFTGzyEa7oLaT1E4KNy_lQrBIYq25JAiA3-4F_tY2vvfBcHRZEXwoKfLqeQeQJw_9f6Hp7fT0nDAQBAZRfFv0el7TeCc6fehSzE5supeq91lusfPmYMmmTtwJ5Va9gSdRmoH5QqeuoQLVB8mO3PMq44LBMiATSNBN-ZhscZr3MXUW7vGL_0PcS9NKp5Pxdvoq29MPg0WL8LEvNrEYnoN1HDAKSb5FbsJYa6a6x1EREWAQPcoel3zckZAnnQ0-Z-xwDO_xiDVgahrkb2qXFrem0Joy9mBW2JaZLIuZxqnl1l4oMqmYOTtU-qVdG7Yfq1LxMPgUf04HgfyDXU4JxTo4FANxh8f00SlMqGkMGfbjXAlA_OF340TUr12fDvURrinO3OK0RFXD0Qe2sjMxGFimQO-9hfKJE9Ur9kW6HsrYeXgJMl1wHHGrils-TNY7MvKdvs-j17yH6lTM-tiUV3QhAWzRhvwBblOu1K3vAf6bGio0ivQdQaukYn6as0FCHabqIX8l7RoqDY-S9ZrNVMJZKHhAm6- -foBTCvKryMb_l9v_cneaOirGTY1R9g2XFR-IHTqvbQL_jfSEUrxx1UU-SgnfFa2orvDOnHeiQZLegy2WH_gC5W1NdhI-sv3m5rf1TpMgDYIBXGuqUl7Q7SWPsLerZ3OBox8gi5fjXxmQWJFdMQ50CvMd972TeILDYj9nWh0KTMQq9dSmhilmYGA-b_9O0Z0A0u_tu_ssf_eF3o40HoX-rWHxOXqvdddaEX7jWeq90O09H2fWL6TSBavtWax8WMCi8JEmKmX1HGoP6_1xols_UWc_X8bNpSVO_jg_o6CVXd-lewJGgUD09eXTG0gXiR4HC7JTjmskQEI9B1Zv9i7ycVcAyf69PvCUE9lOISlkWA1sCwf8JPa4p9rhmf9VTslV3xV5lF8RbjYg2qxgWfY0TKbo0rF7VxGz40OwXRSl2KwtKgJV5iYOIjGeGWbPS7tDW6yK6pHW7RM6y5hyUA8r243GVFhZ7e7okf_afXyhPzZEF8CTyi1-zk5lhmlvvcelPiGmijt9q3uT65c_wO2TASRuWsVRC8aTc-NhbIWFn3vc77WzZ-OafefwpyeTj_SaoYvZU_ChqZZFJMqzHRhq_b-S7KQHLUddMbgp-qWhTKhQzeKnHg8cLKWVtuoWNPZr5sWGB1v37bF4XLgI7_AyfLGcrEzJwQCPOzG03q7rxIyXcj6sy7L-y7rrVkUe-WLwoGDlDK_s1YmUp0ONByBpvJR1PkYr_ROUfrQWKVfjR7zs8E3nq27GLdZpxH4_rpXHSBTsRNDG7Yzt3IU1yk2qykWRPavjOPLXXtjSjQGmwQaJu15w6CXqGxsv37u0OiGKCenOI9zTTJQTrgHjMxd1Hxz7KOZ1A-J9BWRn_A_Eo_pDdXglMegMFafBUAwRX0noHespwANvu91T6uu10A2kJA_3pnGzLcJJn_9kSkgrQNu_7OpAY75_SlJqrw7R3FmFm00]--></g></svg>