<?xml version="1.0" encoding="us-ascii" standalone="no"?><svg xmlns="http://www.w3.org/2000/svg" xmlns:xlink="http://www.w3.org/1999/xlink" contentStyleType="text/css" height="893px" preserveAspectRatio="none" style="width:1948px;height:893px;background:#FFFFFF;" version="1.1" viewBox="0 0 1948 893" width="1948px" zoomAndPan="magnify"><defs><filter height="300%" id="fov0oxlk0qlxl" width="300%" x="-1" y="-1"><feGaussianBlur result="blurOut" stdDeviation="2.0"/><feColorMatrix in="blurOut" result="blurOut2" type="matrix" values="0 0 0 0 0 0 0 0 0 0 0 0 0 0 0 0 0 0 .4 0"/><feOffset dx="4.0" dy="4.0" in="blurOut2" result="blurOut3"/><feBlend in="SourceGraphic" in2="blurOut3" mode="normal"/></filter></defs><g><text fill="#2C3E50" font-family="Arial" font-size="14" font-weight="bold" lengthAdjust="spacing" textLength="404" x="765.065" y="23.1318">Data Flow Diagram Level 1 - Online Food Ordering System</text><!--entity CUSTOMER--><g id="elem_CUSTOMER"><rect fill="#D6EAF8" filter="url(#fov0oxlk0qlxl)" height="33.7988" rx="6" ry="6" style="stroke:#181818;stroke-width:0.5;" width="75" x="684.63" y="44.0986"/><text fill="#2C3E50" font-family="Arial" font-size="12" lengthAdjust="spacing" textLength="55" x="694.63" y="65.3545">Customer</text></g><!--entity RESTAURANT--><g id="elem_RESTAURANT"><rect fill="#D6EAF8" filter="url(#fov0oxlk0qlxl)" height="33.7988" rx="6" ry="6" style="stroke:#181818;stroke-width:0.5;" width="81" x="957.63" y="720.5986"/><text fill="#2C3E50" font-family="Arial" font-size="12" lengthAdjust="spacing" textLength="61" x="967.63" y="741.8545">Restaurant</text></g><!--entity DELIVERY_AGENT--><g id="elem_DELIVERY_AGENT"><rect fill="#D6EAF8" filter="url(#fov0oxlk0qlxl)" height="33.7988" rx="6" ry="6" style="stroke:#181818;stroke-width:0.5;" width="97" x="847.63" y="838.5986"/><text fill="#2C3E50" font-family="Arial" font-size="12" lengthAdjust="spacing" textLength="77" x="857.63" y="859.8545">Delivery Agent</text></g><!--entity PAYMENT_GATEWAY--><g id="elem_PAYMENT_GATEWAY"><rect fill="#D6EAF8" filter="url(#fov0oxlk0qlxl)" height="33.7988" rx="6" ry="6" style="stroke:#181818;stroke-width:0.5;" width="118" x="1509.13" y="720.5986"/><text fill="#2C3E50" font-family="Arial" font-size="12" lengthAdjust="spacing" textLength="98" x="1519.13" y="741.8545">Payment Gateway</text></g><!--entity NOTIFICATION_SERVICE--><g id="elem_NOTIFICATION_SERVICE"><rect fill="#D6EAF8" filter="url(#fov0oxlk0qlxl)" height="33.7988" rx="6" ry="6" style="stroke:#181818;stroke-width:0.5;" width="124" x="1277.13" y="838.5986"/><text fill="#2C3E50" font-family="Arial" font-size="12" lengthAdjust="spacing" textLength="104" x="1287.13" y="859.8545">Notification Service</text></g><!--entity P1--><g id="elem_P1"><rect fill="#E8F8F5" filter="url(#fov0oxlk0qlxl)" height="33.7988" rx="6" ry="6" style="stroke:#181818;stroke-width:0.5;" width="142" x="46.13" y="153.0986"/><text fill="#2C3E50" font-family="Arial" font-size="12" lengthAdjust="spacing" textLength="122" x="56.13" y="174.3545">1.0 User Management</text></g><!--entity P2--><g id="elem_P2"><rect fill="#E8F8F5" filter="url(#fov0oxlk0qlxl)" height="33.7988" rx="6" ry="6" style="stroke:#181818;stroke-width:0.5;" width="115" x="332.63" y="266.5986"/><text fill="#2C3E50" font-family="Arial" font-size="12" lengthAdjust="spacing" textLength="95" x="342.63" y="287.8545">2.0 Browse Menu</text></g><!--entity P3--><g id="elem_P3"><rect fill="#E8F8F5" filter="url(#fov0oxlk0qlxl)" height="33.7988" rx="6" ry="6" style="stroke:#181818;stroke-width:0.5;" width="138" x="537.13" y="380.0986"/><text fill="#2C3E50" font-family="Arial" font-size="12" lengthAdjust="spacing" textLength="118" x="547.13" y="401.3545">3.0 Cart Management</text></g><!--entity P4--><g id="elem_P4"><rect fill="#E8F8F5" filter="url(#fov0oxlk0qlxl)" height="33.7988" rx="6" ry="6" style="stroke:#181818;stroke-width:0.5;" width="137" x="790.63" y="489.0986"/><text fill="#2C3E50" font-family="Arial" font-size="12" lengthAdjust="spacing" textLength="117" x="800.63" y="510.3545">4.0 Order Processing</text></g><!--entity P5--><g id="elem_P5"><rect fill="#E8F8F5" filter="url(#fov0oxlk0qlxl)" height="33.7988" rx="6" ry="6" style="stroke:#181818;stroke-width:0.5;" width="95" x="1510.63" y="602.5986"/><text fill="#2C3E50" font-family="Arial" font-size="12" lengthAdjust="spacing" textLength="75" x="1520.63" y="623.8545">5.0 Payments</text></g><!--entity P6--><g id="elem_P6"><rect fill="#E8F8F5" filter="url(#fov0oxlk0qlxl)" height="33.7988" rx="6" ry="6" style="stroke:#181818;stroke-width:0.5;" width="142" x="909.13" y="602.5986"/><text fill="#2C3E50" font-family="Arial" font-size="12" lengthAdjust="spacing" textLength="122" x="919.13" y="623.8545">6.0 Restaurant Orders</text></g><!--entity P7--><g id="elem_P7"><rect fill="#E8F8F5" filter="url(#fov0oxlk0qlxl)" height="33.7988" rx="6" ry="6" style="stroke:#181818;stroke-width:0.5;" width="133" x="760.63" y="720.5986"/><text fill="#2C3E50" font-family="Arial" font-size="12" lengthAdjust="spacing" textLength="113" x="770.63" y="741.8545">7.0 Delivery Tracking</text></g><!--entity P8--><g id="elem_P8"><rect fill="#E8F8F5" filter="url(#fov0oxlk0qlxl)" height="33.7988" rx="6" ry="6" style="stroke:#181818;stroke-width:0.5;" width="108" x="1251.13" y="720.5986"/><text fill="#2C3E50" font-family="Arial" font-size="12" lengthAdjust="spacing" textLength="88" x="1261.13" y="741.8545">8.0 Notifications</text></g><!--entity D1--><g id="elem_D1"><path d="M30.13,272.0986 C30.13,262.0986 68.13,262.0986 68.13,262.0986 C68.13,262.0986 106.13,262.0986 106.13,272.0986 L106.13,294.8975 C106.13,304.8975 68.13,304.8975 68.13,304.8975 C68.13,304.8975 30.13,304.8975 30.13,294.8975 L30.13,272.0986 " fill="#FDEBD0" filter="url(#fov0oxlk0qlxl)" style="stroke:#181818;stroke-width:0.5;"/><path d="M30.13,272.0986 C30.13,282.0986 68.13,282.0986 68.13,282.0986 C68.13,282.0986 106.13,282.0986 106.13,272.0986 " fill="none" style="stroke:#181818;stroke-width:0.5;"/><text fill="#2C3E50" font-family="Arial" font-size="12" lengthAdjust="spacing" textLength="56" x="40.13" y="297.3545">D1: Users</text></g><!--entity D2--><g id="elem_D2"><path d="M417.13,726.0986 C417.13,716.0986 494.13,716.0986 494.13,716.0986 C494.13,716.0986 571.13,716.0986 571.13,726.0986 L571.13,748.8975 C571.13,758.8975 494.13,758.8975 494.13,758.8975 C494.13,758.8975 417.13,758.8975 417.13,748.8975 L417.13,726.0986 " fill="#FDEBD0" filter="url(#fov0oxlk0qlxl)" style="stroke:#181818;stroke-width:0.5;"/><path d="M417.13,726.0986 C417.13,736.0986 494.13,736.0986 494.13,736.0986 C494.13,736.0986 571.13,736.0986 571.13,726.0986 " fill="none" style="stroke:#181818;stroke-width:0.5;"/><text fill="#2C3E50" font-family="Arial" font-size="12" lengthAdjust="spacing" textLength="134" x="427.13" y="751.3545">D2: Restaurants &amp; Menu</text></g><!--entity D3--><g id="elem_D3"><path d="M451.13,608.0986 C451.13,598.0986 515.13,598.0986 515.13,598.0986 C515.13,598.0986 579.13,598.0986 579.13,608.0986 L579.13,630.8975 C579.13,640.8975 515.13,640.8975 515.13,640.8975 C515.13,640.8975 451.13,640.8975 451.13,630.8975 L451.13,608.0986 " fill="#FDEBD0" filter="url(#fov0oxlk0qlxl)" style="stroke:#181818;stroke-width:0.5;"/><path d="M451.13,608.0986 C451.13,618.0986 515.13,618.0986 515.13,618.0986 C515.13,618.0986 579.13,618.0986 579.13,608.0986 " fill="none" style="stroke:#181818;stroke-width:0.5;"/><text fill="#2C3E50" font-family="Arial" font-size="12" lengthAdjust="spacing" textLength="108" x="461.13" y="633.3545">D3: Shopping Carts</text></g><!--entity D4--><g id="elem_D4"><path d="M622.13,608.0986 C622.13,598.0986 662.13,598.0986 662.13,598.0986 C662.13,598.0986 702.13,598.0986 702.13,608.0986 L702.13,630.8975 C702.13,640.8975 662.13,640.8975 662.13,640.8975 C662.13,640.8975 622.13,640.8975 622.13,630.8975 L622.13,608.0986 " fill="#FDEBD0" filter="url(#fov0oxlk0qlxl)" style="stroke:#181818;stroke-width:0.5;"/><path d="M622.13,608.0986 C622.13,618.0986 662.13,618.0986 662.13,618.0986 C662.13,618.0986 702.13,618.0986 702.13,608.0986 " fill="none" style="stroke:#181818;stroke-width:0.5;"/><text fill="#2C3E50" font-family="Arial" font-size="12" lengthAdjust="spacing" textLength="60" x="632.13" y="633.3545">D4: Orders</text></g><!--entity D5--><g id="elem_D5"><path d="M1805.63,726.0986 C1805.63,716.0986 1854.13,716.0986 1854.13,716.0986 C1854.13,716.0986 1902.63,716.0986 1902.63,726.0986 L1902.63,748.8975 C1902.63,758.8975 1854.13,758.8975 1854.13,758.8975 C1854.13,758.8975 1805.63,758.8975 1805.63,748.8975 L1805.63,726.0986 " fill="#FDEBD0" filter="url(#fov0oxlk0qlxl)" style="stroke:#181818;stroke-width:0.5;"/><path d="M1805.63,726.0986 C1805.63,736.0986 1854.13,736.0986 1854.13,736.0986 C1854.13,736.0986 1902.63,736.0986 1902.63,726.0986 " fill="none" style="stroke:#181818;stroke-width:0.5;"/><text fill="#2C3E50" font-family="Arial" font-size="12" lengthAdjust="spacing" textLength="77" x="1815.63" y="751.3545">D5: Payments</text></g><!--entity D6--><g id="elem_D6"><path d="M655.13,844.0986 C655.13,834.0986 712.13,834.0986 712.13,834.0986 C712.13,834.0986 769.13,834.0986 769.13,844.0986 L769.13,866.8975 C769.13,876.8975 712.13,876.8975 712.13,876.8975 C712.13,876.8975 655.13,876.8975 655.13,866.8975 L655.13,844.0986 " fill="#FDEBD0" filter="url(#fov0oxlk0qlxl)" style="stroke:#181818;stroke-width:0.5;"/><path d="M655.13,844.0986 C655.13,854.0986 712.13,854.0986 712.13,854.0986 C712.13,854.0986 769.13,854.0986 769.13,844.0986 " fill="none" style="stroke:#181818;stroke-width:0.5;"/><text fill="#2C3E50" font-family="Arial" font-size="12" lengthAdjust="spacing" textLength="94" x="665.13" y="869.3545">D6: Delivery Data</text></g><!--link CUSTOMER to P1--><g id="link_CUSTOMER_P1"><path d="M684.4,62.0286 C557.11,62.1786 149.22,65.9686 110.13,108.0986 C99.11,119.9786 101.4147,133.6906 106.9147,147.3906 " fill="none" id="CUSTOMER-to-P1" style="stroke:#34495E;stroke-width:1.2;"/><polygon fill="#34495E" points="109.15,152.9586,109.509,143.1163,107.2872,148.3186,102.0849,146.0968,109.15,152.9586" style="stroke:#34495E;stroke-width:1.2;"/><text fill="#2C3E50" font-family="Arial" font-size="12" lengthAdjust="spacing" textLength="87" x="111.13" y="120.3545">Register / Login</text></g><!--link P1 to CUSTOMER--><g id="link_P1_CUSTOMER"><path d="M146.12,153.0486 C175.92,136.8386 220.52,113.4386 239.13,108.0986 C322.73,84.1186 579.7477,69.202 678.3277,64.212 " fill="none" id="P1-to-CUSTOMER" style="stroke:#34495E;stroke-width:1.2;"/><polygon fill="#34495E" points="684.32,63.9086,675.1293,60.3687,679.3264,64.1614,675.5337,68.3585,684.32,63.9086" style="stroke:#34495E;stroke-width:1.2;"/><text fill="#2C3E50" font-family="Arial" font-size="12" lengthAdjust="spacing" textLength="123" x="240.13" y="120.3545">Authenticated Session</text></g><!--link CUSTOMER to P2--><g id="link_CUSTOMER_P2"><path d="M684.51,77.9586 C647.07,94.4586 588.64,122.1686 542.13,153.0986 C488.73,188.6086 437.4302,236.2443 410.7002,262.2543 " fill="none" id="CUSTOMER-to-P2" style="stroke:#34495E;stroke-width:1.2;"/><polygon fill="#34495E" points="406.4,266.4386,415.6398,263.0289,409.9835,262.9517,410.0607,257.2954,406.4,266.4386" style="stroke:#34495E;stroke-width:1.2;"/><text fill="#2C3E50" font-family="Arial" font-size="12" lengthAdjust="spacing" textLength="117" x="543.13" y="174.8545">Browse/Search Menu</text></g><!--link P2 to CUSTOMER--><g id="link_P2_CUSTOMER"><path d="M391.08,266.2186 C393.55,238.9386 402.4,184.1586 434.13,153.0986 C503.65,85.0586 617.6552,68.2748 678.4652,63.9448 " fill="none" id="P2-to-CUSTOMER" style="stroke:#34495E;stroke-width:1.2;"/><polygon fill="#34495E" points="684.45,63.5186,675.1886,60.168,679.4626,63.8738,675.7568,68.1478,684.45,63.5186" style="stroke:#34495E;stroke-width:1.2;"/><text fill="#2C3E50" font-family="Arial" font-size="12" lengthAdjust="spacing" textLength="53" x="435.13" y="174.8545">Menu List</text></g><!--link CUSTOMER to P3--><g id="link_CUSTOMER_P3"><path d="M718.38,78.1886 C711.65,103.9686 695.32,154.9186 665.13,187.0986 C645.82,207.6886 623.84,192.9986 609.13,217.0986 C577.32,269.2286 591.0428,340.9989 599.8528,374.2389 " fill="none" id="CUSTOMER-to-P3" style="stroke:#34495E;stroke-width:1.2;"/><polygon fill="#34495E" points="601.39,380.0386,602.9507,370.3142,600.109,375.2055,595.2177,372.3638,601.39,380.0386" style="stroke:#34495E;stroke-width:1.2;"/><text fill="#2C3E50" font-family="Arial" font-size="12" lengthAdjust="spacing" textLength="104" x="610.13" y="229.3545">Add/Remove Items</text></g><!--link P3 to CUSTOMER--><g id="link_P3_CUSTOMER"><path d="M621.36,379.9586 C646.53,352.2186 696.29,292.5886 719.13,232.0986 C734.42,191.6086 736.7,150.5886 732.13,108.0986 C731.05,98.0186 730.1096,92.7434 727.9396,83.9634 " fill="none" id="P3-to-CUSTOMER" style="stroke:#34495E;stroke-width:1.2;"/><polygon fill="#34495E" points="726.5,78.1386,724.7762,87.8355,727.6997,82.9926,732.5426,85.916,726.5,78.1386" style="stroke:#34495E;stroke-width:1.2;"/><text fill="#2C3E50" font-family="Arial" font-size="12" lengthAdjust="spacing" textLength="73" x="725.13" y="229.3545">Updated Cart</text></g><!--link CUSTOMER to P4--><g id="link_CUSTOMER_P4"><path d="M759.65,66.9386 C842.36,78.6486 1033.13,111.8586 1033.13,169.0986 C1033.13,169.0986 1033.13,169.0986 1033.13,398.0986 C1033.13,449.8786 982.3031,475.7292 933.6631,489.8192 " fill="none" id="CUSTOMER-to-P4" style="stroke:#34495E;stroke-width:1.2;"/><polygon fill="#34495E" points="927.9,491.4886,937.6576,492.8265,932.7026,490.0974,935.4316,485.1424,927.9,491.4886" style="stroke:#34495E;stroke-width:1.2;"/><text fill="#2C3E50" font-family="Arial" font-size="12" lengthAdjust="spacing" textLength="65" x="1034.13" y="288.3545">Place Order</text></g><!--link P4 to CUSTOMER--><g id="link_P4_CUSTOMER"><path d="M858.39,488.7886 C857.5,467.8086 856.13,430.2486 856.13,398.0986 C856.13,169.0986 856.13,169.0986 856.13,169.0986 C856.13,119.5286 805.0535,91.3236 765.4235,76.1536 " fill="none" id="P4-to-CUSTOMER" style="stroke:#34495E;stroke-width:1.2;"/><polygon fill="#34495E" points="759.82,74.0086,766.7953,80.9617,764.4896,75.7961,769.6552,73.4904,759.82,74.0086" style="stroke:#34495E;stroke-width:1.2;"/><text fill="#2C3E50" font-family="Arial" font-size="12" lengthAdjust="spacing" textLength="105" x="857.13" y="288.3545">Order Confirmation</text></g><!--link CUSTOMER to P5--><g id="link_CUSTOMER_P5"><path d="M759.8,63.5386 C910.39,69.7686 1461.13,97.4786 1461.13,169.0986 C1461.13,169.0986 1461.13,169.0986 1461.13,507.0986 C1461.13,549.5586 1496.6565,580.4224 1525.3265,599.2724 " fill="none" id="CUSTOMER-to-P5" style="stroke:#34495E;stroke-width:1.2;"/><polygon fill="#34495E" points="1530.34,602.5686,1525.0173,594.282,1526.1621,599.8218,1520.6223,600.9666,1530.34,602.5686" style="stroke:#34495E;stroke-width:1.2;"/><text fill="#2C3E50" font-family="Arial" font-size="12" lengthAdjust="spacing" textLength="115" x="1462.13" y="347.3545">Provide Payment Info</text></g><!--link P5 to CUSTOMER--><g id="link_P5_CUSTOMER"><path d="M1573.59,602.3186 C1591.36,581.8086 1618.13,544.6886 1618.13,507.0986 C1618.13,169.0986 1618.13,169.0986 1618.13,169.0986 C1618.13,81.2186 935.8293,65.2811 765.7793,62.6611 " fill="none" id="P5-to-CUSTOMER" style="stroke:#34495E;stroke-width:1.2;"/><polygon fill="#34495E" points="759.78,62.5686,768.7173,66.7068,764.7794,62.6457,768.8406,58.7078,759.78,62.5686" style="stroke:#34495E;stroke-width:1.2;"/><text fill="#2C3E50" font-family="Arial" font-size="12" lengthAdjust="spacing" textLength="86" x="1619.13" y="347.3545">Payment Status</text></g><!--link RESTAURANT to P6--><g id="link_RESTAURANT_P6"><path d="M1038.93,725.9386 C1071.36,715.3086 1108.76,696.8286 1092.13,671.0986 C1081.83,655.1486 1070.6678,646.5686 1053.2878,639.0586 " fill="none" id="RESTAURANT-to-P6" style="stroke:#34495E;stroke-width:1.2;"/><polygon fill="#34495E" points="1047.78,636.6786,1054.4551,643.9204,1052.3698,638.6619,1057.6283,636.5767,1047.78,636.6786" style="stroke:#34495E;stroke-width:1.2;"/><text fill="#2C3E50" font-family="Arial" font-size="12" lengthAdjust="spacing" textLength="120" x="1097.13" y="683.3545">Update Menu / Orders</text></g><!--link P6 to RESTAURANT--><g id="link_P6_RESTAURANT"><path d="M975.45,636.6686 C972.26,650.0386 969.25,669.5086 973.13,686.0986 C975.99,698.2886 979.2381,705.7236 984.7681,715.2936 " fill="none" id="P6-to-RESTAURANT" style="stroke:#34495E;stroke-width:1.2;"/><polygon fill="#34495E" points="987.77,720.4886,986.7305,710.6948,985.2684,716.1594,979.8037,714.6974,987.77,720.4886" style="stroke:#34495E;stroke-width:1.2;"/><text fill="#2C3E50" font-family="Arial" font-size="12" lengthAdjust="spacing" textLength="109" x="974.13" y="683.3545">Order Alerts / Status</text></g><!--link DELIVERY_AGENT to P7--><g id="link_DELIVERY_AGENT_P7"><path d="M944.95,848.2686 C992.84,839.9986 1055.19,822.4686 1029.13,789.0986 C1020.57,778.1286 955.0947,763.249 899.5847,752.209 " fill="none" id="DELIVERY_AGENT-to-P7" style="stroke:#34495E;stroke-width:1.2;"/><polygon fill="#34495E" points="893.7,751.0386,901.7469,756.7174,898.604,752.0139,903.3074,748.871,893.7,751.0386" style="stroke:#34495E;stroke-width:1.2;"/><text fill="#2C3E50" font-family="Arial" font-size="12" lengthAdjust="spacing" textLength="112" x="1036.13" y="801.3545">Availability / Location</text></g><!--link P7 to DELIVERY_AGENT--><g id="link_P7_DELIVERY_AGENT"><path d="M831.19,754.6986 C835.08,768.4386 841.74,788.4086 851.13,804.0986 C858.74,816.7886 865.5448,824.9587 874.7748,834.3087 " fill="none" id="P7-to-DELIVERY_AGENT" style="stroke:#34495E;stroke-width:1.2;"/><polygon fill="#34495E" points="878.99,838.5786,875.5139,829.3636,875.4774,835.0203,869.8206,834.9838,878.99,838.5786" style="stroke:#34495E;stroke-width:1.2;"/><text fill="#2C3E50" font-family="Arial" font-size="12" lengthAdjust="spacing" textLength="168" x="852.13" y="801.3545">Delivery Assignment / Updates</text></g><!--link P5 to PAYMENT_GATEWAY--><g id="link_P5_PAYMENT_GATEWAY"><path d="M1524.73,636.7086 C1504.68,648.7786 1484.88,666.5386 1495.13,686.0986 C1502.93,700.9786 1512.1384,709.3136 1526.0984,717.4636 " fill="none" id="P5-to-PAYMENT_GATEWAY" style="stroke:#34495E;stroke-width:1.2;"/><polygon fill="#34495E" points="1531.28,720.4886,1525.5243,712.4966,1526.962,717.9677,1521.4909,719.4054,1531.28,720.4886" style="stroke:#34495E;stroke-width:1.2;"/><text fill="#2C3E50" font-family="Arial" font-size="12" lengthAdjust="spacing" textLength="98" x="1496.13" y="683.3545">Payment Request</text></g><!--link PAYMENT_GATEWAY to P5--><g id="link_PAYMENT_GATEWAY_P5"><path d="M1583.57,720.5686 C1594.18,707.5386 1605.32,688.5286 1599.13,671.0986 C1594.53,658.1186 1589.1511,650.3709 1580.4411,641.2809 " fill="none" id="PAYMENT_GATEWAY-to-P5" style="stroke:#34495E;stroke-width:1.2;"/><polygon fill="#34495E" points="1576.29,636.9486,1579.6285,646.2144,1579.7493,640.5588,1585.4048,640.6796,1576.29,636.9486" style="stroke:#34495E;stroke-width:1.2;"/><text fill="#2C3E50" font-family="Arial" font-size="12" lengthAdjust="spacing" textLength="109" x="1601.13" y="683.3545">Authorization Result</text></g><!--link P8 to NOTIFICATION_SERVICE--><g id="link_P8_NOTIFICATION_SERVICE"><path d="M1287.09,754.6486 C1274.55,767.8486 1261.5,787.0786 1270.13,804.0986 C1277.59,818.7886 1286.4376,827.0981 1299.8676,835.3481 " fill="none" id="P8-to-NOTIFICATION_SERVICE" style="stroke:#34495E;stroke-width:1.2;"/><polygon fill="#34495E" points="1304.98,838.4886,1299.4051,830.3695,1300.7196,835.8715,1295.2177,837.1861,1304.98,838.4886" style="stroke:#34495E;stroke-width:1.2;"/><text fill="#2C3E50" font-family="Arial" font-size="12" lengthAdjust="spacing" textLength="90" x="1271.13" y="801.3545">Notification Data</text></g><!--link NOTIFICATION_SERVICE to P8--><g id="link_NOTIFICATION_SERVICE_P8"><path d="M1353.43,838.5286 C1363.51,825.1486 1373.93,805.6786 1366.13,789.0986 C1359.4,774.7886 1351.344,766.5626 1339.074,758.0726 " fill="none" id="NOTIFICATION_SERVICE-to-P8" style="stroke:#34495E;stroke-width:1.2;"/><polygon fill="#34495E" points="1334.14,754.6586,1339.265,763.069,1338.2517,757.5036,1343.817,756.4903,1334.14,754.6586" style="stroke:#34495E;stroke-width:1.2;"/><text fill="#2C3E50" font-family="Arial" font-size="12" lengthAdjust="spacing" textLength="121" x="1369.13" y="801.3545">Delivery Status / Alerts</text></g><!--link D1 to P1--><g id="link_D1_P1"><path d="M34.96,261.8586 C19.28,249.3586 6,232.8486 16.13,217.0986 C24.84,203.5686 33.1689,196.4974 47.7789,189.7074 " fill="none" id="D1-to-P1" style="stroke:#34495E;stroke-width:1.2;"/><polygon fill="#34495E" points="53.22,187.1786,43.3725,187.3444,48.6858,189.2859,46.7442,194.5991,53.22,187.1786" style="stroke:#34495E;stroke-width:1.2;"/><text fill="#2C3E50" font-family="Arial" font-size="12" lengthAdjust="spacing" textLength="56" x="17.13" y="229.3545">User Data</text></g><!--link P1 to D1--><g id="link_P1_D1"><path d="M109.9,187.5486 C101.22,207.2986 89.0728,234.9352 79.6428,256.4052 " fill="none" id="P1-to-D1" style="stroke:#34495E;stroke-width:1.2;"/><polygon fill="#34495E" points="77.23,261.8986,84.5116,255.267,79.2407,257.3207,77.1869,252.0499,77.23,261.8986" style="stroke:#34495E;stroke-width:1.2;"/><text fill="#2C3E50" font-family="Arial" font-size="12" lengthAdjust="spacing" textLength="102" x="97.13" y="229.3545">Store/Update User</text></g><!--link D2 to P2--><g id="link_D2_P2"><path d="M430.97,715.9986 C389.59,698.0986 343.13,667.5386 343.13,620.5986 C343.13,396.0986 343.13,396.0986 343.13,396.0986 C343.13,359.7586 361.2751,326.6031 375.1951,305.6931 " fill="none" id="D2-to-P2" style="stroke:#34495E;stroke-width:1.2;"/><polygon fill="#34495E" points="378.52,300.6986,370.203,305.9738,375.7493,304.8607,376.8623,310.407,378.52,300.6986" style="stroke:#34495E;stroke-width:1.2;"/><text fill="#2C3E50" font-family="Arial" font-size="12" lengthAdjust="spacing" textLength="59" x="344.13" y="510.8545">Menu Data</text></g><!--link P6 to D2--><g id="link_P6_D2"><path d="M913.07,636.6086 C823.62,657.9586 671.466,694.2755 577.166,716.7855 " fill="none" id="P6-to-D2" style="stroke:#34495E;stroke-width:1.2;"/><polygon fill="#34495E" points="571.33,718.1786,581.0128,719.9797,576.1934,717.0177,579.1553,712.1983,571.33,718.1786" style="stroke:#34495E;stroke-width:1.2;"/><text fill="#2C3E50" font-family="Arial" font-size="12" lengthAdjust="spacing" textLength="73" x="767.13" y="683.3545">Update Menu</text></g><!--link D3 to P3--><g id="link_D3_P3"><path d="M505.44,597.9486 C501.74,588.9886 497.98,578.2386 496.13,568.0986 C489.84,533.4886 485.28,520.5086 501.13,489.0986 C517.87,455.9286 547.3858,432.9247 572.2958,417.3147 " fill="none" id="D3-to-P3" style="stroke:#34495E;stroke-width:1.2;"/><polygon fill="#34495E" points="577.38,414.1286,567.6297,415.5182,573.1432,416.7837,571.8777,422.2972,577.38,414.1286" style="stroke:#34495E;stroke-width:1.2;"/><text fill="#2C3E50" font-family="Arial" font-size="12" lengthAdjust="spacing" textLength="57" x="502.13" y="510.8545">Cart Items</text></g><!--link P3 to D3--><g id="link_P3_D3"><path d="M601.58,414.1686 C594.56,438.2386 580.24,484.9186 564.13,523.0986 C552.98,549.5386 540.4157,573.4791 529.8657,592.5391 " fill="none" id="P3-to-D3" style="stroke:#34495E;stroke-width:1.2;"/><polygon fill="#34495E" points="526.96,597.7886,534.8182,591.8515,529.3814,593.4141,527.8188,587.9773,526.96,597.7886" style="stroke:#34495E;stroke-width:1.2;"/><text fill="#2C3E50" font-family="Arial" font-size="12" lengthAdjust="spacing" textLength="53" x="578.13" y="510.8545">Save Cart</text></g><!--link P4 to D3--><g id="link_P4_D3"><path d="M790.38,509.3386 C735.12,513.3786 656.68,524.2586 594.13,553.0986 C571,563.7686 553.3026,578.716 538.4426,593.576 " fill="none" id="P4-to-D3" style="stroke:#34495E;stroke-width:1.2;"/><polygon fill="#34495E" points="534.2,597.8186,543.3924,594.2831,537.7355,594.2831,537.7355,588.6262,534.2,597.8186" style="stroke:#34495E;stroke-width:1.2;"/><text fill="#2C3E50" font-family="Arial" font-size="12" lengthAdjust="spacing" textLength="56" x="595.13" y="565.3545">Clear Cart</text></g><!--link D4 to P4--><g id="link_D4_P4"><path d="M658.27,597.8886 C656.86,583.6486 657.68,565.1886 668.13,553.0986 C684.17,534.5586 736.4855,523.2126 784.4855,516.0626 " fill="none" id="D4-to-P4" style="stroke:#34495E;stroke-width:1.2;"/><polygon fill="#34495E" points="790.42,515.1786,780.9289,512.5483,785.4746,515.9153,782.1075,520.461,790.42,515.1786" style="stroke:#34495E;stroke-width:1.2;"/><text fill="#2C3E50" font-family="Arial" font-size="12" lengthAdjust="spacing" textLength="72" x="669.13" y="565.3545">Order History</text></g><!--link P4 to D4--><g id="link_P4_D4"><path d="M830.49,523.3086 C795.59,543.0586 741.8218,573.4935 703.7418,595.0435 " fill="none" id="P4-to-D4" style="stroke:#34495E;stroke-width:1.2;"/><polygon fill="#34495E" points="698.52,597.9986,708.3228,597.0472,702.8715,595.536,704.3827,590.0848,698.52,597.9986" style="stroke:#34495E;stroke-width:1.2;"/><text fill="#2C3E50" font-family="Arial" font-size="12" lengthAdjust="spacing" textLength="61" x="773.13" y="565.3545">Save Order</text></g><!--link D5 to P5--><g id="link_D5_P5"><path d="M1815.54,715.9786 C1788.9,702.2286 1752.43,684.3086 1719.13,671.0986 C1681.83,656.2886 1644.1177,644.5221 1611.7477,635.2421 " fill="none" id="D5-to-P5" style="stroke:#34495E;stroke-width:1.2;"/><polygon fill="#34495E" points="1605.98,633.5886,1613.5292,639.914,1610.7864,634.9666,1615.7338,632.2238,1605.98,633.5886" style="stroke:#34495E;stroke-width:1.2;"/><text fill="#2C3E50" font-family="Arial" font-size="12" lengthAdjust="spacing" textLength="89" x="1754.13" y="683.3545">Payment History</text></g><!--link P5 to D5--><g id="link_P5_D5"><path d="M1605.88,621.7386 C1680.79,624.6486 1820.66,634.8986 1852.13,671.0986 C1862.58,683.1186 1863.2314,695.6679 1860.7414,709.9379 " fill="none" id="P5-to-D5" style="stroke:#34495E;stroke-width:1.2;"/><polygon fill="#34495E" points="1859.71,715.8486,1865.1975,707.6702,1860.5695,710.9231,1857.3166,706.295,1859.71,715.8486" style="stroke:#34495E;stroke-width:1.2;"/><text fill="#2C3E50" font-family="Arial" font-size="12" lengthAdjust="spacing" textLength="80" x="1860.13" y="683.3545">Store Payment</text></g><!--link D6 to P7--><g id="link_D6_P7"><path d="M727.89,834.0386 C738.45,820.7186 752.97,803.2786 767.13,789.0986 C779.45,776.7686 789.7656,767.8878 801.6856,758.3478 " fill="none" id="D6-to-P7" style="stroke:#34495E;stroke-width:1.2;"/><polygon fill="#34495E" points="806.37,754.5986,796.8439,757.0994,802.4663,757.7229,801.8428,763.3453,806.37,754.5986" style="stroke:#34495E;stroke-width:1.2;"/><text fill="#2C3E50" font-family="Arial" font-size="12" lengthAdjust="spacing" textLength="66" x="768.13" y="801.3545">Delivery Info</text></g><!--link P7 to D6--><g id="link_P7_D6"><path d="M760.42,741.6186 C726.39,746.9586 687.72,759.6986 666.13,789.0986 C655.19,803.9986 663.5227,817.1398 678.3827,830.1298 " fill="none" id="P7-to-D6" style="stroke:#34495E;stroke-width:1.2;"/><polygon fill="#34495E" points="682.9,834.0786,678.7566,825.1438,679.1355,830.7879,673.4914,831.1669,682.9,834.0786" style="stroke:#34495E;stroke-width:1.2;"/><text fill="#2C3E50" font-family="Arial" font-size="12" lengthAdjust="spacing" textLength="78" x="667.13" y="801.3545">Update Status</text></g><!--link P1 to P2--><g id="link_P1_P2"><path d="M153.18,187.1986 C181.56,199.7586 222.19,217.4586 258.13,232.0986 C287.56,244.0886 315.3729,254.7595 341.2329,264.4695 " fill="none" id="P1-to-P2" style="stroke:#34495E;stroke-width:1.2;stroke-dasharray:7.0,7.0;"/><polygon fill="#34495E" points="346.85,266.5786,339.8305,259.6702,342.1691,264.821,337.0183,267.1597,346.85,266.5786" style="stroke:#34495E;stroke-width:1.2;"/><text fill="#2C3E50" font-family="Arial" font-size="12" lengthAdjust="spacing" textLength="104" x="259.13" y="229.3545">Authenticated User</text></g><!--link P2 to P3--><g id="link_P2_P3"><path d="M415.92,300.7986 C438.33,314.6086 471.85,334.6086 502.13,350.0986 C523.23,360.8886 541.8809,369.3149 561.6009,377.7249 " fill="none" id="P2-to-P3" style="stroke:#34495E;stroke-width:1.2;stroke-dasharray:7.0,7.0;"/><polygon fill="#34495E" points="567.12,380.0786,560.4106,372.8687,562.5208,378.1172,557.2723,380.2274,567.12,380.0786" style="stroke:#34495E;stroke-width:1.2;"/><text fill="#2C3E50" font-family="Arial" font-size="12" lengthAdjust="spacing" textLength="82" x="503.13" y="347.3545">Selected Items</text></g><!--link P3 to P4--><g id="link_P3_P4"><path d="M644.01,414.1186 C691.71,434.2886 767.6537,466.4119 815.4737,486.6319 " fill="none" id="P3-to-P4" style="stroke:#34495E;stroke-width:1.2;stroke-dasharray:7.0,7.0;"/><polygon fill="#34495E" points="821,488.9686,814.2684,481.7794,816.3948,487.0214,811.1528,489.1478,821,488.9686" style="stroke:#34495E;stroke-width:1.2;"/><text fill="#2C3E50" font-family="Arial" font-size="12" lengthAdjust="spacing" textLength="65" x="748.13" y="456.3545">Cart Details</text></g><!--link P4 to P5--><g id="link_P4_P5"><path d="M927.8,508.2386 C1014.63,511.0586 1168.1,520.6686 1295.13,553.0986 C1311.93,557.3886 1314.61,562.8586 1331.13,568.0986 C1391.94,587.3686 1458.2572,601.0132 1504.6372,609.4632 " fill="none" id="P4-to-P5" style="stroke:#34495E;stroke-width:1.2;stroke-dasharray:7.0,7.0;"/><polygon fill="#34495E" points="1510.54,610.5386,1502.4027,604.9903,1505.621,609.6424,1500.9688,612.8607,1510.54,610.5386" style="stroke:#34495E;stroke-width:1.2;"/><text fill="#2C3E50" font-family="Arial" font-size="12" lengthAdjust="spacing" textLength="102" x="1332.13" y="565.3545">Payment Required</text></g><!--link P4 to P6--><g id="link_P4_P6"><path d="M876.73,523.3086 C899.67,544.4486 935.1579,577.1525 958.1079,598.3025 " fill="none" id="P4-to-P6" style="stroke:#34495E;stroke-width:1.2;stroke-dasharray:7.0,7.0;"/><polygon fill="#34495E" points="962.52,602.3686,958.6125,593.3281,958.8432,598.9802,953.1911,599.2109,962.52,602.3686" style="stroke:#34495E;stroke-width:1.2;"/><text fill="#2C3E50" font-family="Arial" font-size="12" lengthAdjust="spacing" textLength="59" x="924.13" y="565.3545">New Order</text></g><!--link P4 to P8--><g id="link_P4_P8"><path d="M910.58,523.1086 C935.5,531.3086 965.69,541.9186 992.13,553.0986 C1099.41,598.4586 1128.68,607.2986 1226.13,671.0986 C1248.94,686.0286 1268.265,702.4674 1283.695,716.5274 " fill="none" id="P4-to-P8" style="stroke:#34495E;stroke-width:1.2;stroke-dasharray:7.0,7.0;"/><polygon fill="#34495E" points="1288.13,720.5686,1284.1717,711.5502,1284.4342,717.201,1278.7834,717.4635,1288.13,720.5686" style="stroke:#34495E;stroke-width:1.2;"/><text fill="#2C3E50" font-family="Arial" font-size="12" lengthAdjust="spacing" textLength="72" x="1178.13" y="624.3545">Notify Parties</text></g><!--link P6 to P7--><g id="link_P6_P7"><path d="M929.06,636.7086 C908.87,644.7986 886.42,656.1286 869.13,671.0986 C853.31,684.8086 843.8692,700.5305 836.8192,715.0605 " fill="none" id="P6-to-P7" style="stroke:#34495E;stroke-width:1.2;stroke-dasharray:7.0,7.0;"/><polygon fill="#34495E" points="834.2,720.4586,841.7275,714.1076,836.3827,715.9602,834.53,710.6153,834.2,720.4586" style="stroke:#34495E;stroke-width:1.2;"/><text fill="#2C3E50" font-family="Arial" font-size="12" lengthAdjust="spacing" textLength="92" x="870.13" y="683.3545">Ready for Pickup</text></g><!--link P7 to P4--><g id="link_P7_P4"><path d="M760.28,727.2886 C722.04,718.5186 684.34,701.9286 699.13,671.0986 C710.35,647.7286 768.67,612.6386 790.13,598.0986 C812.54,582.9186 826.62,589.5486 843.13,568.0986 C853.15,555.0886 856.2856,542.345 857.6956,529.085 " fill="none" id="P7-to-P4" style="stroke:#34495E;stroke-width:1.2;stroke-dasharray:7.0,7.0;"/><polygon fill="#34495E" points="858.33,523.1186,853.4008,531.6452,857.8013,528.0906,861.3559,532.4911,858.33,523.1186" style="stroke:#34495E;stroke-width:1.2;"/><text fill="#2C3E50" font-family="Arial" font-size="12" lengthAdjust="spacing" textLength="100" x="791.13" y="624.3545">Delivery Complete</text></g><!--link P5 to P8--><g id="link_P5_P8"><path d="M1510.5,624.4686 C1468.24,629.7386 1406.24,642.1286 1360.13,671.0986 C1340.39,683.4986 1327.4089,700.2715 1317.8189,715.2915 " fill="none" id="P5-to-P8" style="stroke:#34495E;stroke-width:1.2;stroke-dasharray:7.0,7.0;"/><polygon fill="#34495E" points="1314.59,720.3486,1322.8047,714.9155,1317.2807,716.1344,1316.0619,710.6104,1314.59,720.3486" style="stroke:#34495E;stroke-width:1.2;"/><text fill="#2C3E50" font-family="Arial" font-size="12" lengthAdjust="spacing" textLength="122" x="1361.13" y="683.3545">Payment Confirmation</text></g><!--SRC=[bLPTR-eu47tFhx1QQJyUA0KIolAmKaf25wa5HEXTzQdoJGPgDSIiuy1oL_lVTso798He2tdqd9dOSyuSMp8P0_6ef6GSyptn65qBkY7Fi8EOT4YBp9AO9K36d4Ta9Y8GB5cJu91As5XM-icIBLK9_rW4lqSQVgu5pv9en6CkoFw3IT2Hu8D6VAzofSZCqiBWH0A2TBfwoOCLpM8vvecSqWqGLp0QroC1-m4D2UQFjzrHptVkTT0LWk-N7opyJ21DIUUkMoxdw9vj_-Rurh-MzJDf_T-7SVzl2IAXCV4JoII3zCiS0Q6aoHexV3FAKiat86u8JSdeDLZENlm5kVNwlZiUL84BI2ND14saXYxyOEc-BjpfiWdiGSns80x4NKEUuFdFas_-uktTVVARa-Rqi44qUQ8IzlIWi-Rksml2tv_SfV-d-zQKDkMIhLX89UC92K3iM0WwTpfRJiQJaRkSpARlWR_uDXdvHO4B-ZeNF4H-82M_QEb0H8hVfhzUq-JEtJrvJL5EBpIXQzWSUpBla5j_C1wCdIgwY-X7b48Av0MIp22xJSWU8aTKoBEwlIQqZMWzASUJeUeDt6w2EmZFAKaDp6c2zH5MQiFy8CVtc_0FY2_aiHGucCKs7fhm0yHNASvh3mhi1Kng7maa5nVCHeJOxpHL8kuCDMlcZnvoDVRyH- - -2kaEAuTFoKybOrwt2TyRekFmxLOPZc8khzrhmjh3QZSzkmdZ34yvyfmcL7zOjbprma3x1VI25XvzWh04tOQ6ceelymf3QRL-LseVAXzPCpHfGThacQzPScFXkWeNM0IvcVp0CodASUe2fLMEo5gzheAQIMa7G4NuOTflOQHUKGN8C_xvh4fF_p2AsWlOy1sG2TuWATRedTLutKPwFuguipAsGinZ6e9X3IlOPnNC-8ruic9Ye-LyLiVHTGJViGYEt999ik9Oq3ahU0G4aieCTtq1avLXlOhBYkFhZVRBbkYs8w6vN2sCAKWbepYx6mEg7h5NxBZGxbNxhLquUiyFckiTPJ7zpc8c3rg5OSu4XXMgbZYiNcSen7MYEzucvkoN7Q6uerDpGNsz_Ppi-WLOuNm1VsMW15t7b3fISyG5-s4kHsGUtoIuNtHFXMcy88Ur6rNxXTK8rVyPd3J8i8hDCJpVNEVEX6-HtmlfxLHCHL-kPgUvctXwNLTjvo9L8DoGrwsuXnPkdcX4wtLhkbOflOfLw0ltr2Gy7GWekeVnXdpqpVeeHcywcePdL-p2ZCGVw4fS7CeikwYMEudbELLpoFalyqpKSueZ7ur3fVOhqYzuoWqb5tnrbA-OouaQnzRMF2R82j_f5yYwG-xkZjq_jNd33qOqmBGKOdm9OApijmxQ1H4UI9pcL3TFXvpwY301KHdMHvt2lcBIUdrG2F-0pHFg6QqbeOCFvkAYqO6iy7K-nvTxjjNjAtTJj7R4DziO96XUojh7BPsQ_ty0]--></g></svg>