<?xml version="1.0" encoding="us-ascii" standalone="no"?><svg xmlns="http://www.w3.org/2000/svg" xmlns:xlink="http://www.w3.org/1999/xlink" contentStyleType="text/css" height="2267px" preserveAspectRatio="none" style="width:1152px;height:2267px;background:#FFFFFF;" version="1.1" viewBox="0 0 1152 2267" width="1152px" zoomAndPan="magnify"><defs><filter height="300%" id="fjdm74qtfg417" width="300%" x="-1" y="-1"><feGaussianBlur result="blurOut" stdDeviation="2.0"/><feColorMatrix in="blurOut" result="blurOut2" type="matrix" values="0 0 0 0 0 0 0 0 0 0 0 0 0 0 0 0 0 0 .4 0"/><feOffset dx="4.0" dy="4.0" in="blurOut2" result="blurOut3"/><feBlend in="SourceGraphic" in2="blurOut3" mode="normal"/></filter></defs><g><text fill="#000000" font-family="Verdana" font-size="22" font-weight="bold" lengthAdjust="spacing" textLength="772" x="188.5" y="37.1182">Place Order - Detailed Sequence Diagram (Stakeholder View)</text><text fill="#000000" font-family="Verdana" font-size="22" font-weight="bold" lengthAdjust="spacing" textLength="366" x="391.5" y="63.8555">Online Food Ordering System</text><rect fill="#FFFFFF" filter="url(#fjdm74qtfg417)" height="122.5659" rx="6" ry="6" style="stroke:#000000;stroke-width:1.0;" width="495.5" x="35" y="419.8838"/><path d="M35,467.4824 L530.5,467.4824 L530.5,536.4497 A6,6 0 0 1 524.5,542.4497 L41,542.4497 A6,6 0 0 1 35,536.4497 L35,467.4824 " fill="#FFFFFF" style="stroke:none;stroke-width:1.0;"/><rect fill="#FFFFFF" filter="url(#fjdm74qtfg417)" height="197.1646" rx="6" ry="6" style="stroke:#000000;stroke-width:1.0;" width="515.5" x="25" y="556.4497"/><rect fill="#FFFFFF" filter="url(#fjdm74qtfg417)" height="92.7666" rx="6" ry="6" style="stroke:#000000;stroke-width:1.0;" width="495.5" x="35" y="653.8477"/><path d="M35,701.4463 L530.5,701.4463 L530.5,740.6143 A6,6 0 0 1 524.5,746.6143 L41,746.6143 A6,6 0 0 1 35,740.6143 L35,701.4463 " fill="#FFFFFF" style="stroke:none;stroke-width:1.0;"/><rect fill="#FFFFFF" filter="url(#fjdm74qtfg417)" height="122.5659" rx="6" ry="6" style="stroke:#000000;stroke-width:1.0;" width="495.5" x="35" y="911.6108"/><path d="M35,959.2095 L530.5,959.2095 L530.5,1028.1768 A6,6 0 0 1 524.5,1034.1768 L41,1034.1768 A6,6 0 0 1 35,1028.1768 L35,959.2095 " fill="#FFFFFF" style="stroke:none;stroke-width:1.0;"/><rect fill="#FFFFFF" filter="url(#fjdm74qtfg417)" height="77.3979" rx="6" ry="6" style="stroke:#000000;stroke-width:1.0;" width="495.5" x="35" y="1048.1768"/><rect fill="#FFFFFF" filter="url(#fjdm74qtfg417)" height="77.3979" rx="6" ry="6" style="stroke:#000000;stroke-width:1.0;" width="495.5" x="35" y="1139.5747"/><rect fill="#FFFFFF" filter="url(#fjdm74qtfg417)" height="740.4902" rx="6" ry="6" style="stroke:#000000;stroke-width:1.0;" width="1120" x="15" y="1427.7686"/><rect fill="#FFFFFF" filter="url(#fjdm74qtfg417)" height="432.9277" rx="6" ry="6" style="stroke:#000000;stroke-width:1.0;" width="1100" x="25" y="1623.5645"/><rect fill="#FFFFFF" filter="url(#fjdm74qtfg417)" height="136.9966" rx="6" ry="6" style="stroke:#000000;stroke-width:1.0;" width="1080" x="35" y="1678.1631"/><path d="M25,1822.1597 L1125,1822.1597 L1125,1915.9263 A6,6 0 0 1 1119,1921.9263 L31,1921.9263 A6,6 0 0 1 25,1915.9263 L25,1822.1597 " fill="#FFFFFF" style="stroke:none;stroke-width:1.0;"/><path d="M25,1921.9263 L1125,1921.9263 L1125,2050.4922 A6,6 0 0 1 1119,2056.4922 L31,2056.4922 A6,6 0 0 1 25,2050.4922 L25,1921.9263 " fill="#FFFFFF" style="stroke:none;stroke-width:1.0;"/><path d="M15,2063.4922 L1135,2063.4922 L1135,2162.2588 A6,6 0 0 1 1129,2168.2588 L21,2168.2588 A6,6 0 0 1 15,2162.2588 L15,2063.4922 " fill="#FFFFFF" style="stroke:none;stroke-width:1.0;"/><line style="stroke:#000000;stroke-width:1.0;" x1="82" x2="82" y1="160.4893" y2="2185.2588"/><line style="stroke:#000000;stroke-width:1.0;" x1="398.5" x2="398.5" y1="160.4893" y2="2185.2588"/><line style="stroke:#000000;stroke-width:1.0;" x1="701.5" x2="701.5" y1="160.4893" y2="2185.2588"/><line style="stroke:#000000;stroke-width:1.0;" x1="849.5" x2="849.5" y1="160.4893" y2="2185.2588"/><line style="stroke:#000000;stroke-width:1.0;" x1="1020" x2="1020" y1="160.4893" y2="2185.2588"/><text fill="#000000" font-family="Verdana" font-size="14" lengthAdjust="spacing" textLength="69" x="45" y="157.5498">Customer</text><ellipse cx="82.5" cy="88.4746" fill="#FFFFFF" filter="url(#fjdm74qtfg417)" rx="8" ry="8" style="stroke:#000000;stroke-width:1.0;"/><path d="M82.5,96.4746 L82.5,123.4746 M69.5,104.4746 L95.5,104.4746 M82.5,123.4746 L69.5,138.4746 M82.5,123.4746 L95.5,138.4746 " fill="none" filter="url(#fjdm74qtfg417)" style="stroke:#000000;stroke-width:1.0;"/><text fill="#000000" font-family="Verdana" font-size="14" lengthAdjust="spacing" textLength="69" x="45" y="2198.334">Customer</text><ellipse cx="82.5" cy="2210.2734" fill="#FFFFFF" filter="url(#fjdm74qtfg417)" rx="8" ry="8" style="stroke:#000000;stroke-width:1.0;"/><path d="M82.5,2218.2734 L82.5,2245.2734 M69.5,2226.2734 L95.5,2226.2734 M82.5,2245.2734 L69.5,2260.2734 M82.5,2245.2734 L95.5,2260.2734 " fill="none" filter="url(#fjdm74qtfg417)" style="stroke:#000000;stroke-width:1.0;"/><rect fill="#FFFFFF" filter="url(#fjdm74qtfg417)" height="31.0146" rx="6" ry="6" style="stroke:#000000;stroke-width:1.0;" width="221" x="286.5" y="125.4746"/><text fill="#000000" font-family="Verdana" font-size="14" lengthAdjust="spacing" textLength="207" x="293.5" y="146.5498">Online Food Ordering System</text><rect fill="#FFFFFF" filter="url(#fjdm74qtfg417)" height="31.0146" rx="6" ry="6" style="stroke:#000000;stroke-width:1.0;" width="221" x="286.5" y="2184.2588"/><text fill="#000000" font-family="Verdana" font-size="14" lengthAdjust="spacing" textLength="207" x="293.5" y="2205.334">Online Food Ordering System</text><rect fill="#FFFFFF" filter="url(#fjdm74qtfg417)" height="31.0146" rx="6" ry="6" style="stroke:#000000;stroke-width:1.0;" width="139" x="630.5" y="125.4746"/><text fill="#000000" font-family="Verdana" font-size="14" lengthAdjust="spacing" textLength="125" x="637.5" y="146.5498">Payment Gateway</text><rect fill="#FFFFFF" filter="url(#fjdm74qtfg417)" height="31.0146" rx="6" ry="6" style="stroke:#000000;stroke-width:1.0;" width="139" x="630.5" y="2184.2588"/><text fill="#000000" font-family="Verdana" font-size="14" lengthAdjust="spacing" textLength="125" x="637.5" y="2205.334">Payment Gateway</text><rect fill="#FFFFFF" filter="url(#fjdm74qtfg417)" height="31.0146" rx="6" ry="6" style="stroke:#000000;stroke-width:1.0;" width="92" x="802.5" y="125.4746"/><text fill="#000000" font-family="Verdana" font-size="14" lengthAdjust="spacing" textLength="78" x="809.5" y="146.5498">Restaurant</text><rect fill="#FFFFFF" filter="url(#fjdm74qtfg417)" height="31.0146" rx="6" ry="6" style="stroke:#000000;stroke-width:1.0;" width="92" x="802.5" y="2184.2588"/><text fill="#000000" font-family="Verdana" font-size="14" lengthAdjust="spacing" textLength="78" x="809.5" y="2205.334">Restaurant</text><rect fill="#FFFFFF" filter="url(#fjdm74qtfg417)" height="31.0146" rx="6" ry="6" style="stroke:#000000;stroke-width:1.0;" width="147" x="945" y="125.4746"/><text fill="#000000" font-family="Verdana" font-size="14" lengthAdjust="spacing" textLength="133" x="952" y="146.5498">Notification Service</text><rect fill="#FFFFFF" filter="url(#fjdm74qtfg417)" height="31.0146" rx="6" ry="6" style="stroke:#000000;stroke-width:1.0;" width="147" x="945" y="2184.2588"/><text fill="#000000" font-family="Verdana" font-size="14" lengthAdjust="spacing" textLength="133" x="952" y="2205.334">Notification Service</text><rect fill="#FFFFFF" filter="url(#fjdm74qtfg417)" height="3" rx="6" ry="6" style="stroke:#FFFFFF;stroke-width:1.0;" width="1140" x="5" y="191.3889"/><line style="stroke:#000000;stroke-width:0.5;" x1="5" x2="1145" y1="191.3889" y2="191.3889"/><line style="stroke:#000000;stroke-width:0.5;" x1="5" x2="1145" y1="194.3889" y2="194.3889"/><rect fill="#FFFFFF" filter="url(#fjdm74qtfg417)" height="23.7993" rx="6" ry="6" style="stroke:#000000;stroke-width:1.0;" width="161" x="494.5" y="180.4893"/><text fill="#000000" font-family="Verdana" font-size="13" font-weight="bold" lengthAdjust="spacing" textLength="143" x="500.5" y="197.5591">Order Configuration</text><polygon fill="#000000" points="386.5,232.0879,396.5,236.0879,386.5,240.0879,390.5,236.0879" style="stroke:#000000;stroke-width:1.0;"/><line style="stroke:#000000;stroke-width:1.5;" x1="82.5" x2="392.5" y1="236.0879" y2="236.0879"/><text fill="#000000" font-family="Verdana" font-size="13" lengthAdjust="spacing" textLength="211" x="135" y="231.3584">[1] Browse menu &amp; select items</text><line style="stroke:#000000;stroke-width:1.5;" x1="398.5" x2="440.5" y1="271.7869" y2="271.7869"/><line style="stroke:#000000;stroke-width:1.5;" x1="440.5" x2="440.5" y1="271.7869" y2="284.7869"/><line style="stroke:#000000;stroke-width:1.5;" x1="399.5" x2="440.5" y1="284.7869" y2="284.7869"/><polygon fill="#000000" points="409.5,280.7869,399.5,284.7869,409.5,288.7869,405.5,284.7869" style="stroke:#000000;stroke-width:1.0;"/><text fill="#000000" font-family="Verdana" font-size="13" lengthAdjust="spacing" textLength="160" x="405.5" y="267.0574">Validate item availability</text><path d="M577,255.0879 L577,284.0879 A6,6 0 0 0 583,290.0879 L781,290.0879 A6,6 0 0 0 787,284.0879 L787,259.0879 L777,249.0879 L583,249.0879 A6,6 0 0 0 577,255.0879 " fill="#FFFFFF" filter="url(#fjdm74qtfg417)" style="stroke:#000000;stroke-width:1.0;"/><path d="M777,249.0879 L777,256.0879 A3,3 0 0 0 780,259.0879 L787,259.0879 L777,249.0879 " fill="#FFFFFF" style="stroke:#000000;stroke-width:1.0;"/><text fill="#000000" font-family="Verdana" font-size="13" lengthAdjust="spacing" textLength="180" x="592" y="267.1577">Real-time availability check</text><text fill="#000000" font-family="Verdana" font-size="13" lengthAdjust="spacing" textLength="103" x="630.5" y="282.957">during browsing</text><polygon fill="#000000" points="93.5,316.4858,83.5,320.4858,93.5,324.4858,89.5,320.4858" style="stroke:#000000;stroke-width:1.0;"/><line style="stroke:#000000;stroke-width:1.5;stroke-dasharray:2.0,2.0;" x1="87.5" x2="397.5" y1="320.4858" y2="320.4858"/><text fill="#000000" font-family="Verdana" font-size="13" lengthAdjust="spacing" textLength="251" x="115" y="315.7563">Display items with prices &amp; availability</text><polygon fill="#000000" points="386.5,346.2852,396.5,350.2852,386.5,354.2852,390.5,350.2852" style="stroke:#000000;stroke-width:1.0;"/><line style="stroke:#000000;stroke-width:1.5;" x1="82.5" x2="392.5" y1="350.2852" y2="350.2852"/><text fill="#000000" font-family="Verdana" font-size="13" lengthAdjust="spacing" textLength="141" x="170" y="345.5557">[2] Add items to cart</text><line style="stroke:#000000;stroke-width:1.5;" x1="398.5" x2="440.5" y1="385.9841" y2="385.9841"/><line style="stroke:#000000;stroke-width:1.5;" x1="440.5" x2="440.5" y1="385.9841" y2="398.9841"/><line style="stroke:#000000;stroke-width:1.5;" x1="399.5" x2="440.5" y1="398.9841" y2="398.9841"/><polygon fill="#000000" points="409.5,394.9841,399.5,398.9841,409.5,402.9841,405.5,398.9841" style="stroke:#000000;stroke-width:1.0;"/><text fill="#000000" font-family="Verdana" font-size="13" lengthAdjust="spacing" textLength="182" x="405.5" y="381.2546">Re-validate item availability</text><path d="M599,369.2852 L599,398.2852 A6,6 0 0 0 605,404.2852 L768,404.2852 A6,6 0 0 0 774,398.2852 L774,373.2852 L764,363.2852 L605,363.2852 A6,6 0 0 0 599,369.2852 " fill="#FFFFFF" filter="url(#fjdm74qtfg417)" style="stroke:#000000;stroke-width:1.0;"/><path d="M764,363.2852 L764,370.2852 A3,3 0 0 0 767,373.2852 L774,373.2852 L764,363.2852 " fill="#FFFFFF" style="stroke:#000000;stroke-width:1.0;"/><text fill="#000000" font-family="Verdana" font-size="13" lengthAdjust="spacing" textLength="145" x="614" y="381.355">Final validation before</text><text fill="#000000" font-family="Verdana" font-size="13" lengthAdjust="spacing" textLength="94" x="639.5" y="397.1543">adding to cart</text><path d="M41,419.8838 L99,419.8838 L99,427.6831 L89,437.6831 L35,437.6831 L35,425.8838 A6,6 0 0 1 41,419.8838 " fill="#FFFFFF" style="stroke:#000000;stroke-width:1.0;"/><rect fill="none" height="122.5659" rx="6" ry="6" style="stroke:#000000;stroke-width:1.0;" width="495.5" x="35" y="419.8838"/><text fill="#000000" font-family="Verdana" font-size="13" font-weight="bold" lengthAdjust="spacing" textLength="19" x="50" y="433.9536">alt</text><text fill="#000000" font-family="Verdana" font-size="11" font-weight="bold" lengthAdjust="spacing" textLength="114" x="114" y="432.9429">[Items available]</text><polygon fill="#000000" points="93.5,455.4824,83.5,459.4824,93.5,463.4824,89.5,459.4824" style="stroke:#000000;stroke-width:1.0;"/><line style="stroke:#000000;stroke-width:1.5;stroke-dasharray:2.0,2.0;" x1="87.5" x2="397.5" y1="459.4824" y2="459.4824"/><text fill="#000000" font-family="Verdana" font-size="13" lengthAdjust="spacing" textLength="203" x="139" y="454.7529">Items added to cart (success)</text><line style="stroke:#000000;stroke-width:1.0;stroke-dasharray:2.0,2.0;" x1="35" x2="530.5" y1="468.4824" y2="468.4824"/><text fill="#000000" font-family="Verdana" font-size="11" font-weight="bold" lengthAdjust="spacing" textLength="130" x="40" y="479.5415">[Items unavailable]</text><polygon fill="#000000" points="93.5,500.6504,83.5,504.6504,93.5,508.6504,89.5,504.6504" style="stroke:#000000;stroke-width:1.0;"/><line style="stroke:#000000;stroke-width:1.5;stroke-dasharray:2.0,2.0;" x1="87.5" x2="397.5" y1="504.6504" y2="504.6504"/><text fill="#000000" font-family="Verdana" font-size="13" lengthAdjust="spacing" textLength="188" x="146.5" y="499.9209">Show unavailability message</text><polygon fill="#000000" points="386.5,530.4497,396.5,534.4497,386.5,538.4497,390.5,534.4497" style="stroke:#000000;stroke-width:1.0;"/><line style="stroke:#000000;stroke-width:1.5;" x1="82.5" x2="392.5" y1="534.4497" y2="534.4497"/><text fill="#000000" font-family="Verdana" font-size="13" lengthAdjust="spacing" textLength="158" x="161.5" y="529.7202">Select alternative items</text><path d="M31,556.4497 L94,556.4497 L94,564.249 L84,574.249 L25,574.249 L25,562.4497 A6,6 0 0 1 31,556.4497 " fill="#FFFFFF" style="stroke:#000000;stroke-width:1.0;"/><rect fill="none" height="197.1646" rx="6" ry="6" style="stroke:#000000;stroke-width:1.0;" width="515.5" x="25" y="556.4497"/><text fill="#000000" font-family="Verdana" font-size="13" font-weight="bold" lengthAdjust="spacing" textLength="24" x="40" y="570.5195">opt</text><text fill="#000000" font-family="Verdana" font-size="11" font-weight="bold" lengthAdjust="spacing" textLength="101" x="109" y="569.5088">[Apply Coupon]</text><polygon fill="#000000" points="386.5,592.0483,396.5,596.0483,386.5,600.0483,390.5,596.0483" style="stroke:#000000;stroke-width:1.0;"/><line style="stroke:#000000;stroke-width:1.5;" x1="82.5" x2="392.5" y1="596.0483" y2="596.0483"/><text fill="#000000" font-family="Verdana" font-size="13" lengthAdjust="spacing" textLength="125" x="178" y="591.3188">Enter coupon code</text><line style="stroke:#000000;stroke-width:1.5;" x1="398.5" x2="440.5" y1="625.8477" y2="625.8477"/><line style="stroke:#000000;stroke-width:1.5;" x1="440.5" x2="440.5" y1="625.8477" y2="638.8477"/><line style="stroke:#000000;stroke-width:1.5;" x1="399.5" x2="440.5" y1="638.8477" y2="638.8477"/><polygon fill="#000000" points="409.5,634.8477,399.5,638.8477,409.5,642.8477,405.5,638.8477" style="stroke:#000000;stroke-width:1.0;"/><text fill="#000000" font-family="Verdana" font-size="13" lengthAdjust="spacing" textLength="106" x="405.5" y="621.1182">Validate coupon</text><path d="M41,653.8477 L99,653.8477 L99,661.647 L89,671.647 L35,671.647 L35,659.8477 A6,6 0 0 1 41,653.8477 " fill="#FFFFFF" style="stroke:#000000;stroke-width:1.0;"/><rect fill="none" height="92.7666" rx="6" ry="6" style="stroke:#000000;stroke-width:1.0;" width="495.5" x="35" y="653.8477"/><text fill="#000000" font-family="Verdana" font-size="13" font-weight="bold" lengthAdjust="spacing" textLength="19" x="50" y="667.9175">alt</text><text fill="#000000" font-family="Verdana" font-size="11" font-weight="bold" lengthAdjust="spacing" textLength="96" x="114" y="666.9067">[Coupon valid]</text><polygon fill="#000000" points="93.5,689.4463,83.5,693.4463,93.5,697.4463,89.5,693.4463" style="stroke:#000000;stroke-width:1.0;"/><line style="stroke:#000000;stroke-width:1.5;stroke-dasharray:2.0,2.0;" x1="87.5" x2="397.5" y1="693.4463" y2="693.4463"/><text fill="#000000" font-family="Verdana" font-size="13" lengthAdjust="spacing" textLength="218" x="131.5" y="688.7168">Discount applied (amount saved)</text><line style="stroke:#000000;stroke-width:1.0;stroke-dasharray:2.0,2.0;" x1="35" x2="530.5" y1="702.4463" y2="702.4463"/><text fill="#000000" font-family="Verdana" font-size="11" font-weight="bold" lengthAdjust="spacing" textLength="108" x="40" y="713.5054">[Coupon invalid]</text><polygon fill="#000000" points="93.5,734.6143,83.5,738.6143,93.5,742.6143,89.5,738.6143" style="stroke:#000000;stroke-width:1.0;"/><line style="stroke:#000000;stroke-width:1.5;stroke-dasharray:2.0,2.0;" x1="87.5" x2="397.5" y1="738.6143" y2="738.6143"/><text fill="#000000" font-family="Verdana" font-size="13" lengthAdjust="spacing" textLength="208" x="136.5" y="733.8848">Coupon error message (reason)</text><polygon fill="#000000" points="386.5,778.4136,396.5,782.4136,386.5,786.4136,390.5,782.4136" style="stroke:#000000;stroke-width:1.0;"/><line style="stroke:#000000;stroke-width:1.5;" x1="82.5" x2="392.5" y1="782.4136" y2="782.4136"/><text fill="#000000" font-family="Verdana" font-size="13" lengthAdjust="spacing" textLength="163" x="159" y="777.6841">[3] Proceed to checkout</text><polygon fill="#000000" points="93.5,808.2129,83.5,812.2129,93.5,816.2129,89.5,812.2129" style="stroke:#000000;stroke-width:1.0;"/><line style="stroke:#000000;stroke-width:1.5;stroke-dasharray:2.0,2.0;" x1="87.5" x2="397.5" y1="812.2129" y2="812.2129"/><text fill="#000000" font-family="Verdana" font-size="13" lengthAdjust="spacing" textLength="157" x="162" y="807.4834">Request delivery details</text><polygon fill="#000000" points="386.5,838.0122,396.5,842.0122,386.5,846.0122,390.5,842.0122" style="stroke:#000000;stroke-width:1.0;"/><line style="stroke:#000000;stroke-width:1.5;" x1="82.5" x2="392.5" y1="842.0122" y2="842.0122"/><text fill="#000000" font-family="Verdana" font-size="13" lengthAdjust="spacing" textLength="218" x="131.5" y="837.2827">[4] Enter/select delivery address</text><line style="stroke:#000000;stroke-width:1.5;" x1="398.5" x2="440.5" y1="877.7112" y2="877.7112"/><line style="stroke:#000000;stroke-width:1.5;" x1="440.5" x2="440.5" y1="877.7112" y2="890.7112"/><line style="stroke:#000000;stroke-width:1.5;" x1="399.5" x2="440.5" y1="890.7112" y2="890.7112"/><polygon fill="#000000" points="409.5,886.7112,399.5,890.7112,409.5,894.7112,405.5,890.7112" style="stroke:#000000;stroke-width:1.0;"/><text fill="#000000" font-family="Verdana" font-size="13" lengthAdjust="spacing" textLength="165" x="405.5" y="872.9817">Validate delivery address</text><path d="M582,861.0122 L582,890.0122 A6,6 0 0 0 588,896.0122 L795,896.0122 A6,6 0 0 0 801,890.0122 L801,865.0122 L791,855.0122 L588,855.0122 A6,6 0 0 0 582,861.0122 " fill="#FFFFFF" filter="url(#fjdm74qtfg417)" style="stroke:#000000;stroke-width:1.0;"/><path d="M791,855.0122 L791,862.0122 A3,3 0 0 0 794,865.0122 L801,865.0122 L791,855.0122 " fill="#FFFFFF" style="stroke:#000000;stroke-width:1.0;"/><text fill="#000000" font-family="Verdana" font-size="13" lengthAdjust="spacing" textLength="136" x="623.5" y="873.082">Check serviceability,</text><text fill="#000000" font-family="Verdana" font-size="13" lengthAdjust="spacing" textLength="189" x="597" y="888.8813">delivery zones, and distance</text><path d="M41,911.6108 L99,911.6108 L99,919.4102 L89,929.4102 L35,929.4102 L35,917.6108 A6,6 0 0 1 41,911.6108 " fill="#FFFFFF" style="stroke:#000000;stroke-width:1.0;"/><rect fill="none" height="122.5659" rx="6" ry="6" style="stroke:#000000;stroke-width:1.0;" width="495.5" x="35" y="911.6108"/><text fill="#000000" font-family="Verdana" font-size="13" font-weight="bold" lengthAdjust="spacing" textLength="19" x="50" y="925.6807">alt</text><text fill="#000000" font-family="Verdana" font-size="11" font-weight="bold" lengthAdjust="spacing" textLength="145" x="114" y="924.6699">[Address serviceable]</text><polygon fill="#000000" points="93.5,947.2095,83.5,951.2095,93.5,955.2095,89.5,951.2095" style="stroke:#000000;stroke-width:1.0;"/><line style="stroke:#000000;stroke-width:1.5;stroke-dasharray:2.0,2.0;" x1="87.5" x2="397.5" y1="951.2095" y2="951.2095"/><text fill="#000000" font-family="Verdana" font-size="13" lengthAdjust="spacing" textLength="292" x="94.5" y="946.48">Address confirmed (estimated delivery time)</text><line style="stroke:#000000;stroke-width:1.0;stroke-dasharray:2.0,2.0;" x1="35" x2="530.5" y1="960.2095" y2="960.2095"/><text fill="#000000" font-family="Verdana" font-size="11" font-weight="bold" lengthAdjust="spacing" textLength="170" x="40" y="971.2686">[Address not serviceable]</text><polygon fill="#000000" points="93.5,992.3774,83.5,996.3774,93.5,1000.3774,89.5,996.3774" style="stroke:#000000;stroke-width:1.0;"/><line style="stroke:#000000;stroke-width:1.5;stroke-dasharray:2.0,2.0;" x1="87.5" x2="397.5" y1="996.3774" y2="996.3774"/><text fill="#000000" font-family="Verdana" font-size="13" lengthAdjust="spacing" textLength="250" x="115.5" y="991.6479">Service unavailable message (reason)</text><polygon fill="#000000" points="386.5,1022.1768,396.5,1026.1768,386.5,1030.1768,390.5,1026.1768" style="stroke:#000000;stroke-width:1.0;"/><line style="stroke:#000000;stroke-width:1.5;" x1="82.5" x2="392.5" y1="1026.1768" y2="1026.1768"/><text fill="#000000" font-family="Verdana" font-size="13" lengthAdjust="spacing" textLength="152" x="164.5" y="1021.4473">Enter different address</text><path d="M41,1048.1768 L104,1048.1768 L104,1055.9761 L94,1065.9761 L35,1065.9761 L35,1054.1768 A6,6 0 0 1 41,1048.1768 " fill="#FFFFFF" style="stroke:#000000;stroke-width:1.0;"/><rect fill="none" height="77.3979" rx="6" ry="6" style="stroke:#000000;stroke-width:1.0;" width="495.5" x="35" y="1048.1768"/><text fill="#000000" font-family="Verdana" font-size="13" font-weight="bold" lengthAdjust="spacing" textLength="24" x="50" y="1062.2466">opt</text><text fill="#000000" font-family="Verdana" font-size="11" font-weight="bold" lengthAdjust="spacing" textLength="112" x="119" y="1061.2358">[Schedule Order]</text><polygon fill="#000000" points="386.5,1083.7754,396.5,1087.7754,386.5,1091.7754,390.5,1087.7754" style="stroke:#000000;stroke-width:1.0;"/><line style="stroke:#000000;stroke-width:1.5;" x1="82.5" x2="392.5" y1="1087.7754" y2="1087.7754"/><text fill="#000000" font-family="Verdana" font-size="13" lengthAdjust="spacing" textLength="131" x="175" y="1083.0459">Select delivery time</text><polygon fill="#000000" points="93.5,1113.5747,83.5,1117.5747,93.5,1121.5747,89.5,1117.5747" style="stroke:#000000;stroke-width:1.0;"/><line style="stroke:#000000;stroke-width:1.5;stroke-dasharray:2.0,2.0;" x1="87.5" x2="397.5" y1="1117.5747" y2="1117.5747"/><text fill="#000000" font-family="Verdana" font-size="13" lengthAdjust="spacing" textLength="153" x="164" y="1112.8452">Confirm scheduled time</text><path d="M41,1139.5747 L104,1139.5747 L104,1147.374 L94,1157.374 L35,1157.374 L35,1145.5747 A6,6 0 0 1 41,1139.5747 " fill="#FFFFFF" style="stroke:#000000;stroke-width:1.0;"/><rect fill="none" height="77.3979" rx="6" ry="6" style="stroke:#000000;stroke-width:1.0;" width="495.5" x="35" y="1139.5747"/><text fill="#000000" font-family="Verdana" font-size="13" font-weight="bold" lengthAdjust="spacing" textLength="24" x="50" y="1153.6445">opt</text><text fill="#000000" font-family="Verdana" font-size="11" font-weight="bold" lengthAdjust="spacing" textLength="61" x="119" y="1152.6338">[Add Tip]</text><polygon fill="#000000" points="386.5,1175.1733,396.5,1179.1733,386.5,1183.1733,390.5,1179.1733" style="stroke:#000000;stroke-width:1.0;"/><line style="stroke:#000000;stroke-width:1.5;" x1="82.5" x2="392.5" y1="1179.1733" y2="1179.1733"/><text fill="#000000" font-family="Verdana" font-size="13" lengthAdjust="spacing" textLength="112" x="184.5" y="1174.4438">Add tip for driver</text><polygon fill="#000000" points="93.5,1204.9727,83.5,1208.9727,93.5,1212.9727,89.5,1208.9727" style="stroke:#000000;stroke-width:1.0;"/><line style="stroke:#000000;stroke-width:1.5;stroke-dasharray:2.0,2.0;" x1="87.5" x2="397.5" y1="1208.9727" y2="1208.9727"/><text fill="#000000" font-family="Verdana" font-size="13" lengthAdjust="spacing" textLength="245" x="118" y="1204.2432">Tip added to total (updated amount)</text><line style="stroke:#000000;stroke-width:1.5;" x1="398.5" x2="440.5" y1="1251.6716" y2="1251.6716"/><line style="stroke:#000000;stroke-width:1.5;" x1="440.5" x2="440.5" y1="1251.6716" y2="1264.6716"/><line style="stroke:#000000;stroke-width:1.5;" x1="399.5" x2="440.5" y1="1264.6716" y2="1264.6716"/><polygon fill="#000000" points="409.5,1260.6716,399.5,1264.6716,409.5,1268.6716,405.5,1264.6716" style="stroke:#000000;stroke-width:1.0;"/><text fill="#000000" font-family="Verdana" font-size="13" lengthAdjust="spacing" textLength="129" x="405.5" y="1246.9421">Calculate final total</text><path d="M546,1234.9727 L546,1263.9727 A6,6 0 0 0 552,1269.9727 L769,1269.9727 A6,6 0 0 0 775,1263.9727 L775,1238.9727 L765,1228.9727 L552,1228.9727 A6,6 0 0 0 546,1234.9727 " fill="#FFFFFF" filter="url(#fjdm74qtfg417)" style="stroke:#000000;stroke-width:1.0;"/><path d="M765,1228.9727 L765,1235.9727 A3,3 0 0 0 768,1238.9727 L775,1238.9727 L765,1228.9727 " fill="#FFFFFF" style="stroke:#000000;stroke-width:1.0;"/><text fill="#000000" font-family="Verdana" font-size="13" lengthAdjust="spacing" textLength="199" x="561" y="1247.0425">Subtotal + Tax + Delivery Fee</text><text fill="#000000" font-family="Verdana" font-size="13" lengthAdjust="spacing" textLength="108" x="606.5" y="1262.8418">+ Tip - Discount</text><polygon fill="#000000" points="93.5,1296.3706,83.5,1300.3706,93.5,1304.3706,89.5,1300.3706" style="stroke:#000000;stroke-width:1.0;"/><line style="stroke:#000000;stroke-width:1.5;stroke-dasharray:2.0,2.0;" x1="87.5" x2="397.5" y1="1300.3706" y2="1300.3706"/><text fill="#000000" font-family="Verdana" font-size="13" lengthAdjust="spacing" textLength="223" x="129" y="1295.6411">[5] Display order summary &amp; total</text><rect fill="#FFFFFF" filter="url(#fjdm74qtfg417)" height="3" rx="6" ry="6" style="stroke:#FFFFFF;stroke-width:1.0;" width="1140" x="5" y="1329.2703"/><line style="stroke:#000000;stroke-width:0.5;" x1="5" x2="1145" y1="1329.2703" y2="1329.2703"/><line style="stroke:#000000;stroke-width:0.5;" x1="5" x2="1145" y1="1332.2703" y2="1332.2703"/><rect fill="#FFFFFF" filter="url(#fjdm74qtfg417)" height="23.7993" rx="6" ry="6" style="stroke:#000000;stroke-width:1.0;" width="83" x="533.5" y="1318.3706"/><text fill="#000000" font-family="Verdana" font-size="13" font-weight="bold" lengthAdjust="spacing" textLength="65" x="539.5" y="1335.4404">Payment</text><polygon fill="#000000" points="386.5,1369.9692,396.5,1373.9692,386.5,1377.9692,390.5,1373.9692" style="stroke:#000000;stroke-width:1.0;"/><line style="stroke:#000000;stroke-width:1.5;" x1="82.5" x2="392.5" y1="1373.9692" y2="1373.9692"/><text fill="#000000" font-family="Verdana" font-size="13" lengthAdjust="spacing" textLength="239" x="121" y="1369.2397">[6] Confirm order &amp; initiate payment</text><polygon fill="#000000" points="689.5,1404.2686,699.5,1408.2686,689.5,1412.2686,693.5,1408.2686" style="stroke:#000000;stroke-width:1.0;"/><line style="stroke:#000000;stroke-width:1.5;" x1="398.5" x2="695.5" y1="1408.2686" y2="1408.2686"/><text fill="#000000" font-family="Verdana" font-size="13" lengthAdjust="spacing" textLength="193" x="453.5" y="1403.5391">[7] Process payment request</text><path d="M706,1392.9692 L706,1405.9692 A6,6 0 0 0 712,1411.9692 L817,1411.9692 A6,6 0 0 0 823,1405.9692 L823,1396.9692 L813,1386.9692 L712,1386.9692 A6,6 0 0 0 706,1392.9692 " fill="#FFFFFF" filter="url(#fjdm74qtfg417)" style="stroke:#000000;stroke-width:1.0;"/><path d="M813,1386.9692 L813,1393.9692 A3,3 0 0 0 816,1396.9692 L823,1396.9692 L813,1386.9692 " fill="#FFFFFF" style="stroke:#000000;stroke-width:1.0;"/><text fill="#000000" font-family="Verdana" font-size="13" lengthAdjust="spacing" textLength="87" x="721" y="1405.0391">Timeout: 30s</text><path d="M21,1427.7686 L79,1427.7686 L79,1435.5679 L69,1445.5679 L15,1445.5679 L15,1433.7686 A6,6 0 0 1 21,1427.7686 " fill="#FFFFFF" style="stroke:#000000;stroke-width:1.0;"/><rect fill="none" height="740.4902" rx="6" ry="6" style="stroke:#000000;stroke-width:1.0;" width="1120" x="15" y="1427.7686"/><text fill="#000000" font-family="Verdana" font-size="13" font-weight="bold" lengthAdjust="spacing" textLength="19" x="30" y="1441.8384">alt</text><text fill="#000000" font-family="Verdana" font-size="11" font-weight="bold" lengthAdjust="spacing" textLength="141" x="94" y="1440.8276">[Payment successful]</text><polygon fill="#000000" points="409.5,1463.3672,399.5,1467.3672,409.5,1471.3672,405.5,1467.3672" style="stroke:#000000;stroke-width:1.0;"/><line style="stroke:#000000;stroke-width:1.5;stroke-dasharray:2.0,2.0;" x1="403.5" x2="700.5" y1="1467.3672" y2="1467.3672"/><text fill="#000000" font-family="Verdana" font-size="13" lengthAdjust="spacing" textLength="279" x="410.5" y="1462.6377">[8] Payment confirmation (transaction ID)</text><rect fill="#FFFFFF" filter="url(#fjdm74qtfg417)" height="3" rx="6" ry="6" style="stroke:#FFFFFF;stroke-width:1.0;" width="1140" x="5" y="1496.2668"/><line style="stroke:#000000;stroke-width:0.5;" x1="5" x2="1145" y1="1496.2668" y2="1496.2668"/><line style="stroke:#000000;stroke-width:0.5;" x1="5" x2="1145" y1="1499.2668" y2="1499.2668"/><rect fill="#FFFFFF" filter="url(#fjdm74qtfg417)" height="23.7993" rx="6" ry="6" style="stroke:#000000;stroke-width:1.0;" width="140" x="505" y="1485.3672"/><text fill="#000000" font-family="Verdana" font-size="13" font-weight="bold" lengthAdjust="spacing" textLength="122" x="511" y="1502.437">Order Fulfillment</text><line style="stroke:#000000;stroke-width:1.5;" x1="398.5" x2="440.5" y1="1540.9658" y2="1540.9658"/><line style="stroke:#000000;stroke-width:1.5;" x1="440.5" x2="440.5" y1="1540.9658" y2="1553.9658"/><line style="stroke:#000000;stroke-width:1.5;" x1="399.5" x2="440.5" y1="1553.9658" y2="1553.9658"/><polygon fill="#000000" points="409.5,1549.9658,399.5,1553.9658,409.5,1557.9658,405.5,1553.9658" style="stroke:#000000;stroke-width:1.0;"/><text fill="#000000" font-family="Verdana" font-size="13" lengthAdjust="spacing" textLength="237" x="405.5" y="1536.2363">[9] Create order record (Confirmed)</text><polygon fill="#000000" points="838,1592.1648,848,1596.1648,838,1600.1648,842,1596.1648" style="stroke:#000000;stroke-width:1.0;"/><line style="stroke:#000000;stroke-width:1.5;" x1="398.5" x2="844" y1="1596.1648" y2="1596.1648"/><text fill="#000000" font-family="Verdana" font-size="13" lengthAdjust="spacing" textLength="153" x="547.75" y="1591.4353">[10] Send order details</text><path d="M855,1572.9658 L855,1601.9658 A6,6 0 0 0 861,1607.9658 L1063,1607.9658 A6,6 0 0 0 1069,1601.9658 L1069,1576.9658 L1059,1566.9658 L861,1566.9658 A6,6 0 0 0 855,1572.9658 " fill="#FFFFFF" filter="url(#fjdm74qtfg417)" style="stroke:#000000;stroke-width:1.0;"/><path d="M1059,1566.9658 L1059,1573.9658 A3,3 0 0 0 1062,1576.9658 L1069,1576.9658 L1059,1566.9658 " fill="#FFFFFF" style="stroke:#000000;stroke-width:1.0;"/><text fill="#000000" font-family="Verdana" font-size="13" lengthAdjust="spacing" textLength="110" x="907" y="1585.0356">Timeout: 60s for</text><text fill="#000000" font-family="Verdana" font-size="13" lengthAdjust="spacing" textLength="184" x="870" y="1600.835">restaurant acknowledgment</text><path d="M31,1623.5645 L89,1623.5645 L89,1631.3638 L79,1641.3638 L25,1641.3638 L25,1629.5645 A6,6 0 0 1 31,1623.5645 " fill="#FFFFFF" style="stroke:#000000;stroke-width:1.0;"/><rect fill="none" height="432.9277" rx="6" ry="6" style="stroke:#000000;stroke-width:1.0;" width="1100" x="25" y="1623.5645"/><text fill="#000000" font-family="Verdana" font-size="13" font-weight="bold" lengthAdjust="spacing" textLength="19" x="40" y="1637.6343">alt</text><text fill="#000000" font-family="Verdana" font-size="11" font-weight="bold" lengthAdjust="spacing" textLength="137" x="104" y="1636.6235">[Restaurant accepts]</text><polygon fill="#000000" points="409.5,1659.1631,399.5,1663.1631,409.5,1667.1631,405.5,1663.1631" style="stroke:#000000;stroke-width:1.0;"/><line style="stroke:#000000;stroke-width:1.5;stroke-dasharray:2.0,2.0;" x1="403.5" x2="849" y1="1663.1631" y2="1663.1631"/><text fill="#000000" font-family="Verdana" font-size="13" lengthAdjust="spacing" textLength="228" x="510.25" y="1658.4336">Order accepted (preparation time)</text><path d="M41,1678.1631 L104,1678.1631 L104,1685.9624 L94,1695.9624 L35,1695.9624 L35,1684.1631 A6,6 0 0 1 41,1678.1631 " fill="#FFFFFF" style="stroke:#000000;stroke-width:1.0;"/><rect fill="none" height="136.9966" rx="6" ry="6" style="stroke:#000000;stroke-width:1.0;" width="1080" x="35" y="1678.1631"/><text fill="#000000" font-family="Verdana" font-size="13" font-weight="bold" lengthAdjust="spacing" textLength="24" x="50" y="1692.2329">par</text><text fill="#000000" font-family="Verdana" font-size="11" font-weight="bold" lengthAdjust="spacing" textLength="94" x="119" y="1691.2222">[Notifications]</text><polygon fill="#000000" points="1008,1713.7617,1018,1717.7617,1008,1721.7617,1012,1717.7617" style="stroke:#000000;stroke-width:1.0;"/><line style="stroke:#000000;stroke-width:1.5;" x1="398.5" x2="1014" y1="1717.7617" y2="1717.7617"/><text fill="#000000" font-family="Verdana" font-size="13" lengthAdjust="spacing" textLength="218" x="600.25" y="1713.0322">[11] Send customer confirmation</text><polygon fill="#000000" points="93.5,1743.561,83.5,1747.561,93.5,1751.561,89.5,1747.561" style="stroke:#000000;stroke-width:1.0;"/><line style="stroke:#000000;stroke-width:1.5;stroke-dasharray:2.0,2.0;" x1="87.5" x2="1019" y1="1747.561" y2="1747.561"/><text fill="#000000" font-family="Verdana" font-size="13" lengthAdjust="spacing" textLength="213" x="444.75" y="1742.8315">Order confirmed (Order ID, ETA)</text><polygon fill="#000000" points="1008,1773.3604,1018,1777.3604,1008,1781.3604,1012,1777.3604" style="stroke:#000000;stroke-width:1.0;"/><line style="stroke:#000000;stroke-width:1.5;" x1="398.5" x2="1014" y1="1777.3604" y2="1777.3604"/><text fill="#000000" font-family="Verdana" font-size="13" lengthAdjust="spacing" textLength="175" x="621.75" y="1772.6309">[12] Send restaurant alert</text><polygon fill="#000000" points="861,1803.1597,851,1807.1597,861,1811.1597,857,1807.1597" style="stroke:#000000;stroke-width:1.0;"/><line style="stroke:#000000;stroke-width:1.5;stroke-dasharray:2.0,2.0;" x1="855" x2="1019" y1="1807.1597" y2="1807.1597"/><text fill="#000000" font-family="Verdana" font-size="13" lengthAdjust="spacing" textLength="146" x="862" y="1802.4302">New order notification</text><line style="stroke:#000000;stroke-width:1.0;stroke-dasharray:2.0,2.0;" x1="25" x2="1125" y1="1823.1597" y2="1823.1597"/><text fill="#000000" font-family="Verdana" font-size="11" font-weight="bold" lengthAdjust="spacing" textLength="192" x="30" y="1834.2188">[Restaurant doesn't respond]</text><line style="stroke:#000000;stroke-width:1.5;stroke-dasharray:2.0,2.0;" x1="398.5" x2="440.5" y1="1865.2273" y2="1865.2273"/><line style="stroke:#000000;stroke-width:1.5;stroke-dasharray:2.0,2.0;" x1="440.5" x2="440.5" y1="1865.2273" y2="1878.2273"/><line style="stroke:#000000;stroke-width:1.5;stroke-dasharray:2.0,2.0;" x1="399.5" x2="440.5" y1="1878.2273" y2="1878.2273"/><polygon fill="#000000" points="409.5,1874.2273,399.5,1878.2273,409.5,1882.2273,405.5,1878.2273" style="stroke:#000000;stroke-width:1.0;"/><text fill="#000000" font-family="Verdana" font-size="13" lengthAdjust="spacing" textLength="169" x="405.5" y="1860.4978">Auto-escalation triggered</text><path d="M586,1848.5283 L586,1877.5283 A6,6 0 0 0 592,1883.5283 L754,1883.5283 A6,6 0 0 0 760,1877.5283 L760,1852.5283 L750,1842.5283 L592,1842.5283 A6,6 0 0 0 586,1848.5283 " fill="#FFFFFF" filter="url(#fjdm74qtfg417)" style="stroke:#000000;stroke-width:1.0;"/><path d="M750,1842.5283 L750,1849.5283 A3,3 0 0 0 753,1852.5283 L760,1852.5283 L750,1842.5283 " fill="#FFFFFF" style="stroke:#000000;stroke-width:1.0;"/><text fill="#000000" font-family="Verdana" font-size="13" lengthAdjust="spacing" textLength="112" x="617" y="1860.5981">Retry or reassign</text><text fill="#000000" font-family="Verdana" font-size="13" lengthAdjust="spacing" textLength="144" x="601" y="1876.3975">to another restaurant</text><polygon fill="#000000" points="93.5,1909.9263,83.5,1913.9263,93.5,1917.9263,89.5,1913.9263" style="stroke:#000000;stroke-width:1.0;"/><line style="stroke:#000000;stroke-width:1.5;stroke-dasharray:2.0,2.0;" x1="87.5" x2="397.5" y1="1913.9263" y2="1913.9263"/><text fill="#000000" font-family="Verdana" font-size="13" lengthAdjust="spacing" textLength="265" x="108" y="1909.1968">Delay notification (issue being resolved)</text><line style="stroke:#000000;stroke-width:1.0;stroke-dasharray:2.0,2.0;" x1="25" x2="1125" y1="1922.9263" y2="1922.9263"/><text fill="#000000" font-family="Verdana" font-size="11" font-weight="bold" lengthAdjust="spacing" textLength="133" x="30" y="1933.9854">[Restaurant rejects]</text><polygon fill="#000000" points="409.5,1955.0942,399.5,1959.0942,409.5,1963.0942,405.5,1959.0942" style="stroke:#000000;stroke-width:1.0;"/><line style="stroke:#000000;stroke-width:1.5;stroke-dasharray:2.0,2.0;" x1="403.5" x2="849" y1="1959.0942" y2="1959.0942"/><text fill="#000000" font-family="Verdana" font-size="13" lengthAdjust="spacing" textLength="157" x="545.75" y="1954.3647">Order rejected (reason)</text><polygon fill="#000000" points="689.5,1984.8936,699.5,1988.8936,689.5,1992.8936,693.5,1988.8936" style="stroke:#000000;stroke-width:1.0;"/><line style="stroke:#000000;stroke-width:1.5;" x1="398.5" x2="695.5" y1="1988.8936" y2="1988.8936"/><text fill="#000000" font-family="Verdana" font-size="13" lengthAdjust="spacing" textLength="94" x="503" y="1984.1641">Initiate refund</text><polygon fill="#000000" points="409.5,2014.6929,399.5,2018.6929,409.5,2022.6929,405.5,2018.6929" style="stroke:#000000;stroke-width:1.0;"/><line style="stroke:#000000;stroke-width:1.5;stroke-dasharray:2.0,2.0;" x1="403.5" x2="700.5" y1="2018.6929" y2="2018.6929"/><text fill="#000000" font-family="Verdana" font-size="13" lengthAdjust="spacing" textLength="117" x="491.5" y="2013.9634">Refund processed</text><polygon fill="#000000" points="93.5,2044.4922,83.5,2048.4922,93.5,2052.4922,89.5,2048.4922" style="stroke:#000000;stroke-width:1.0;"/><line style="stroke:#000000;stroke-width:1.5;stroke-dasharray:2.0,2.0;" x1="87.5" x2="397.5" y1="2048.4922" y2="2048.4922"/><text fill="#000000" font-family="Verdana" font-size="13" lengthAdjust="spacing" textLength="241" x="120" y="2043.7627">Order cancelled (refund notification)</text><line style="stroke:#000000;stroke-width:1.0;stroke-dasharray:2.0,2.0;" x1="15" x2="1135" y1="2064.4922" y2="2064.4922"/><text fill="#000000" font-family="Verdana" font-size="11" font-weight="bold" lengthAdjust="spacing" textLength="110" x="20" y="2075.5513">[Payment failed]</text><polygon fill="#000000" points="409.5,2096.6602,399.5,2100.6602,409.5,2104.6602,405.5,2100.6602" style="stroke:#000000;stroke-width:1.0;"/><line style="stroke:#000000;stroke-width:1.5;stroke-dasharray:2.0,2.0;" x1="403.5" x2="700.5" y1="2100.6602" y2="2100.6602"/><text fill="#000000" font-family="Verdana" font-size="13" lengthAdjust="spacing" textLength="187" x="456.5" y="2095.9307">Payment failure (error code)</text><polygon fill="#000000" points="93.5,2126.4595,83.5,2130.4595,93.5,2134.4595,89.5,2130.4595" style="stroke:#000000;stroke-width:1.0;"/><line style="stroke:#000000;stroke-width:1.5;stroke-dasharray:2.0,2.0;" x1="87.5" x2="397.5" y1="2130.4595" y2="2130.4595"/><text fill="#000000" font-family="Verdana" font-size="13" lengthAdjust="spacing" textLength="220" x="130.5" y="2125.73">Payment failed message (reason)</text><polygon fill="#000000" points="386.5,2156.2588,396.5,2160.2588,386.5,2164.2588,390.5,2160.2588" style="stroke:#000000;stroke-width:1.0;"/><line style="stroke:#000000;stroke-width:1.5;" x1="82.5" x2="392.5" y1="2160.2588" y2="2160.2588"/><text fill="#000000" font-family="Verdana" font-size="13" lengthAdjust="spacing" textLength="163" x="159" y="2155.5293">Retry payment or cancel</text><!--SRC=[bLTBKnj74Bxlh-ZuGAGoIW37Ja8LgLB0kBZO55Bv0ZeCEorfmcXcCmzavTUdvx4lB0cPWn2x_Vow- -lc9xV45K8bcL25VHAgOeQjm2uPrskX5k2CnyuBextYfJOA3PoUTLwCZT7hwLAKJmgjXTDVtdTUSfmpBzqKlxcn50krGkMWf0yqHU64amYtafK8NmmdmoEuGiU4H0uJ_DUZeZTNWYs2gS74iITSQXa4lmfS3n_K5oM5GhZMcYSB8V39nZfS5Qnqsi2bjqwlo1l5uqGfAaO1lDcZzmQOhKtqT6xP9aR_YJbSiqsKoy_oevxy7Lh7lA6lVJEVjHDpKJ8djA8apRCeCThgliZFY-BY8YDpgTLSBCXUrBkuAEh4OFHN3XVEuVvq1dzJEIm2nUNX22nAB1q8Uc-BBDVL-Cgau1H-b03sJE2pHo65snHAqsCZ5ajtJjamENA26gOh0kKIowS7nNq4y35ufY-D7tBKX7bEXRJKRPiK2wo5Mq9bA4jBOVOSxyZjR0PZphEwqr0IhDjIkiFHys5PNGl596JXWEiZphN11yKuZoEGdJ3fu2QwpQOa5a0_s_FCafnJ5sSBCB2-f4pji419nKaYNXrYRhBKwrOquRuYKsoHjBQ2DKbbfy3HAChj6NCBeE95eIi7uwgI6sehNscrsyx7CAbGHYdwnVk1RkkZihKOO4iE4iRnuUv4gJz8cMQ4KMY2m1kmLVpRicVamwWTqSisXJh4QXP6OYbJumO3WyngbMqI916MxMttRWQtHfUOgnawNdkteyVl0cjPHxmd2NEpeI-1p-mkux_D4iI_vZbjzAXz30MxTsI_4-xszcK8bCO_4adkcsCQrLhdFqrqVGnCSU22g8geDlRvEDbgDVSsPorT1deogr0qIb-iA3pUnXU88tT-hK2X7kWYSs5tMhRNSKy3Sp6VemdiNKFLpC64Aigzp1lerOdgvLJiQxi82DXidYU5Tlo8oQQYskql23XH0H4IS1Dyxl56bbh2STeHgmrynMCLqX0Da-ijxNJ9PEbbwATvfCEetckbYNzCDj_2b7sZpwiQX6iaidmRtO-Q-Tqn6lVlPyqAq76dMRzQCR9ob7s6RLTlsPqRxiEimJPPEI8Y44w41AgatCcolw23_kzvdAa7ipYODBIzdATKBHhpStXtGiCR1gEEB3FvtCjOa1SUHhrW_vWrQdb2qfuPE3eCB5qeuO-RgzI_yQDP-DTUpeMKDHWxQFV-JuA3Xe02JsWOf1kDfl2o7iZX2zNsBedtmicCEfiu86dNR1LKjgBnuSI6ZdnGfZN3wFBJQshnHGI_IIM0TjSLAx5ojg7hpgiUQ2dz91tuf38ORia8LIAIsaBpXTxtpgVMIJ_tBITM1E4qWr3M7TSjLi_MDWil-Zp5to74zE3cwXW-JiV37mpjB8VMnLkYSGT5rQlrPrpdAgkEU6Cdq4CFs4ZN7GjSerK_Xscnj52thjsMlBpJ8xGbaxbkr4SB8k1MgtzSEXCu0GARM_eluK4HZJ4IMSQERWxfL-u73DJIJGu6mbgFTDQ5QuuCQTc_93hf6Vo7-FtGzapIeRhT3TGlwNVSSrFpbC6vxo2uZqBkeYWTof6oyBLh9pTVsEPIfl2YVXULzkg9jOv0r2mrZ_zylKfiNN5lQ0-dyoeSYCCzQwhlvGUsUEgGcgzrdM7SQVy3]--></g></svg>