<?xml version="1.0" encoding="us-ascii" standalone="no"?><svg xmlns="http://www.w3.org/2000/svg" xmlns:xlink="http://www.w3.org/1999/xlink" contentStyleType="text/css" height="980px" preserveAspectRatio="none" style="width:1053px;height:980px;background:#FFFFFF;" version="1.1" viewBox="0 0 1053 980" width="1053px" zoomAndPan="magnify"><defs><filter height="300%" id="f1tqq2vzxhvx67" width="300%" x="-1" y="-1"><feGaussianBlur result="blurOut" stdDeviation="2.0"/><feColorMatrix in="blurOut" result="blurOut2" type="matrix" values="0 0 0 0 0 0 0 0 0 0 0 0 0 0 0 0 0 0 .4 0"/><feOffset dx="4.0" dy="4.0" in="blurOut2" result="blurOut3"/><feBlend in="SourceGraphic" in2="blurOut3" mode="normal"/></filter></defs><g><text fill="#000000" font-family="Verdana" font-size="22" font-weight="bold" lengthAdjust="spacing" textLength="802" x="124.25" y="37.1182">Place Order - High-Level Sequence Diagram (Stakeholder View)</text><text fill="#000000" font-family="Verdana" font-size="22" font-weight="bold" lengthAdjust="spacing" textLength="366" x="342.25" y="63.8555">Online Food Ordering System</text><rect fill="#FFFFFF" filter="url(#f1tqq2vzxhvx67)" height="718.1543" style="stroke:#000000;stroke-width:1.0;" width="10" x="67.5" y="170.4893"/><rect fill="#FFFFFF" filter="url(#f1tqq2vzxhvx67)" height="652.5557" style="stroke:#000000;stroke-width:1.0;" width="10" x="324.5" y="236.0879"/><rect fill="#FFFFFF" filter="url(#f1tqq2vzxhvx67)" height="59.0986" style="stroke:#000000;stroke-width:1.0;" width="10" x="625.5" y="433.3838"/><rect fill="#FFFFFF" filter="url(#f1tqq2vzxhvx67)" height="34.2993" style="stroke:#000000;stroke-width:1.0;" width="10" x="774" y="613.3804"/><rect fill="#FFFFFF" filter="url(#f1tqq2vzxhvx67)" height="29.7993" style="stroke:#000000;stroke-width:1.0;" width="10" x="926.5" y="702.2783"/><rect fill="#FFFFFF" filter="url(#f1tqq2vzxhvx67)" height="29.7993" style="stroke:#000000;stroke-width:1.0;" width="10" x="926.5" y="761.877"/><rect fill="#FFFFFF" filter="url(#f1tqq2vzxhvx67)" height="428.7598" rx="6" ry="6" style="stroke:#000000;stroke-width:1.0;" width="1021.5" x="15" y="452.8838"/><rect fill="#FFFFFF" filter="url(#f1tqq2vzxhvx67)" height="136.9966" rx="6" ry="6" style="stroke:#000000;stroke-width:1.0;" width="1001.5" x="25" y="662.6797"/><path d="M15,806.6763 L1036.5,806.6763 L1036.5,875.6436 A6,6 0 0 1 1030.5,881.6436 L21,881.6436 A6,6 0 0 1 15,875.6436 L15,806.6763 " fill="#FFFFFF" style="stroke:none;stroke-width:1.0;"/><line style="stroke:#000000;stroke-width:1.0;" x1="72" x2="72" y1="160.4893" y2="898.6436"/><line style="stroke:#000000;stroke-width:1.0;" x1="329.5" x2="329.5" y1="160.4893" y2="898.6436"/><line style="stroke:#000000;stroke-width:1.0;" x1="630.5" x2="630.5" y1="160.4893" y2="898.6436"/><line style="stroke:#000000;stroke-width:1.0;" x1="778.5" x2="778.5" y1="160.4893" y2="898.6436"/><line style="stroke:#000000;stroke-width:1.0;" x1="931.5" x2="931.5" y1="160.4893" y2="898.6436"/><text fill="#000000" font-family="Verdana" font-size="14" lengthAdjust="spacing" textLength="69" x="35" y="157.5498">Customer</text><ellipse cx="72.5" cy="88.4746" fill="#FFFFFF" filter="url(#f1tqq2vzxhvx67)" rx="8" ry="8" style="stroke:#000000;stroke-width:1.0;"/><path d="M72.5,96.4746 L72.5,123.4746 M59.5,104.4746 L85.5,104.4746 M72.5,123.4746 L59.5,138.4746 M72.5,123.4746 L85.5,138.4746 " fill="none" filter="url(#f1tqq2vzxhvx67)" style="stroke:#000000;stroke-width:1.0;"/><text fill="#000000" font-family="Verdana" font-size="14" lengthAdjust="spacing" textLength="69" x="35" y="911.7188">Customer</text><ellipse cx="72.5" cy="923.6582" fill="#FFFFFF" filter="url(#f1tqq2vzxhvx67)" rx="8" ry="8" style="stroke:#000000;stroke-width:1.0;"/><path d="M72.5,931.6582 L72.5,958.6582 M59.5,939.6582 L85.5,939.6582 M72.5,958.6582 L59.5,973.6582 M72.5,958.6582 L85.5,973.6582 " fill="none" filter="url(#f1tqq2vzxhvx67)" style="stroke:#000000;stroke-width:1.0;"/><rect fill="#FFFFFF" filter="url(#f1tqq2vzxhvx67)" height="31.0146" rx="6" ry="6" style="stroke:#000000;stroke-width:1.0;" width="221" x="217.5" y="125.4746"/><text fill="#000000" font-family="Verdana" font-size="14" lengthAdjust="spacing" textLength="207" x="224.5" y="146.5498">Online Food Ordering System</text><rect fill="#FFFFFF" filter="url(#f1tqq2vzxhvx67)" height="31.0146" rx="6" ry="6" style="stroke:#000000;stroke-width:1.0;" width="221" x="217.5" y="897.6436"/><text fill="#000000" font-family="Verdana" font-size="14" lengthAdjust="spacing" textLength="207" x="224.5" y="918.7188">Online Food Ordering System</text><rect fill="#FFFFFF" filter="url(#f1tqq2vzxhvx67)" height="31.0146" rx="6" ry="6" style="stroke:#000000;stroke-width:1.0;" width="139" x="559.5" y="125.4746"/><text fill="#000000" font-family="Verdana" font-size="14" lengthAdjust="spacing" textLength="125" x="566.5" y="146.5498">Payment Gateway</text><rect fill="#FFFFFF" filter="url(#f1tqq2vzxhvx67)" height="31.0146" rx="6" ry="6" style="stroke:#000000;stroke-width:1.0;" width="139" x="559.5" y="897.6436"/><text fill="#000000" font-family="Verdana" font-size="14" lengthAdjust="spacing" textLength="125" x="566.5" y="918.7188">Payment Gateway</text><rect fill="#FFFFFF" filter="url(#f1tqq2vzxhvx67)" height="31.0146" rx="6" ry="6" style="stroke:#000000;stroke-width:1.0;" width="92" x="731.5" y="125.4746"/><text fill="#000000" font-family="Verdana" font-size="14" lengthAdjust="spacing" textLength="78" x="738.5" y="146.5498">Restaurant</text><rect fill="#FFFFFF" filter="url(#f1tqq2vzxhvx67)" height="31.0146" rx="6" ry="6" style="stroke:#000000;stroke-width:1.0;" width="92" x="731.5" y="897.6436"/><text fill="#000000" font-family="Verdana" font-size="14" lengthAdjust="spacing" textLength="78" x="738.5" y="918.7188">Restaurant</text><rect fill="#FFFFFF" filter="url(#f1tqq2vzxhvx67)" height="31.0146" rx="6" ry="6" style="stroke:#000000;stroke-width:1.0;" width="147" x="856.5" y="125.4746"/><text fill="#000000" font-family="Verdana" font-size="14" lengthAdjust="spacing" textLength="133" x="863.5" y="146.5498">Notification Service</text><rect fill="#FFFFFF" filter="url(#f1tqq2vzxhvx67)" height="31.0146" rx="6" ry="6" style="stroke:#000000;stroke-width:1.0;" width="147" x="856.5" y="897.6436"/><text fill="#000000" font-family="Verdana" font-size="14" lengthAdjust="spacing" textLength="133" x="863.5" y="918.7188">Notification Service</text><rect fill="#FFFFFF" filter="url(#f1tqq2vzxhvx67)" height="718.1543" style="stroke:#000000;stroke-width:1.0;" width="10" x="67.5" y="170.4893"/><rect fill="#FFFFFF" filter="url(#f1tqq2vzxhvx67)" height="652.5557" style="stroke:#000000;stroke-width:1.0;" width="10" x="324.5" y="236.0879"/><rect fill="#FFFFFF" filter="url(#f1tqq2vzxhvx67)" height="59.0986" style="stroke:#000000;stroke-width:1.0;" width="10" x="625.5" y="433.3838"/><rect fill="#FFFFFF" filter="url(#f1tqq2vzxhvx67)" height="34.2993" style="stroke:#000000;stroke-width:1.0;" width="10" x="774" y="613.3804"/><rect fill="#FFFFFF" filter="url(#f1tqq2vzxhvx67)" height="29.7993" style="stroke:#000000;stroke-width:1.0;" width="10" x="926.5" y="702.2783"/><rect fill="#FFFFFF" filter="url(#f1tqq2vzxhvx67)" height="29.7993" style="stroke:#000000;stroke-width:1.0;" width="10" x="926.5" y="761.877"/><rect fill="#FFFFFF" filter="url(#f1tqq2vzxhvx67)" height="3" rx="6" ry="6" style="stroke:#FFFFFF;stroke-width:1.0;" width="1041.5" x="5" y="191.3889"/><line style="stroke:#000000;stroke-width:0.5;" x1="5" x2="1046.5" y1="191.3889" y2="191.3889"/><line style="stroke:#000000;stroke-width:0.5;" x1="5" x2="1046.5" y1="194.3889" y2="194.3889"/><rect fill="#FFFFFF" filter="url(#f1tqq2vzxhvx67)" height="23.7993" rx="6" ry="6" style="stroke:#000000;stroke-width:1.0;" width="161" x="445.25" y="180.4893"/><text fill="#000000" font-family="Verdana" font-size="13" font-weight="bold" lengthAdjust="spacing" textLength="143" x="451.25" y="197.5591">Order Configuration</text><polygon fill="#000000" points="312.5,232.0879,322.5,236.0879,312.5,240.0879,316.5,236.0879" style="stroke:#000000;stroke-width:1.0;"/><line style="stroke:#000000;stroke-width:1.5;" x1="77.5" x2="318.5" y1="236.0879" y2="236.0879"/><text fill="#000000" font-family="Verdana" font-size="13" lengthAdjust="spacing" textLength="209" x="96.5" y="231.3584">[1] Select items &amp; manage cart</text><polygon fill="#000000" points="88.5,261.8872,78.5,265.8872,88.5,269.8872,84.5,265.8872" style="stroke:#000000;stroke-width:1.0;"/><line style="stroke:#000000;stroke-width:1.5;stroke-dasharray:2.0,2.0;" x1="82.5" x2="323.5" y1="265.8872" y2="265.8872"/><text fill="#000000" font-family="Verdana" font-size="13" lengthAdjust="spacing" textLength="78" x="162" y="261.1577">Display cart</text><polygon fill="#000000" points="312.5,291.6865,322.5,295.6865,312.5,299.6865,316.5,295.6865" style="stroke:#000000;stroke-width:1.0;"/><line style="stroke:#000000;stroke-width:1.5;" x1="77.5" x2="318.5" y1="295.6865" y2="295.6865"/><text fill="#000000" font-family="Verdana" font-size="13" lengthAdjust="spacing" textLength="179" x="111.5" y="290.957">[2] Select delivery address</text><polygon fill="#000000" points="88.5,321.4858,78.5,325.4858,88.5,329.4858,84.5,325.4858" style="stroke:#000000;stroke-width:1.0;"/><line style="stroke:#000000;stroke-width:1.5;stroke-dasharray:2.0,2.0;" x1="82.5" x2="323.5" y1="325.4858" y2="325.4858"/><text fill="#000000" font-family="Verdana" font-size="13" lengthAdjust="spacing" textLength="223" x="89.5" y="320.7563">[3] Display order summary &amp; total</text><rect fill="#FFFFFF" filter="url(#f1tqq2vzxhvx67)" height="3" rx="6" ry="6" style="stroke:#FFFFFF;stroke-width:1.0;" width="1041.5" x="5" y="354.3855"/><line style="stroke:#000000;stroke-width:0.5;" x1="5" x2="1046.5" y1="354.3855" y2="354.3855"/><line style="stroke:#000000;stroke-width:0.5;" x1="5" x2="1046.5" y1="357.3855" y2="357.3855"/><rect fill="#FFFFFF" filter="url(#f1tqq2vzxhvx67)" height="23.7993" rx="6" ry="6" style="stroke:#000000;stroke-width:1.0;" width="83" x="484.25" y="343.4858"/><text fill="#000000" font-family="Verdana" font-size="13" font-weight="bold" lengthAdjust="spacing" textLength="65" x="490.25" y="360.5557">Payment</text><polygon fill="#000000" points="312.5,395.0845,322.5,399.0845,312.5,403.0845,316.5,399.0845" style="stroke:#000000;stroke-width:1.0;"/><line style="stroke:#000000;stroke-width:1.5;" x1="77.5" x2="318.5" y1="399.0845" y2="399.0845"/><text fill="#000000" font-family="Verdana" font-size="13" lengthAdjust="spacing" textLength="156" x="123" y="394.355">[4] Confirm order &amp; pay</text><polygon fill="#000000" points="613.5,429.3838,623.5,433.3838,613.5,437.3838,617.5,433.3838" style="stroke:#000000;stroke-width:1.0;"/><line style="stroke:#000000;stroke-width:1.5;" x1="334.5" x2="619.5" y1="433.3838" y2="433.3838"/><text fill="#000000" font-family="Verdana" font-size="13" lengthAdjust="spacing" textLength="138" x="411" y="428.6543">[5] Process payment</text><path d="M640,418.0845 L640,431.0845 A6,6 0 0 0 646,437.0845 L751,437.0845 A6,6 0 0 0 757,431.0845 L757,422.0845 L747,412.0845 L646,412.0845 A6,6 0 0 0 640,418.0845 " fill="#FFFFFF" filter="url(#f1tqq2vzxhvx67)" style="stroke:#000000;stroke-width:1.0;"/><path d="M747,412.0845 L747,419.0845 A3,3 0 0 0 750,422.0845 L757,422.0845 L747,412.0845 " fill="#FFFFFF" style="stroke:#000000;stroke-width:1.0;"/><text fill="#000000" font-family="Verdana" font-size="13" lengthAdjust="spacing" textLength="87" x="655" y="430.1543">Timeout: 30s</text><path d="M21,452.8838 L79,452.8838 L79,460.6831 L69,470.6831 L15,470.6831 L15,458.8838 A6,6 0 0 1 21,452.8838 " fill="#FFFFFF" style="stroke:#000000;stroke-width:1.0;"/><rect fill="none" height="428.7598" rx="6" ry="6" style="stroke:#000000;stroke-width:1.0;" width="1021.5" x="15" y="452.8838"/><text fill="#000000" font-family="Verdana" font-size="13" font-weight="bold" lengthAdjust="spacing" textLength="19" x="30" y="466.9536">alt</text><text fill="#000000" font-family="Verdana" font-size="11" font-weight="bold" lengthAdjust="spacing" textLength="141" x="94" y="465.9429">[Payment successful]</text><polygon fill="#000000" points="345.5,488.4824,335.5,492.4824,345.5,496.4824,341.5,492.4824" style="stroke:#000000;stroke-width:1.0;"/><line style="stroke:#000000;stroke-width:1.5;stroke-dasharray:2.0,2.0;" x1="339.5" x2="629.5" y1="492.4824" y2="492.4824"/><text fill="#000000" font-family="Verdana" font-size="13" lengthAdjust="spacing" textLength="267" x="349" y="487.7529">[6] Payment successful (transaction ID)</text><rect fill="#FFFFFF" filter="url(#f1tqq2vzxhvx67)" height="3" rx="6" ry="6" style="stroke:#FFFFFF;stroke-width:1.0;" width="1041.5" x="5" y="521.3821"/><line style="stroke:#000000;stroke-width:0.5;" x1="5" x2="1046.5" y1="521.3821" y2="521.3821"/><line style="stroke:#000000;stroke-width:0.5;" x1="5" x2="1046.5" y1="524.3821" y2="524.3821"/><rect fill="#FFFFFF" filter="url(#f1tqq2vzxhvx67)" height="23.7993" rx="6" ry="6" style="stroke:#000000;stroke-width:1.0;" width="140" x="455.75" y="510.4824"/><text fill="#000000" font-family="Verdana" font-size="13" font-weight="bold" lengthAdjust="spacing" textLength="122" x="461.75" y="527.5522">Order Fulfillment</text><line style="stroke:#000000;stroke-width:1.5;" x1="334.5" x2="376.5" y1="566.0811" y2="566.0811"/><line style="stroke:#000000;stroke-width:1.5;" x1="376.5" x2="376.5" y1="566.0811" y2="579.0811"/><line style="stroke:#000000;stroke-width:1.5;" x1="335.5" x2="376.5" y1="579.0811" y2="579.0811"/><polygon fill="#000000" points="345.5,575.0811,335.5,579.0811,345.5,583.0811,341.5,579.0811" style="stroke:#000000;stroke-width:1.0;"/><text fill="#000000" font-family="Verdana" font-size="13" lengthAdjust="spacing" textLength="155" x="341.5" y="561.3516">[7] Create order record</text><polygon fill="#000000" points="762,609.3804,772,613.3804,762,617.3804,766,613.3804" style="stroke:#000000;stroke-width:1.0;"/><line style="stroke:#000000;stroke-width:1.5;" x1="334.5" x2="768" y1="613.3804" y2="613.3804"/><text fill="#000000" font-family="Verdana" font-size="13" lengthAdjust="spacing" textLength="145" x="481.75" y="608.6509">[8] Send order details</text><path d="M789,598.0811 L789,611.0811 A6,6 0 0 0 795,617.0811 L900,617.0811 A6,6 0 0 0 906,611.0811 L906,602.0811 L896,592.0811 L795,592.0811 A6,6 0 0 0 789,598.0811 " fill="#FFFFFF" filter="url(#f1tqq2vzxhvx67)" style="stroke:#000000;stroke-width:1.0;"/><path d="M896,592.0811 L896,599.0811 A3,3 0 0 0 899,602.0811 L906,602.0811 L896,592.0811 " fill="#FFFFFF" style="stroke:#000000;stroke-width:1.0;"/><text fill="#000000" font-family="Verdana" font-size="13" lengthAdjust="spacing" textLength="87" x="804" y="610.1509">Timeout: 60s</text><polygon fill="#000000" points="345.5,643.6797,335.5,647.6797,345.5,651.6797,341.5,647.6797" style="stroke:#000000;stroke-width:1.0;"/><line style="stroke:#000000;stroke-width:1.5;stroke-dasharray:2.0,2.0;" x1="339.5" x2="778" y1="647.6797" y2="647.6797"/><text fill="#000000" font-family="Verdana" font-size="13" lengthAdjust="spacing" textLength="94" x="509.75" y="642.9502">Acknowledged</text><path d="M31,662.6797 L94,662.6797 L94,670.479 L84,680.479 L25,680.479 L25,668.6797 A6,6 0 0 1 31,662.6797 " fill="#FFFFFF" style="stroke:#000000;stroke-width:1.0;"/><rect fill="none" height="136.9966" rx="6" ry="6" style="stroke:#000000;stroke-width:1.0;" width="1001.5" x="25" y="662.6797"/><text fill="#000000" font-family="Verdana" font-size="13" font-weight="bold" lengthAdjust="spacing" textLength="24" x="40" y="676.7495">par</text><text fill="#000000" font-family="Verdana" font-size="11" font-weight="bold" lengthAdjust="spacing" textLength="94" x="109" y="675.7388">[Notifications]</text><polygon fill="#000000" points="914.5,698.2783,924.5,702.2783,914.5,706.2783,918.5,702.2783" style="stroke:#000000;stroke-width:1.0;"/><line style="stroke:#000000;stroke-width:1.5;" x1="334.5" x2="920.5" y1="702.2783" y2="702.2783"/><text fill="#000000" font-family="Verdana" font-size="13" lengthAdjust="spacing" textLength="210" x="525.5" y="697.5488">[9] Send customer confirmation</text><polygon fill="#000000" points="88.5,728.0776,78.5,732.0776,88.5,736.0776,84.5,732.0776" style="stroke:#000000;stroke-width:1.0;"/><line style="stroke:#000000;stroke-width:1.5;stroke-dasharray:2.0,2.0;" x1="82.5" x2="930.5" y1="732.0776" y2="732.0776"/><text fill="#000000" font-family="Verdana" font-size="13" lengthAdjust="spacing" textLength="213" x="398" y="727.3481">Order confirmed (Order ID, ETA)</text><polygon fill="#000000" points="914.5,757.877,924.5,761.877,914.5,765.877,918.5,761.877" style="stroke:#000000;stroke-width:1.0;"/><line style="stroke:#000000;stroke-width:1.5;" x1="334.5" x2="920.5" y1="761.877" y2="761.877"/><text fill="#000000" font-family="Verdana" font-size="13" lengthAdjust="spacing" textLength="175" x="543" y="757.1475">[10] Send restaurant alert</text><polygon fill="#000000" points="790,787.6763,780,791.6763,790,795.6763,786,791.6763" style="stroke:#000000;stroke-width:1.0;"/><line style="stroke:#000000;stroke-width:1.5;stroke-dasharray:2.0,2.0;" x1="784" x2="930.5" y1="791.6763" y2="791.6763"/><text fill="#000000" font-family="Verdana" font-size="13" lengthAdjust="spacing" textLength="65" x="822.75" y="786.9468">Alert sent</text><line style="stroke:#000000;stroke-width:1.0;stroke-dasharray:2.0,2.0;" x1="15" x2="1036.5" y1="807.6763" y2="807.6763"/><text fill="#000000" font-family="Verdana" font-size="11" font-weight="bold" lengthAdjust="spacing" textLength="110" x="20" y="818.7354">[Payment failed]</text><polygon fill="#000000" points="345.5,839.8442,335.5,843.8442,345.5,847.8442,341.5,843.8442" style="stroke:#000000;stroke-width:1.0;"/><line style="stroke:#000000;stroke-width:1.5;stroke-dasharray:2.0,2.0;" x1="339.5" x2="629.5" y1="843.8442" y2="843.8442"/><text fill="#000000" font-family="Verdana" font-size="13" lengthAdjust="spacing" textLength="170" x="397.5" y="839.1147">[6] Payment failed (error)</text><polygon fill="#000000" points="88.5,869.6436,78.5,873.6436,88.5,877.6436,84.5,873.6436" style="stroke:#000000;stroke-width:1.0;"/><line style="stroke:#000000;stroke-width:1.5;stroke-dasharray:2.0,2.0;" x1="82.5" x2="323.5" y1="873.6436" y2="873.6436"/><text fill="#000000" font-family="Verdana" font-size="13" lengthAdjust="spacing" textLength="188" x="107" y="868.9141">Payment error (retry option)</text><!--SRC=[hLLDJnin4BtlhvXoe45gAWA5jaX1Yg2qI5L19Ue5Sh3isOs5rqvjRqB-VSUxtgzeeLHg3f4rutbltdnut_WbvWWhnQHEtAFKAsPP3cx9XDb8dO6t1NOSrXHQS6CrMfWSTHmpQyrclfJyKQDpC7b_qd4AJ5cX_1oV_4p9JEUeFN3wGviaNdg5SAiOHxYnWe37y4rco_5tNAE2E_nTe2RVfMHP01lTUVQ8IwF2rLyIDmSF-aOhgH6kZ14LHaZzRkiyvad2k3SMBWhdJKw4b9ANNAuOvR3tGk0UC5TZz69ksROKy9LvtB1jUI_Qegbt_oSwpmfBnpxC3-DbAZdpqcXIQTUIOudLTKHxaaodiJWNHgSo8xmoRZeDykIQU5k5zG76vr40dC7zP44i2ha7IHO7-v0ppJ84JbcrA55nZ1iJH0DtHZrmD2hRAcIOvgYX4QZa6kqMc12MXk8PpFlZHODhIecko7D6SVlWZMUg55yNdGGFytvOLAMnUKJPXnLrekOytsbH23bPmAqrFCphgd8csb09B4sVFuEvpD4KT3W-T6rzTZgTCEMRv5p10rfQg0JejyCuxkLxkXW8Wv6dGN61Z9fxVNbGuWXybZsucz6uAbGgbQhh57oj_9Rv8rNAOa2h2cMH5bhiN6-dDeHy2atL8WO8z4mgLqOC5kpqi78sQNTs8DWxuBsYpEZrC1k58aEngxm3KRfebtgRKZ7sHGniKb3pEQhXzI3nQd3AUmrCmpoqZ_Mb8OQT-Qvw4obGmAWoN5- -Wo_psK43rT7w4kFhPKuEeqxRbfifjFx_IEnDo2pWWaFj_qKF9PSag5mprv3IOCNUltPxgX0O8Ns1xDyMfbkuVfjgk186HXOzlK1c5LAkGDzMiwumfGbl0ZdJKDsDJyY3DgMLqxUhN9UaLDb9ARwm7KlpSly1]--></g></svg>